<?xml version="1.0" encoding="utf-8"?>
<!-- Generator: Adobe Illustrator 24.1.0, SVG Export Plug-In . SVG Version: 6.00 Build 0)  -->
<svg version="1.1" id="Ebene_1" xmlns="http://www.w3.org/2000/svg" xmlns:xlink="http://www.w3.org/1999/xlink" x="0px" y="0px"
	 viewBox="0 0 512 512" style="enable-background:new 0 0 512 512;" xml:space="preserve">
<style type="text/css">
	.st0{fill:#FFE16D;}
	.st1{fill:#5D92AF;}
	.st2{fill:#273635;}
	.st3{fill:#7AA66C;}
	.st4{fill:#BFE3B3;}
	.st5{fill:#60958C;}
	.st6{fill:#99C389;}
	.st7{fill:#497B72;}
	.st8{fill:#31655D;}
	.st9{fill:#BA3143;}
	.st10{fill:#DA545F;}
	.st11{fill:#8EC3AE;}
	.st12{fill:#A5C697;}
	.st13{fill:#628C53;}
	.st14{fill:#BBCBC5;}
	.st15{fill:#4A86A4;}
	.st16{fill:#F56E76;}
	.st17{fill:#95C5AD;}
	.st18{fill:#7AAD97;}
	.st19{fill:#A1B5AE;}
	.st20{fill:#80A86F;}
	.st21{fill:#AFD2A3;}
	.st22{fill:#71A8C6;}
	.st23{fill:none;stroke:#60958C;stroke-width:40;stroke-miterlimit:10;}
	.st24{fill:#FFB1B6;}
</style>
<circle class="st0" cx="266.2" cy="256.6" r="161.5"/>
<path class="st11" d="M297.7,384.4c-0.1-1.9-0.1-3.7-0.1-5.5c0-1.8,0.1-3.5,0-5.3c0-1.8,0-3.5,0-5.2l0-1.3l0-1.3l0-2.5l0-2.5
	c0-0.8,0-1.6,0-2.5c-0.1-1.6-0.1-3.3-0.1-4.8l0-1.2l-0.1-1.2l-0.1-2.4c-0.1-1.6-0.1-3.1-0.2-4.7c-0.1-1.6-0.2-3.1-0.3-4.6
	c-0.1-1.5-0.3-3.1-0.4-4.6l-0.2-2.3l-0.3-2.3l-0.3-2.3c-0.1-0.8-0.1-1.5-0.3-2.2c-0.8-6-1.8-11.9-3-17.8
	c-2.4-11.8-5.5-23.6-9.1-35.9c-1.8-6.1-3.7-12.4-5.7-18.8c-1.9-6.5-4-13-6-20.2c3.5,1.4,6.7,3.3,9.7,5.4c3,2.1,5.9,4.3,8.6,6.8
	c5.4,4.9,10.3,10.4,14.5,16.4c4.2,6,7.8,12.4,10.7,19.2c2.9,6.8,5.2,13.9,6.6,21.3c1.4,7.4,2.1,14.9,2,22.4c0,1.9-0.2,3.8-0.3,5.6
	c-0.1,0.9-0.1,1.9-0.2,2.8l-0.4,2.8c-0.3,1.9-0.5,3.7-0.9,5.5c-0.4,1.8-0.8,3.7-1.3,5.5c-2,7.2-4.8,14.2-8.6,20.5
	C307.9,373.7,303.3,379.5,297.7,384.4z"/>
<ellipse class="st2" cx="300.2" cy="391.3" rx="61.3" ry="9"/>
<path class="st14" d="M297.4,400.9C297.4,400.9,297.4,400.9,297.4,400.9l-0.1-0.1l0,0C296.4,400.9,296.9,400.9,297.4,400.9
	L297.4,400.9L297.4,400.9z"/>
<path class="st1" d="M300.2,400.4c-33.8,0-61.3-4-61.3-9v28.4c0,5,27.4,9,61.3,9s61.3-4,61.3-9v-28.4
	C361.5,396.3,334,400.4,300.2,400.4z"/>
<path class="st5" d="M303,383.9c0.5-2.2,1.2-4.3,1.8-6.3l1-3l0.9-3c0.6-2,1.3-3.9,1.9-5.7c0.6-1.9,1.2-3.8,1.9-5.6
	c0.3-0.9,0.6-1.8,1-2.7c0.3-0.9,0.6-1.8,0.9-2.7c0.6-1.8,1.2-3.6,1.9-5.3l1.8-5.3l0.9-2.6c0.3-0.9,0.6-1.8,0.8-2.6
	c0.6-1.7,1.2-3.4,1.8-5.1c0.5-1.7,1.1-3.4,1.7-5.1c0.6-1.7,1.1-3.4,1.7-5.1l0.8-2.5c0.3-0.8,0.6-1.7,0.8-2.5
	c0.5-1.7,1.1-3.4,1.7-5.1c0.5-1.7,1.1-3.4,1.6-5.1c0.6-1.7,1.1-3.4,1.6-5.1c0.5-1.7,1.1-3.4,1.6-5.1c4.3-13.5,8.4-27.2,13-41.4
	c2.3-7.1,4.8-14.3,7.4-21.7c1.4-3.7,2.7-7.5,4.3-11.3c1.5-3.8,3.1-7.7,4.9-11.8c2.6,3.7,4.6,7.6,6.3,11.5c1.7,3.9,3.1,8,4.3,12
	c2.3,8.1,3.7,16.5,4.2,24.8c0.6,8.4,0.3,16.8-0.8,25.1c-1.1,8.3-2.8,16.6-5.4,24.7c-5.1,16.1-13.2,31.6-24.3,44.6
	c-0.7,0.8-1.4,1.6-2.1,2.4l-2.2,2.3c-1.5,1.5-3,3.1-4.5,4.5c-1.6,1.4-3.2,2.8-4.9,4.2c-1.6,1.4-3.4,2.7-5.1,3.9
	c-1.8,1.2-3.5,2.5-5.3,3.6c-1.9,1.1-3.7,2.1-5.7,3.1c-1,0.5-1.9,1-2.9,1.4l-3,1.3C307.2,382.5,305.1,383.3,303,383.9z"/>
<path class="st5" d="M295.6,406.2c-3.3-14.8,0.8-27.7,12.5-39.2l3.5,3.6c-10.5,10.3-14,21.3-11.1,34.5L295.6,406.2z"/>
<circle class="st16" cx="229.7" cy="263.1" r="21"/>
<path class="st17" d="M222.7,302.1c0.8-16-13-29-29-29c-9.2,0-17.4,4.3-22.7,11c0,0-31.3,42-15.3,76s64,7,64,7s27,0,27-15
	c0-13-8-24-33-16C213.7,336.1,221.7,321.1,222.7,302.1z"/>
<path class="st17" d="M198.7,365.1c0,0-26,26-29,39c-3,13-3,18,9,18s24,0,24,0s8-6-2-10c-10-4,42.8-40,43.9-53.5
	s-19.9-15.5-19.9-15.5L198.7,365.1z"/>
<path class="st18" d="M173.7,296.1c0,0-3.1,41.3,42,66c42,23,55,21,56,15s-37-11-54-34c-17-23-12-41-19-52S174.7,285.1,173.7,296.1z
	"/>
</svg>
