<?xml version="1.0" encoding="utf-8"?>
<!-- Generator: Adobe Illustrator 24.1.0, SVG Export Plug-In . SVG Version: 6.00 Build 0)  -->
<svg version="1.1" id="Ebene_1" xmlns="http://www.w3.org/2000/svg" xmlns:xlink="http://www.w3.org/1999/xlink" x="0px" y="0px"
	 viewBox="0 0 500 500" style="enable-background:new 0 0 500 500;" xml:space="preserve">
<style type="text/css">
	.st0{fill:#BBCBC5;}
	.st1{fill:#FFE16D;}
	.st2{fill:#F56E76;}
	.st3{fill:#A1B5AE;}
	.st4{fill:#80A86F;}
	.st5{fill:#628C53;}
	.st6{fill:#AFD2A3;}
	.st7{fill:#60958C;}
	.st8{fill:#71A8C6;}
</style>
<path class="st0" d="M295.7,442.8L295.7,442.8l-0.1-0.1l0,0C294.5,442.9,295.1,442.9,295.7,442.8L295.7,442.8L295.7,442.8z"/>
<g>
	<path class="st1" d="M250,93.2c-75.8,0-144.5,61.5-144.5,137.3S144.1,377.9,250,458.6c121.8-92.8,144.5-152.3,144.5-228.1
		S325.9,93.2,250,93.2z"/>
	<path class="st2" d="M144.1,232.9L144.1,232.9c-1-3.2,0.8-6.6,3.9-7.6l102.4-32.2c1.2-0.4,2.5-0.4,3.7,0l97,32.1
		c3.2,1,4.9,4.5,3.8,7.6l0,0c-1,3.2-4.5,4.9-7.6,3.8L254,205.8c-1.2-0.4-2.5-0.4-3.7,0l-98.7,31
		C148.5,237.8,145.1,236.1,144.1,232.9z"/>
	<g>
		<path class="st0" d="M310.8,62c0.2,1.9,0.1,3.8-0.3,5.6c-0.1,0.9-0.4,1.8-0.6,2.8c-0.3,0.9-0.5,1.8-0.8,2.7
			c-1.3,3.6-3.1,6.9-5.3,10c-2.2,3.1-4.9,5.9-7.7,8.4c-0.7,0.6-1.5,1.2-2.2,1.8l-1.1,0.9l-0.9,0.7l-1.8,1.4l-1.8,1.6
			c-4.8,4.1-9.4,8.9-14,13.7c-4.7,4.9-9.4,9.9-14.8,15c0.2-1.9,0.5-3.7,1-5.4c0.4-1.8,1-3.5,1.6-5.2c1.2-3.4,2.7-6.7,4.5-10
			c3.5-6.4,8-12.3,13.8-17.3l2.2-1.8l2.4-1.7l1.2-0.8c0.4-0.3,0.7-0.5,1-0.7c0.7-0.4,1.3-0.9,2-1.3c2.6-1.8,5.2-3.6,7.7-5.7
			c2.5-2,4.9-4.2,7.3-6.6C306.3,67.6,308.6,65,310.8,62z"/>
		<path class="st0" d="M217.7,51.6c1.6,3.4,3.3,6.3,5.1,9.2c1.8,2.8,3.8,5.4,5.8,7.9s4.2,4.8,6.4,7.1c0.6,0.5,1.2,1.1,1.7,1.7
			c0.3,0.3,0.5,0.5,0.9,0.9l1,1l2,2.1l1.8,2.2c4.7,6,7.9,12.8,10.2,19.7c1.1,3.5,1.9,7,2.4,10.6c0.2,1.8,0.4,3.6,0.5,5.5
			c0.1,1.8,0.1,3.7-0.1,5.5c-4.3-6-7.9-11.9-11.6-17.6c-3.6-5.7-7.2-11.2-11.1-16.2l-1.4-1.9l-1.5-1.8l-0.7-0.9l-0.9-1.1
			c-0.6-0.7-1.2-1.4-1.8-2.2c-2.3-3-4.4-6.3-5.9-9.7c-1.5-3.5-2.7-7.1-3.2-10.9c-0.1-0.9-0.2-1.9-0.3-2.8c0-0.9-0.1-1.9,0-2.8
			C216.9,55.2,217.1,53.3,217.7,51.6z"/>
		<path class="st0" d="M263.5,90.8c0.2-0.1,0.2,0,0.2,0.1c0,0,0.1,0.1,0.1,0.2c0.1,0.1,0.1,0.3,0.2,0.4c0.1,0.3,0.2,0.6,0.4,0.9
			l0.7,1.7c0.2,0.6,0.5,1.2,0.7,1.7c0.2,0.6,0.5,1.2,0.6,1.7c0.9,2.3,1.5,4.5,2.2,6.7c1.3,4.4,2.1,8.7,2.6,13
			c0.2,2.1,0.4,4.3,0.5,6.4c0.1,2.1,0.1,4.2,0,6.3c0,4.1-0.7,8-2.3,12c-1.6,3.9-4.1,7.9-6.3,12.1c-0.6,1-1.1,2.1-1.6,3.1
			c-0.5,1.1-1,2.1-1.4,3.2c-0.8,2.1-1.4,4.3-1.7,6.5c-0.3,2.2-0.4,4.3-0.3,6.5s0.4,4.3,0.8,6.5c0.9,4.4,2.6,8.7,4.5,13.2
			c1.9,4.4,3.9,8.9,5.2,13.4c0.7,2.3,1.2,4.5,1.5,6.8c0.4,2.3,0.6,4.5,0.9,6.8l0.4,3.4c0.1,1.1,0.2,2.4,0.3,3.6
			c0.1,1.2,0.2,2.4,0.3,3.6c0.1,1.2,0.1,2.4,0.2,3.6c0,2.4,0,4.8-0.2,7.2s16.8,64.5-1.1,60.1c7-0.4-1.2,4.6-1.9,6.9
			c-0.7,2.3-1.6,4.5-2.5,6.8c-0.9,2.2-2,4.4-3.1,6.6c-1.2,2.1-2.4,4.3-3.7,6.3c-2.7,4.1-5.8,8.1-9.4,11.7c-0.9,0.9-1.8,1.8-2.8,2.7
			c-0.5,0.4-1,0.9-1.5,1.3l9.1-5.3c-2.1,1.6-14.2,2.3-16.9,3.6l-7.2-2.4c-1.6-5.3-5.2-0.2-6-4.8c-0.8-4.6-3.2-5.3-3.6-9.6
			c-0.2-2.2,0.1-10,0-12c-0.2-2.1,0.1-5.2,0-7.2c-0.1-2.1,2.4,0.8,2.4-1.2c-14.7,4.8,3.9-60.6,4.1-62.6c0.1-2,0.3-3.9,0.7-5.9
			c0.3-2,0.7-3.9,1.1-5.8c0.5-1.9,0.9-3.9,1.4-5.9c0.2-1,0.5-1.9,0.8-3l0.7-3.1l1.4-6.3c0.5-2.1,1.1-4.2,1.9-6.3
			c1.5-4.2,3.5-8.4,5.3-12.7s3.4-8.6,4.1-13c0.4-2.2,0.6-4.4,0.6-6.6c0-2.2-0.1-4.4-0.5-6.6c-0.7-4.4-2.6-8.8-4.6-13.4
			c-1-2.3-2.1-4.6-3-7c-1-2.3-1.7-4.7-2.2-7.1c-0.5-2.4-0.7-4.7-0.7-7.1c0-2.4,0.5-4.7,0.9-7c0.5-2.2,1-4.4,1.7-6.6
			c0.7-2.2,1.5-4.4,2.4-6.6c1.9-4.3,4.3-8.6,7.5-12.8c1.6-2,3.4-4.1,5.4-6c1-1,2.1-1.9,3.4-2.8c0.6-0.4,1.3-0.9,2-1.3
			c0.3-0.2,0.7-0.4,1.1-0.6c0.2-0.1,0.4-0.2,0.6-0.3c0.1,0,0.2-0.1,0.3-0.2c0.1-0.1,0.2-0.1,0.5-0.3L263.5,90.8z"/>
		<path class="st0" d="M258.1,132.9c-2.3,0.9-4.9,1.3-7.4,1.4c-2.5,0.1-5.1,0-7.6-0.4c-5.1-0.7-10-2.3-14.6-4.5
			c-4.7-2.2-8.9-5.1-12.9-8.2c-1-0.8-1.9-1.7-2.9-2.5l-1.4-1.2l-1.2-1c-0.8-0.7-1.6-1.4-2.3-2.1c-0.8-0.7-1.6-1.3-2.5-2
			c-3.3-2.7-6.8-5.2-10.3-7.7c-0.9-0.6-1.8-1.2-2.7-1.8l-1.4-0.9l-1.4-0.9l-2.8-1.8l-2.8-1.8c-7.6-4.9-15.5-9.6-23.7-15.2
			c2.5-0.3,5-0.4,7.4-0.3c2.5,0.1,4.9,0.3,7.3,0.6c4.9,0.6,9.6,1.7,14.3,3.2c1.2,0.4,2.3,0.8,3.5,1.2l3.4,1.4l1.7,0.7l1.7,0.8
			c1.1,0.5,2.2,1.1,3.4,1.6c4.4,2.4,8.7,5,12.6,8.3c1,0.8,2,1.6,2.9,2.5l2.8,2.7l1.4,1.4c0.4,0.4,0.8,0.8,1.1,1.2
			c0.7,0.8,1.5,1.6,2.2,2.4c0.4,0.4,0.8,0.8,1.1,1.1l1.1,1.1c0.8,0.8,1.5,1.5,2.3,2.2l2.3,2.2c0.8,0.7,1.6,1.4,2.4,2.1
			c3.3,2.8,6.7,5.4,10.5,7.8C249.5,128.9,253.5,131.1,258.1,132.9z"/>
		<path class="st3" d="M261.7,90.8C261.8,90.7,261.8,90.8,261.7,90.8c0.1,0.1,0.1,0.2,0.1,0.3l0.1,0.4l0.1,0.8l0.3,1.6l0.6,3.3
			c0.5,2.2,0.8,4.3,1.2,6.5c0.8,4.3,1.3,8.5,1.7,12.8c0.2,2.1,0.4,4.3,0.4,6.4c0.1,2.1,0.2,4.3,0.2,6.4c0.1,4.2-0.1,8.3-0.9,12.5
			c-0.3,2.1-0.9,4.2-1.4,6.3c-0.3,1.1-0.5,2.1-0.8,3.2l-0.8,3.2c-0.3,1.1-0.5,2.2-0.7,3.3s-0.4,2.2-0.6,3.3
			c-0.3,2.2-0.5,4.4-0.5,6.6c0,4.4,0.6,8.7,1.5,13s2.3,8.6,3.8,12.9c1.5,4.3,3.1,8.6,4.2,13c1.2,4.4,1.8,8.8,2.4,13.2l0.5,3.3
			c0.2,1.1,0.3,2.3,0.4,3.4c0.2,2.3,0.5,4.6,0.6,6.9c0.1,2.3,0.2,4.6,0.2,6.9c-0.1,2.3-0.2,57.6-0.4,59.9c-0.1,1.1-0.3,2.3-0.4,3.4
			c-0.2,1.1-0.3,2.3-0.5,3.4c-0.4,2.3-0.9,4.5-1.5,6.8c-0.6,2.2-1.2,4.5-1.9,6.7c-0.3,1.1-0.8,2.2-1.1,3.3c-0.4,1.1-0.8,2.2-1.2,3.3
			c-1.7,4.3-3.7,8.5-6.1,12.6c-1.2,2,5.9-2,4.4,0c-1.4,1.9-9.1,1.8-10.8,3.6h-6c-0.6-4.7,0.5-2.2,0.2-6.6s-0.6-8.7-0.7-13
			c-0.3-8.5-0.6-16.8-0.4-25.1c0-2.1,0.1-57.1,0.2-59.2c0.1-2.1,0.2-4.1,0.4-6.2c0.2-2.1,0.3-4.1,0.5-6.2c0.1-1,0.2-2.1,0.3-3.1
			l0.2-3.2c0.1-2.1,0.3-4.3,0.4-6.4c0.1-2.1,0.4-4.3,0.6-6.5c0.5-4.3,1.4-8.7,2.1-13.1c0.7-4.4,1.3-8.8,1.3-13.2s-0.3-8.7-1.2-13.1
			c-0.8-4.3-2.3-8.6-3.9-13c-0.8-2.2-1.6-4.4-2.3-6.6c-0.7-2.2-1.3-4.5-1.7-6.8c-0.5-2.3-0.6-4.5-0.8-6.8c-0.1-2.3,0.1-4.6,0.2-6.8
			c0.2-2.2,0.5-4.5,0.8-6.7c0.4-2.2,0.8-4.4,1.3-6.7c1-4.4,2.4-8.9,4.4-13.2c1-2.2,2.1-4.3,3.4-6.4c0.7-1,1.4-2.1,2.2-3.1
			c0.4-0.5,0.8-1,1.3-1.5c0.2-0.2,0.5-0.5,0.7-0.7c0.1-0.1,0.3-0.2,0.4-0.4l0.2-0.2c0.1-0.1,0.1-0.1,0.3-0.3L261.7,90.8z"/>
		<path class="st0" d="M337.3,108.2c-0.4,2.6-1.4,5.1-2.6,7.5c-1.3,2.4-2.8,4.6-4.6,6.7c-3.6,4.1-8.1,7.5-13.1,9.9
			c-2.5,1.2-5.1,2.2-7.7,3c-1.3,0.4-2.7,0.7-4,1l-2,0.4l-1.8,0.3c-4.5,0.8-8.9,2.1-13,3.8c-8.3,3.4-15.6,8.8-21.8,15.8
			c-6.1,7-11.1,15.5-15.1,24.9c-0.2-2.6-0.1-5.2,0.2-7.8c0.3-2.6,0.8-5.2,1.4-7.7c1.3-5.1,3.3-10.1,6.1-14.7
			c2.7-4.7,6.3-9,10.4-12.7s8.9-6.8,14-9c5.1-2.3,10.5-3.7,15.9-4.5l1.9-0.3l1.7-0.2c1.1-0.2,2.3-0.3,3.4-0.5
			c2.2-0.4,4.4-0.9,6.6-1.5c4.3-1.3,8.6-3,12.6-5.4c2-1.2,4-2.5,5.9-4C333.7,111.8,335.5,110.2,337.3,108.2z"/>
		<path class="st0" d="M166.7,157.2c3.7,0,7.1-0.3,10.5-0.7c3.3-0.5,6.5-1.1,9.6-1.9c3.1-0.8,6.2-1.8,9.2-2.8
			c0.7-0.3,1.5-0.6,2.2-0.9c0.4-0.1,0.7-0.3,1.1-0.4l1.4-0.5l2.8-0.9l2.8-0.7c7.4-1.7,14.9-1.8,22.2-0.8c3.6,0.5,7.2,1.2,10.7,2.3
			c1.7,0.5,3.5,1.1,5.1,1.9c1.7,0.7,3.4,1.5,5,2.5c-7.3,1.4-14.1,2.1-20.8,3s-13.2,1.7-19.4,3.1l-2.3,0.5l-2.2,0.6l-1.1,0.3
			l-1.3,0.4c-0.9,0.2-1.8,0.5-2.8,0.7c-3.7,0.8-7.5,1.3-11.3,1.2s-7.6-0.6-11.2-1.7c-0.9-0.3-1.8-0.6-2.7-0.9
			c-0.9-0.4-1.7-0.7-2.6-1.2C169.7,159.5,168.1,158.5,166.7,157.2z"/>
		<path class="st0" d="M282.7,93.2c4.2,0.4,8.1,0.2,11.8-0.4c1.9-0.3,3.7-0.7,5.5-1.2c0.4-0.1,0.9-0.3,1.3-0.4l1.5-0.4
			c0.5-0.1,1.1-0.3,1.6-0.4l1.6-0.3c4.4-0.6,8.7-0.3,12.8,0.5c4.1,0.9,8.1,2.2,11.8,4.5c-4.2,0.4-8.3,0.4-12.2,0.6
			c-3.9,0.2-7.8,0.3-11.5,0.9l-1.4,0.2c-0.4,0.1-0.9,0.2-1.3,0.3l-0.7,0.1l-0.8,0.2c-0.5,0.1-1.1,0.2-1.6,0.3
			c-2.2,0.3-4.4,0.4-6.6,0.2c-2.2-0.2-4.4-0.6-6.4-1.4c-1-0.4-2-0.8-2.9-1.4C284.4,94.7,283.5,94,282.7,93.2z"/>
		<path class="st0" d="M148.5,99.2c4.2-0.4,7.9-1.4,11.5-2.7c1.8-0.7,3.5-1.4,5.1-2.2c0.4-0.2,0.8-0.4,1.2-0.6l1.4-0.7
			c0.5-0.2,1-0.5,1.5-0.7l1.5-0.6c4.1-1.5,8.4-2.1,12.6-2.1c4.2,0,8.4,0.6,12.4,2.1c-4.1,1.2-8,2.1-11.8,3s-7.6,1.9-11,3.1l-1.3,0.5
			c-0.4,0.2-0.8,0.4-1.3,0.5l-0.6,0.3l-0.7,0.3c-0.5,0.2-1,0.4-1.5,0.6c-2.1,0.7-4.2,1.3-6.4,1.5s-4.4,0.2-6.5-0.1
			c-1.1-0.2-2.1-0.4-3.2-0.8C150.4,100.2,149.4,99.8,148.5,99.2z"/>
		<path class="st0" d="M175.5,120.3c2.8,0,5.3-0.2,7.8-0.4c2.4-0.2,4.7-0.6,7-1c2.2-0.4,4.4-0.9,6.6-1.4c0.5-0.2,1.1-0.3,1.6-0.4
			c0.3-0.1,0.5-0.1,0.8-0.2l1.1-0.2l2.1-0.4l2.1-0.2c5.7-0.6,11.2,0.2,16.3,1.8c2.6,0.8,5.1,1.8,7.4,3.1c1.2,0.7,2.4,1.3,3.5,2.1
			s2.2,1.6,3.2,2.7c-5.5,1-10.5,1.3-15.4,1.6c-4.8,0.3-9.5,0.4-13.9,0.8l-1.6,0.1c-0.5,0.1-1.1,0.2-1.6,0.2l-0.8,0.1l-1,0.1
			c-0.7,0.1-1.4,0.2-2.1,0.2c-2.8,0.2-5.7,0.1-8.5-0.4c-2.8-0.5-5.5-1.4-8-2.8c-1.3-0.7-2.5-1.4-3.6-2.3
			C177.3,122.5,176.3,121.5,175.5,120.3z"/>
		<path class="st4" d="M353.4,64.8c-1,0.9-2,1.7-2.9,2.4c-0.9,0.7-1.9,1.3-2.8,1.9c-1.9,1.2-3.7,2.2-5.5,3.1
			c-3.7,1.7-7.3,2.9-11,3.8s-7.5,1.4-11.6,1.4c-1,0-2.1,0-3.1-0.1c-1,0-2.1-0.1-3.2-0.3c-2.2-0.3-4.5-0.6-7.1-1.4
			c0.6-1.2,1.2-2.3,2-3.3c0.7-1,1.5-1.9,2.3-2.8c1.6-1.7,3.3-3.2,5.2-4.4c3.7-2.5,7.7-4.2,11.9-5.1c4.2-1,8.6-1.2,12.9-0.6
			c2.2,0.3,4.4,0.9,6.6,1.7c1.1,0.4,2.2,0.9,3.3,1.5C351.3,63.2,352.4,63.8,353.4,64.8z"/>
		<path class="st5" d="M322.6,41.6c0.2,1.1,0.4,2,0.4,2.9c0.1,0.9,0.1,1.7,0.2,2.5c0,1.6-0.1,3.1-0.3,4.4c-0.4,2.7-1.3,5-2.5,7
			c-1.2,2.1-2.8,3.9-4.9,5.6c-1.1,0.8-2.3,1.6-3.7,2.4c-1.5,0.8-3,1.5-5.1,2.1c-0.6-0.9-1.1-1.8-1.4-2.7c-0.4-0.9-0.6-1.7-0.9-2.6
			c-0.4-1.7-0.6-3.3-0.5-4.8c0.1-3.1,1-5.9,2.5-8.4s3.5-4.6,6.1-6.2c1.3-0.8,2.8-1.5,4.4-1.9c0.8-0.2,1.7-0.4,2.6-0.5
			C320.4,41.4,321.5,41.4,322.6,41.6z"/>
		<path class="st4" d="M302,78.3c-1.7,0.7-3.1,1.2-4.5,1.6s-2.8,0.8-4.1,1.1c-2.6,0.6-5.1,1-7.4,1.1c-4.7,0.4-9,0-13.2-0.9
			c-1-0.3-2.1-0.5-3.1-0.8s-2-0.7-3.1-1.1c-2-0.7-4.1-1.7-6.1-2.9c-1-0.6-2-1.3-3.1-1.9c-1-0.7-2.1-1.4-3.1-2.3
			c-2.1-1.8-4.3-3.5-6.6-6.3c1.2-1.3,2.4-2.4,3.6-3.3c0.6-0.5,1.2-0.9,1.9-1.3c0.6-0.4,1.3-0.7,1.9-1.1c2.5-1.3,5.1-2.3,7.7-2.9
			c5.2-1.2,10.4-1.1,15.4,0s9.7,3.3,13.9,6.6c2.1,1.6,4,3.6,5.8,5.9c0.9,1.2,1.7,2.4,2.4,3.8C300.8,75.1,301.5,76.6,302,78.3z"/>
		<path class="st5" d="M161.1,97.8c-0.4,1.3-0.8,2.5-1.2,3.6s-0.9,2.1-1.4,3.1c-1,2-2,3.8-3.1,5.5c-2.2,3.4-4.7,6.3-7.4,9.1
			c-2.7,2.7-5.7,5.1-9.1,7.3c-0.8,0.6-1.8,1.1-2.7,1.6c-0.9,0.5-1.9,1-2.9,1.5c-2.1,0.9-4.1,1.9-6.8,2.5c-0.2-1.3-0.1-2.6-0.1-3.8
			c0.1-1.2,0.2-2.4,0.5-3.5c0.5-2.3,1.2-4.5,2.1-6.5c1.8-4.1,4.4-7.6,7.5-10.6s6.6-5.5,10.7-7.3c2-0.9,4.2-1.6,6.5-2
			c1.2-0.2,2.3-0.4,3.6-0.4C158.5,97.7,159.8,97.7,161.1,97.8z"/>
		<path class="st4" d="M369.1,130.4c-1.3,0.5-2.4,0.8-3.6,1.1c-1.1,0.3-2.3,0.5-3.3,0.7c-2.2,0.4-4.3,0.6-6.3,0.7
			c-4.1,0.2-7.9-0.1-11.7-0.6c-3.8-0.6-7.5-1.6-11.3-3.1c-0.9-0.4-1.9-0.8-2.8-1.2c-1-0.4-1.9-0.9-2.9-1.5c-1.9-1.1-3.9-2.2-6-4
			c1-0.9,2-1.6,3-2.3s2.1-1.2,3.1-1.7c2.1-0.9,4.3-1.7,6.5-2.1c4.3-0.9,8.7-0.9,13-0.2c4.2,0.7,8.4,2.1,12.2,4.3
			c1.9,1.1,3.7,2.5,5.5,4c0.9,0.8,1.7,1.6,2.5,2.6C367.7,128.2,368.5,129.2,369.1,130.4z"/>
		<path class="st4" d="M206.8,126.5c-0.8,1.1-1.6,2-2.4,2.9c-0.8,0.9-1.6,1.7-2.4,2.4c-1.6,1.5-3.3,2.8-4.9,4
			c-3.3,2.4-6.7,4.2-10.2,5.7s-7.2,2.7-11.2,3.4c-1,0.2-2,0.3-3.1,0.5c-1,0.2-2.1,0.2-3.2,0.3c-2.2,0.1-4.5,0.2-7.2-0.2
			c0.3-1.3,0.8-2.5,1.4-3.6c0.5-1.1,1.1-2.2,1.7-3.1c1.3-1.9,2.7-3.7,4.3-5.2c3.2-3.1,6.9-5.4,10.8-7.1c4-1.7,8.2-2.7,12.6-2.9
			c2.2-0.1,4.5,0.1,6.8,0.5c1.2,0.2,2.3,0.5,3.5,0.9C204.5,125.3,205.7,125.8,206.8,126.5z"/>
		<path class="st4" d="M162,98c0.7,0.8,1.3,1.6,1.8,2.4c0.5,0.7,1,1.5,1.4,2.2c0.8,1.4,1.4,2.7,1.9,4c0.9,2.6,1.3,5,1.3,7.4
			s-0.5,4.8-1.6,7.3c-0.5,1.3-1.2,2.5-2.1,3.9c-0.9,1.4-1.9,2.8-3.4,4.4c-1-0.5-1.8-1.1-2.5-1.6c-0.8-0.6-1.4-1.2-2-1.8
			c-1.2-1.3-2.1-2.6-2.8-4c-1.4-2.7-2-5.6-1.9-8.5s0.8-5.7,2.3-8.4c0.8-1.3,1.7-2.6,3-3.8c0.6-0.6,1.3-1.2,2.1-1.7
			C160.1,99,161,98.3,162,98z"/>
		<path class="st5" d="M338.9,146.4c-1,0.4-2,0.6-2.9,0.8s-1.7,0.4-2.5,0.5c-1.6,0.2-3,0.4-4.4,0.3c-2.7,0-5.1-0.6-7.3-1.5
			c-2.2-0.9-4.3-2.2-6.2-4.1c-1-1-1.9-2-2.9-3.3c-0.9-1.4-1.9-2.7-2.8-4.8c0.8-0.7,1.6-1.3,2.4-1.8s1.6-0.9,2.4-1.2
			c1.6-0.6,3.2-1,4.7-1.2c3.1-0.3,6,0.2,8.6,1.3c2.7,1.1,5.1,2.8,7,5.2c1,1.2,1.8,2.6,2.5,4.1c0.3,0.8,0.6,1.6,0.9,2.5
			C338.7,144.3,338.9,145.3,338.9,146.4z"/>
		<path class="st6" d="M226.3,77.5c-0.7,0.8-1.4,1.5-2.1,2.1c-0.7,0.6-1.3,1.2-1.9,1.7c-1.3,1-2.5,1.8-3.7,2.4
			c-2.4,1.3-4.7,2-7.1,2.3c-2.4,0.3-4.8,0.1-7.4-0.5c-1.3-0.4-2.7-0.8-4.2-1.5s-3-1.5-4.8-2.8c0.4-1,0.8-1.9,1.3-2.7
			c0.5-0.8,1-1.6,1.5-2.2c1.1-1.3,2.3-2.5,3.5-3.3c2.5-1.8,5.3-2.8,8.2-3.1c2.9-0.3,5.8,0,8.6,1.1c1.4,0.6,2.8,1.4,4.2,2.4
			c0.7,0.5,1.4,1.1,2,1.8C225.1,75.7,225.7,76.5,226.3,77.5z"/>
		<path class="st4" d="M289.6,117.5c-0.1,1.1-0.3,2.1-0.5,2.9c-0.2,0.9-0.4,1.7-0.6,2.5c-0.5,1.5-1,2.9-1.6,4.1
			c-1.2,2.4-2.7,4.4-4.5,6s-3.8,2.9-6.4,3.9c-1.3,0.5-2.7,0.9-4.3,1.2c-1.6,0.3-3.3,0.6-5.5,0.5c-0.3-1.1-0.5-2-0.6-3
			c-0.1-0.9-0.1-1.8,0-2.7c0.1-1.7,0.4-3.3,1-4.7c1-2.9,2.7-5.3,4.9-7.3c2.1-1.9,4.7-3.4,7.7-4.1c1.5-0.4,3.1-0.5,4.8-0.5
			c0.9,0,1.7,0.1,2.7,0.3C287.7,116.8,288.6,117.2,289.6,117.5z"/>
		<path class="st5" d="M287.7,153.8c-2.3,0.9-4.1,1.2-5.9,1.4c-1.8,0.1-3.4,0-5.1-0.3c-1.6-0.3-3.2-0.8-4.8-1.5
			c-1.6-0.8-3.3-1.7-5-3.4c1.8-1.7,3.7-2.5,5.6-3c1.9-0.4,3.9-0.4,5.7-0.1c1.9,0.3,3.7,1,5.3,2.1
			C285.1,150.1,286.6,151.5,287.7,153.8z"/>
		<path class="st6" d="M320.9,108c-2.4-0.1-4.3-0.6-6-1.1c-1.7-0.6-3.2-1.4-4.5-2.3c-1.4-0.9-2.6-2-3.8-3.4
			c-1.1-1.4-2.3-2.9-3.2-5.2c2.3-0.8,4.4-0.8,6.3-0.4s3.7,1.2,5.3,2.3c1.6,1.1,2.9,2.4,4,4.1C320.1,103.6,320.9,105.5,320.9,108z"/>
		<path class="st4" d="M343.6,104.3c-2.4-0.1-4.3-0.6-6-1.1c-1.7-0.6-3.2-1.4-4.5-2.3c-1.4-0.9-2.6-2-3.8-3.4
			c-1.1-1.4-2.3-2.9-3.2-5.2c2.3-0.8,4.4-0.8,6.3-0.4s3.7,1.2,5.3,2.3c1.6,1.1,2.9,2.4,4,4.1C342.7,100,343.6,101.8,343.6,104.3z"/>
		<path class="st5" d="M180.2,85.3c-2.4-0.1-4.3-0.6-6-1.1c-1.7-0.6-3.2-1.4-4.5-2.3c-1.4-0.9-2.6-2-3.8-3.4
			c-1.1-1.4-2.3-2.9-3.2-5.2c2.3-0.8,4.4-0.8,6.3-0.4c1.9,0.4,3.7,1.2,5.3,2.3c1.6,1.1,2.9,2.4,4,4.1
			C179.3,81.1,180.2,83,180.2,85.3z"/>
		<path class="st6" d="M229.1,167.9c-2.4-0.1-4.3-0.6-6-1.1c-1.7-0.6-3.2-1.4-4.5-2.3c-1.4-0.9-2.6-2-3.8-3.4
			c-1.1-1.4-2.3-2.9-3.2-5.2c2.3-0.8,4.4-0.8,6.3-0.4c1.9,0.4,3.7,1.2,5.3,2.3s2.9,2.4,4,4.1C228.2,163.5,229.1,165.4,229.1,167.9z"
			/>
		<path class="st4" d="M178.8,161.4c-1.6,1.9-3.1,3-4.6,3.9s-3.1,1.6-4.6,2.1c-1.6,0.5-3.2,0.8-5,0.8s-3.7,0-6.1-0.8
			c0.8-2.3,2.1-3.9,3.6-5.2s3.2-2.1,5.1-2.7c1.8-0.5,3.7-0.8,5.7-0.5C174.8,159.3,176.9,159.9,178.8,161.4z"/>
		<path class="st6" d="M183.7,160.2c-2.4,0.2-4.3-0.1-6.1-0.5c-1.7-0.4-3.3-1-4.8-1.8s-2.8-1.7-4.1-2.9c-1.3-1.3-2.6-2.6-3.8-4.8
			c2.2-1.1,4.3-1.3,6.3-1.1s3.8,0.8,5.5,1.7s3.2,2.1,4.4,3.6C182.4,155.9,183.4,157.8,183.7,160.2z"/>
		<path class="st5" d="M248.9,46.8c-0.4,1-0.8,1.9-1.1,2.7c-0.4,0.8-0.8,1.6-1.2,2.3c-0.8,1.4-1.6,2.6-2.5,3.6
			c-1.8,2.1-3.7,3.6-5.8,4.7s-4.4,1.9-7.1,2.2c-1.4,0.2-2.8,0.2-4.4,0.1c-1.6-0.1-3.3-0.2-5.5-0.8c0-1.1,0-2.1,0.2-3
			c0.1-0.9,0.3-1.8,0.6-2.6c0.5-1.6,1.2-3.1,2.1-4.4c1.7-2.6,3.9-4.5,6.4-5.9s5.4-2.1,8.4-2.2c1.5,0,3.1,0.2,4.8,0.7
			c0.8,0.3,1.7,0.5,2.5,0.9C247.1,45.7,248,46.2,248.9,46.8z"/>
		<path class="st4" d="M217.8,63.2c-1.1,0.3-2,0.6-2.9,0.7c-0.9,0.2-1.7,0.3-2.5,0.4c-1.6,0.2-3.1,0.2-4.4,0.2
			c-2.7-0.1-5.1-0.8-7.3-1.8s-4.2-2.4-6.1-4.3c-0.9-1-1.9-2.1-2.8-3.4c-0.9-1.4-1.8-2.8-2.6-4.9c0.8-0.7,1.7-1.2,2.5-1.7
			s1.6-0.8,2.5-1.1c1.6-0.6,3.2-0.9,4.7-1c3.1-0.2,6,0.4,8.6,1.6c2.6,1.2,4.9,3,6.8,5.5c0.9,1.2,1.7,2.6,2.4,4.2
			c0.3,0.8,0.6,1.6,0.8,2.6C217.6,61.2,217.8,62.2,217.8,63.2z"/>
		<path class="st4" d="M160.1,99.2c-1.7,0.7-3.1,1.2-4.5,1.6s-2.8,0.8-4.1,1.1c-2.6,0.6-5.1,1-7.4,1.1c-4.7,0.4-9,0-13.2-0.9
			c-1-0.3-2.1-0.5-3.1-0.8s-2-0.7-3.1-1.1c-2-0.7-4.1-1.7-6.1-2.9c-1-0.6-2-1.3-3.1-1.9c-1-0.7-2.1-1.4-3.1-2.3
			c-2.1-1.8-4.3-3.5-6.6-6.3c1.2-1.3,2.4-2.4,3.6-3.3c0.6-0.5,1.2-0.9,1.9-1.3c0.6-0.4,1.3-0.7,1.9-1.1c2.5-1.3,5.1-2.3,7.7-2.9
			c5.2-1.2,10.4-1.1,15.4,0s9.7,3.3,13.9,6.6c2.1,1.6,4,3.6,5.8,5.9c0.9,1.2,1.7,2.4,2.4,3.8C159,96,159.6,97.3,160.1,99.2z"/>
		<path class="st4" d="M309,180.2c-1.6,0.8-3,1.4-4.4,1.9s-2.7,0.9-4,1.3c-2.6,0.8-5,1.2-7.4,1.5c-4.7,0.6-9,0.5-13.2-0.2
			c-1.1-0.2-2.1-0.4-3.1-0.6c-1-0.2-2.1-0.6-3.1-0.9c-2.1-0.6-4.2-1.5-6.3-2.5c-1.1-0.5-2.1-1.1-3.2-1.8c-1.1-0.6-2.2-1.3-3.3-2.1
			c-2.2-1.6-4.5-3.3-7-5.9c1.1-1.4,2.3-2.5,3.5-3.5c0.6-0.5,1.2-1,1.8-1.4c0.6-0.5,1.2-0.8,1.8-1.2c2.5-1.5,5-2.6,7.6-3.3
			c5.1-1.5,10.3-1.7,15.4-0.8c5,0.8,9.9,2.7,14.2,5.8c2.2,1.5,4.2,3.4,6.1,5.6c0.9,1.1,1.8,2.3,2.6,3.7
			C307.7,177,308.5,178.5,309,180.2z"/>
	</g>
	<circle class="st2" cx="232" cy="288.9" r="7.2"/>
	<path class="st7" d="M248.9,332.2c0,0,1.7-15.4-1.4-25.7c-2.6-8.7-12.5-13-21-10c-4.9,1.8-8.5,5.6-10.1,10.2c0,0-8.5,36.4,3.6,36.4
		L248.9,332.2z"/>
	<path class="st8" d="M334.7,245.1l-79.1-26.2c-2.4-0.8-5-0.8-7.4-0.1l-83.7,26.3c-5,1.6-8.4,6.2-8.4,11.5v76.8c0,6.6,5.4,12,12,12
		h119.3v-56.6c0-6,4.9-10.9,10.9-10.9h11.9c6,0,10.9,4.9,10.9,10.9v56.6h9.7c6.6,0,12-5.4,12-12v-76.9
		C342.9,251.4,339.6,246.8,334.7,245.1z M265.8,315.4c0,5.2-4.2,9.5-9.5,9.5h-71.4c-5.2,0-9.5-4.2-9.5-9.5v-28
		c0-5.2,4.2-9.5,9.5-9.5h71.4c5.2,0,9.5,4.2,9.5,9.5V315.4z"/>
</g>
</svg>
