<?xml version="1.0" encoding="utf-8"?>
<!-- Generator: Adobe Illustrator 24.1.0, SVG Export Plug-In . SVG Version: 6.00 Build 0)  -->
<svg version="1.1" id="Ebene_1" xmlns="http://www.w3.org/2000/svg" xmlns:xlink="http://www.w3.org/1999/xlink" x="0px" y="0px"
	 viewBox="0 0 512 512" style="enable-background:new 0 0 512 512;" xml:space="preserve">
<style type="text/css">
	.st0{fill:#80A86F;}
	.st1{fill:#DA545F;}
	.st2{fill:#F56E76;}
	.st3{fill:#FFF682;}
	.st4{fill:#31655D;}
	.st5{fill:#AFD2A3;}
	.st6{fill:#FFE16D;}
	.st7{fill:#7AAD97;}
	.st8{fill:#628C53;}
	.st9{fill:#BFE3B3;}
	.st10{fill:#8EC3AE;}
	.st11{fill:#DEFFE3;}
</style>
<g>
	<path class="st1" d="M229.3,379.9l0-19.1h6.2c2.2,0,4.1,0.4,5.5,1.2c1.4,0.8,2.5,1.9,3.2,3.3c0.7,1.4,1.1,3.1,1.1,5.1
		c0,1.9-0.4,3.6-1.1,5.1c-0.7,1.4-1.8,2.5-3.2,3.3c-1.4,0.8-3.3,1.2-5.5,1.2H229.3z M232.2,377.5h3.2c1.7,0,3.1-0.3,4.1-0.8
		c1-0.6,1.7-1.4,2.2-2.4c0.4-1.1,0.7-2.3,0.7-3.8c0-1.5-0.2-2.7-0.7-3.8c-0.4-1.1-1.2-1.9-2.2-2.5c-1-0.6-2.4-0.9-4.1-0.9h-3.2
		L232.2,377.5z"/>
	<path class="st1" d="M250.2,379.9l0-19.1h2.9l0,19.1H250.2z"/>
	<path class="st1" d="M258.6,379.9l0-19.1h12.1v2.3h-9.3l0,5.9h8.4v2.3h-8.4l0,6.2h9.3v2.3H258.6z"/>
	<path class="st1" d="M283.1,379.9l7-19.1h3.2l7,19.1h-3.1l-1.6-4.7h-7.8l-1.6,4.7H283.1z M288.6,373h6.2l-3.1-8.7L288.6,373z"/>
	<path class="st1" d="M304.6,379.9l0-19.1h6.7c1.5,0,2.7,0.3,3.7,0.8c1,0.5,1.7,1.2,2.2,2c0.5,0.9,0.7,1.8,0.7,2.9
		c0,1-0.2,2-0.7,2.9c-0.5,0.9-1.2,1.6-2.2,2.1c-1,0.5-2.2,0.8-3.8,0.8h-3.8l0,7.7H304.6z M307.5,369.9h3.7c1.4,0,2.3-0.3,2.9-0.9
		c0.6-0.6,0.9-1.4,0.9-2.4c0-1.1-0.3-1.9-0.9-2.5c-0.6-0.6-1.6-0.9-2.9-0.9h-3.7L307.5,369.9z"/>
	<path class="st1" d="M322.4,379.9l0-19.1h6.7c1.5,0,2.7,0.3,3.7,0.8c1,0.5,1.7,1.2,2.2,2c0.5,0.9,0.7,1.8,0.7,2.9
		c0,1-0.2,2-0.7,2.9c-0.5,0.9-1.2,1.6-2.2,2.1c-1,0.5-2.2,0.8-3.8,0.8h-3.8l0,7.7H322.4z M325.3,369.9h3.7c1.4,0,2.3-0.3,2.9-0.9
		c0.6-0.6,0.9-1.4,0.9-2.4c0-1.1-0.3-1.9-0.9-2.5c-0.6-0.6-1.6-0.9-2.9-0.9h-3.7L325.3,369.9z"/>
	<path class="st1" d="M348,379.9v-2.2l9.1-14.4h-9v-2.5h12.4v2.2l-9.1,14.4h9.2v2.5H348z"/>
	<path class="st1" d="M372.5,380.3c-1.4,0-2.6-0.3-3.7-0.8c-1.1-0.5-2-1.4-2.6-2.5c-0.6-1.1-1-2.5-1-4.2l0-11.9h2.9l0,12
		c0,1.7,0.4,2.9,1.2,3.7c0.8,0.8,1.9,1.2,3.2,1.2c1.3,0,2.4-0.4,3.2-1.2c0.8-0.8,1.2-2,1.2-3.7l0-12h2.9l0,11.9c0,1.7-0.3,3.1-1,4.2
		c-0.7,1.1-1.6,1.9-2.7,2.5C375.1,380,373.9,380.3,372.5,380.3z"/>
	<path class="st1" d="M385.3,379.9l0-19.1h3.4l6.5,12.7l6.4-12.7h3.4l0,19.1h-2.9l0-14.1l-5.8,11.4H394l-5.9-11.4l0,14.1H385.3z"/>
	<path class="st1" d="M229.3,410.1l0-19.1h2.9l0,8.2h9.3l0-8.2h2.9l0,19.1h-2.9l0-8.5h-9.3l0,8.5H229.3z"/>
	<path class="st1" d="M249.9,410.1l0-19.1h2.9l0,19.1H249.9z"/>
	<path class="st1" d="M258.3,410.1l0-19.1h2.9l9.6,14.4l0-14.4h2.9l0,19.1h-2.9l-9.6-14.4l0,14.4H258.3z"/>
	<path class="st1" d="M279.2,410.1l0-19.1h6.7c1.5,0,2.7,0.3,3.7,0.8c1,0.5,1.7,1.2,2.2,2c0.5,0.9,0.7,1.8,0.7,2.9
		c0,1-0.2,2-0.7,2.9c-0.5,0.9-1.2,1.6-2.2,2.1c-1,0.5-2.2,0.8-3.8,0.8h-3.8l0,7.7H279.2z M282.1,400.1h3.7c1.4,0,2.3-0.3,2.9-0.9
		c0.6-0.6,0.9-1.4,0.9-2.4c0-1.1-0.3-1.9-0.9-2.5c-0.6-0.6-1.6-0.9-2.9-0.9h-3.7L282.1,400.1z"/>
	<path class="st1" d="M297,410.1l0-19.1h12v2.3h-9.1l0,6h7.5v2.3h-7.5l0,8.4H297z"/>
	<path class="st1" d="M313.4,410.1l0-19.1h2.9l0,16.8h8.7v2.3H313.4z"/>
	<path class="st1" d="M328.5,410.1l7-19.1h3.2l7,19.1h-3.1l-1.6-4.7h-7.8l-1.6,4.7H328.5z M334.1,403.2h6.2l-3.1-8.7L334.1,403.2z"
		/>
	<path class="st1" d="M350.1,410.1l0-19.1h2.9l9.6,14.4l0-14.4h2.9l0,19.1h-2.9l-9.6-14.4l0,14.4H350.1z"/>
	<path class="st1" d="M370.2,410.1v-2.2l9.1-14.4h-9V391h12.4v2.2l-9.1,14.4h9.2v2.5H370.2z"/>
	<path class="st1" d="M387.6,410.1l0-19.1h12.1v2.3h-9.3l0,5.9h8.4v2.3h-8.4l0,6.2h9.3v2.3H387.6z"/>
	<path class="st1" d="M404.8,410.1l0-19.1h2.9l9.6,14.4l0-14.4h2.9l0,19.1h-2.9l-9.6-14.4l0,14.4H404.8z"/>
</g>
<g>
	<path class="st4" d="M230.1,238.4c-2.3-1.2-4.2-3-5.5-5.2c-1.3-2.2-2-4.7-2-7.5c0-2.8,0.7-5.3,2-7.5c1.3-2.2,3.1-3.9,5.4-5.2
		c2.3-1.2,5-1.9,7.9-1.9c2.8,0,5.3,0.6,7.4,1.7c2.1,1.1,3.7,2.8,4.8,4.9l-5.1,3c-0.8-1.3-1.8-2.3-3.1-3c-1.2-0.7-2.6-1-4-1
		c-2.5,0-4.5,0.8-6.2,2.4c-1.6,1.6-2.4,3.8-2.4,6.5c0,2.7,0.8,4.8,2.4,6.5c1.6,1.6,3.7,2.4,6.2,2.4c1.5,0,2.8-0.3,4-1
		c1.2-0.7,2.2-1.6,3.1-3l5.1,3c-1.1,2.1-2.7,3.8-4.8,4.9c-2.1,1.2-4.5,1.7-7.3,1.7C235.1,240.3,232.5,239.6,230.1,238.4z"/>
	<path class="st4" d="M262.6,238.4c-2.3-1.2-4.1-3-5.4-5.2c-1.3-2.2-1.9-4.7-1.9-7.5c0-2.8,0.6-5.3,1.9-7.5c1.3-2.2,3.1-3.9,5.4-5.2
		c2.3-1.2,4.9-1.9,7.8-1.9c2.9,0,5.5,0.6,7.8,1.9c2.3,1.2,4.1,3,5.4,5.2c1.3,2.2,1.9,4.7,1.9,7.5c0,2.8-0.6,5.3-1.9,7.5
		c-1.3,2.2-3.1,3.9-5.4,5.2c-2.3,1.2-4.9,1.9-7.8,1.9C267.5,240.3,264.9,239.6,262.6,238.4z M276.4,232.1c1.6-1.6,2.4-3.8,2.4-6.4
		c0-2.7-0.8-4.8-2.4-6.4c-1.6-1.6-3.6-2.4-6.1-2.4c-2.4,0-4.5,0.8-6,2.4c-1.6,1.6-2.4,3.8-2.4,6.4c0,2.7,0.8,4.8,2.4,6.4
		c1.6,1.6,3.6,2.4,6,2.4C272.8,234.6,274.8,233.8,276.4,232.1z"/>
	<path class="st4" d="M321.5,211.5v28.4h-6.3v-3.6c-1.1,1.3-2.4,2.3-4,2.9c-1.6,0.7-3.3,1-5.2,1c-3.8,0-6.8-1.1-9-3.2
		c-2.2-2.1-3.3-5.2-3.3-9.4v-16.2h6.6v15.3c0,2.6,0.6,4.5,1.7,5.7c1.2,1.3,2.8,1.9,4.9,1.9c2.4,0,4.3-0.7,5.7-2.2
		c1.4-1.5,2.1-3.6,2.1-6.4v-14.4H321.5z"/>
	<path class="st4" d="M337.5,238.4c-2.3-1.2-4.2-3-5.5-5.2c-1.3-2.2-2-4.7-2-7.5c0-2.8,0.7-5.3,2-7.5c1.3-2.2,3.1-3.9,5.4-5.2
		c2.3-1.2,5-1.9,7.9-1.9c2.8,0,5.3,0.6,7.4,1.7c2.1,1.1,3.7,2.8,4.8,4.9l-5.1,3c-0.8-1.3-1.8-2.3-3.1-3c-1.2-0.7-2.6-1-4-1
		c-2.5,0-4.5,0.8-6.2,2.4c-1.6,1.6-2.4,3.8-2.4,6.5c0,2.7,0.8,4.8,2.4,6.5c1.6,1.6,3.7,2.4,6.2,2.4c1.5,0,2.8-0.3,4-1
		c1.2-0.7,2.2-1.6,3.1-3l5.1,3c-1.1,2.1-2.7,3.8-4.8,4.9c-2.1,1.2-4.5,1.7-7.3,1.7C342.4,240.3,339.8,239.6,337.5,238.4z"/>
	<path class="st4" d="M389.8,214.3c2.2,2.1,3.2,5.2,3.2,9.3v16.3h-6.6v-15.4c0-2.5-0.6-4.3-1.8-5.6c-1.2-1.3-2.8-1.9-5-1.9
		c-2.4,0-4.4,0.7-5.8,2.2c-1.4,1.5-2.1,3.6-2.1,6.4v14.4h-6.6v-39.4h6.6v14.4c1.1-1.2,2.5-2.1,4.1-2.7c1.6-0.6,3.4-0.9,5.4-0.9
		C384.8,211.2,387.6,212.2,389.8,214.3z"/>
</g>
<path class="st4" d="M188.1,240.1h-9.6c0-24-6.4-41.7-19.1-52.6c-18.5-15.9-44.6-12.2-44.9-12.2l-1.5-9.5
	c1.2-0.2,30.6-4.5,52.6,14.3C180.5,192.9,188.1,213.1,188.1,240.1z"/>
<path class="st4" d="M198.8,240.1h-9.6c0-109.4,59.9-127,62.4-127.7l2.5,9.3C251.9,122.3,198.8,138.5,198.8,240.1z"/>
<path class="st4" d="M193.5,240.1h-9.6c0-64.3-18.2-96.8-54-96.8v-9.6C172,133.6,193.5,169.4,193.5,240.1z"/>
<path class="st4" d="M198.7,230.7h-9.6c0-25.6,13.9-53,53-53v9.6C201.8,187.3,198.7,220.5,198.7,230.7z"/>
<path class="st4" d="M139.6,139.3c-1.3,0.3-2.6,0.5-3.8,0.7c-1.2,0.2-2.3,0.3-3.5,0.3c-2.2,0.1-4.4,0.1-6.4,0c-4.1-0.2-7.9-1-11.7-2
	c-3.7-1.1-7.4-2.5-11-4.4c-0.9-0.5-1.8-1-2.7-1.6c-0.9-0.5-1.8-1.2-2.7-1.8c-1.8-1.4-3.7-2.7-5.6-4.7c1.1-0.8,2.2-1.4,3.3-1.9
	c1.1-0.5,2.2-1,3.4-1.3c2.2-0.7,4.5-1.2,6.7-1.4c4.5-0.4,8.9,0.1,13.1,1.3c4.2,1.2,8.2,3.1,11.8,5.8c1.8,1.3,3.5,2.9,5,4.7
	c0.8,0.9,1.5,1.9,2.2,2.9C138.5,136.9,139.1,138,139.6,139.3z"/>
<path class="st4" d="M151,173.4c-1.5,1-2.9,1.8-4.3,2.5c-1.4,0.7-2.7,1.4-4,1.9c-2.6,1.1-5.1,2.1-7.6,2.8c-5,1.5-9.7,2.2-14.5,2.5
	c-4.8,0.3-9.5,0-14.4-0.9c-1.2-0.2-2.5-0.5-3.7-0.8c-1.2-0.3-2.5-0.7-3.8-1.1c-2.6-1-5.2-1.9-8.1-3.7c1.1-1.5,2.2-2.8,3.4-3.9
	c1.2-1.2,2.4-2.2,3.6-3.2c2.5-1.9,5-3.5,7.6-4.6c5.2-2.5,10.6-3.7,15.9-4c5.3-0.3,10.7,0.4,15.8,2.3c2.5,0.9,5,2.2,7.4,3.8
	c1.2,0.9,2.3,1.7,3.5,2.8C149,170.8,150.1,172,151,173.4z"/>
<path class="st4" d="M137,137.5c-0.3,0.9-0.7,1.7-1,2.4c-0.3,0.7-0.7,1.4-1.1,2c-0.7,1.2-1.5,2.3-2.3,3.2c-1.6,1.8-3.3,3.1-5.1,4.1
	c-1.9,1-3.9,1.6-6.2,1.9c-1.2,0.1-2.5,0.2-3.9,0.1c-1.4-0.1-2.9-0.2-4.8-0.7c0-1,0-1.8,0.2-2.6c0.1-0.8,0.3-1.6,0.5-2.3
	c0.5-1.4,1.1-2.7,1.9-3.8c1.5-2.3,3.5-3.9,5.7-5.1c2.2-1.2,4.7-1.9,7.4-1.8c1.3,0,2.8,0.2,4.2,0.6c0.7,0.2,1.5,0.5,2.2,0.8
	C135.5,136.5,136.3,137,137,137.5z"/>
<path class="st4" d="M156.4,111.9c0.7,0.9,1.3,1.6,1.8,2.4c0.5,0.8,1,1.5,1.4,2.2c0.8,1.4,1.5,2.7,1.9,4c1,2.6,1.3,5,1.3,7.5
	c0,2.4-0.5,4.8-1.6,7.4c-0.5,1.3-1.2,2.6-2.1,4c-0.9,1.4-1.9,2.8-3.5,4.4c-1-0.5-1.8-1.1-2.6-1.7c-0.8-0.6-1.4-1.2-2-1.8
	c-1.2-1.3-2.1-2.6-2.8-4c-1.4-2.8-2-5.7-2-8.6c0.1-2.9,0.8-5.8,2.3-8.5c0.8-1.4,1.8-2.7,3-3.9c0.6-0.6,1.3-1.2,2.1-1.8
	C154.5,112.9,155.4,112.3,156.4,111.9z"/>
<path class="st4" d="M179.7,209.9c-1,0.4-2,0.7-2.8,1c-0.9,0.3-1.7,0.5-2.5,0.6c-1.6,0.3-3.1,0.5-4.4,0.5c-2.8,0.1-5.2-0.3-7.5-1.1
	c-2.3-0.8-4.4-2-6.5-3.8c-1-0.9-2.1-2-3.1-3.2c-1-1.3-2.1-2.7-3.1-4.7c0.8-0.8,1.6-1.4,2.4-1.9c0.8-0.5,1.6-1,2.4-1.3
	c1.6-0.7,3.2-1.2,4.7-1.4c3.1-0.5,6.1-0.1,8.8,0.9c2.7,1,5.3,2.6,7.3,4.9c1,1.1,2,2.5,2.8,4.1c0.4,0.8,0.7,1.6,1,2.5
	C179.4,207.7,179.6,208.7,179.7,209.9z"/>
<path class="st4" d="M227.7,157.7c-1.5,2-3,3.2-4.4,4.3c-1.5,1-3,1.8-4.6,2.4c-1.6,0.6-3.2,1-5,1.1c-1.8,0.1-3.7,0.2-6.2-0.4
	c0.7-2.4,1.9-4.1,3.4-5.5c1.5-1.4,3.2-2.4,5-3c1.8-0.7,3.7-1,5.7-0.9C223.6,155.8,225.7,156.3,227.7,157.7z"/>
<path class="st4" d="M261.5,189.1c-3.9,1.5-7,2.1-10,2.4c-3,0.2-5.9,0-8.6-0.4c-2.8-0.5-5.5-1.3-8.2-2.6c-2.7-1.4-5.5-2.8-8.5-5.7
	c3-2.8,6.3-4.2,9.6-5c3.3-0.7,6.6-0.7,9.7-0.2c3.2,0.6,6.2,1.7,9,3.5C257.2,183.1,259.8,185.4,261.5,189.1z"/>
<path class="st4" d="M256,158.5c-1.9,5.1-4.1,8.6-6.5,11.9c-2.4,3.2-5,5.7-7.8,8c-2.8,2.3-5.9,4.2-9.3,5.7
	c-3.6,1.5-7.3,2.8-12.4,3.2c0-5.5,1.6-9.8,3.8-13.7c2.1-3.8,5-7,8.2-9.6c3.2-2.6,6.9-4.5,10.9-5.6
	C246.8,157.3,251.1,156.8,256,158.5z"/>
<path class="st4" d="M161.1,188.2c-2.2,1.2-4,1.7-5.8,2.1c-1.8,0.3-3.5,0.4-5.2,0.3c-1.7-0.1-3.3-0.4-5-1c-1.7-0.6-3.5-1.4-5.5-2.9
	c1.6-1.9,3.4-2.9,5.3-3.6c1.9-0.7,3.8-0.9,5.8-0.7c1.9,0.1,3.8,0.6,5.6,1.5C158.1,184.8,159.8,186,161.1,188.2z"/>
<path class="st4" d="M208.6,160.9c-2.1-1.4-3.4-2.7-4.5-4.2c-1.1-1.4-2-2.9-2.7-4.4c-0.7-1.5-1.2-3.2-1.5-4.9
	c-0.2-1.8-0.4-3.7,0-6.2c2.4,0.5,4.2,1.7,5.7,3c1.5,1.4,2.6,3,3.3,4.8c0.8,1.8,1.2,3.7,1.2,5.7C210.2,156.7,209.9,158.8,208.6,160.9
	z"/>
<path class="st4" d="M150.5,176c-1.1-0.1-2.1-0.2-3-0.3c-0.9-0.1-1.7-0.3-2.5-0.5c-1.6-0.4-3-0.8-4.3-1.4c-2.5-1.1-4.6-2.5-6.3-4.2
	c-1.7-1.7-3.2-3.7-4.3-6.2c-0.6-1.3-1-2.7-1.5-4.2c-0.4-1.6-0.8-3.3-0.8-5.6c1-0.4,2-0.6,3-0.7c0.9-0.2,1.9-0.2,2.7-0.2
	c1.7,0,3.4,0.2,4.9,0.7c3,0.9,5.6,2.4,7.6,4.5c2.1,2,3.7,4.6,4.6,7.5c0.5,1.5,0.7,3.1,0.8,4.8c0,0.9,0,1.8-0.1,2.7
	C151.1,173.9,150.9,174.9,150.5,176z"/>
<path class="st4" d="M141.5,140.8c-1.7-0.6-3.1-1.2-4.5-1.9c-1.4-0.6-2.6-1.3-3.8-2c-2.4-1.4-4.5-2.8-6.3-4.3
	c-3.8-3-6.7-6.2-9.2-9.7c-0.6-0.9-1.2-1.8-1.8-2.7c-0.6-0.9-1-1.9-1.6-2.9c-1-2-1.8-4.1-2.6-6.3c-0.4-1.1-0.7-2.3-1-3.6
	c-0.3-1.2-0.6-2.5-0.8-3.9c-0.4-2.8-0.8-5.6-0.6-9.2c1.8-0.2,3.4-0.1,5,0c0.8,0.1,1.5,0.2,2.3,0.3c0.8,0.1,1.4,0.3,2.2,0.5
	c2.8,0.7,5.5,1.8,7.8,3.1c4.7,2.7,8.5,6.3,11.5,10.6c2.9,4.2,5,9.1,5.8,14.4c0.4,2.7,0.5,5.5,0.2,8.4c-0.2,1.5-0.4,2.9-0.8,4.5
	C142.9,137.6,142.4,139.2,141.5,140.8z"/>
<path class="st4" d="M173,169c-0.8-1.6-1.5-3-2-4.5c-0.6-1.4-1-2.7-1.4-4c-0.8-2.6-1.4-5.1-1.7-7.4c-0.7-4.7-0.7-9.1-0.1-13.4
	c0.2-1.1,0.3-2.1,0.6-3.2c0.2-1.1,0.5-2.1,0.8-3.2c0.6-2.1,1.4-4.2,2.4-6.4c0.5-1.1,1.1-2.2,1.7-3.3c0.6-1.1,1.3-2.2,2.1-3.4
	c1.6-2.3,3.2-4.6,5.8-7.2c1.4,1.1,2.6,2.2,3.6,3.4c0.5,0.6,1,1.2,1.5,1.8c0.5,0.6,0.8,1.2,1.3,1.8c1.6,2.5,2.8,5,3.6,7.6
	c1.7,5.2,1.9,10.4,1.2,15.5c-0.7,5.1-2.5,10.1-5.6,14.5c-1.5,2.2-3.3,4.4-5.5,6.3c-1.1,1-2.3,1.9-3.7,2.7
	C176.1,167.6,174.7,168.4,173,169z"/>
<path class="st4" d="M260.6,84.5c-0.1,1.8-0.2,3.4-0.4,4.9c-0.2,1.5-0.4,2.9-0.7,4.2c-0.6,2.7-1.3,5.1-2.1,7.3
	c-1.7,4.5-3.9,8.3-6.5,11.7c-0.7,0.8-1.4,1.7-2.1,2.5c-0.7,0.8-1.5,1.6-2.3,2.4c-1.6,1.6-3.3,3-5.3,4.4c-1,0.7-2,1.3-3.1,2
	c-1.1,0.7-2.2,1.3-3.4,1.9c-2.5,1.2-5.1,2.5-8.6,3.4c-0.7-1.7-1.2-3.2-1.5-4.7c-0.2-0.8-0.3-1.5-0.4-2.3c-0.1-0.8-0.1-1.5-0.2-2.2
	c-0.2-2.9,0-5.7,0.6-8.4c1.1-5.3,3.4-10.1,6.6-14.1c3.1-4.1,7.1-7.5,12-9.9c2.4-1.2,5.1-2.2,7.9-2.8c1.5-0.3,2.9-0.5,4.5-0.6
	C257.2,84.2,258.8,84.2,260.6,84.5z"/>
<path class="st4" d="M272.8,119.6c-1,0.9-1.9,1.6-2.8,2.3c-0.9,0.7-1.8,1.2-2.6,1.8c-1.7,1.1-3.4,1.9-5,2.6
	c-3.3,1.4-6.4,2.2-9.6,2.6c-0.8,0.1-1.6,0.1-2.4,0.2c-0.8,0-1.6,0-2.4,0c-1.6,0-3.3-0.3-5.1-0.6c-0.9-0.2-1.8-0.4-2.7-0.6
	c-0.9-0.2-1.8-0.5-2.8-0.9c-1.9-0.7-3.9-1.4-6.3-2.9c0.5-1.2,1.1-2.3,1.8-3.2c0.3-0.5,0.7-0.9,1-1.4c0.3-0.5,0.7-0.8,1.1-1.2
	c1.5-1.6,3.1-2.9,4.8-4c3.4-2.2,7.2-3.3,11-3.7c3.8-0.4,7.7,0,11.5,1.3c1.9,0.7,3.8,1.6,5.6,2.8c0.9,0.6,1.8,1.3,2.6,2.1
	C271.2,117.5,272,118.4,272.8,119.6z"/>
<g>
	<path class="st4" d="M216.5,309.2c-1.7,1.1-3.8,1.9-6.3,2.5c-2.5,0.6-5.1,0.9-8,0.9c-7.7,0-13.5-1.9-17.6-5.6
		c-4.1-3.8-6.2-9.3-6.2-16.8v-19.7h-8.6V255h8.6v-15.3H199V255h13.4v15.4H199v19.5c0,2.1,0.6,3.7,1.7,4.9c1.1,1.2,2.6,1.8,4.5,1.8
		c2.4,0,4.5-0.6,6.3-1.8L216.5,309.2z"/>
	<path class="st4" d="M252.2,253.9c3.4-1.3,7.2-2,11.5-2v18.5c-1.9-0.2-3.4-0.3-4.7-0.3c-4.4,0-7.8,1.2-10.3,3.6
		c-2.5,2.4-3.7,6-3.7,10.9v27h-20.6v-58.7H244v7C246.1,257.2,248.9,255.2,252.2,253.9z"/>
	<path class="st4" d="M331.3,287.4h-42.7c0.9,3,2.5,5.4,5,7c2.5,1.6,5.6,2.4,9.4,2.4c2.8,0,5.3-0.4,7.3-1.2c2.1-0.8,4.1-2.1,6.2-3.9
		l10.8,11.3c-5.7,6.4-14,9.5-25,9.5c-6.9,0-12.9-1.3-18.1-3.9c-5.2-2.6-9.2-6.2-12.1-10.8c-2.9-4.6-4.3-9.9-4.3-15.7
		c0-5.8,1.4-11,4.2-15.5c2.8-4.6,6.6-8.2,11.5-10.8c4.9-2.6,10.4-3.9,16.6-3.9c5.8,0,11.2,1.2,15.9,3.6c4.8,2.4,8.5,5.9,11.3,10.5
		c2.8,4.6,4.2,10,4.2,16.3C331.6,282.5,331.5,284.2,331.3,287.4z M292.4,269.2c-2.1,1.8-3.5,4.3-4.1,7.4h24
		c-0.6-3.1-1.9-5.6-4.1-7.4c-2.1-1.8-4.8-2.7-8-2.7C297.2,266.5,294.5,267.4,292.4,269.2z"/>
	<path class="st4" d="M400.8,287.4h-42.7c0.9,3,2.5,5.4,5,7c2.5,1.6,5.6,2.4,9.4,2.4c2.8,0,5.3-0.4,7.3-1.2c2.1-0.8,4.1-2.1,6.2-3.9
		l10.8,11.3c-5.7,6.4-14,9.5-25,9.5c-6.9,0-12.9-1.3-18.1-3.9c-5.2-2.6-9.2-6.2-12.1-10.8c-2.9-4.6-4.3-9.9-4.3-15.7
		c0-5.8,1.4-11,4.2-15.5c2.8-4.6,6.6-8.2,11.5-10.8c4.9-2.6,10.4-3.9,16.6-3.9c5.8,0,11.2,1.2,15.9,3.6c4.8,2.4,8.5,5.9,11.3,10.5
		c2.8,4.6,4.2,10,4.2,16.3C401.1,282.5,401,284.2,400.8,287.4z M361.9,269.2c-2.1,1.8-3.5,4.3-4.1,7.4h24c-0.6-3.1-1.9-5.6-4.1-7.4
		c-2.1-1.8-4.8-2.7-8-2.7C366.7,266.5,364,267.4,361.9,269.2z"/>
</g>
<g>
	<g>
		<path class="st4" d="M134.6,346.2c1.9,0,1.9-3,0-3C132.7,343.2,132.7,346.2,134.6,346.2L134.6,346.2z"/>
	</g>
</g>
</svg>
