<?xml version="1.0" encoding="utf-8"?>
<!-- Generator: Adobe Illustrator 24.1.0, SVG Export Plug-In . SVG Version: 6.00 Build 0)  -->
<svg version="1.1" id="Ebene_1" xmlns="http://www.w3.org/2000/svg" xmlns:xlink="http://www.w3.org/1999/xlink" x="0px" y="0px"
	 viewBox="0 0 512 512" style="enable-background:new 0 0 512 512;" xml:space="preserve">
<style type="text/css">
	.st0{fill:#80A86F;}
	.st1{fill:#DA545F;}
	.st2{fill:#F56E76;}
	.st3{fill:#FFF682;}
	.st4{fill:#31655D;}
	.st5{fill:#AFD2A3;}
	.st6{fill:#FFE16D;}
	.st7{fill:#7AAD97;}
	.st8{fill:#628C53;}
	.st9{fill:#BFE3B3;}
	.st10{fill:#8EC3AE;}
	.st11{fill:#DEFFE3;}
</style>
<g>
	<g>
		<path class="st2" d="M114,338.9l0-14.5h4.7c1.7,0,3.1,0.3,4.2,0.9c1.1,0.6,1.9,1.4,2.4,2.5c0.5,1.1,0.8,2.4,0.8,3.9
			c0,1.5-0.3,2.8-0.8,3.8c-0.5,1.1-1.3,1.9-2.4,2.5c-1.1,0.6-2.5,0.9-4.2,0.9H114z M116.2,337.1h2.4c1.3,0,2.3-0.2,3.1-0.6
			c0.8-0.4,1.3-1,1.7-1.8c0.3-0.8,0.5-1.8,0.5-2.9c0-1.1-0.2-2.1-0.5-2.9c-0.3-0.8-0.9-1.4-1.7-1.9c-0.8-0.4-1.8-0.7-3.1-0.7h-2.4
			L116.2,337.1z"/>
		<path class="st2" d="M129.7,338.9l0-14.5h2.2l0,14.5H129.7z"/>
		<path class="st2" d="M136.1,338.9l0-14.5h9.2v1.8h-7v4.5h6.4v1.7h-6.4l0,4.7h7v1.8H136.1z"/>
		<path class="st2" d="M154.7,338.9l5.3-14.5h2.4l5.3,14.5h-2.3l-1.2-3.5h-5.9l-1.2,3.5H154.7z M158.8,333.7h4.7l-2.3-6.6
			L158.8,333.7z"/>
		<path class="st2" d="M170.9,338.9l0-14.5h5.1c1.1,0,2.1,0.2,2.8,0.6c0.7,0.4,1.3,0.9,1.7,1.5c0.4,0.7,0.5,1.4,0.5,2.2
			c0,0.8-0.2,1.5-0.5,2.2c-0.4,0.7-0.9,1.2-1.6,1.6c-0.7,0.4-1.7,0.6-2.9,0.6h-2.9l0,5.8H170.9z M173.1,331.3h2.8
			c1,0,1.8-0.2,2.2-0.7c0.4-0.4,0.7-1.1,0.7-1.8c0-0.8-0.2-1.4-0.7-1.9c-0.4-0.4-1.2-0.7-2.2-0.7h-2.8V331.3z"/>
		<path class="st2" d="M184.4,338.9l0-14.5h5.1c1.1,0,2.1,0.2,2.8,0.6c0.7,0.4,1.3,0.9,1.7,1.5c0.4,0.7,0.5,1.4,0.5,2.2
			c0,0.8-0.2,1.5-0.5,2.2c-0.4,0.7-0.9,1.2-1.6,1.6c-0.7,0.4-1.7,0.6-2.9,0.6h-2.9l0,5.8H184.4z M186.6,331.3h2.8
			c1,0,1.8-0.2,2.2-0.7c0.4-0.4,0.7-1.1,0.7-1.8c0-0.8-0.2-1.4-0.7-1.9c-0.4-0.4-1.2-0.7-2.2-0.7h-2.8V331.3z"/>
		<path class="st2" d="M203.8,338.9v-1.7l6.9-10.9h-6.8v-1.9h9.4v1.7l-6.9,10.9h7v1.9H203.8z"/>
		<path class="st2" d="M222.4,339.2c-1,0-2-0.2-2.8-0.6s-1.5-1-2-1.9c-0.5-0.8-0.7-1.9-0.7-3.2v-9h2.2v9c0,1.3,0.3,2.2,0.9,2.8
			c0.6,0.6,1.4,0.9,2.5,0.9c1,0,1.8-0.3,2.4-0.9c0.6-0.6,0.9-1.5,0.9-2.8v-9h2.2v9c0,1.3-0.3,2.4-0.8,3.2c-0.5,0.8-1.2,1.5-2,1.9
			C224.3,339,223.4,339.2,222.4,339.2z"/>
		<path class="st2" d="M232,338.9l0-14.5h2.6l4.9,9.6l4.9-9.6h2.6l0,14.5h-2.2l0-10.7l-4.4,8.6h-1.7l-4.4-8.6l0,10.7H232z"/>
		<path class="st2" d="M259,339l0-14.5h2.2v6.2h7v-6.2h2.2l0,14.5h-2.2v-6.5h-7v6.5H259z"/>
		<path class="st2" d="M274.5,339l0-14.5h2.2l0,14.5H274.5z"/>
		<path class="st2" d="M280.9,339l0-14.5h2.2l7.3,10.9l0-10.9h2.2l0,14.5h-2.2l-7.3-10.9l0,10.9H280.9z"/>
		<path class="st2" d="M296.7,339l0-14.5h5.1c1.1,0,2.1,0.2,2.8,0.6c0.7,0.4,1.3,0.9,1.7,1.5c0.4,0.7,0.5,1.4,0.5,2.2
			c0,0.8-0.2,1.5-0.5,2.2c-0.4,0.7-0.9,1.2-1.6,1.6c-0.7,0.4-1.7,0.6-2.9,0.6h-2.9v5.8H296.7z M298.9,331.4h2.8c1,0,1.8-0.2,2.2-0.7
			c0.4-0.4,0.7-1.1,0.7-1.8c0-0.8-0.2-1.4-0.7-1.9c-0.4-0.4-1.2-0.7-2.2-0.7h-2.8V331.4z"/>
		<path class="st2" d="M310.2,339l0-14.5h9.1v1.8h-6.9v4.6h5.7l0,1.8h-5.7v6.4H310.2z"/>
		<path class="st2" d="M322.7,339l0-14.5h2.2l0,12.7h6.6v1.7H322.7z"/>
		<path class="st2" d="M334.1,339l5.3-14.5h2.4l5.3,14.5h-2.3l-1.2-3.5h-5.9l-1.2,3.5H334.1z M338.2,333.8h4.7l-2.3-6.6L338.2,333.8
			z"/>
		<path class="st2" d="M350.4,339l0-14.5h2.2l7.3,10.9l0-10.9h2.2l0,14.5h-2.2l-7.3-10.9l0,10.9H350.4z"/>
		<path class="st2" d="M365.6,339v-1.7l6.9-10.9h-6.8v-1.9h9.4v1.7l-6.9,10.9h7v1.9H365.6z"/>
		<path class="st2" d="M378.8,339l0-14.5h9.2v1.8h-7v4.5h6.4l0,1.7h-6.4v4.7h7v1.8H378.8z"/>
		<path class="st2" d="M391.8,339l0-14.5h2.2l7.3,10.9l0-10.9h2.2l0,14.5h-2.2l-7.3-10.9l0,10.9H391.8z"/>
	</g>
</g>
<g>
	<path class="st4" d="M63.6,292.7c-2.7-1.4-4.8-3.4-6.3-6c-1.5-2.6-2.3-5.5-2.3-8.7c0-3.2,0.8-6.1,2.3-8.7c1.5-2.5,3.6-4.5,6.3-6
		c2.7-1.4,5.8-2.2,9.2-2.2c3.2,0,6.1,0.7,8.5,2c2.4,1.3,4.3,3.2,5.5,5.7l-5.9,3.4c-0.9-1.5-2.1-2.7-3.5-3.4c-1.4-0.8-3-1.1-4.6-1.1
		c-2.9,0-5.3,0.9-7.1,2.8c-1.9,1.9-2.8,4.4-2.8,7.5c0,3.1,0.9,5.6,2.8,7.5c1.9,1.9,4.3,2.8,7.2,2.8c1.7,0,3.2-0.4,4.6-1.1
		c1.4-0.8,2.6-1.9,3.5-3.4l5.9,3.4c-1.3,2.5-3.1,4.4-5.6,5.7c-2.4,1.3-5.3,2-8.5,2C69.3,294.9,66.3,294.2,63.6,292.7z"/>
	<path class="st4" d="M101.2,292.7c-2.7-1.4-4.7-3.4-6.2-6c-1.5-2.6-2.2-5.5-2.2-8.7c0-3.2,0.7-6.1,2.2-8.7c1.5-2.5,3.6-4.5,6.2-6
		c2.7-1.4,5.7-2.2,9-2.2c3.4,0,6.4,0.7,9,2.2c2.7,1.4,4.7,3.4,6.2,6c1.5,2.5,2.2,5.4,2.2,8.7c0,3.2-0.7,6.1-2.2,8.7
		c-1.5,2.6-3.6,4.6-6.2,6c-2.7,1.4-5.7,2.2-9,2.2C106.8,294.9,103.8,294.2,101.2,292.7z M117.2,285.5c1.8-1.9,2.8-4.4,2.8-7.4
		c0-3.1-0.9-5.6-2.8-7.4c-1.8-1.9-4.2-2.8-7-2.8c-2.8,0-5.2,0.9-7,2.8c-1.8,1.9-2.7,4.4-2.7,7.4c0,3.1,0.9,5.6,2.7,7.4
		c1.8,1.9,4.2,2.8,7,2.8C113,288.3,115.3,287.4,117.2,285.5z"/>
	<path class="st4" d="M169.4,261.6v32.9H162v-4.2c-1.2,1.5-2.8,2.6-4.6,3.4c-1.8,0.8-3.8,1.2-6,1.2c-4.4,0-7.8-1.2-10.4-3.7
		c-2.5-2.4-3.8-6.1-3.8-10.9v-18.8h7.7v17.7c0,3,0.7,5.2,2,6.6c1.3,1.5,3.2,2.2,5.7,2.2c2.7,0,4.9-0.9,6.6-2.6
		c1.6-1.7,2.4-4.2,2.4-7.4v-16.6H169.4z"/>
	<path class="st4" d="M187.8,292.7c-2.7-1.4-4.8-3.4-6.3-6c-1.5-2.6-2.3-5.5-2.3-8.7c0-3.2,0.8-6.1,2.3-8.7c1.5-2.5,3.6-4.5,6.3-6
		c2.7-1.4,5.8-2.2,9.2-2.2c3.2,0,6.1,0.7,8.5,2c2.4,1.3,4.3,3.2,5.5,5.7l-5.9,3.4c-0.9-1.5-2.1-2.7-3.5-3.4c-1.4-0.8-3-1.1-4.6-1.1
		c-2.9,0-5.3,0.9-7.1,2.8c-1.9,1.9-2.8,4.4-2.8,7.5c0,3.1,0.9,5.6,2.8,7.5c1.9,1.9,4.3,2.8,7.2,2.8c1.7,0,3.2-0.4,4.6-1.1
		c1.4-0.8,2.6-1.9,3.5-3.4l5.9,3.4c-1.3,2.5-3.1,4.4-5.6,5.7c-2.4,1.3-5.3,2-8.5,2C193.6,294.9,190.5,294.2,187.8,292.7z"/>
	<path class="st4" d="M248.4,264.9c2.5,2.4,3.8,6,3.8,10.8v18.8h-7.7v-17.8c0-2.9-0.7-5-2-6.5c-1.4-1.5-3.3-2.2-5.8-2.2
		c-2.8,0-5.1,0.9-6.7,2.6c-1.6,1.7-2.5,4.2-2.5,7.4v16.6h-7.7v-45.7h7.7v16.6c1.3-1.4,2.8-2.4,4.7-3.1c1.9-0.7,3.9-1.1,6.2-1.1
		C242.6,261.2,245.9,262.4,248.4,264.9z"/>
</g>
<g>
	<path class="st4" d="M307.1,292.8c-1.4,0.9-3,1.5-5,2s-4.1,0.7-6.3,0.7c-6,0-10.7-1.5-13.9-4.4c-3.3-3-4.9-7.4-4.9-13.3l0-15.6
		l-6.8,0l0-12.1l6.8,0l0-12.1l16.3,0l0,12.1l10.6,0l0,12.1l-10.6,0l0,15.4c0,1.7,0.4,3,1.3,3.9c0.9,0.9,2.1,1.4,3.6,1.4
		c1.9,0,3.5-0.5,5-1.5L307.1,292.8z"/>
	<path class="st4" d="M335.3,249.1c2.7-1.1,5.7-1.6,9.1-1.6l0,14.6c-1.5-0.2-2.7-0.3-3.7-0.3c-3.5,0-6.2,0.9-8.2,2.8
		c-2,1.9-3,4.8-3,8.6l0,21.3l-16.3,0l0-46.4l15.5,0l0,5.6C330.5,251.7,332.6,250.2,335.3,249.1z"/>
	<path class="st4" d="M397.8,275.6l-33.7,0c0.7,2.4,2,4.2,4,5.5c2,1.3,4.4,1.9,7.4,1.9c2.2,0,4.1-0.3,5.8-0.9
		c1.6-0.6,3.3-1.7,4.9-3.1l8.6,8.9c-4.5,5-11.1,7.5-19.8,7.5c-5.4,0-10.2-1-14.3-3.1c-4.1-2.1-7.3-4.9-9.5-8.6
		c-2.3-3.6-3.4-7.8-3.4-12.4c0-4.6,1.1-8.7,3.3-12.3c2.2-3.6,5.2-6.5,9.1-8.5c3.9-2.1,8.2-3.1,13.1-3.1c4.6,0,8.8,1,12.6,2.9
		c3.8,1.9,6.7,4.7,8.9,8.3c2.2,3.6,3.3,7.9,3.3,12.9C398,271.7,397.9,273,397.8,275.6z M367,261.2c-1.7,1.4-2.8,3.4-3.2,5.8h19
		c-0.5-2.5-1.5-4.4-3.2-5.8c-1.7-1.4-3.8-2.1-6.3-2.1C370.8,259.1,368.7,259.8,367,261.2z"/>
	<path class="st4" d="M452.7,275.6l-33.7,0c0.7,2.4,2,4.2,4,5.5c2,1.3,4.4,1.9,7.4,1.9c2.2,0,4.1-0.3,5.8-0.9
		c1.6-0.6,3.3-1.7,4.9-3.1l8.6,8.9c-4.5,5-11.1,7.5-19.8,7.5c-5.4,0-10.2-1-14.3-3.1c-4.1-2.1-7.3-4.9-9.5-8.6
		c-2.3-3.6-3.4-7.8-3.4-12.4c0-4.6,1.1-8.7,3.3-12.3c2.2-3.6,5.2-6.5,9.1-8.5c3.9-2.1,8.2-3.1,13.1-3.1c4.6,0,8.8,1,12.6,2.9
		c3.8,1.9,6.7,4.7,8.9,8.3c2.2,3.6,3.3,7.9,3.3,12.9C452.9,271.7,452.9,273,452.7,275.6z M421.9,261.2c-1.7,1.4-2.8,3.4-3.2,5.8
		l19,0c-0.5-2.5-1.5-4.4-3.2-5.8c-1.7-1.4-3.8-2.1-6.3-2.1C425.7,259.1,423.6,259.8,421.9,261.2z"/>
</g>
<circle class="st3" cx="314.5" cy="194.9" r="31.7"/>
<circle class="st2" cx="277.9" cy="164" r="55.1"/>
<circle class="st9" cx="260.1" cy="208.5" r="33.3"/>
<path class="st4" d="M284.6,257.5H277c0-18.9-5.1-32.9-15.1-41.6c-14.6-12.6-35.3-9.7-35.5-9.6l-1.1-7.5c1-0.2,24.2-3.5,41.5,11.3
	C278.6,220.2,284.6,236.2,284.6,257.5z"/>
<path class="st4" d="M293,257.5h-7.6c0-86.4,47.3-100.3,49.3-100.9l2,7.3C335,164.4,293,177.2,293,257.5z"/>
<circle class="st5" cx="320.7" cy="171.2" r="23.4"/>
<path class="st4" d="M288.8,257.5h-7.6c0-50.8-14.4-76.5-42.7-76.5v-7.6C271.9,173.4,288.8,201.7,288.8,257.5z"/>
<circle class="st6" cx="262.2" cy="166" r="33.3"/>
<path class="st4" d="M292.9,250.1h-7.6c0-20.2,11-41.8,41.8-41.8v7.6C295.4,215.8,292.9,242,292.9,250.1z"/>
<circle class="st5" cx="235.6" cy="198.5" r="17"/>
</svg>
