<?xml version="1.0" encoding="utf-8"?>
<!-- Generator: Adobe Illustrator 24.1.0, SVG Export Plug-In . SVG Version: 6.00 Build 0)  -->
<svg version="1.1" id="Ebene_1" xmlns="http://www.w3.org/2000/svg" xmlns:xlink="http://www.w3.org/1999/xlink" x="0px" y="0px"
	 viewBox="0 0 512 512" style="enable-background:new 0 0 512 512;" xml:space="preserve">
<style type="text/css">
	.st0{fill:#FFE16D;}
	.st1{fill:#5D92AF;}
	.st2{fill:#273635;}
	.st3{fill:#7AA66C;}
	.st4{fill:#BFE3B3;}
	.st5{fill:#60958C;}
	.st6{fill:#99C389;}
	.st7{fill:#497B72;}
	.st8{fill:#31655D;}
	.st9{fill:#BA3143;}
	.st10{fill:#DA545F;}
	.st11{fill:#8EC3AE;}
	.st12{fill:#A5C697;}
	.st13{fill:#628C53;}
	.st14{fill:#BBCBC5;}
	.st15{fill:#4A86A4;}
	.st16{fill:#F56E76;}
	.st17{fill:#95C5AD;}
	.st18{fill:#7AAD97;}
	.st19{fill:#A1B5AE;}
	.st20{fill:#80A86F;}
	.st21{fill:#AFD2A3;}
	.st22{fill:#71A8C6;}
	.st23{fill:none;stroke:#60958C;stroke-width:40;stroke-miterlimit:10;}
	.st24{fill:#FFB1B6;}
</style>
<circle class="st0" cx="255.2" cy="263.6" r="161.5"/>
<g>
	<g>
		<g>
			<path class="st1" d="M209.1,324.1c1.9,0,1.9-3,0-3C207.2,321.1,207.2,324.1,209.1,324.1L209.1,324.1z"/>
		</g>
	</g>
	<ellipse class="st2" cx="208.5" cy="389.5" rx="21.2" ry="3.1"/>
	<path class="st3" d="M217.5,393.7c-0.8-1-1.4-2.1-2-3.2c-0.6-1.1-1.1-2.3-1.6-3.4c-0.9-2.4-1.6-4.8-2.1-7.3c-1-5-1.2-10.2-0.7-15.3
		c0.3-2.5,0.6-5.1,1.2-7.6c0.6-2.5,1.2-5,2-7.4c0.8-2.4,1.7-4.8,2.7-7.1c1-2.3,1.9-4.7,3-7c2.1-4.6,4.3-9.1,6.8-13.5
		c1.2-2.2,2.6-4.3,3.9-6.4c1.4-2.1,2.8-4.1,4.3-6.2c2.9-4,6-8,9.3-11.7c3.3-3.8,6.7-7.4,10.5-10.8l0.6,0.5
		c-2.3,4.5-4.6,8.8-7.1,13.1c-2.4,4.3-4.9,8.6-7.3,12.8c-2.5,4.2-4.9,8.5-7.4,12.7c-2.5,4.2-5.1,8.3-7.5,12.5
		c-2.4,4.2-4.6,8.6-6.4,13c-1,2.2-1.7,4.4-2.5,6.7c-0.7,2.3-1.3,4.6-1.8,6.9c-0.9,4.7-1.3,9.5-1,14.3c0.2,2.4,0.5,4.8,1.1,7.1
		c0.6,2.3,1.4,4.7,2.5,6.8L217.5,393.7z"/>
	<path class="st4" d="M205.3,395.3c-0.4-0.4-0.7-0.7-1-1c-0.3-0.3-0.6-0.7-0.8-1c-0.5-0.7-1-1.4-1.5-2.2c-0.9-1.5-1.6-3.2-2.2-4.8
		c-0.6-1.7-1-3.4-1.3-5.2c-0.3-1.8-0.5-3.5-0.6-5.3c-0.4-7.1,0.7-14.2,2.6-20.9l0.4-1.3l0.4-1.2l0.4-1.2c0.1-0.2,0.1-0.4,0.2-0.6
		l0.2-0.6l1.8-4.5l3.5-9c2.3-5.9,4.2-11.9,5.7-17.8c1.5-6,2.9-11.8,4.4-17.6c1.4-5.8,3-11.7,4.4-17.7c1.4-6,2.8-12.1,4.3-18.4
		c0.4-1.6,0.7-3.1,1.1-4.7l0.6-2.4l0.6-2.4l0.6-2.4l0.7-2.4c0.4-1.6,0.9-3.2,1.5-4.9l2-0.1c0.7,1.6,1.3,3.2,1.8,4.8
		c0.5,1.6,1,3.2,1.5,4.9c0.4,1.6,0.8,3.3,1.2,4.9c0.4,1.6,0.7,3.3,1,5c1.1,6.6,1.7,13.4,1.6,20.2c-0.1,6.8-0.7,13.7-2.2,20.4
		c-0.8,3.4-1.8,6.7-2.9,9.9l-0.9,2.4c-0.3,0.8-0.6,1.6-1,2.4c-0.3,0.8-0.7,1.6-1,2.4c-0.4,0.8-0.7,1.6-1.1,2.3
		c-1.4,3.1-3,6.1-4.5,9.1l-4.6,8.8l-4.5,8.6l-2.2,4.3c-0.4,0.7-0.8,1.3-1.1,2l-0.6,1l-0.5,1c-2.9,5.2-5.5,10.7-6.9,16.5
		c-0.7,2.9-1.1,5.8-1.1,8.8c0,1.5,0.1,3,0.4,4.5c0.1,0.7,0.3,1.5,0.5,2.2c0.1,0.4,0.2,0.7,0.4,1.1c0.1,0.3,0.3,0.7,0.4,1
		L205.3,395.3z"/>
	<path class="st5" d="M207.8,396.9c0.1-4.5,0.1-9,0-13.6c-0.1-4.5-0.2-9-0.3-13.6c-0.3-9-0.7-18.1-1.2-27.1c-0.5-9-1-18.1-1.6-27.1
		l-0.4-6.8l-0.4-6.8l-0.4-6.8c-0.1-2.3-0.3-4.6-0.4-6.9c-0.1-2.3-0.2-4.6-0.3-6.9c-0.1-2.3-0.2-4.6-0.3-6.9
		c-0.1-2.3-0.2-4.6-0.2-6.9c0-2.3-0.1-4.6-0.1-6.9c0-4.6,0.2-9.2,0.5-13.8c0.3-4.6,0.9-9.2,1.5-13.7c1.4-9.1,3.2-18.1,5.6-27
		c1.2-4.4,2.5-8.9,4-13.2c0.8-2.2,1.5-4.4,2.4-6.5c0.8-2.2,1.7-4.3,2.8-6.4l1.5,0.3c0.4,9.3,0.2,18.4,0,27.4c-0.2,9-0.6,18-1,27
		c-0.4,8.9-1.1,17.8-2,26.7c-0.9,8.9-1.8,17.8-2,26.7c-0.1,2.2-0.1,4.5-0.1,6.7l-0.1,6.8l-0.1,6.8l-0.1,6.8
		c-0.2,9.1-0.6,18.2-0.9,27.3c-0.5,9.1-1,18.2-1.7,27.3c-0.8,9.1-1.6,18.1-3,27.2L207.8,396.9z"/>
	<path class="st5" d="M203.2,391.9c0-1.5-0.1-3.1-0.3-4.6c-0.1-1.6-0.3-3.1-0.5-4.6c-0.4-3.1-0.8-6.1-1.4-9.2
		c-1.1-6.1-2.6-12-4.4-17.9c-1.8-5.8-3.8-11.5-6.1-17.1l-0.9-2.1l-0.9-2.1l-1.8-4.1c-1.3-2.7-2.6-5.4-4.1-8.1
		c-1.5-2.7-3-5.3-4.6-7.9c-1.6-2.6-3.1-5.3-4.6-7.9c-3-5.3-5.5-10.9-7.9-16.6c-2.4-5.7-4.7-11.5-6.8-17.5c-1-3-2-6.1-2.9-9.2
		c-0.9-3.1-1.7-6.3-2.4-9.6l1.7-1.1c2.9,1.9,5.4,4,7.9,6.2c2.5,2.2,4.8,4.5,7.1,6.8c4.5,4.7,8.6,9.7,12.3,15
		c1.9,2.6,3.7,5.3,5.3,8.1c1.7,2.8,3.2,5.6,4.6,8.5c2.7,5.9,4.8,12.1,6.9,18.3c1,3.1,2,6.3,3,9.4c1,3.1,1.8,6.3,2.6,9.6
		c1.5,6.4,2.5,13,3,19.5c0.5,6.5,0.6,13.1,0.3,19.5c-0.4,6.5-1.2,12.9-2.9,19.2L203.2,391.9z"/>
	<path class="st6" d="M213.2,393.8c-0.2-0.3-0.2-0.3-0.3-0.5c-0.1-0.1-0.1-0.2-0.2-0.4c-0.1-0.2-0.2-0.5-0.3-0.7
		c-0.2-0.5-0.3-0.9-0.5-1.4c-0.3-0.9-0.6-1.9-0.9-2.8c-0.5-1.9-1-3.8-1.5-5.7c-1-3.8-1.9-7.6-2.7-11.5c-0.8-3.8-1.7-7.7-2.5-11.5
		c-0.8-3.9-1.5-7.6-2.3-11.4c-0.8-3.8-1.6-7.6-2.5-11.4c-0.9-3.8-1.8-7.6-2.7-11.4c-1.8-7.6-3.7-15.2-5.5-22.9
		c-1.7-7.7-3.3-15.6-4.1-23.6c-0.4-4-0.5-8.1-0.4-12.1c0-1,0.1-2,0.1-3l0.1-1.5l0.1-1.5c0.1-1,0.2-2,0.3-3l0.3-3
		c1-7.9,2.5-15.8,4.8-23.5c1.1-3.8,2.4-7.6,4-11.3l0.6-1.4l0.6-1.4c0.4-0.9,0.8-1.8,1.3-2.7c0.9-1.8,1.8-3.5,3-5.2l0.9,0.4
		c-0.9,3.8-1.6,7.6-2.2,11.4c-0.6,3.8-1.1,7.6-1.5,11.5c-0.9,7.6-1.4,15.3-1.7,22.9c-0.2,3.8-0.2,7.6-0.2,11.3
		c0,3.8,0.2,7.5,0.4,11.3c0.4,7.5,1.1,15.1,2.3,22.8c1.1,7.6,2.7,15.3,4.1,23c0.7,3.8,1.4,7.7,2.1,11.6c0.7,3.9,1.3,7.8,1.8,11.7
		c1.2,7.8,1.7,15.6,2.6,23.3c0.4,3.9,0.8,7.8,1.3,11.6c0.2,1.9,0.5,3.9,0.8,5.8c0.1,1,0.3,1.9,0.5,2.9c0.1,0.5,0.2,0.9,0.3,1.4
		c0.1,0.2,0.1,0.5,0.2,0.7c0,0.1,0.1,0.2,0.1,0.3l0,0.2l0,0.1l0,0c0,0,0,0,0,0L213.2,393.8z"/>
	<path class="st7" d="M208.5,399.5c-11.2,0-20.3-1.3-20.3-3v29.1c0,1.7,9.1,3,20.3,3s20.3-1.3,20.3-3l0-29.1
		C228.8,398.1,219.7,399.5,208.5,399.5z"/>
	<path class="st8" d="M208.6,404.2c9.5-0.2,17.6-1.2,20.2-2.6v-5.2c0,1.7-9.1,3-20.3,3c-11.2,0-20.3-1.3-20.3-3v5.9
		C190.7,403.6,198.9,404.4,208.6,404.2z"/>
	<path class="st7" d="M208.5,392.6c-11.7,0-21.2-1.4-21.2-3.1v9.8c0,1.7,9.5,3.1,21.2,3.1c11.7,0,21.2-1.4,21.2-3.1v-9.8
		C229.7,391.2,220.2,392.6,208.5,392.6z"/>
	<path class="st5" d="M203.1,362.3c-4.7-3.6-25.3-34.6-32.6-50.7c-7.3-16.1-15.7-39-16.3-57.4"/>
	<path class="st6" d="M193.4,290.1c-2.4-2.1-8.3-17.3-8.7-24.8s0.5-17.8,6-25.3"/>
	<path class="st6" d="M199.1,328.8c2,2.3,3.8,4.1,4.9,4.5l-6.3-24.1c0.7,0.6,1.3,1,1.8,1.2l-9.3-35.3c-4.4,6.6-3.9,14.1-2.5,19.4
		c0.6,2.4,2.5,5.6,4.7,8.5c-1.7,5.2-1.1,10.4-0.1,14.4c0.6,2.5,2.7,5.8,4.9,8.9c-2,4.7-1.5,10-0.5,13.8c1.1,4.3,6.9,12.2,8.8,13
		L199.1,328.8z"/>
	<path class="st5" d="M183.4,331.2c2.5,1.8,4.7,3,5.8,3.1L177,312.5c0.8,0.4,1.5,0.7,2,0.7l-17.8-31.8c-2.6,7.4-0.2,14.7,2.4,19.4
		c1.2,2.1,3.8,4.8,6.6,7.1c-0.3,5.4,1.5,10.4,3.5,14c1.2,2.2,4,5,7,7.4c-0.7,5.1,1.1,10,3,13.5c2.2,3.9,9.8,10.1,11.8,10.4
		L183.4,331.2z"/>
	<path class="st5" d="M215.5,288.9c-2.4,4.6-4.8,8.1-6.2,9l4.5-45.3c-0.9,1.2-1.7,2.1-2.3,2.5l6.5-66.2c7.7,11.4,8.4,25.3,7.5,35.2
		c-0.4,4.4-2.6,10.6-5.1,16.4c3.4,9.2,3.7,19,3,26.4c-0.5,4.6-2.7,11.1-5.4,17.1c3.8,8.4,4.1,18.1,3.4,25.2
		c-0.8,8-7.7,23.5-10.3,25.3L215.5,288.9z"/>
	<circle class="st9" cx="220.2" cy="180.7" r="4.4"/>
	<circle class="st10" cx="220.8" cy="176.5" r="2.8"/>
</g>
<g>
	<g>
		<path class="st1" d="M303.4,324.1c1.9,0,1.9-3,0-3C301.5,321.1,301.5,324.1,303.4,324.1L303.4,324.1z"/>
	</g>
</g>
<ellipse class="st2" cx="304" cy="389.5" rx="21.2" ry="3.1"/>
<path class="st3" d="M295,393.7c0.8-1,1.4-2.1,2-3.2c0.6-1.1,1.1-2.3,1.6-3.4c0.9-2.4,1.6-4.8,2.1-7.3c1-5,1.2-10.2,0.7-15.3
	c-0.3-2.5-0.6-5.1-1.2-7.6c-0.6-2.5-1.2-5-2-7.4c-0.8-2.4-1.7-4.8-2.7-7.1c-1-2.3-1.9-4.7-3-7c-2.1-4.6-4.3-9.1-6.8-13.5
	c-1.2-2.2-2.6-4.3-3.9-6.4c-1.4-2.1-2.8-4.1-4.3-6.2c-2.9-4-6-8-9.3-11.7c-3.3-3.8-6.7-7.4-10.5-10.8l-0.6,0.5
	c2.3,4.5,4.6,8.8,7.1,13.1c2.4,4.3,4.9,8.6,7.3,12.8c2.5,4.2,4.9,8.5,7.4,12.7c2.5,4.2,5.1,8.3,7.5,12.5c2.4,4.2,4.6,8.6,6.4,13
	c1,2.2,1.7,4.4,2.5,6.7c0.7,2.3,1.3,4.6,1.8,6.9c0.9,4.7,1.3,9.5,1,14.3c-0.2,2.4-0.5,4.8-1.1,7.1c-0.6,2.3-1.4,4.7-2.5,6.8
	L295,393.7z"/>
<path class="st4" d="M307.2,395.3c0.4-0.4,0.7-0.7,1-1c0.3-0.3,0.6-0.7,0.8-1c0.5-0.7,1-1.4,1.5-2.2c0.9-1.5,1.6-3.2,2.2-4.8
	c0.6-1.7,1-3.4,1.3-5.2c0.3-1.8,0.5-3.5,0.6-5.3c0.4-7.1-0.7-14.2-2.6-20.9l-0.4-1.3l-0.4-1.2l-0.4-1.2c-0.1-0.2-0.1-0.4-0.2-0.6
	l-0.2-0.6l-1.8-4.5l-3.5-9c-2.3-5.9-4.2-11.9-5.7-17.8c-1.5-6-2.9-11.8-4.4-17.6c-1.4-5.8-3-11.7-4.4-17.7c-1.4-6-2.8-12.1-4.3-18.4
	c-0.4-1.6-0.7-3.1-1.1-4.7l-0.6-2.4l-0.6-2.4l-0.6-2.4l-0.7-2.4c-0.4-1.6-0.9-3.2-1.5-4.9l-2-0.1c-0.7,1.6-1.3,3.2-1.8,4.8
	c-0.5,1.6-1,3.2-1.5,4.9c-0.4,1.6-0.8,3.3-1.2,4.9c-0.4,1.6-0.7,3.3-1,5c-1.1,6.6-1.7,13.4-1.6,20.2c0.1,6.8,0.7,13.7,2.2,20.4
	c0.8,3.4,1.8,6.7,2.9,9.9l0.9,2.4c0.3,0.8,0.6,1.6,1,2.4c0.3,0.8,0.7,1.6,1,2.4c0.4,0.8,0.7,1.6,1.1,2.3c1.4,3.1,3,6.1,4.5,9.1
	l4.6,8.8l4.5,8.6l2.2,4.3c0.4,0.7,0.8,1.3,1.1,2l0.6,1l0.5,1c2.9,5.2,5.5,10.7,6.9,16.5c0.7,2.9,1.1,5.8,1.1,8.8
	c0,1.5-0.1,3-0.4,4.5c-0.1,0.7-0.3,1.5-0.5,2.2c-0.1,0.4-0.2,0.7-0.4,1.1c-0.1,0.3-0.3,0.7-0.4,1L307.2,395.3z"/>
<path class="st5" d="M304.7,396.9c-0.1-4.5-0.1-9,0-13.6c0.1-4.5,0.2-9,0.3-13.6c0.3-9,0.7-18.1,1.2-27.1c0.5-9,1-18.1,1.6-27.1
	l0.4-6.8l0.4-6.8l0.4-6.8c0.1-2.3,0.3-4.6,0.4-6.9c0.1-2.3,0.2-4.6,0.3-6.9c0.1-2.3,0.2-4.6,0.3-6.9c0.1-2.3,0.2-4.6,0.2-6.9
	c0-2.3,0.1-4.6,0.1-6.9c0-4.6-0.2-9.2-0.5-13.8c-0.3-4.6-0.9-9.2-1.5-13.7c-1.4-9.1-3.2-18.1-5.6-27c-1.2-4.4-2.5-8.9-4-13.2
	c-0.8-2.2-1.5-4.4-2.4-6.5c-0.8-2.2-1.7-4.3-2.8-6.4l-1.5,0.3c-0.4,9.3-0.2,18.4,0,27.4c0.2,9,0.6,18,1,27c0.4,8.9,1.1,17.8,2,26.7
	c0.9,8.9,1.8,17.8,2,26.7c0.1,2.2,0.1,4.5,0.1,6.7l0.1,6.8l0.1,6.8l0.1,6.8c0.2,9.1,0.6,18.2,0.9,27.3c0.5,9.1,1,18.2,1.7,27.3
	c0.8,9.1,1.6,18.1,3,27.2L304.7,396.9z"/>
<path class="st5" d="M309.3,391.9c0-1.5,0.1-3.1,0.3-4.6c0.1-1.6,0.3-3.1,0.5-4.6c0.4-3.1,0.8-6.1,1.4-9.2c1.1-6.1,2.6-12,4.4-17.9
	c1.8-5.8,3.8-11.5,6.1-17.1l0.9-2.1l0.9-2.1l1.8-4.1c1.3-2.7,2.6-5.4,4.1-8.1c1.5-2.7,3-5.3,4.6-7.9c1.6-2.6,3.1-5.3,4.6-7.9
	c3-5.3,5.5-10.9,7.9-16.6c2.4-5.7,4.7-11.5,6.8-17.5c1-3,2-6.1,2.9-9.2c0.9-3.1,1.7-6.3,2.4-9.6l-1.7-1.1c-2.9,1.9-5.4,4-7.9,6.2
	c-2.5,2.2-4.8,4.5-7.1,6.8c-4.5,4.7-8.6,9.7-12.3,15c-1.9,2.6-3.7,5.3-5.3,8.1c-1.7,2.8-3.2,5.6-4.6,8.5c-2.7,5.9-4.8,12.1-6.9,18.3
	c-1,3.1-2,6.3-3,9.4c-1,3.1-1.8,6.3-2.6,9.6c-1.5,6.4-2.5,13-3,19.5c-0.5,6.5-0.6,13.1-0.3,19.5c0.4,6.5,1.2,12.9,2.9,19.2
	L309.3,391.9z"/>
<path class="st6" d="M299.3,393.8c0.2-0.3,0.2-0.3,0.3-0.5c0.1-0.1,0.1-0.2,0.2-0.4c0.1-0.2,0.2-0.5,0.3-0.7
	c0.2-0.5,0.3-0.9,0.5-1.4c0.3-0.9,0.6-1.9,0.9-2.8c0.5-1.9,1-3.8,1.5-5.7c1-3.8,1.9-7.6,2.7-11.5c0.8-3.8,1.7-7.7,2.5-11.5
	c0.8-3.9,1.5-7.6,2.3-11.4c0.8-3.8,1.6-7.6,2.5-11.4c0.9-3.8,1.8-7.6,2.7-11.4c1.8-7.6,3.7-15.2,5.5-22.9c1.7-7.7,3.3-15.6,4.1-23.6
	c0.4-4,0.5-8.1,0.4-12.1c0-1-0.1-2-0.1-3l-0.1-1.5l-0.1-1.5c-0.1-1-0.2-2-0.3-3l-0.3-3c-1-7.9-2.5-15.8-4.8-23.5
	c-1.1-3.8-2.4-7.6-4-11.3l-0.6-1.4l-0.6-1.4c-0.4-0.9-0.8-1.8-1.3-2.7c-0.9-1.8-1.8-3.5-3-5.2l-0.9,0.4c0.9,3.8,1.6,7.6,2.2,11.4
	c0.6,3.8,1.1,7.6,1.5,11.5c0.9,7.6,1.4,15.3,1.7,22.9c0.2,3.8,0.2,7.6,0.2,11.3c0,3.8-0.2,7.5-0.4,11.3c-0.4,7.5-1.1,15.1-2.3,22.8
	c-1.1,7.6-2.7,15.3-4.1,23c-0.7,3.8-1.4,7.7-2.1,11.6c-0.7,3.9-1.3,7.8-1.8,11.7c-1.2,7.8-1.7,15.6-2.6,23.3
	c-0.4,3.9-0.8,7.8-1.3,11.6c-0.2,1.9-0.5,3.9-0.8,5.8c-0.1,1-0.3,1.9-0.5,2.9c-0.1,0.5-0.2,0.9-0.3,1.4c-0.1,0.2-0.1,0.5-0.2,0.7
	c0,0.1-0.1,0.2-0.1,0.3l0,0.2l0,0.1l0,0c0,0,0,0,0,0L299.3,393.8z"/>
<path class="st7" d="M304,399.5c11.2,0,20.3-1.3,20.3-3l0,29.1c0,1.7-9.1,3-20.3,3s-20.3-1.3-20.3-3l0-29.1
	C283.7,398.1,292.8,399.5,304,399.5z"/>
<path class="st8" d="M303.9,404.2c-9.5-0.2-17.6-1.2-20.2-2.6v-5.2c0,1.7,9.1,3,20.3,3c11.2,0,20.3-1.3,20.3-3v5.9
	C321.8,403.6,313.6,404.4,303.9,404.2z"/>
<path class="st7" d="M304,392.6c11.7,0,21.2-1.4,21.2-3.1v9.8c0,1.7-9.5,3.1-21.2,3.1s-21.2-1.4-21.2-3.1v-9.8
	C282.8,391.2,292.3,392.6,304,392.6z"/>
<path class="st5" d="M309.4,362.3c4.7-3.6,25.3-34.6,32.6-50.7c7.3-16.1,15.7-39,16.3-57.4"/>
<path class="st6" d="M319.1,290.1c2.4-2.1,8.3-17.3,8.7-24.8c0.4-7.5-0.5-17.8-6-25.3"/>
<path class="st6" d="M313.4,328.8c-2,2.3-3.8,4.1-4.9,4.5l6.3-24.1c-0.7,0.6-1.3,1-1.8,1.2l9.3-35.3c4.4,6.6,3.9,14.1,2.5,19.4
	c-0.6,2.4-2.5,5.6-4.7,8.5c1.7,5.2,1.1,10.4,0.1,14.4c-0.6,2.5-2.7,5.8-4.9,8.9c2,4.7,1.5,10,0.5,13.8c-1.1,4.3-6.9,12.2-8.8,13
	L313.4,328.8z"/>
<path class="st5" d="M329.1,331.2c-2.5,1.8-4.7,3-5.8,3.1l12.2-21.8c-0.8,0.4-1.5,0.7-2,0.7l17.8-31.8c2.6,7.4,0.2,14.7-2.4,19.4
	c-1.2,2.1-3.8,4.8-6.6,7.1c0.3,5.4-1.5,10.4-3.5,14c-1.2,2.2-4,5-7,7.4c0.7,5.1-1.1,10-3,13.5c-2.2,3.9-9.8,10.1-11.8,10.4
	L329.1,331.2z"/>
<path class="st5" d="M297,288.9c2.4,4.6,4.8,8.1,6.2,9l-4.5-45.3c0.9,1.2,1.7,2.1,2.3,2.5l-6.5-66.2c-7.7,11.4-8.4,25.3-7.5,35.2
	c0.4,4.4,2.6,10.6,5.1,16.4c-3.4,9.2-3.7,19-3,26.4c0.5,4.6,2.7,11.1,5.4,17.1c-3.8,8.4-4.1,18.1-3.4,25.2c0.8,8,7.7,23.5,10.3,25.3
	L297,288.9z"/>
<path class="st7" d="M248.2,361.3c-0.2-1.4-17.7-136.3-2.6-222.3c3.9-22.1,7.6-38.4,11.2-48.4c2.9-8.3,5.6-12.2,8.5-12.3
	c0,0,0.1,0,0.1,0c3.6,0,5.2,6.3,5.4,7l-1.9,0.5c-0.4-1.8-1.8-5.5-3.5-5.4c-2.2,0.1-8.4,6-17.8,59.1c-15,85.7,2.5,220.3,2.7,221.7
	L248.2,361.3z"/>
<ellipse class="st2" cx="253.5" cy="382.4" rx="31.5" ry="4.6"/>
<path class="st12" d="M247.4,394c-0.9-0.9-1.6-1.8-2.4-2.7c-0.7-0.9-1.4-1.9-2-2.9c-1.2-2-2.3-4.1-3.3-6.3c-1.9-4.4-3.2-9-4.1-13.7
	c-1.7-9.4-1.7-19.2-0.5-28.6c0.6-4.7,1.5-9.5,2.6-14.1c0.3-1.2,0.6-2.3,0.9-3.5c0.3-1.1,0.6-2.3,1-3.4l1-3.4l0.3-0.9l0.3-0.8
	l0.6-1.7c1.6-4.4,3.3-8.8,5.1-13.1c1.7-4.3,3.6-8.6,5.4-12.9c0.9-2.1,1.9-4.3,2.9-6.4l1.5-3.2l1.5-3.1c2.1-4.2,4.3-8.2,6.6-12.2
	c4.7-8,10.1-15.5,15.6-22.9c2.8-3.7,5.7-7.3,8.7-10.8l2.2-2.6l2.3-2.6c1.5-1.7,3.1-3.4,4.7-5.1c3.2-3.4,6.4-6.7,9.8-9.8
	c3.4-3.2,6.9-6.3,10.6-9.1l1.6,1.2c-1.8,4.3-3.7,8.5-5.7,12.7c-2,4.2-4,8.2-6.1,12.3c-4.2,8.1-8.4,16.1-12.7,24
	c-4.3,7.9-8.7,15.7-13.2,23.4c-2.3,3.8-4.6,7.6-7,11.4c-2.4,3.8-4.7,7.5-7,11.3c-1.2,1.9-2.3,3.8-3.4,5.7c-1.1,1.9-2.2,3.9-3.2,5.8
	c-2.1,3.9-4,7.9-5.8,11.9l-2.7,6c-0.5,1-0.8,2-1.3,3c-0.4,1-0.9,2-1.2,3l-1.2,3c-0.4,1-0.7,2-1.1,3.1l-0.5,1.5l-0.5,1.5
	c-0.3,1-0.7,2.1-0.9,3.1c-1.2,4.2-2.2,8.4-2.9,12.7c-0.7,4.3-1.1,8.6-1.1,12.9c0,1.1,0,2.2,0.1,3.2c0,1.1,0.1,2.2,0.2,3.2
	c0.2,2.2,0.5,4.3,1,6.5c0.5,2.1,1,4.2,1.8,6.3c0.4,1,0.8,2.1,1.2,3c0.5,1,1,2,1.5,2.8L247.4,394z"/>
<path class="st13" d="M281,340.7l8.2,0.9c1.2-3.1,2.3-6.3,3.3-9.5l-5.6-4.7l6.9,0.8c0,0,0-0.1,0-0.1c1.2-3.7,2.3-7.4,3.4-11.1
	l-5-4.2l6,0.7c0.8-2.9,1.4-5.9,2-8.8c0.4-1.9,0.7-3.8,1-5.8l-6.3-5.3l6.9,0.8c0.5-4.4,0.7-8.9,0.7-13.3c0-0.6,0-1.2,0-1.8l-8.4-4
	l8.2-0.6c-0.3-5.7-0.8-11.3-1.5-16.9c0,0,0,0,0-0.1l-9-1.4l8.3-3.2c-0.8-5.4-1.9-10.8-3.2-16.1l-7.8-1.2l6.8-2.6
	c-0.9-3.2-1.8-6.5-2.9-9.7c-1.3-3.8-2.7-7.6-4.4-11.3h-3.3c-1.8,3.8-3.2,7.5-4.5,11.3c-1.3,3.8-2.4,7.5-3.5,11.3
	c-2.1,7.5-3.7,15-5.1,22.4c-1.4,7.4-2.6,14.7-3.5,22c-0.9,7.3-1.5,14.4-1.8,21.5l-0.4,10.7c-0.2,3.5-0.4,7.1-0.8,10.6
	c-0.4,3.5-0.9,7-1.6,10.5c-0.7,3.5-1.5,6.9-2.4,10.3c-0.9,3.4-2,6.9-3,10.3c-0.3,1.9-0.6,3.9-0.8,5.9l-0.3,3l-0.3,3
	c-0.4,4-0.6,8-0.7,12.1c0,2.1,0,4.1,0.2,6.3c0.1,1.1,0.2,2.2,0.5,3.5c0.1,0.4,0.2,0.7,0.3,1.2c0.1,0.2,0.2,0.6,0.5,1
	c0.1,0.2,0.3,0.5,0.7,0.7c0.3,0.2,0.7,0.5,1.1,0.5c0.9,0.1,1.3-0.1,1.6-0.3c0.3-0.2,0.5-0.4,0.6-0.5c0.3-0.3,0.4-0.6,0.6-1l-2.5-2.2
	c-0.1,0-0.3,0.1-0.4,0c0,0-0.1-0.1,0-0.2c0.1-0.1,0.3-0.3,1-0.2c0.3,0,0.6,0.2,0.8,0.4c0.2,0.2,0.4,0.3,0.4,0.4
	c0.2,0.2,0.2,0.3,0.3,0.3c0.1,0.1,0.2-0.1,0.3-0.2l1.4-2c1-1.5,2.1-3,3.2-4.6c2.2-3.1,4.5-6.2,6.8-9.2l1.7-2.3l1.7-2.3
	c1.1-1.5,2.2-3.1,3.3-4.7c0.7-1.4,1.4-2.8,2-4.3l-5-4.2l6.6,0.7c0.5-1,0.9-2.1,1.3-3.2c0.7-1.6,1.3-3.2,1.9-4.7L281,340.7z"/>
<path class="st7" d="M288.8,109.3c-4.3,4.9-7.9,10.2-11.3,15.5c-1.5,2.4-2.9,4.8-4.3,7.2l5.8,5l-7.7-1.5c-1.1,1.9-2.1,3.8-3.1,5.8
	c-1.6,3-3,6.1-4.5,9.1l5.8,5.1l-7.5-1.5c-0.6,1.5-1.3,2.9-1.9,4.4c-1.6,3.9-3.1,7.8-4.5,11.7l5.4,2.4l-6.4,0.7c-0.3,1-0.6,1.9-1,2.9
	c-1.3,4.1-2.4,8.3-3.3,12.5l3.7,0.9l-4.2,1.6c-0.2,1.1-0.5,2.3-0.7,3.4c-0.8,4.4-1.5,8.8-2.1,13.3l3.1,0.7l-3.3,1.2
	c-0.2,1.2-0.3,2.4-0.5,3.6c-0.4,3.2-0.8,6.3-1.1,9.5c0,0,0,0,0,0l5,1.2l-5.3,1.9c-0.1,0.5-0.1,1.1-0.2,1.6c-0.2,1.6-0.3,3.2-0.5,4.8
	c-0.1,1.4-0.2,2.9-0.3,4.4l7.4,1.8l-7.8,2.8c0,0.2,0,0.4,0,0.7l-0.2,4.8c-0.1,1.6-0.1,3.2-0.1,4.8c-0.1,12.7,0.7,25.3,2,37.7
	c1.2,12.4,2.9,24.7,4.8,37c1.9,12.3,4,24.5,6.5,36.6c2.4,12.1,5,24.2,7.9,36.2l2.3-0.4c-2.8-24.5-4.9-49-6.4-73.5
	c-0.7-12.2-1.2-24.5-1.3-36.7c-0.1-3,0-6.1,0-9.1c0.1-3,0.1-6.1,0.2-9.1c0.1-6,0.4-12.1,0.9-18c0.1-1.5,0.2-3,0.4-4.4l0.5-4.4
	l0.6-4.3l0.2-1.1l0.2-1.1l0.4-2.2c0.2-1.5,0.5-2.9,0.9-4.4c0.3-1.5,0.6-2.9,1-4.4c0.7-2.9,1.5-5.8,2.2-8.7
	c1.6-5.8,3.5-11.5,5.3-17.2c1.8-5.7,3.6-11.5,5.1-17.3c1.6-5.8,3-11.7,4.4-17.6c1.4-5.9,2.7-11.9,3.9-17.9c1.2-6,2.4-12.1,3.4-18.2
	c1-6.2,1.9-12.4,2.5-18.8L288.8,109.3z"/>
<g>
	<path class="st14" d="M255.1,387l0-0.1l0-0.7l0-1.4l0-2.7l-0.1-5.4c-0.1-3.6-0.2-7.2-0.3-10.8c-0.1-3.6-0.2-7.2-0.4-10.8l-0.5-10.7
		l-0.5-10.7l-0.3-5.4c-0.1-0.9-0.1-1.8-0.2-2.7l-0.3-2.7c-0.7-7.2-1.6-14.4-2.6-21.5c-0.5-3.6-1-7.2-1.6-10.7
		c-0.6-3.6-1.1-7.1-1.7-10.7c-1.2-7.1-2.4-14.2-3.6-21.2c-1.2-7-2.5-14-3.6-21c-1.1-7-2-13.9-2.8-20.9c-1.5-13.9-2.2-27.6-2.8-41
		c-0.3-6.7-0.4-13.4-0.5-20.2c0-1.7-0.1-3.4-0.1-5l0-5.1c0.1-3.4,0.1-6.9,0.1-10.4c0.2-13.8,0.8-27.7,1.6-41.6c0.4-7,1-14,1.6-21
		c0.6-7,1.4-14.2,2.4-21.3l-2.7-1.3c-4.7,6-8.3,12.5-11.7,19.1c-1,2.1-2,4.2-2.9,6.3l3.8,2.2l-4.8,0c-0.2,0.6-0.5,1.1-0.7,1.7
		c-1.3,3.4-2.8,6.9-4,10.4c-0.9,2.6-1.8,5.3-2.6,8l5.3,3l-6.2-0.1c-2,6.6-3.6,13.4-5,20.1l5.1,1.2l-5.7,1.7c-0.6,3-1.1,6.1-1.6,9.1
		c-0.5,3.3-1,6.6-1.4,10l4.3,0.2l-4.7,2.7c-0.3,3.1-0.6,6.2-0.8,9.4c-0.2,3.4-0.3,6.8-0.3,10.2l5.4,0.3l-5.3,3.1
		c0.1,3,0.2,6,0.4,9.1c0.1,1.7,0.3,3.4,0.4,5.2l8,0.4l-7.5,4.4c0.5,3.8,1.1,7.7,1.7,11.5l10.3,0.5l-9.2,5.4
		c1.1,5.6,2.4,11.2,3.7,16.7c1.7,7.1,3.5,14.2,5.3,21.2c1.8,7,3.5,14,5.3,20.9l5.3,20.7c0.9,3.4,1.7,6.9,2.6,10.3
		c0.9,3.4,1.7,6.9,2.5,10.3c1.6,6.9,3.2,13.7,4.6,20.6c0.7,3.4,1.6,6.9,2.5,10.4l2.7,10.4l2.7,10.4c0.9,3.5,1.8,6.9,2.8,10.4
		c0.9,3.5,1.8,6.9,2.8,10.4l1.4,5.2l0.7,2.6l0.4,1.3l0.2,0.6c0,0,0,0,0,0l0,0.1c0.5,0,0.2,0,0,0l0,0.1c0,0.1,0,0,0,0.2
		C258.2,386.9,253.7,387.1,255.1,387z M255,386.8C255.1,386.9,255.1,386.9,255,386.8L255,386.8C255,386.8,255,386.8,255,386.8z"/>
	<path class="st14" d="M252,387.3C252,387.3,252,387.3,252,387.3L252,387.3L252,387.3C251.5,387.3,251.8,387.3,252,387.3L252,387.3
		L252,387.3z"/>
</g>
<path class="st12" d="M241.5,320.1c-0.9-5.9-2-11.7-3.2-17.6c-1.3-5.8-2.8-11.6-4.4-17.3c-1.6-5.7-3.4-11.4-5.4-17
	c-1.4-4-2.8-7.9-4.3-11.9l-3.6-0.9l2.7-1.3c-0.3-0.9-0.6-1.7-1-2.6c-1.3-3.4-2.6-6.8-4-10.1l-2.4-0.6l1.8-0.9c-2-4.8-4-9.6-6.2-14.3
	l-1.5-0.4l1-0.5c-0.9-1.9-1.8-3.8-2.8-5.7c-2-3.9-4-7.8-6.2-11.7l-2.6-0.7l1.7-0.9c-0.4-0.8-0.9-1.6-1.3-2.3
	c-2.6-4.4-5.3-8.8-8-13.1l-4.6,0.1l3-2.6c-3.5-5.4-7.1-10.7-10.8-15.9l-5.6,2.4l3-6.1c-2.1-2.9-4.3-5.8-6.5-8.6
	c-1.5-1.9-2.9-3.7-4.4-5.6l-6.8,2.9l3.4-7c-1.1-1.3-2.3-2.7-3.4-4c-3.9-4.5-7.9-8.8-12.2-13l-1.6,1.1c2.2,5.5,4.5,10.9,6.9,16.3
	c2.4,5.4,4.8,10.7,7.2,15.9c4.9,10.6,9.9,21,15,31.3l7.6,15.5c2.6,5.1,5.2,10.3,7.9,15.3c5.3,10.2,10.9,20.2,16,30.4
	c2.5,5.1,5,10.3,7.3,15.5c0.6,1.3,1.1,2.6,1.7,3.9l1.6,3.9c1.1,2.6,2.1,5.3,3.2,7.9c2,5.3,3.9,10.7,5.7,16.1
	c1.8,5.4,3.4,10.9,4.9,16.4c2.9,11,5.3,22.2,6.8,33.6c0.8,5.7,1.3,11.4,1.6,17.2c0.3,5.7,0.4,11.6-0.1,17.2l2,0.4
	c0.8-2.9,1.3-5.8,1.7-8.7c0.4-2.9,0.8-5.9,1.1-8.8c0.5-5.9,0.8-11.8,0.8-17.7C244.2,343.7,243.2,331.8,241.5,320.1z"/>
<path class="st7" d="M269.7,390.9c-0.5-3.1-11.9-76-7.3-101.7c3.3-18.6,10.3-27.3,15.7-27.7c2.7-0.2,4.9,1.7,6.1,5.1
	c3.3,10,2.7,21.1,2.7,21.6l-2-0.1c0-0.1,0.6-11.2-2.6-20.8c-0.5-1.5-1.7-3.9-4-3.7c-3.8,0.3-10.6,7.4-13.9,26.1
	c-4.6,25.4,7.2,100.3,7.3,101L269.7,390.9z"/>
<path class="st1" d="M253.5,397.2c-16.7,0-30.1-2-30.1-4.4l0,43.1c0,2.5,13.5,4.4,30.1,4.4s30.1-2,30.1-4.4v-43.1
	C283.6,395.2,270.1,397.2,253.5,397.2z"/>
<path class="st15" d="M253.6,404.3c14.1-0.3,26-1.8,30-3.8v-7.7c0,2.5-13.5,4.4-30.1,4.4c-16.7,0-30.1-2-30.1-4.4v8.7
	C227.1,403.3,239.2,404.5,253.6,404.3z"/>
<path class="st1" d="M253.5,387.1c-17.4,0-31.5-2.1-31.5-4.6l0,14.6c0,2.6,14.1,4.6,31.5,4.6s31.5-2.1,31.5-4.6v-14.6
	C284.9,385,270.8,387.1,253.5,387.1z"/>
<path class="st16" d="M330.2,292.6c-1.1-1.1-2.7-1.8-4.3-1.8L291,291c-3.4,0-6.2,2.8-6.2,6.2l-0.2,34.8c0,1.6,0.6,3.2,1.8,4.3
	l73.2,73.2c2.4,2.4,6.3,2.4,8.7,0l35-35c2.4-2.4,2.4-6.3,0-8.7L330.2,292.6z M305.5,311.6c-2.5,2.5-6.4,2.5-8.8,0
	c-2.4-2.4-2.4-6.4,0-8.8c2.5-2.5,6.4-2.5,8.8,0C308,305.2,308,309.2,305.5,311.6z"/>
<path class="st24" d="M377.2,390.3l-0.6-0.5c0-0.1,0-0.2,0-0.3c0-0.2,0-0.5,0-0.8c0.1-0.4,0.6-1.3,1-1.5c0.3-0.1,0.5-0.3,0.7-0.6
	c0,0-0.1,0-0.1,0c-1.1,0.2-2.2,0.5-3.3,0.7c-0.2,0.1-0.5,0.1-0.7,0.1c-0.3,0-0.5,0-0.8-0.1c-0.5-0.2-0.8-0.5-0.8-1.1
	c0-0.7,0.3-1.2,0.8-1.6c-0.5-0.1-0.9-0.2-1.3-0.4c0,0-0.1,0-0.1,0l-0.5,0.3c-0.2-0.1-0.4-0.1-0.6-0.2c-0.5-0.2-0.9-0.3-1.4-0.5
	c-0.5-0.2-1.1-0.5-1.4-1c-0.5-0.7-0.5-1.5-0.1-2.2c0.1-0.1,0.2-0.3,0.2-0.4c0,0,0,0-0.1,0c-0.8-0.1-1.5-0.3-2.3-0.7
	c-1.7-0.9-2.3-2.4-1.7-4c0,0,0,0,0-0.1c-0.2,0.1-0.5,0.1-0.7,0.1c-0.3,0-0.6,0.1-0.9,0.1c-0.7,0-1.3-0.1-1.8-0.4
	c-0.4-0.2-0.7-0.4-0.8-1l0-0.2c0-0.2-0.1-0.3-0.1-0.5c-0.1-0.4,0-0.8,0.3-1.1c1.2-1.2,2.3-1.9,3.7-2.2c-0.8-0.2-1.5-0.3-2.3-0.3
	c-0.7,0-1.5,0.1-2.2,0.3c-0.2,0-0.4,0.1-0.6,0.1c-0.7,0.2-1.3,0.3-1.9,0.6c-0.2,0.1-0.4,0.2-0.7,0.2c-0.1,0-0.3,0-0.5,0l-0.3,0
	l-0.4-0.4c-0.3-1.1,0.1-1.8,0.8-2.4c-0.8-0.1-1.6-0.3-2.3-0.5c-0.9-0.2-1.5-0.6-1.9-1.3l-0.1-0.3l0-0.8l0.1-0.4l0.8-0.8l-1.6-0.1
	c-0.8,0-1.5-0.1-2.3-0.4c-0.8-0.3-1.1-0.8-0.9-1.7c0-0.2,0.1-0.4,0.1-0.6c0.1-0.3,0.3-0.6,0.6-0.8c1.4-0.8,2.8-1.1,4-1.2l0.1,0
	c0.3,0,0.6-0.1,1-0.1c0.3,0,0.6,0,0.9,0.1c0.8,0.2,1.7,1.3,1.6,2.2c0,0.3-0.1,0.5-0.4,0.8c-0.1,0.1-0.2,0.2-0.3,0.3
	c0.2,0.3,0.3,0.6,0.2,1c-0.1,0.5-0.5,0.8-0.9,1.1c-0.3,0.2-0.6,0.4-0.9,0.6c0.8,0.4,1.6,0.7,2.5,0.8c0.2,0,0.4,0.1,0.7,0.2
	c0,0,0,0,0.1,0c0.1,0,0.1,0,0.2,0c0.1,0,0.2,0,0.3,0c0.7,0,1.4-0.2,1.9-0.6c0.1-0.1,0.3-0.1,0.4-0.2l0.7,0.2c0.4,0.7,0.4,1.1,0,1.7
	c0.5,0,1,0,1.5-0.1c0.1,0,0.1,0,0.2,0c0.9,0,1.7,0.4,2.4,0.9c0.5,0.3,0.6,0.7,0.7,1.4l-0.3,0.3c0.7,0,1.2,0.3,1.7,0.8l0.3,0.3l0,0.2
	c0.2-0.2,0.5-0.5,0.7-0.6c0.4-0.3,0.8-0.6,1.3-0.9c0.3-0.2,0.7-0.5,1-0.7l0.5-0.4c0.6-0.4,1.2-0.8,1.8-1.2c0.4-0.2,0.8-0.4,1.1-0.6
	c1.1-0.6,2.2-1.2,3.3-1.8c1.4-0.7,2.9-1.2,4.4-1.7c0.2-0.1,0.4-0.1,0.5-0.1c0.5,0,0.8,0.2,1.2,0.6c0.4,0.5,0.5,1,0.2,1.7
	c-0.3,0.8-0.9,1.2-1.4,1.4c-0.3,0.1-0.5,0.3-0.8,0.5c-0.2,0.1-0.3,0.3-0.5,0.4c-0.2,0.1-0.4,0.2-0.6,0.3c-0.2,0.1-0.3,0.2-0.5,0.3
	c-0.2,0.1-0.5,0.3-0.7,0.4c-0.3,0.2-0.6,0.4-0.9,0.6c-0.3,0.2-0.6,0.3-0.9,0.5c-0.3,0.1-0.5,0.2-0.7,0.4c-0.3,0.2-0.6,0.3-0.9,0.5
	c-0.3,0.2-0.6,0.3-0.9,0.5c-0.3,0.2-0.7,0.4-1,0.5c-0.2,0.1-0.3,0.2-0.5,0.2c-0.2,0.1-0.4,0.2-0.6,0.3c-0.2,0.1-0.5,0.2-0.7,0.3
	c-0.3,0.2-0.6,0.2-0.9,0.2c0,0,0,0-0.1,0c-0.1,0.2-0.3,0.4-0.7,0.5c-0.6,0.2-1.1,0.4-1.7,0.6c-0.3,0.1-0.6,0.2-0.9,0.4
	c-0.2,0.1-0.3,0.1-0.4,0.1l-0.2,0.3c-0.2,0.4-0.5,0.9-0.7,1.3c-0.1,0.2,0,0.5,0.1,0.6c1.2,0.7,2.4,1.2,3.7,1.3
	c0.4,0,0.7,0.1,1.1,0.1c0.6,0,1.1-0.1,1.7-0.2c0.2,0,0.4-0.1,0.7-0.1c0.5,0,1.1,0.1,1.7,0.3c0.3,0.1,0.6,0.3,0.8,0.6
	c0.1,0.1,0.2,0.2,0.3,0.2l0.2,0.5l-0.2,1.3l-0.2,0.3c-0.6,0.5-1.3,0.7-2.2,0.7c-0.6,0-1.1-0.1-1.7-0.2c-0.8-0.2-1.2-0.5-1.5-0.9
	l-0.6,0.3c0.2,0.4,0.6,0.6,1.2,0.9l0.1,0.1c1,0.5,2.2,0.9,3.2,1.3c0.1,0,0.2,0.1,0.3,0.1l0.3,0.4c0.3-0.2,1.8-0.9,1.8-0.9l0.6,0.1
	c0.5,0.5,0.6,0.6,0.7,1.2c0.1,0,0.3,0,0.4-0.1c0.1,0,0.1,0,0.2,0c0.1,0,0.3-0.1,0.5-0.1c0.5,0,1.2,0,1.6,0.9
	c0.3,0.6,0.5,1.3-0.1,2.2c-0.3,0.5-0.7,0.8-1.1,1c-0.6,0.3-1.2,0.7-1.4,1.3c-0.1,0.2-0.2,0.3-0.3,0.4L377.2,390.3L377.2,390.3z
	 M364.2,372.7c-0.2,0.1-0.4,0.2-0.6,0.2c-0.4,0.1-0.7,0.3-1,0.5c0.1,0,0.2,0,0.3,0c0.5-0.1,1.1-0.1,1.6-0.2l-0.2-0.5
	C364.4,372.7,364.2,372.7,364.2,372.7z M375.1,368.8c-0.5,0.2-1,0.5-1.5,0.8c0.4-0.2,0.8-0.4,1.2-0.6c0.2-0.1,0.3-0.2,0.5-0.3
	C375.3,368.7,375.2,368.8,375.1,368.8z M377,367.8c-0.2,0.1-0.4,0.2-0.6,0.3c-0.2,0.1-0.3,0.2-0.5,0.3c0.1,0,0.2-0.1,0.3-0.1
	c0.2-0.1,0.4-0.2,0.7-0.4C376.8,367.9,376.9,367.9,377,367.8z M351.4,362.1c0.6,0,1.2,0.1,1.8,0.1l0.1-0.1c-0.3-0.1-0.5-0.1-0.8-0.1
	C352.1,362,351.8,362,351.4,362.1z M339.1,368c-0.1-0.1-0.4-0.2-0.5-0.5c-0.2-0.7-0.3-1.4-0.1-2.3c0.2-0.9,0.7-1.7,1.1-2.5
	c0.5-0.9,1.2-1.5,1.9-2c0.3-0.3,0.7-0.5,1-0.7c0.2-0.1,0.3-0.2,0.5-0.3c-1,0-1.8-0.1-2.6-0.3c-1-0.3-1.9-1.5-2-2.5
	c0-0.4,0-0.8,0-1.2c0-0.5,0.1-1.2,0.7-1.6c0,0,0,0,0,0c-0.1,0-0.2,0-0.3,0l-0.1,0c-0.2,0-0.4,0-0.6,0c-0.4,0-0.7,0-1.1,0
	c-1,0-1.8-0.4-2.3-1.1c-0.5-0.7-0.7-1.7-0.5-2.7c0.1-0.6,0.4-1.3,0.8-2c-0.1,0-0.2,0-0.3,0c-0.4,0-0.8,0-1.2,0.1
	c-0.2,0-0.5,0.1-0.7,0.1c-0.7,0.1-1.3,0.2-2,0.3c-0.3,0.1-0.7,0.1-1,0.2l-0.5-0.3c-0.1-0.3-0.3-0.5-0.2-0.8c0-0.1,0-0.2,0.1-0.3
	c0.1-0.5,0.2-1.3,1.2-1.6c0.3-0.1,0.5-0.2,0.8-0.4c-0.3,0-0.6,0-0.9,0c-0.4,0-0.8,0-1.2-0.1c-0.6-0.1-1.5-0.3-2-1.3l-0.1-0.2
	c0-0.1,0-0.1,0-0.2c0-0.3,0-0.6,0-1c0-0.2,0.1-0.4,0.2-0.6c0,0,0,0,0,0c-0.5-0.1-1-0.2-1.5-0.4c-0.7-0.2-1.3-0.7-1.5-1.3
	c-0.3-0.6-0.2-1.2,0.1-1.8c0-0.1,0.1-0.1,0.1-0.2c-0.2,0-0.4,0-0.6,0c-0.8,0-1.7,0-2.7-0.3c-0.2-0.1-0.4-0.1-0.6-0.2
	c-0.2-0.1-0.4-0.1-0.6-0.2c-0.5-0.1-0.8-0.5-0.8-1.1c0-0.6,0-1.2,0.5-1.7c0.4-0.5,0.9-1,1.6-1.4c-0.1-0.1-0.2-0.1-0.3-0.2
	c-0.1,0-0.1-0.1-0.2-0.1c0.1,0,0.1,0,0.1,0l-0.1-0.5l-0.1,0.5c-0.3,0-0.6-0.1-0.7-0.4c-0.4,0-0.7-0.3-0.8-0.4
	c-0.2-0.2-0.4-0.2-0.5-0.2c-0.1,0-0.2,0-0.3,0c-0.7,0.2-1.4,0.3-2.1,0.3c-0.1,0-0.1,0-0.2,0c-0.7,0-1.2-0.3-1.6-0.8
	c-0.4-0.6-0.4-1.3-0.1-2c0.4-1,1.3-1.7,2.7-2.1c0.3-0.1,0.4-0.1,0.6-0.2c0.4-0.3,0.8-0.5,1.3-0.5c0.8,0,1.5,0.4,1.9,1.2
	c0.2,0.4,0.4,0.8,0.4,1.3c0.1,0.5,0,0.9-0.2,1.3l-0.1,0.1c-0.1,0.1-0.2,0.3-0.3,0.4c0.2,0.1,0.4,0.2,0.5,0.3c0.5,0.3,1,0.6,1.5,0.8
	c0.2,0.1,0.3,0.1,0.4,0.1c0,0,0,0,0.1-0.1l0.2-0.1c0.3-0.1,0.6-0.2,0.8-0.2c0.9,0,0.9,1,0.9,1.3l-0.2,0.4c-0.7,0.7-1.6,1.1-2.4,1.5
	c-0.5,0.2-0.9,0.4-1.3,0.7c1,0.2,1.8,0.3,2.6,0.4c0.5,0.1,1.1,0.1,1.6,0.1l0.8,0l0.5,0.4l0.2,1.2l-0.1,0.4l-0.9,0.9
	c0.2,0.2,0.4,0.3,0.6,0.3l0.7,0.1c0.9,0.2,1.8,0.4,2.7,0.4c0.1,0,0.2,0,0.4,0c0.2,0,0.5,0,0.7-0.1c0.4,0,0.8-0.1,1.2-0.1
	c0,0,0,0,0,0c1,0,1.8,0.4,2.4,1.1c0.6,0.7,0.5,1.4-0.1,2c-0.1,0.1-0.3,0.2-0.4,0.3l-0.2,0.2l-0.6,0c-0.6-0.3-0.5-0.8-0.4-1.1
	c-0.4-0.1-0.8-0.1-1.2-0.1c-0.8,0-1.5,0.2-2.1,0.5c-0.3,0.1-0.5,0.3-0.7,0.4c0.3,0.2,0.6,0.3,1,0.3c0.4,0.1,0.8,0.1,1.3,0.2
	c0.2,0,0.5,0.1,0.7,0.1c0.2,0,0.4,0.1,0.6,0.1l0.2,0l0.2,0.3l0.3-0.3c0.6-0.1,1.1-0.2,1.5-0.6c0.2-0.2,0.5-0.4,0.8-0.5
	c0.1-0.1,0.2-0.1,0.3-0.2c0.2-0.1,0.4-0.2,0.5-0.3c0.2-0.1,0.4-0.2,0.5-0.3c0.2-0.1,0.4-0.2,0.6-0.4c0.2-0.1,0.4-0.2,0.6-0.3
	c1.4-0.9,2.8-1.7,4.3-2.4c0.6-0.3,1.2-0.7,1.9-1c0.7-0.4,1.4-0.7,2-1.1l0.4-0.2c0.5-0.2,1-0.4,1.5-0.6c0.3-0.1,0.7-0.3,1-0.4
	c0.4-0.2,0.7-0.2,1.1-0.2c0.5,0,1,0.2,1.4,0.6c0.7,0.8,0.7,2,0.1,2.7c-0.7,0.7-1.4,1.3-2.1,1.8c-0.8,0.5-1.7,1-2.6,1.4l-0.6,0.3
	c-1,0.5-2,1-2.9,1.3c-0.7,0.2-1.3,0.5-2,0.7c-1.1,0.4-2.2,0.8-3.3,1.2c-0.4,0.1-0.8,0.2-1.3,0.3c-0.4,0.1-0.7,0.2-1.1,0.3
	c0,0-0.1,0-0.1,0c0.6,0.1,1.2,0.2,1.8,0.7l0.1,0.2c0.3,0.6,0.5,1.6-0.6,2.5c-0.4,0.4-0.7,0.9-1,1.3c-0.2,0.3-0.2,0.4-0.1,0.5
	c0.1,0.2,0.1,0.2,0.4,0.4c0.4,0.3,1,0.3,1.5,0.4c0.2,0,0.3,0,0.5,0.1c0.9,0.2,1.9,0.3,2.9,0.4c0.5,0.1,0.9,0.1,1.4,0.2
	c0.1,0,0.2,0,0.3,0l0.8-0.4l-0.1-0.2c0,0,0-0.1,0.1-0.1c0.1-0.1,0.2-0.3,0.4-0.4c1.2-0.4,2.2-0.8,3.1-1.3c0.5-0.2,1.1-0.4,1.6-0.5
	c0.2,0,0.4-0.1,0.6-0.1l0.2,0c0.1,0,0.2,0,0.3,0.1l0.1,0.5c0.6-0.3,1.2-0.4,1.9-0.6c0.3-0.1,0.7-0.1,1-0.2l-0.1-0.3
	c0.2-0.4,0.6-0.4,0.8-0.4l0.1,0c0.2,0,0.5-0.1,0.7-0.2l0.3-0.1l0.4,0.4c0.1,0,0.2-0.1,0.3-0.2c0.1-0.1,0.3-0.2,0.4-0.3
	c0.1-0.1,0.2-0.3,0.5-0.3c0.2,0,0.4,0,0.5,0c0.3,0,0.5,0,0.8,0c0.3,0,0.6,0,0.9,0c0.2,0,0.4,0,0.5,0c0.8,0.1,1.6,0.3,2.1,1.2
	c0.1,0.1,0.1,0.1,0.2,0.2c0.7,0.8,0.7,1.5,0.1,2.3l-0.1,0.1c-0.3,0.5-0.7,1-1.3,1c-0.3,0-0.6-0.1-1.1-0.3l-0.3-0.5
	c0-0.6,0.3-0.9,0.5-1.3c-0.3-0.1-0.5-0.1-0.8-0.1l-0.1,0c-1.1,0.1-2.2,0.1-3.4,0.3c-1,0.1-1.9,0.3-3,0.5c-0.8,0.2-1.5,0.3-2,0.5
	c-0.1,0-0.2,0.1-0.2,0.1c-0.2,0.1-0.5,0.2-0.8,0.2l-0.1,0c-0.3,0.2-0.6,0.3-0.8,0.3c-0.1,0-0.1,0-0.2,0c-0.4,0.4-0.9,0.5-1.3,0.6
	c-0.5,0.1-0.8,0.2-1.1,0.5c-0.2,0.2-0.5,0.3-0.7,0.3c-0.2,0-0.2,0-0.2,0.1c-0.4,0.5-1,0.6-1.4,0.6c-0.3,0.4-0.7,0.6-1.1,0.8
	c-0.2,0.1-0.3,0.2-0.5,0.3c-0.3,0.2-0.5,0.5-0.8,0.7c-0.1,0.1-0.1,0.1-0.2,0.2c0,0.5,0.1,0.5,0.6,0.7c0.5,0.2,1.1,0.3,1.9,0.3
	c0.2,0,0.5,0,0.7,0c0.7,0,1.3-0.1,2-0.2l0.5-0.1c0.2,0,0.4,0,0.6-0.1c0.6-0.1,1.1-0.1,1.7-0.2c0.5-0.1,0.9-0.3,1.4-0.6l0.4-0.2
	c0.2-0.1,0.3-0.2,0.5-0.3c0.4-0.2,0.9-0.5,1.5-0.6c0.1,0,0.2-0.1,0.4-0.2c0.1-0.1,0.3-0.1,0.4-0.2c0.3-0.1,0.6-0.2,0.8-0.2
	c0.7,0,1.2,0.4,1.4,1.2c0.1,0.4,0,0.8-0.2,1.1c-0.2,0.3-0.5,0.5-0.8,0.5c-0.6,0.1-1.1,0.3-1.6,0.5c-0.5,0.2-0.9,0.3-1.5,0.4
	c-0.1,0-0.3,0.1-0.4,0.2c-0.1,0-0.2,0.1-0.3,0.1l-0.7,0.3c-0.4,0.2-0.9,0.3-1.3,0.5c-0.8,0.3-1.6,0.8-2.4,1.2
	c-0.3,0.2-0.6,0.3-1,0.5c-0.7,0.3-1.4,0.7-2,1.2c-1.9,1.6-2.8,3.1-2.8,4.9l-0.2,0.4L339.1,368L339.1,368z M349.8,337.6
	c-0.4,0.2-0.9,0.4-1.3,0.6c-0.7,0.3-1.4,0.6-2.1,0.9c-0.4,0.2-0.7,0.4-1.1,0.6c-0.6,0.3-1.1,0.6-1.7,0.9c-0.4,0.2-0.8,0.5-1.2,0.7
	c0.1,0,0.1-0.1,0.2-0.1c1-0.4,2.1-0.9,3.2-1.2c0.1,0,0.3-0.1,0.4-0.2l0.8-0.5c0.8-0.5,1.6-0.9,2.4-1.4
	C349.6,337.9,349.7,337.8,349.8,337.6z M316.2,330.4c0.1,0,0.2,0,0.3,0l0,0c0.2,0,0.3,0,0.5-0.1l-0.1-0.4
	C316.6,330,316.3,330.2,316.2,330.4z M318.8,329.8c0.2,0,0.3-0.1,0.5-0.3c0.1-0.1,0.2-0.2,0.3-0.2c0,0,0,0,0,0c-0.1,0-0.2,0-0.2,0
	c-0.1,0-0.1,0-0.1,0c-0.2,0.1-0.4,0.2-0.6,0.3L318.8,329.8z M307.1,331.5c-0.2,0-0.3,0-0.4-0.1l-0.1,0c-0.1,0-0.2,0-0.2-0.1
	c-0.1,0-0.2-0.1-0.3-0.1c-1.2,0-2.1-0.7-2.7-2c-0.6-1.3-0.4-2.7,0.6-3.8c0.1-0.1,0.2-0.2,0.3-0.3c0.2-0.2,0.3-0.3,0.3-0.4
	c0.1-0.3,0.3-0.5,0.6-0.6c0.3-0.1,0.6-0.4,0.9-0.7c0.2-0.2,0.3-0.4,0.5-0.5c0.3-0.2,0.6-0.5,0.9-0.7l0.3-0.2
	c1.2-0.9,2.5-1.8,4.2-2.7c0.3-0.2,0.6-0.3,0.8-0.4c0.5-0.2,0.9-0.4,1.3-0.7c0.2-0.2,0.4-0.2,0.6-0.3c0.5-0.2,1.1-0.4,1.6-0.6
	c1-0.4,2-0.8,3.2-1c1.1-0.2,2-0.3,2.9-0.3l0.2,0c0.8,0,1.6,0.3,2.3,0.8l0.1,0.1c0.3,0.3,0.7,0.6,0.9,1.2c0.3,0.9,0.1,1.7-0.6,2.5
	c-0.3,0.4-0.8,0.9-1.5,1l-0.2,0c-0.2,0-0.3,0-0.4-0.1c-0.1,0-0.1,0-0.2,0l-0.4-0.6c0.1-0.6,0.4-1.1,0.6-1.5c0.2-0.3,0.3-0.5,0.4-0.8
	c-0.1,0-0.2,0-0.4,0c0,0-0.3,0-0.4,0c-0.9,0-1.9,0.2-2.9,0.3l-0.7,0.1c-1,0.2-2.1,0.5-3.5,1.1c-0.8,0.3-1.5,0.8-2.3,1.2
	c-0.3,0.1-0.5,0.3-0.8,0.4c-0.4,0.2-0.7,0.4-1.1,0.6l-0.5,0.3c-0.3,0.2-0.7,0.4-1,0.7c-0.2,0.1-0.4,0.3-0.6,0.4
	c-0.3,0.2-0.6,0.5-0.9,0.7c-0.4,0.2-0.7,0.5-1,0.8c-0.3,0.3-0.5,0.5-0.9,0.8c-0.5,0.4-0.9,0.8-1.2,1.3c-0.4,0.5-0.6,1-0.6,1.4
	c0,0.1,0,0.1,0,0.1l0.2,0c0.3,0.1,0.5,0.2,0.8,0.2c0.2,0,0.5,0,0.7,0c1.9,0,3.8-0.4,5.9-1.3c0.1,0,0.2-0.1,0.3-0.1
	c0.1,0,0.2-0.1,0.2-0.1c0.4-0.2,1.7-0.8,1.7-0.8l0.6,0.1l0.2,0.2l0.1,0.6l-0.8,1.3l-0.2,0.2c-0.2,0.1-0.4,0.2-0.6,0.2
	c-0.2,0.1-0.5,0.1-0.6,0.3c-0.2,0.2-0.5,0.3-0.8,0.3c0,0-0.2,0-0.2,0c-0.1,0.1-0.3,0.3-0.7,0.3l-0.3,0c-0.2,0.2-0.5,0.4-0.9,0.7
	c-0.3,0.2-0.6,0.3-0.9,0.3c-0.9,0.1-1.7,0.3-2.6,0.4L307.1,331.5z"/>
</svg>
