<?xml version="1.0" encoding="utf-8"?>
<!-- Generator: Adobe Illustrator 24.1.0, SVG Export Plug-In . SVG Version: 6.00 Build 0)  -->
<svg version="1.1" id="Ebene_1" xmlns="http://www.w3.org/2000/svg" xmlns:xlink="http://www.w3.org/1999/xlink" x="0px" y="0px"
	 viewBox="0 0 512 512" style="enable-background:new 0 0 512 512;" xml:space="preserve">
<style type="text/css">
	.st0{fill:#FFE16D;}
	.st1{fill:#5D92AF;}
	.st2{fill:#273635;}
	.st3{fill:#7AA66C;}
	.st4{fill:#BFE3B3;}
	.st5{fill:#60958C;}
	.st6{fill:#99C389;}
	.st7{fill:#497B72;}
	.st8{fill:#31655D;}
	.st9{fill:#BA3143;}
	.st10{fill:#DA545F;}
	.st11{fill:#8EC3AE;}
	.st12{fill:#A5C697;}
	.st13{fill:#628C53;}
	.st14{fill:#BBCBC5;}
	.st15{fill:#4A86A4;}
	.st16{fill:#F56E76;}
	.st17{fill:#95C5AD;}
	.st18{fill:#7AAD97;}
	.st19{fill:#A1B5AE;}
	.st20{fill:#80A86F;}
	.st21{fill:#AFD2A3;}
	.st22{fill:#71A8C6;}
	.st23{fill:none;stroke:#60958C;stroke-width:40;stroke-miterlimit:10;}
	.st24{fill:#FFB1B6;}
	.st25{fill:none;stroke:#FFFFFF;stroke-width:3.764;}
	.st26{fill:#FFDB93;}
	.st27{fill:none;stroke:#FFFFFF;stroke-width:4.587;}
	.st28{fill:#FFFFFF;}
	.st29{fill:#FDCD61;}
	.st30{fill:#FDD47B;}
	.st31{fill:none;stroke:#FFFFFF;stroke-width:3;}
</style>
<g>
	<path class="st12" d="M193.7,348.1v-66.4c0-13.2-10.7-23.9-23.9-23.9S146,268.6,146,281.7v66.8"/>
	<path class="st25" d="M193.7,348.1v-66.4c0-13.2-10.7-23.9-23.9-23.9S146,268.6,146,281.7v66.8"/>
	<path class="st26" d="M263.8,240.8c12.4,0,22.5-10.1,22.5-22.5s-10.1-22.5-22.5-22.5c-12.4,0-22.5,10.1-22.5,22.5
		S251.4,240.8,263.8,240.8"/>
	<circle class="st27" cx="263.8" cy="218.3" r="22.5"/>
	<path class="st28" d="M318,336.7v-66.4c0-13.2-10.7-23.9-23.9-23.9c-13.2,0-23.9,10.7-23.9,23.9v66.8"/>
	<path class="st25" d="M318,336.7v-66.4c0-13.2-10.7-23.9-23.9-23.9c-13.2,0-23.9,10.7-23.9,23.9v66.8"/>
	<path class="st28" d="M319.2,336.7v-66.4c0-13.2-10.7-23.9-23.9-23.9c-13.2,0-23.9,10.7-23.9,23.9v66.8"/>
	<path class="st25" d="M319.2,336.7v-66.4c0-13.2-10.7-23.9-23.9-23.9c-13.2,0-23.9,10.7-23.9,23.9v66.8"/>
	<path class="st17" d="M320.8,336.5l-0.6-66.4c-0.1-13.2-10.9-23.8-24.1-23.6c-13.2,0.1-23.8,10.9-23.6,24.1l0.6,66.8"/>
	<path class="st25" d="M320.4,336.7v-66.4c0-13.2-10.7-23.9-23.9-23.9c-13.2,0-23.9,10.7-23.9,23.9v66.8"/>
	<path class="st6" d="M180.5,362.7v-70.6c0-14-11.4-25.4-25.4-25.4c-14,0-25.4,11.4-25.4,25.4v71.2"/>
	<path class="st25" d="M180.5,362.7v-70.6c0-14-11.4-25.4-25.4-25.4c-14,0-25.4,11.4-25.4,25.4v71.2"/>
	<path class="st17" d="M258.7,349.4v-70.6c0-14-11.4-25.4-25.4-25.4c-14,0-25.4,11.4-25.4,25.4v71.2"/>
	<path class="st25" d="M258.7,349.4v-70.6c0-14-11.4-25.4-25.4-25.4c-14,0-25.4,11.4-25.4,25.4v71.2"/>
	<path class="st8" d="M394.2,340.9v-70.6c0-14-11.4-25.4-25.4-25.4c-14,0-25.4,11.4-25.4,25.4v71.2"/>
	<path class="st25" d="M394.2,340.9v-70.6c0-14-11.4-25.4-25.4-25.4c-14,0-25.4,11.4-25.4,25.4v71.2"/>
	<path class="st21" d="M360,339.5V268c0-13.2-10.7-23.9-23.9-23.9c-13.2,0-23.9,10.7-23.9,23.9v70.8"/>
	<path class="st25" d="M360,339.5V268c0-13.2-10.7-23.9-23.9-23.9c-13.2,0-23.9,10.7-23.9,23.9v70.8"/>
	<path class="st4" d="M229.1,339.6v-66.4c0-13.2-10.7-23.9-23.9-23.9s-23.9,10.7-23.9,23.9v66.8"/>
	<path class="st25" d="M229.1,339.6v-66.4c0-13.2-10.7-23.9-23.9-23.9s-23.9,10.7-23.9,23.9v66.8"/>
	<path class="st29" d="M294.5,249.2c10.2,0,18.5-8.3,18.5-18.5c0-10.2-8.3-18.5-18.5-18.5c-10.2,0-18.5,8.3-18.5,18.5
		C276,241,284.3,249.2,294.5,249.2"/>
	
		<ellipse transform="matrix(0.1527 -0.9883 0.9883 0.1527 21.4609 486.5339)" class="st25" cx="294.5" cy="230.8" rx="18.5" ry="18.5"/>
	<path class="st29" d="M369.1,245.3c10.2,0,18.5-8.3,18.5-18.5c0-10.2-8.3-18.5-18.5-18.5s-18.5,8.3-18.5,18.5
		C350.7,237.1,358.9,245.3,369.1,245.3"/>
	
		<ellipse transform="matrix(0.2223 -0.975 0.975 0.2223 65.915 536.3205)" class="st25" cx="369.1" cy="226.8" rx="18.5" ry="18.5"/>
	<path class="st29" d="M233.2,252c10.2,0,18.5-8.3,18.5-18.5c0-10.2-8.3-18.5-18.5-18.5c-10.2,0-18.5,8.3-18.5,18.5
		C214.7,243.7,223,252,233.2,252"/>
	
		<ellipse transform="matrix(0.1527 -0.9883 0.9883 0.1527 -33.1425 428.2809)" class="st25" cx="233.2" cy="233.5" rx="18.5" ry="18.5"/>
	<path class="st26" d="M171,255c10.2,0,18.5-8.3,18.5-18.5c0-10.2-8.3-18.5-18.5-18.5s-18.5,8.3-18.5,18.5
		C152.5,246.7,160.8,255,171,255"/>
	<path class="st29" d="M153,280.1c11.7,0,21.1-9.5,21.1-21.1c0-11.7-9.5-21.1-21.1-21.1c-11.7,0-21.1,9.5-21.1,21.1
		C131.8,270.6,141.3,280.1,153,280.1"/>
	<path class="st25" d="M153,280.1c11.7,0,21.1-9.5,21.1-21.1c0-11.7-9.5-21.1-21.1-21.1c-11.7,0-21.1,9.5-21.1,21.1
		C131.8,270.6,141.3,280.1,153,280.1z"/>
	<path class="st0" d="M205.7,269.7c13.2,0,23.9-10.7,23.9-23.9c0-13.2-10.7-23.9-23.9-23.9c-13.2,0-23.9,10.7-23.9,23.9
		C181.9,259,192.5,269.7,205.7,269.7"/>
	<circle class="st25" cx="205.7" cy="245.8" r="23.9"/>
	<path class="st26" d="M269.8,289.7c13.2,0,23.9-10.7,23.9-23.9c0-13.2-10.7-23.9-23.9-23.9c-13.2,0-23.9,10.7-23.9,23.9
		C245.9,279,256.6,289.7,269.8,289.7"/>
	
		<ellipse transform="matrix(0.1471 -0.9891 0.9891 0.1471 -32.8358 493.5004)" class="st25" cx="269.8" cy="265.8" rx="23.9" ry="23.9"/>
	<path class="st0" d="M335.5,244.3c13.2,0,23.9-10.7,23.9-23.9c0-13.2-10.7-23.9-23.9-23.9c-13.2,0-23.9,10.7-23.9,23.9
		C311.7,233.7,322.4,244.3,335.5,244.3"/>
	<circle class="st25" cx="335.5" cy="220.5" r="23.9"/>
	<path class="st8" d="M293.6,345.3v-40.8c0-13.2-10.7-23.9-23.9-23.9c-13.2,0-23.9,10.7-23.9,23.9v38.4"/>
	<path class="st25" d="M293.6,345.3v-40.8c0-13.2-10.7-23.9-23.9-23.9c-13.2,0-23.9,10.7-23.9,23.9v38.4"/>
	<path class="st10" d="M354.2,298.8c6.7,0,12.2-5.5,12.2-12.2v0.8v-1.9c0-6.7-5.5-12.2-12.2-12.2h-36c-6.7,0-12.2,5.5-12.2,12.2v0.7
		v0.4c0,6.7,5.5,12.2,12.2,12.2H354.2z"/>
	<path class="st25" d="M306.1,286.6c0,6.7,5.5,12.2,12.2,12.2h36c6.7,0,12.2-5.5,12.2-12.2"/>
	<path class="st25" d="M366.4,286.6c0-6.7-5.5-12.2-12.2-12.2h-36c-6.7,0-12.2,5.5-12.2,12.2"/>
	<path class="st16" d="M354.2,273.2c6.7,0,12.2-5.5,12.2-12.2v-15.6v-1.9c0-6.7-5.5-12.2-12.2-12.2h-36c-6.7,0-12.2,5.5-12.2,12.2
		v0.7v16.9c0,6.7,5.5,12.2,12.2,12.2H354.2z"/>
	<path class="st25" d="M354.2,273.2c6.7,0,12.2-5.5,12.2-12.2v-15.6v-1.9c0-6.7-5.5-12.2-12.2-12.2h-36c-6.7,0-12.2,5.5-12.2,12.2
		v0.7v16.9c0,6.7,5.5,12.2,12.2,12.2H354.2z"/>
</g>
<path class="st30" d="M150.3,173.1h218.3c7.7,0,13.9,6.2,13.9,13.9v139.5c0,7.7-6.2,13.9-13.9,13.9H150.3c-7.7,0-13.9-6.2-13.9-13.9
	V187C136.4,179.3,142.6,173.1,150.3,173.1z M100.5,388.2h318c7.7,0,13.9-6.2,13.9-13.9V141c0-7.7-6.2-13.9-13.9-13.9h-318
	c-7.7,0-13.9,6.2-13.9,13.9v233.4C86.6,382,92.8,388.2,100.5,388.2z"/>
<path class="st31" d="M145.9,339.3h226.3c5.9,0,10.7-4.8,10.7-10.7V187.2c0-5.9-4.8-10.7-10.7-10.7H145.9c-5.9,0-10.7,4.8-10.7,10.7
	v141.5C135.3,334.6,140,339.3,145.9,339.3z"/>
</svg>
