<?xml version="1.0" encoding="utf-8"?>
<!-- Generator: Adobe Illustrator 16.0.0, SVG Export Plug-In . SVG Version: 6.00 Build 0)  -->
<!DOCTYPE svg PUBLIC "-//W3C//DTD SVG 1.1//EN" "http://www.w3.org/Graphics/SVG/1.1/DTD/svg11.dtd">
<svg version="1.1" xmlns="http://www.w3.org/2000/svg" xmlns:xlink="http://www.w3.org/1999/xlink" x="0px" y="0px" width="1080px"
	 height="1080px" viewBox="0 0 1080 1080" enable-background="new 0 0 1080 1080" xml:space="preserve">
<g id="Ebene_1">
	<circle fill="#FDD47B" cx="573.633" cy="514.947" r="342.074"/>
	<path fill="#628C53" d="M551.266,272.992c169.053,0,296.104,117.051,296.104,286.101c0,169.059-116.304,245.063-285.356,245.063
		c-169.057,0-306.849-76.004-306.849-245.063C255.165,390.043,382.209,272.992,551.266,272.992z"/>
	<g>
		<path fill="#A5C697" d="M372.179,745.165V590.471c0-33.535-27.184-60.718-60.719-60.718c-33.535,0-57.154,21.715-57.154,54.996
			L258,601.5l24.723,71.358l35.233,47.188"/>
		<path fill="none" stroke="#FFFFFF" stroke-width="3.764" d="M372.179,744.165V590.471c0-33.535-27.184-60.718-60.719-60.718
			c-26.206,0-48.377,16.753-56.817,39.958c-2.361,6.49,8.466,52.138,8.466,52.138"/>
		<g>
			<path fill="#FFDB93" d="M503.933,515.455c26.352,0,47.82-21.465,47.82-47.82s-21.469-47.821-47.82-47.821
				c-26.354,0-47.82,21.466-47.82,47.821S477.578,515.455,503.933,515.455"/>
			<circle fill="none" stroke="#FFFFFF" stroke-width="4.587" cx="503.933" cy="467.635" r="47.82"/>
		</g>
		<path fill="#FFFFFF" d="M657.971,750.202V581.51c0-33.536-27.185-60.719-60.72-60.719s-60.719,27.184-60.719,60.719v169.709"/>
		<path fill="none" stroke="#FFFFFF" stroke-width="3.764" d="M657.971,750.202V581.51c0-33.536-27.185-60.719-60.72-60.719
			s-60.719,27.184-60.719,60.719v169.709"/>
		<path fill="#FFFFFF" d="M661.019,750.202V581.51c0-33.536-27.184-60.719-60.719-60.719s-60.72,27.184-60.72,60.719v169.709"/>
		<path fill="none" stroke="#FFFFFF" stroke-width="3.764" d="M661.019,750.202V581.51c0-33.536-27.184-60.719-60.719-60.719
			s-60.72,27.184-60.72,60.719v169.709"/>
		<path fill="#95C5AD" d="M665.083,795.565l-1.524-214.563c-0.254-33.535-27.691-60.466-61.228-59.958
			c-33.536,0.254-60.464,27.692-59.957,61.227l0.255,220.264"/>
		<path fill="none" stroke="#FFFFFF" stroke-width="3.764" d="M664.068,750.202V581.51c0-33.536-27.186-60.719-60.72-60.719
			s-60.719,27.184-60.719,60.719v169.709"/>
		<path fill="#95C5AD" d="M507.316,771.468V603.103c0-35.567-28.962-64.529-64.53-64.529s-64.53,28.962-64.53,64.529v161.146
			l97.412,32.418"/>
		<path fill="none" stroke="#FFFFFF" stroke-width="3.764" d="M507.316,772.468V603.103c0-35.567-28.962-64.529-64.53-64.529
			s-64.53,28.962-64.53,64.529v140.889"/>
		<path fill="#31655D" d="M722.5,774.5c0,0,62.916-47.756,76.605-61.129s43.034-94.643,43.034-94.643l9.421-37.219
			c0-35.568-28.962-64.53-64.529-64.53c-35.568,0-64.531,28.962-64.531,64.53V753.5"/>
		<path fill="none" stroke="#FFFFFF" stroke-width="3.764" d="M846.561,597.878l3-16.368c0-35.568-26.962-64.53-62.529-64.53
			c-35.568,0-64.531,28.962-64.531,64.53V773.5"/>
		<path fill="#AFD2A3" d="M764.674,754.5V575.667c0-33.536-27.185-60.72-60.72-60.72s-60.719,27.184-60.719,60.72v221.868"/>
		<path fill="none" stroke="#FFFFFF" stroke-width="3.764" d="M764.674,745.5V575.667c0-33.536-27.185-60.72-60.72-60.72
			s-60.719,27.184-60.719,60.72v223.87"/>
		<path fill="#BFE3B3" d="M432.115,757.57V637.053c0-33.536-27.184-60.718-60.719-60.718s-60.72,27.184-60.72,60.718V716.5
			l52.563,44.605L431,783.83"/>
		<path fill="none" stroke="#FFFFFF" stroke-width="3.764" d="M432.115,787.57V637.053c0-33.536-27.184-60.718-60.719-60.718
			s-60.72,27.184-60.72,60.718v77.533"/>
		<path fill="#FDCD61" d="M598.267,527.904c25.914,0,47.001-21.086,47.001-47c0-25.914-21.087-47-47.001-47
			c-25.913,0-46.999,21.086-46.999,47C551.268,507.071,572.354,527.904,598.267,527.904"/>
		<ellipse fill="none" stroke="#FFFFFF" stroke-width="3.764" cx="598.344" cy="480.962" rx="47.001" ry="47.001"/>
		<path fill="#FDCD61" d="M787.793,517.996c25.913,0,46.999-21.087,46.999-47.001c0-25.914-21.086-47-46.999-47
			c-25.914,0-47.001,21.086-47.001,47C741.046,497.163,761.879,517.996,787.793,517.996"/>
		<ellipse fill="none" stroke="#FFFFFF" stroke-width="3.764" cx="787.782" cy="471.162" rx="47.001" ry="47.001"/>
		<g>
			<path fill="#FDCD61" d="M442.531,535.017c25.914,0,47-21.087,47-47s-21.086-47-47-47c-25.914,0-47,21.087-47,47
				S416.617,535.017,442.531,535.017"/>
			<ellipse fill="none" stroke="#FFFFFF" stroke-width="3.764" cx="442.62" cy="487.928" rx="47.002" ry="47.002"/>
		</g>
		<path fill="#FFDB93" d="M311.587,534.718c21.927,0,39.77-17.843,39.77-39.771c0-21.927-17.843-39.77-39.77-39.77
			c-21.928,0-39.771,17.843-39.771,39.77C271.817,516.874,289.659,534.718,311.587,534.718"/>
		<g display="none">
			<path display="inline" fill="#99C389" d="M338.585,775.663V618.12c0-31.24-27.064-56.68-60.3-56.68s-60.3,25.439-60.3,56.68
				v158.882"/>
			<path display="inline" fill="none" stroke="#FFFFFF" stroke-width="3.764" d="M338.585,775.663V618.12
				c0-31.24-27.064-56.68-60.3-56.68s-60.3,25.439-60.3,56.68v158.882"/>
			<path display="inline" fill="#FDCD61" d="M273.3,579.483c22.859,0,41.224-18.562,41.224-41.225
				c0-22.859-18.561-41.226-41.224-41.226c-22.859,0-41.225,18.561-41.225,41.226C231.879,560.922,250.44,579.483,273.3,579.483"/>
			<path display="inline" fill="none" stroke="#FFFFFF" stroke-width="3.764" d="M273.3,579.483
				c22.859,0,41.224-18.562,41.224-41.225c0-22.859-18.561-41.226-41.224-41.226c-22.859,0-41.225,18.561-41.225,41.226
				C231.879,560.922,250.44,579.483,273.3,579.483z"/>
		</g>
		<path fill="none" stroke="#FFFFFF" stroke-width="3.764" d="M311.587,535.982c22.624,0,41.034-18.41,41.034-41.035
			c0-22.624-18.41-41.034-41.034-41.034c-22.625,0-41.035,18.41-41.035,41.034C270.552,517.572,288.963,535.982,311.587,535.982"/>
		<path fill="#FFE16D" d="M371.396,587.098c24.555,0,44.459-19.904,44.459-44.458c0-24.556-19.904-44.46-44.459-44.46
			s-44.46,19.904-44.46,44.46C327.122,567.194,346.841,587.098,371.396,587.098"/>
		<circle fill="none" stroke="#FFFFFF" stroke-width="3.764" cx="371.396" cy="542.639" r="44.459"/>
		<path fill="#FFE16D" d="M702.43,515.455c33.535,0,60.72-27.184,60.72-60.718c0-33.537-27.186-60.72-60.72-60.72
			c-33.535,0-60.72,27.184-60.72,60.72C641.964,488.525,669.149,515.455,702.43,515.455"/>
		<circle fill="none" stroke="#FFFFFF" stroke-width="3.764" cx="702.43" cy="454.99" r="60.719"/>
		<g>
			<path fill="#31655D" d="M582.434,804.761V646.64c0-29.275-27.828-53.007-62.161-53.007c-34.331,0-62.16,23.731-62.16,53.007
				v144.799"/>
			<path fill="none" stroke="#FFFFFF" stroke-width="3.764" d="M582.434,800.06V647.692c0-29.276-27.828-53.008-62.161-53.008
				c-34.331,0-62.16,23.733-62.16,53.008v147.046"/>
		</g>
		<g>
			<path fill="#FFDB93" d="M520.274,605.039c29.472,0,53.359-23.889,53.359-53.358c0-29.471-23.89-53.36-53.359-53.36
				c-29.472,0-53.36,23.889-53.36,53.36C466.913,581.15,490.802,605.039,520.274,605.039"/>
			<ellipse fill="none" stroke="#FFFFFF" stroke-width="3.764" cx="520.172" cy="551.548" rx="53.359" ry="53.359"/>
		</g>
	</g>
	<g display="none">
		<path display="inline" fill="#FDD47B" d="M317.039,365.133h460.477c16.242,0,29.32,13.078,29.32,29.32v294.258
			c0,16.242-13.078,29.32-29.32,29.32H317.039c-16.242,0-29.32-13.078-29.32-29.32V394.453
			C287.719,378.211,300.797,365.133,317.039,365.133z M211.992,818.859h670.781c16.242,0,29.32-13.078,29.32-29.319V297.422
			c0-16.242-13.078-29.32-29.32-29.32H211.992c-16.242,0-29.32,13.078-29.32,29.32V789.75
			C182.672,805.781,195.75,818.859,211.992,818.859z"/>
		<path display="inline" fill="none" stroke="#FFFFFF" stroke-width="3" d="M310.143,717.187h474.268
			c12.365,0,22.425-10.262,22.425-22.873V392.04c0-12.613-10.06-22.874-22.425-22.874H310.143
			c-12.364,0-22.424,10.261-22.424,22.874v302.487C287.928,707.139,297.779,717.187,310.143,717.187z"/>
	</g>
	<path fill="none" stroke="#FFE16D" stroke-width="9" stroke-miterlimit="10" d="M551.752,271.598
		c169.053,0,296.104,117.051,296.104,286.102c0,169.059-116.304,245.062-285.356,245.062c-169.057,0-306.849-76.003-306.849-245.062
		C255.651,388.649,382.696,271.598,551.752,271.598z"/>
</g>
<g id="Ebene_2">
</g>
</svg>
