<?xml version="1.0" encoding="utf-8"?>
<!-- Generator: Adobe Illustrator 16.0.0, SVG Export Plug-In . SVG Version: 6.00 Build 0)  -->
<!DOCTYPE svg PUBLIC "-//W3C//DTD SVG 1.1//EN" "http://www.w3.org/Graphics/SVG/1.1/DTD/svg11.dtd">
<svg version="1.1" xmlns="http://www.w3.org/2000/svg" xmlns:xlink="http://www.w3.org/1999/xlink" x="0px" y="0px" width="1080px"
	 height="1080px" viewBox="1265.53 0 1080 1080" enable-background="new 1265.53 0 1080 1080" xml:space="preserve">
<g id="Ebene_1">
</g>
<g id="Ebene_2">
	<path fill="#BBCBC5" d="M1883.787,924.427L1883.787,924.427l-0.211-0.211l0,0C1881.256,924.637,1882.522,924.637,1883.787,924.427
		L1883.787,924.427L1883.787,924.427z"/>
	<ellipse fill="#FFE16D" cx="1836.861" cy="494.481" rx="245.877" ry="240.859"/>
	<path fill="#80A86F" d="M1776.055,667.5c-96.331,18.287-138.979,38.3-177.979,50.3s-68.843,10.698-67.843,39.698
		s3.095,71.002,160.972,86.002c158.666,15.075,170.313-17.428,268.313-8.428S2225.5,826.5,2198.5,791.5
		c-45.94-59.553-102.582-82.01-161-107C1979.062,659.501,1825.224,658.166,1776.055,667.5z"/>
	<g>
		<path fill="#BBCBC5" d="M1959.307,341.686c0.422,4.008,0.211,8.016-0.633,11.813c-0.211,1.898-0.844,3.797-1.266,5.906
			c-0.633,1.898-1.055,3.797-1.688,5.695c-2.742,7.594-6.539,14.555-11.18,21.094s-10.336,12.445-16.242,17.719
			c-1.477,1.266-3.164,2.531-4.641,3.797l-2.32,1.898l-1.898,1.477l-3.797,2.953l-3.797,3.375
			c-10.125,8.648-19.828,18.773-29.531,28.898c-9.914,10.336-19.828,20.883-31.219,31.641c0.422-4.008,1.055-7.805,2.109-11.391
			c0.844-3.797,2.109-7.383,3.375-10.969c2.531-7.172,5.695-14.133,9.492-21.094c7.383-13.5,16.875-25.945,29.109-36.492
			l4.641-3.797l5.063-3.586l2.531-1.688c0.844-0.633,1.477-1.055,2.109-1.477c1.477-0.844,2.742-1.898,4.219-2.742
			c5.484-3.797,10.969-7.594,16.242-12.023c5.273-4.219,10.336-8.859,15.398-13.922
			C1949.815,353.499,1954.666,348.014,1959.307,341.686z"/>
		<path fill="#BBCBC5" d="M2015.205,439.35c-0.844,5.484-2.953,10.758-5.484,15.82c-2.742,5.063-5.906,9.703-9.704,14.133
			c-7.594,8.648-17.086,15.82-27.633,20.883c-5.273,2.531-10.758,4.641-16.242,6.328c-2.742,0.844-5.695,1.477-8.438,2.109
			l-4.219,0.844l-3.797,0.633c-9.492,1.688-18.773,4.43-27.422,8.016c-17.507,7.172-32.906,18.563-45.983,33.328
			c-12.868,14.766-23.415,32.695-31.853,52.523c-0.422-5.484-0.211-10.969,0.423-16.453c0.632-5.484,1.687-10.969,2.953-16.242
			c2.741-10.758,6.96-21.305,12.867-31.008c5.695-9.914,13.288-18.984,21.938-26.789c8.648-7.805,18.772-14.344,29.531-18.984
			c10.758-4.852,22.148-7.805,33.538-9.492l4.008-0.633l3.587-0.422c2.32-0.422,4.851-0.633,7.171-1.055
			c4.642-0.844,9.281-1.898,13.923-3.164c9.069-2.742,18.141-6.328,26.578-11.391c4.219-2.531,8.438-5.273,12.445-8.438
			C2007.612,446.944,2011.408,443.358,2015.205,439.35z"/>
		<path fill="#BBCBC5" d="M1762.924,319.749c3.375,7.172,6.961,13.289,10.758,19.406c3.797,5.906,8.016,11.391,12.234,16.664
			s8.859,10.125,13.5,14.977c1.266,1.055,2.531,2.32,3.586,3.586c0.633,0.633,1.055,1.055,1.898,1.898l2.109,2.109l4.219,4.43
			l3.797,4.641c9.914,12.656,16.664,27,21.516,41.555c2.32,7.383,4.008,14.766,5.063,22.359c0.422,3.797,0.844,7.594,1.055,11.602
			c0.211,3.797,0.211,7.805-0.211,11.602c-9.07-12.656-16.664-25.102-24.469-37.125c-7.594-12.023-15.188-23.625-23.414-34.172
			l-2.953-4.008l-3.164-3.797l-1.477-1.898l-1.898-2.32c-1.266-1.477-2.531-2.953-3.797-4.641
			c-4.852-6.328-9.281-13.289-12.445-20.461c-3.164-7.383-5.695-14.977-6.75-22.992c-0.211-1.898-0.422-4.008-0.633-5.906
			c0-1.898-0.211-4.008,0-5.906C1761.237,327.343,1761.658,323.546,1762.924,319.749z"/>
		<path fill="#BBCBC5" d="M1655.346,542.71c7.805,0,14.977-0.633,22.148-1.477c6.961-1.055,13.711-2.32,20.25-4.008
			s13.078-3.797,19.406-5.906c1.477-0.633,3.164-1.266,4.641-1.898c0.844-0.211,1.477-0.633,2.32-0.844l2.953-1.055l5.906-1.898
			l5.906-1.477c15.609-3.586,31.43-3.797,46.828-1.688c7.594,1.055,15.188,2.531,22.57,4.852c3.586,1.055,7.383,2.32,10.758,4.008
			c3.586,1.477,7.172,3.164,10.547,5.273c-15.398,2.953-29.742,4.43-43.875,6.328s-27.844,3.586-40.922,6.539l-4.852,1.055
			l-4.641,1.266l-2.32,0.633l-2.742,0.844c-1.898,0.422-3.797,1.055-5.906,1.477c-7.805,1.688-15.82,2.742-23.836,2.531
			s-16.032-1.266-23.625-3.586c-1.898-0.633-3.797-1.266-5.695-1.898c-1.898-0.844-3.586-1.477-5.484-2.531
			C1661.674,547.561,1658.299,545.452,1655.346,542.71z"/>
		<path fill="#BBCBC5" d="M1848.143,491.452c-4.852,1.898-10.336,2.742-15.609,2.953s-10.758,0-16.031-0.844
			c-10.758-1.477-21.094-4.852-30.797-9.492c-9.914-4.641-18.773-10.758-27.211-17.297c-2.109-1.688-4.008-3.586-6.117-5.273
			l-2.953-2.531l-2.531-2.109c-1.688-1.477-3.375-2.953-4.852-4.43c-1.688-1.477-3.375-2.742-5.273-4.219
			c-6.961-5.695-14.344-10.969-21.727-16.242c-1.898-1.266-3.797-2.531-5.695-3.797l-2.953-1.898l-2.953-1.898l-5.906-3.797
			l-5.906-3.797c-16.031-10.336-32.695-20.25-49.992-32.063c5.273-0.633,10.547-0.844,15.609-0.633
			c5.273,0.211,10.336,0.633,15.398,1.266c10.336,1.266,20.25,3.586,30.164,6.75c2.531,0.844,4.852,1.688,7.383,2.531l7.172,2.953
			l3.586,1.477l3.586,1.688c2.32,1.055,4.641,2.32,7.172,3.375c9.281,5.063,18.352,10.547,26.578,17.508
			c2.109,1.688,4.219,3.375,6.117,5.273l5.906,5.695l2.953,2.953c0.844,0.844,1.688,1.688,2.32,2.531
			c1.477,1.688,3.164,3.375,4.641,5.063c0.844,0.844,1.688,1.688,2.32,2.32l2.32,2.32c1.688,1.688,3.164,3.164,4.852,4.641
			l4.852,4.641c1.688,1.477,3.375,2.953,5.063,4.43c6.961,5.906,14.133,11.391,22.148,16.453
			C1830.002,483.014,1838.44,487.655,1848.143,491.452z"/>
		<path fill="#BBCBC5" d="M1900.033,407.71c8.859,0.844,17.086,0.422,24.89-0.844c4.008-0.633,7.806-1.477,11.602-2.531
			c0.844-0.211,1.898-0.633,2.742-0.844l3.164-0.844c1.055-0.211,2.32-0.633,3.375-0.844l3.375-0.633
			c9.281-1.266,18.353-0.633,27,1.055c8.648,1.898,17.086,4.641,24.891,9.492c-8.859,0.844-17.508,0.844-25.734,1.266
			s-16.453,0.633-24.258,1.898l-2.953,0.422c-0.844,0.211-1.898,0.422-2.742,0.633l-1.477,0.211l-1.688,0.422
			c-1.055,0.211-2.32,0.422-3.375,0.633c-4.641,0.633-9.281,0.844-13.922,0.422s-9.281-1.266-13.5-2.953
			c-2.109-0.844-4.219-1.688-6.117-2.953C1903.619,410.663,1901.721,409.186,1900.033,407.71z"/>
		<path fill="#BBCBC5" d="M1616.955,420.155c8.859-0.844,16.664-2.953,24.258-5.695c3.797-1.477,7.383-2.953,10.758-4.641
			c0.844-0.422,1.688-0.844,2.531-1.266l2.953-1.477c1.055-0.422,2.109-1.055,3.164-1.477l3.164-1.266
			c8.648-3.164,17.719-4.43,26.578-4.43s17.719,1.266,26.156,4.43c-8.648,2.531-16.875,4.43-24.891,6.328
			s-16.031,4.008-23.203,6.539l-2.742,1.055c-0.844,0.422-1.688,0.844-2.742,1.055l-1.266,0.633l-1.477,0.633
			c-1.055,0.422-2.109,0.844-3.164,1.266c-4.43,1.477-8.859,2.742-13.5,3.164s-9.281,0.422-13.711-0.211
			c-2.32-0.422-4.43-0.844-6.75-1.688C1620.963,422.475,1618.854,421.421,1616.955,420.155z"/>
		<path fill="#BBCBC5" d="M1673.908,464.663c5.906,0,11.18-0.422,16.453-0.844c5.063-0.422,9.914-1.266,14.766-2.109
			c4.641-0.844,9.281-1.898,13.922-2.953c1.055-0.422,2.32-0.633,3.375-0.844c0.633-0.211,1.055-0.211,1.688-0.422l2.32-0.422
			l4.43-0.844l4.43-0.422c12.023-1.266,23.625,0.422,34.383,3.797c5.484,1.688,10.758,3.797,15.609,6.539
			c2.531,1.477,5.063,2.742,7.383,4.43s4.641,3.375,6.75,5.695c-11.602,2.109-22.148,2.742-32.484,3.375
			c-10.125,0.633-20.039,0.844-29.32,1.688l-3.375,0.211c-1.055,0.211-2.32,0.422-3.375,0.422l-1.688,0.211l-2.109,0.211
			c-1.477,0.211-2.953,0.422-4.43,0.422c-5.906,0.422-12.023,0.211-17.93-0.844s-11.602-2.953-16.875-5.906
			c-2.742-1.477-5.273-2.953-7.594-4.852C1677.705,469.303,1675.596,467.194,1673.908,464.663z"/>
		<path fill="#80A86F" d="M2049.166,347.593c-2.109,1.898-4.219,3.586-6.117,5.063s-4.008,2.742-5.906,4.008
			c-4.008,2.531-7.805,4.641-11.602,6.539c-7.805,3.586-15.398,6.117-23.203,8.016s-15.82,2.953-24.469,2.953
			c-2.109,0-4.43,0-6.539-0.211c-2.109,0-4.43-0.211-6.75-0.633c-4.642-0.633-9.492-1.266-14.977-2.953
			c1.266-2.531,2.531-4.852,4.219-6.961c1.477-2.109,3.164-4.008,4.851-5.906c3.375-3.586,6.961-6.75,10.97-9.281
			c7.805-5.273,16.242-8.859,25.101-10.758c8.86-2.109,18.142-2.531,27.211-1.266c4.642,0.633,9.281,1.898,13.922,3.586
			c2.321,0.844,4.642,1.898,6.961,3.164C2044.737,344.218,2047.057,345.694,2049.166,347.593z"/>
		<path fill="#628C53" d="M1984.198,298.655c0.422,2.32,0.844,4.219,0.844,6.117c0.211,1.898,0.211,3.586,0.422,5.273
			c0,3.375-0.211,6.539-0.633,9.281c-0.844,5.695-2.742,10.547-5.273,14.766c-2.531,4.43-5.906,8.227-10.336,11.813
			c-2.32,1.688-4.852,3.375-7.805,5.063c-3.164,1.688-6.328,3.164-10.758,4.43c-1.266-1.898-2.32-3.797-2.953-5.695
			c-0.844-1.898-1.266-3.586-1.898-5.484c-0.844-3.586-1.266-6.961-1.055-10.125c0.211-6.539,2.109-12.445,5.273-17.719
			s7.383-9.703,12.867-13.078c2.742-1.688,5.906-3.164,9.281-4.008c1.688-0.422,3.586-0.844,5.484-1.055
			C1979.557,298.444,1981.877,298.444,1984.198,298.655z"/>
		<path fill="#80A86F" d="M1940.744,376.28c-3.586,1.477-6.539,2.531-9.492,3.375s-5.906,1.688-8.648,2.32
			c-5.484,1.266-10.758,2.109-15.609,2.32c-9.914,0.844-18.984,0-27.844-1.898c-2.109-0.633-4.43-1.055-6.539-1.688
			s-4.219-1.477-6.54-2.32c-4.219-1.477-8.648-3.586-12.867-6.117c-2.109-1.266-4.219-2.742-6.539-4.008
			c-2.109-1.477-4.43-2.953-6.539-4.852c-4.43-3.797-9.07-7.383-13.922-13.289c2.531-2.742,5.063-5.063,7.594-6.961
			c1.266-1.055,2.531-1.898,4.008-2.742c1.266-0.844,2.742-1.477,4.008-2.32c5.273-2.742,10.758-4.852,16.242-6.117
			c10.969-2.531,21.938-2.32,32.484,0s20.461,6.961,29.32,13.922c4.43,3.375,8.438,7.594,12.234,12.445
			c1.898,2.531,3.586,5.063,5.063,8.016C1938.213,369.319,1939.69,372.483,1940.744,376.28z"/>
		<path fill="#80A86F" d="M2082.283,486.178c-2.742,1.055-5.063,1.688-7.594,2.32c-2.32,0.633-4.852,1.055-6.961,1.477
			c-4.641,0.844-9.07,1.266-13.289,1.477c-8.648,0.422-16.664-0.211-24.68-1.266c-8.016-1.266-15.82-3.375-23.836-6.539
			c-1.898-0.844-4.008-1.688-5.906-2.531c-2.109-0.844-4.008-1.898-6.117-3.164c-4.008-2.32-8.227-4.641-12.656-8.438
			c2.109-1.898,4.219-3.375,6.328-4.852s4.43-2.531,6.539-3.586c4.43-1.898,9.07-3.586,13.711-4.43
			c9.07-1.898,18.352-1.898,27.422-0.422c8.859,1.477,17.719,4.43,25.734,9.07c4.008,2.32,7.805,5.273,11.602,8.438
			c1.898,1.688,3.586,3.375,5.273,5.484C2079.33,481.538,2081.018,483.647,2082.283,486.178z"/>
		<path fill="#80A86F" d="M1739.932,477.741c-1.688,2.32-3.375,4.219-5.063,6.117s-3.375,3.586-5.063,5.063
			c-3.375,3.164-6.961,5.906-10.336,8.438c-6.961,5.063-14.133,8.859-21.516,12.023s-15.188,5.695-23.625,7.172
			c-2.109,0.422-4.219,0.633-6.539,1.055c-2.109,0.422-4.43,0.422-6.75,0.633c-4.641,0.211-9.492,0.422-15.188-0.422
			c0.633-2.742,1.688-5.273,2.953-7.594c1.055-2.32,2.32-4.641,3.586-6.539c2.742-4.008,5.695-7.805,9.07-10.969
			c6.75-6.539,14.555-11.391,22.781-14.977c8.438-3.586,17.297-5.695,26.578-6.117c4.641-0.211,9.492,0.211,14.344,1.055
			c2.531,0.422,4.852,1.055,7.383,1.898S1737.612,476.264,1739.932,477.741z"/>
		<path fill="#628C53" d="M2018.58,519.928c-2.109,0.844-4.219,1.266-6.117,1.688s-3.586,0.844-5.273,1.055
			c-3.375,0.422-6.328,0.844-9.281,0.633c-5.695,0-10.758-1.266-15.398-3.164s-9.07-4.641-13.078-8.648
			c-2.109-2.109-4.008-4.219-6.117-6.961c-1.898-2.953-4.008-5.695-5.906-10.125c1.688-1.477,3.375-2.742,5.063-3.797
			s3.375-1.898,5.063-2.531c3.375-1.266,6.75-2.109,9.914-2.531c6.539-0.633,12.656,0.422,18.141,2.742
			c5.695,2.32,10.758,5.906,14.766,10.969c2.109,2.531,3.797,5.484,5.273,8.648c0.633,1.688,1.266,3.375,1.898,5.273
			C2018.158,515.499,2018.58,517.608,2018.58,519.928z"/>
		<path fill="#AFD2A3" d="M1781.065,374.382c-1.477,1.688-2.953,3.164-4.43,4.43s-2.742,2.531-4.008,3.586
			c-2.742,2.109-5.273,3.797-7.805,5.063c-5.063,2.742-9.914,4.219-14.977,4.852s-10.125,0.211-15.609-1.055
			c-2.742-0.844-5.695-1.688-8.859-3.164s-6.328-3.164-10.125-5.906c0.844-2.109,1.688-4.008,2.742-5.695s2.109-3.375,3.164-4.641
			c2.32-2.742,4.852-5.273,7.383-6.961c5.273-3.797,11.18-5.906,17.297-6.539s12.234,0,18.141,2.32
			c2.953,1.266,5.906,2.953,8.859,5.063c1.477,1.055,2.953,2.32,4.219,3.797C1778.533,370.585,1779.799,372.272,1781.065,374.382z"
			/>
		<path fill="#AFD2A3" d="M1980.612,438.718c-5.063-0.211-9.07-1.266-12.656-2.32c-3.586-1.266-6.75-2.953-9.492-4.852
			c-2.953-1.898-5.484-4.219-8.016-7.172c-2.32-2.953-4.852-6.117-6.75-10.969c4.852-1.688,9.281-1.688,13.289-0.844
			c4.007,0.844,7.805,2.531,11.179,4.852c3.375,2.32,6.117,5.063,8.438,8.648C1978.924,429.436,1980.612,433.444,1980.612,438.718z"
			/>
		<path fill="#80A86F" d="M2028.494,431.124c-5.063-0.211-9.07-1.266-12.656-2.32c-3.586-1.266-6.75-2.953-9.492-4.852
			c-2.953-1.898-5.484-4.219-8.016-7.172c-2.32-2.953-4.852-6.117-6.75-10.969c4.852-1.688,9.281-1.688,13.289-0.844
			s7.805,2.531,11.18,4.852s6.116,5.063,8.438,8.648C2026.596,421.843,2028.494,425.85,2028.494,431.124z"/>
		<path fill="#628C53" d="M1683.823,391.046c-5.063-0.211-9.07-1.266-12.656-2.32c-3.586-1.266-6.75-2.953-9.492-4.852
			c-2.953-1.898-5.484-4.219-8.016-7.172c-2.32-2.953-4.852-6.117-6.75-10.969c4.852-1.688,9.281-1.688,13.289-0.844
			s7.805,2.531,11.18,4.852s6.117,5.063,8.438,8.648C1681.924,381.975,1683.823,385.983,1683.823,391.046z"/>
		<path fill="#AFD2A3" d="M1786.971,565.28c-5.063-0.211-9.07-1.266-12.656-2.32c-3.586-1.266-6.75-2.953-9.492-4.852
			c-2.953-1.898-5.484-4.219-8.016-7.172c-2.32-2.953-4.852-6.117-6.75-10.969c4.852-1.688,9.281-1.688,13.289-0.844
			s7.805,2.531,11.18,4.852s6.117,5.063,8.438,8.648C1785.073,555.999,1786.971,560.007,1786.971,565.28z"/>
		<path fill="#80A86F" d="M1680.869,551.569c-3.375,4.008-6.539,6.328-9.703,8.227s-6.539,3.375-9.703,4.43
			c-3.376,1.055-6.75,1.688-10.547,1.688s-7.805,0-12.868-1.688c1.688-4.852,4.431-8.227,7.595-10.969s6.75-4.43,10.758-5.695
			c3.797-1.055,7.805-1.688,12.023-1.055C1672.432,547.139,1676.862,548.405,1680.869,551.569z"/>
		<path fill="#AFD2A3" d="M1691.205,549.038c-5.063,0.422-9.07-0.211-12.867-1.055c-3.586-0.844-6.961-2.109-10.125-3.797
			s-5.906-3.586-8.648-6.117c-2.742-2.742-5.484-5.484-8.016-10.125c4.641-2.32,9.07-2.742,13.289-2.32s8.016,1.688,11.602,3.586
			s6.75,4.43,9.281,7.594C1688.463,539.968,1690.573,543.764,1691.205,549.038z"/>
		<path fill="#628C53" d="M1828.737,309.835c-0.844,2.109-1.688,4.008-2.32,5.695c-0.844,1.688-1.688,3.375-2.532,4.852
			c-1.687,2.953-3.375,5.484-5.273,7.594c-3.796,4.43-7.805,7.594-12.234,9.914s-9.281,4.008-14.977,4.641
			c-2.953,0.422-5.906,0.422-9.28,0.211c-3.376-0.211-6.962-0.422-11.602-1.688c0-2.32,0-4.43,0.421-6.328
			c0.212-1.898,0.634-3.797,1.267-5.484c1.055-3.375,2.531-6.539,4.43-9.281c3.586-5.484,8.227-9.492,13.499-12.445
			c5.273-2.953,11.391-4.43,17.719-4.641c3.164,0,6.539,0.422,10.125,1.477c1.688,0.633,3.586,1.055,5.273,1.898
			C1824.94,307.303,1826.838,308.569,1828.737,309.835z"/>
		<path fill="#80A86F" d="M1763.135,344.428c-2.32,0.633-4.219,1.266-6.117,1.477c-1.898,0.422-3.586,0.633-5.273,0.844
			c-3.375,0.422-6.539,0.422-9.281,0.422c-5.695-0.211-10.758-1.688-15.398-3.797s-8.859-5.063-12.867-9.07
			c-1.898-2.109-4.008-4.43-5.906-7.172c-1.898-2.953-3.797-5.906-5.484-10.336c1.688-1.477,3.586-2.531,5.273-3.586
			s3.375-1.688,5.273-2.32c3.375-1.266,6.75-1.898,9.914-2.109c6.539-0.422,12.656,0.844,18.141,3.375s10.336,6.328,14.344,11.602
			c1.898,2.531,3.586,5.484,5.063,8.859c0.633,1.688,1.266,3.375,1.688,5.484C1762.713,339.999,1763.135,342.108,1763.135,344.428z"
			/>
		<path fill="#80A86F" d="M1655.346,431.49c-3.586,1.477-6.539,2.531-9.492,3.375s-5.906,1.688-8.648,2.32
			c-5.484,1.266-10.758,2.109-15.609,2.32c-9.914,0.844-18.984,0-27.844-1.898c-2.109-0.633-4.43-1.055-6.539-1.688
			s-4.219-1.477-6.539-2.32c-4.219-1.477-8.648-3.586-12.867-6.117c-2.109-1.266-4.219-2.742-6.539-4.008
			c-2.109-1.477-4.43-2.953-6.539-4.852c-4.43-3.797-9.07-7.383-13.922-13.289c2.531-2.742,5.063-5.063,7.594-6.961
			c1.266-1.055,2.531-1.898,4.008-2.742c1.266-0.844,2.742-1.477,4.008-2.32c5.273-2.742,10.758-4.852,16.242-6.117
			c10.969-2.531,21.938-2.32,32.484,0s20.46,6.961,29.319,13.922c4.431,3.375,8.438,7.594,12.234,12.445
			c1.898,2.531,3.586,5.063,5.063,8.016C1653.026,424.74,1654.291,427.694,1655.346,431.49z"/>
		<g>
			<path fill="#BBCBC5" d="M1842.797,444.058c-22.003,2.697-42.552,21.643-47.762,53s11,72.912,17.5,108.5s-14.5,98.5-23,113.5
				s57.5,24,87,15s7.5-67,3.5-84.5s-20.082-91.294-9.957-112.232S1886.372,438.718,1842.797,444.058z"/>
			<path fill="#A1B5AE" d="M1842.797,447.558c-5.109,25.999-8.586,73.55-3.303,124.05c7.596,72.6,2.128,144.217,5.991,162.578
				c10.5,0,18.198-0.538,25.05-2.628c29.5-9,9.5-61.5,5.5-79s-15.431-88.561-9.752-111.114
				C1872.524,516.659,1883.475,440.058,1842.797,447.558z"/>
		</g>
		<path fill="#80A86F" d="M1914.588,458.968c-0.211,2.32-0.633,4.43-1.055,6.117c-0.422,1.898-0.844,3.586-1.266,5.273
			c-1.055,3.164-2.109,6.117-3.375,8.648c-2.531,5.063-5.695,9.281-9.492,12.656s-8.016,6.117-13.5,8.227
			c-2.742,1.055-5.695,1.898-9.07,2.531s-6.961,1.266-11.602,1.055c-0.633-2.32-1.055-4.219-1.266-6.328
			c-0.211-1.898-0.211-3.797,0-5.695c0.211-3.586,0.844-6.961,2.109-9.914c2.109-6.117,5.695-11.18,10.336-15.398
			c4.43-4.008,9.914-7.172,16.242-8.648c3.164-0.844,6.539-1.055,10.125-1.055c1.898,0,3.586,0.211,5.695,0.633
			S1912.479,458.124,1914.588,458.968z"/>
		<path fill="#628C53" d="M1910.58,535.327c-4.852,1.898-8.649,2.531-12.445,2.953c-3.797,0.211-7.172,0-10.758-0.633
			c-3.376-0.633-6.751-1.688-10.125-3.164c-3.375-1.688-6.961-3.586-10.547-7.172c3.797-3.586,7.805-5.273,11.813-6.328
			c4.008-0.844,8.227-0.844,12.023-0.211c4.008,0.633,7.805,2.109,11.18,4.43C1905.096,527.733,1908.26,530.686,1910.58,535.327z"/>
		<path fill="#80A86F" d="M1955.51,591.225c-3.375,1.688-6.328,2.953-9.281,4.008s-5.695,1.898-8.438,2.742
			c-5.484,1.688-10.547,2.531-15.609,3.164c-9.914,1.266-18.984,1.055-27.844-0.422c-2.32-0.422-4.43-0.844-6.539-1.266
			s-4.43-1.266-6.539-1.898c-4.43-1.266-8.86-3.164-13.289-5.273c-2.32-1.055-4.43-2.32-6.75-3.797
			c-2.32-1.266-4.642-2.742-6.961-4.43c-4.641-3.375-9.492-6.961-14.766-12.445c2.32-2.953,4.852-5.273,7.383-7.383
			c1.266-1.055,2.531-2.109,3.797-2.953c1.266-1.055,2.531-1.688,3.796-2.531c5.273-3.164,10.547-5.484,16.032-6.961
			c10.758-3.164,21.726-3.586,32.483-1.688c10.547,1.688,20.883,5.695,29.954,12.234c4.641,3.164,8.859,7.172,12.867,11.813
			c1.898,2.32,3.797,4.852,5.484,7.805C1952.768,584.475,1954.455,587.639,1955.51,591.225z"/>
	</g>
</g>
</svg>
