<?xml version="1.0" encoding="utf-8"?>
<!-- Generator: Adobe Illustrator 24.1.0, SVG Export Plug-In . SVG Version: 6.00 Build 0)  -->
<svg version="1.1" id="Ebene_1" xmlns="http://www.w3.org/2000/svg" xmlns:xlink="http://www.w3.org/1999/xlink" x="0px" y="0px"
	 viewBox="0 0 512 512" style="enable-background:new 0 0 512 512;" xml:space="preserve">
<style type="text/css">
	.st0{fill:#FFE16D;}
	.st1{fill:#5D92AF;}
	.st2{fill:#273635;}
	.st3{fill:#7AA66C;}
	.st4{fill:#BFE3B3;}
	.st5{fill:#60958C;}
	.st6{fill:#99C389;}
	.st7{fill:#497B72;}
	.st8{fill:#31655D;}
	.st9{fill:#BA3143;}
	.st10{fill:#DA545F;}
	.st11{fill:#8EC3AE;}
	.st12{fill:#A5C697;}
	.st13{fill:#628C53;}
	.st14{fill:#BBCBC5;}
	.st15{fill:#4A86A4;}
	.st16{fill:#F56E76;}
	.st17{fill:#95C5AD;}
	.st18{fill:#7AAD97;}
	.st19{fill:#A1B5AE;}
	.st20{fill:#80A86F;}
	.st21{fill:#AFD2A3;}
	.st22{fill:#71A8C6;}
	.st23{fill:none;stroke:#60958C;stroke-width:40;stroke-miterlimit:10;}
	.st24{fill:#FFB1B6;}
</style>
<path class="st14" d="M301.7,448.8C301.7,448.8,301.7,448.8,301.7,448.8l-0.1-0.1l0,0C300.5,448.9,301.1,448.9,301.7,448.8
	L301.7,448.8L301.7,448.8z"/>
<path class="st0" d="M264.6,104.1c-75.8,0-144.5,61.5-144.5,137.3c0,75.8,38.6,147.4,144.5,228.1
	c121.8-92.8,144.5-152.3,144.5-228.1C409.1,165.6,340.5,104.1,264.6,104.1z"/>
<path class="st16" d="M158.7,243.8L158.7,243.8c-1-3.2,0.8-6.6,3.9-7.6L265,204c1.2-0.4,2.5-0.4,3.7,0l97,32.1
	c3.2,1,4.9,4.5,3.8,7.6l0,0c-1,3.2-4.5,4.9-7.6,3.8l-93.3-30.9c-1.2-0.4-2.5-0.4-3.7,0l-98.7,31C163.1,248.7,159.7,247,158.7,243.8z
	"/>
<g>
	<path class="st14" d="M325.4,72.8c0.2,1.9,0.1,3.8-0.3,5.6c-0.1,0.9-0.4,1.8-0.6,2.8c-0.3,0.9-0.5,1.8-0.8,2.7
		c-1.3,3.6-3.1,6.9-5.3,10c-2.2,3.1-4.9,5.9-7.7,8.4c-0.7,0.6-1.5,1.2-2.2,1.8l-1.1,0.9l-0.9,0.7l-1.8,1.4l-1.8,1.6
		c-4.8,4.1-9.4,8.9-14,13.7c-4.7,4.9-9.4,9.9-14.8,15c0.2-1.9,0.5-3.7,1-5.4c0.4-1.8,1-3.5,1.6-5.2c1.2-3.4,2.7-6.7,4.5-10
		c3.5-6.4,8-12.3,13.8-17.3l2.2-1.8l2.4-1.7l1.2-0.8c0.4-0.3,0.7-0.5,1-0.7c0.7-0.4,1.3-0.9,2-1.3c2.6-1.8,5.2-3.6,7.7-5.7
		c2.5-2,4.9-4.2,7.3-6.6C320.9,78.4,323.2,75.8,325.4,72.8z"/>
	<path class="st14" d="M232.3,62.4c1.6,3.4,3.3,6.3,5.1,9.2c1.8,2.8,3.8,5.4,5.8,7.9c2,2.5,4.2,4.8,6.4,7.1c0.6,0.5,1.2,1.1,1.7,1.7
		c0.3,0.3,0.5,0.5,0.9,0.9l1,1l2,2.1l1.8,2.2c4.7,6,7.9,12.8,10.2,19.7c1.1,3.5,1.9,7,2.4,10.6c0.2,1.8,0.4,3.6,0.5,5.5
		c0.1,1.8,0.1,3.7-0.1,5.5c-4.3-6-7.9-11.9-11.6-17.6c-3.6-5.7-7.2-11.2-11.1-16.2l-1.4-1.9l-1.5-1.8l-0.7-0.9l-0.9-1.1
		c-0.6-0.7-1.2-1.4-1.8-2.2c-2.3-3-4.4-6.3-5.9-9.7c-1.5-3.5-2.7-7.1-3.2-10.9c-0.1-0.9-0.2-1.9-0.3-2.8c0-0.9-0.1-1.9,0-2.8
		C231.5,66,231.7,64.2,232.3,62.4z"/>
	<path class="st14" d="M278.1,101.6c0.2-0.1,0.2,0,0.2,0.1c0,0,0.1,0.1,0.1,0.2c0.1,0.1,0.1,0.3,0.2,0.4c0.1,0.3,0.2,0.6,0.4,0.9
		l0.7,1.7c0.2,0.6,0.5,1.2,0.7,1.7c0.2,0.6,0.5,1.2,0.6,1.7c0.9,2.3,1.5,4.5,2.2,6.7c1.3,4.4,2.1,8.7,2.6,13
		c0.2,2.1,0.4,4.3,0.5,6.4c0.1,2.1,0.1,4.2,0,6.3c0,4.1-0.7,8-2.3,12c-1.6,3.9-4.1,7.9-6.3,12.1c-0.6,1-1.1,2.1-1.6,3.1
		c-0.5,1.1-1,2.1-1.4,3.2c-0.8,2.1-1.4,4.3-1.7,6.5c-0.3,2.2-0.4,4.3-0.3,6.5c0.1,2.2,0.4,4.3,0.8,6.5c0.9,4.4,2.6,8.7,4.5,13.2
		c1.9,4.4,3.9,8.9,5.2,13.4c0.7,2.3,1.2,4.5,1.5,6.8c0.4,2.3,0.6,4.5,0.9,6.8l0.4,3.4c0.1,1.1,0.2,2.4,0.3,3.6
		c0.1,1.2,0.2,2.4,0.3,3.6c0.1,1.2,0.1,2.4,0.2,3.6c0,2.4,0,4.8-0.2,7.2c-0.2,2.4,16.8,64.5-1.1,60.1c7-0.4-1.2,4.6-1.9,6.9
		c-0.7,2.3-1.6,4.5-2.5,6.8c-0.9,2.2-2,4.4-3.1,6.6c-1.2,2.1-2.4,4.3-3.7,6.3c-2.7,4.1-5.8,8.1-9.4,11.7c-0.9,0.9-1.8,1.8-2.8,2.7
		c-0.5,0.4-1,0.9-1.5,1.3l9.1-5.3c-2.1,1.6-14.2,2.3-16.9,3.6l-7.2-2.4c-1.6-5.3-5.2-0.2-6-4.8c-0.8-4.6-3.2-5.3-3.6-9.6
		c-0.2-2.2,0.1-10,0-12c-0.2-2.1,0.1-5.2,0-7.2c-0.1-2.1,2.4,0.8,2.4-1.2c-14.7,4.8,3.9-60.6,4.1-62.6c0.1-2,0.3-3.9,0.7-5.9
		c0.3-2,0.7-3.9,1.1-5.8c0.5-1.9,0.9-3.9,1.4-5.9c0.2-1,0.5-1.9,0.8-3l0.7-3.1l1.4-6.3c0.5-2.1,1.1-4.2,1.9-6.3
		c1.5-4.2,3.5-8.4,5.3-12.7c1.8-4.3,3.4-8.6,4.1-13c0.4-2.2,0.6-4.4,0.6-6.6c0-2.2-0.1-4.4-0.5-6.6c-0.7-4.4-2.6-8.8-4.6-13.4
		c-1-2.3-2.1-4.6-3-7c-1-2.3-1.7-4.7-2.2-7.1c-0.5-2.4-0.7-4.7-0.7-7.1c0-2.4,0.5-4.7,0.9-7c0.5-2.2,1-4.4,1.7-6.6
		c0.7-2.2,1.5-4.4,2.4-6.6c1.9-4.3,4.3-8.6,7.5-12.8c1.6-2,3.4-4.1,5.4-6c1-1,2.1-1.9,3.4-2.8c0.6-0.4,1.3-0.9,2-1.3
		c0.3-0.2,0.7-0.4,1.1-0.6c0.2-0.1,0.4-0.2,0.6-0.3c0.1,0,0.2-0.1,0.3-0.2c0.1-0.1,0.2-0.1,0.5-0.3L278.1,101.6z"/>
	<path class="st14" d="M272.7,143.8c-2.3,0.9-4.9,1.3-7.4,1.4c-2.5,0.1-5.1,0-7.6-0.4c-5.1-0.7-10-2.3-14.6-4.5
		c-4.7-2.2-8.9-5.1-12.9-8.2c-1-0.8-1.9-1.7-2.9-2.5l-1.4-1.2l-1.2-1c-0.8-0.7-1.6-1.4-2.3-2.1c-0.8-0.7-1.6-1.3-2.5-2
		c-3.3-2.7-6.8-5.2-10.3-7.7c-0.9-0.6-1.8-1.2-2.7-1.8l-1.4-0.9l-1.4-0.9l-2.8-1.8l-2.8-1.8c-7.6-4.9-15.5-9.6-23.7-15.2
		c2.5-0.3,5-0.4,7.4-0.3c2.5,0.1,4.9,0.3,7.3,0.6c4.9,0.6,9.6,1.7,14.3,3.2c1.2,0.4,2.3,0.8,3.5,1.2l3.4,1.4l1.7,0.7l1.7,0.8
		c1.1,0.5,2.2,1.1,3.4,1.6c4.4,2.4,8.7,5,12.6,8.3c1,0.8,2,1.6,2.9,2.5l2.8,2.7l1.4,1.4c0.4,0.4,0.8,0.8,1.1,1.2
		c0.7,0.8,1.5,1.6,2.2,2.4c0.4,0.4,0.8,0.8,1.1,1.1l1.1,1.1c0.8,0.8,1.5,1.5,2.3,2.2l2.3,2.2c0.8,0.7,1.6,1.4,2.4,2.1
		c3.3,2.8,6.7,5.4,10.5,7.8C264.1,139.8,268.1,142,272.7,143.8z"/>
	<path class="st19" d="M276.3,101.6C276.4,101.5,276.4,101.6,276.3,101.6c0.1,0.1,0.1,0.2,0.1,0.3l0.1,0.4l0.1,0.8l0.3,1.6l0.6,3.3
		c0.5,2.2,0.8,4.3,1.2,6.5c0.8,4.3,1.3,8.5,1.7,12.8c0.2,2.1,0.4,4.3,0.4,6.4c0.1,2.1,0.2,4.3,0.2,6.4c0.1,4.2-0.1,8.3-0.9,12.5
		c-0.3,2.1-0.9,4.2-1.4,6.3c-0.3,1.1-0.5,2.1-0.8,3.2l-0.8,3.2c-0.3,1.1-0.5,2.2-0.7,3.3c-0.2,1.1-0.4,2.2-0.6,3.3
		c-0.3,2.2-0.5,4.4-0.5,6.6c0,4.4,0.6,8.7,1.5,13c0.9,4.3,2.3,8.6,3.8,12.9c1.5,4.3,3.1,8.6,4.2,13c1.2,4.4,1.8,8.8,2.4,13.2
		l0.5,3.3c0.2,1.1,0.3,2.3,0.4,3.4c0.2,2.3,0.5,4.6,0.6,6.9c0.1,2.3,0.2,4.6,0.2,6.9c-0.1,2.3-0.2,57.6-0.4,59.9
		c-0.1,1.1-0.3,2.3-0.4,3.4c-0.2,1.1-0.3,2.3-0.5,3.4c-0.4,2.3-0.9,4.5-1.5,6.8c-0.6,2.2-1.2,4.5-1.9,6.7c-0.3,1.1-0.8,2.2-1.1,3.3
		c-0.4,1.1-0.8,2.2-1.2,3.3c-1.7,4.3-3.7,8.5-6.1,12.6c-1.2,2,5.9-2,4.4,0c-1.4,1.9-9.1,1.8-10.8,3.6h-6c-0.6-4.7,0.5-2.2,0.2-6.6
		c-0.3-4.4-0.6-8.7-0.7-13c-0.3-8.5-0.6-16.8-0.4-25.1c0-2.1,0.1-57.1,0.2-59.2c0.1-2.1,0.2-4.1,0.4-6.2c0.2-2.1,0.3-4.1,0.5-6.2
		c0.1-1,0.2-2.1,0.3-3.1l0.2-3.2c0.1-2.1,0.3-4.3,0.4-6.4c0.1-2.1,0.4-4.3,0.6-6.5c0.5-4.3,1.4-8.7,2.1-13.1
		c0.7-4.4,1.3-8.8,1.3-13.2c0-4.4-0.3-8.7-1.2-13.1c-0.8-4.3-2.3-8.6-3.9-13c-0.8-2.2-1.6-4.4-2.3-6.6c-0.7-2.2-1.3-4.5-1.7-6.8
		c-0.5-2.3-0.6-4.5-0.8-6.8c-0.1-2.3,0.1-4.6,0.2-6.8c0.2-2.2,0.5-4.5,0.8-6.7c0.4-2.2,0.8-4.4,1.3-6.7c1-4.4,2.4-8.9,4.4-13.2
		c1-2.2,2.1-4.3,3.4-6.4c0.7-1,1.4-2.1,2.2-3.1c0.4-0.5,0.8-1,1.3-1.5c0.2-0.2,0.5-0.5,0.7-0.7c0.1-0.1,0.3-0.2,0.4-0.4l0.2-0.2
		c0.1-0.1,0.1-0.1,0.3-0.3L276.3,101.6z"/>
	<path class="st14" d="M351.9,119.1c-0.4,2.6-1.4,5.1-2.6,7.5c-1.3,2.4-2.8,4.6-4.6,6.7c-3.6,4.1-8.1,7.5-13.1,9.9
		c-2.5,1.2-5.1,2.2-7.7,3c-1.3,0.4-2.7,0.7-4,1l-2,0.4l-1.8,0.3c-4.5,0.8-8.9,2.1-13,3.8c-8.3,3.4-15.6,8.8-21.8,15.8
		c-6.1,7-11.1,15.5-15.1,24.9c-0.2-2.6-0.1-5.2,0.2-7.8c0.3-2.6,0.8-5.2,1.4-7.7c1.3-5.1,3.3-10.1,6.1-14.7c2.7-4.7,6.3-9,10.4-12.7
		c4.1-3.7,8.9-6.8,14-9c5.1-2.3,10.5-3.7,15.9-4.5l1.9-0.3l1.7-0.2c1.1-0.2,2.3-0.3,3.4-0.5c2.2-0.4,4.4-0.9,6.6-1.5
		c4.3-1.3,8.6-3,12.6-5.4c2-1.2,4-2.5,5.9-4C348.3,122.7,350.1,121,351.9,119.1z"/>
	<path class="st14" d="M181.3,168.1c3.7,0,7.1-0.3,10.5-0.7c3.3-0.5,6.5-1.1,9.6-1.9c3.1-0.8,6.2-1.8,9.2-2.8
		c0.7-0.3,1.5-0.6,2.2-0.9c0.4-0.1,0.7-0.3,1.1-0.4l1.4-0.5l2.8-0.9l2.8-0.7c7.4-1.7,14.9-1.8,22.2-0.8c3.6,0.5,7.2,1.2,10.7,2.3
		c1.7,0.5,3.5,1.1,5.1,1.9c1.7,0.7,3.4,1.5,5,2.5c-7.3,1.4-14.1,2.1-20.8,3c-6.7,0.9-13.2,1.7-19.4,3.1l-2.3,0.5l-2.2,0.6l-1.1,0.3
		l-1.3,0.4c-0.9,0.2-1.8,0.5-2.8,0.7c-3.7,0.8-7.5,1.3-11.3,1.2c-3.8-0.1-7.6-0.6-11.2-1.7c-0.9-0.3-1.8-0.6-2.7-0.9
		c-0.9-0.4-1.7-0.7-2.6-1.2C184.3,170.4,182.7,169.4,181.3,168.1z"/>
	<path class="st14" d="M297.3,104.1c4.2,0.4,8.1,0.2,11.8-0.4c1.9-0.3,3.7-0.7,5.5-1.2c0.4-0.1,0.9-0.3,1.3-0.4l1.5-0.4
		c0.5-0.1,1.1-0.3,1.6-0.4l1.6-0.3c4.4-0.6,8.7-0.3,12.8,0.5c4.1,0.9,8.1,2.2,11.8,4.5c-4.2,0.4-8.3,0.4-12.2,0.6
		c-3.9,0.2-7.8,0.3-11.5,0.9l-1.4,0.2c-0.4,0.1-0.9,0.2-1.3,0.3l-0.7,0.1l-0.8,0.2c-0.5,0.1-1.1,0.2-1.6,0.3
		c-2.2,0.3-4.4,0.4-6.6,0.2c-2.2-0.2-4.4-0.6-6.4-1.4c-1-0.4-2-0.8-2.9-1.4C299,105.5,298.1,104.8,297.3,104.1z"/>
	<path class="st14" d="M163.1,110c4.2-0.4,7.9-1.4,11.5-2.7c1.8-0.7,3.5-1.4,5.1-2.2c0.4-0.2,0.8-0.4,1.2-0.6l1.4-0.7
		c0.5-0.2,1-0.5,1.5-0.7l1.5-0.6c4.1-1.5,8.4-2.1,12.6-2.1c4.2,0,8.4,0.6,12.4,2.1c-4.1,1.2-8,2.1-11.8,3c-3.8,0.9-7.6,1.9-11,3.1
		l-1.3,0.5c-0.4,0.2-0.8,0.4-1.3,0.5l-0.6,0.3l-0.7,0.3c-0.5,0.2-1,0.4-1.5,0.6c-2.1,0.7-4.2,1.3-6.4,1.5c-2.2,0.2-4.4,0.2-6.5-0.1
		c-1.1-0.2-2.1-0.4-3.2-0.8C165,111.1,164,110.6,163.1,110z"/>
	<path class="st14" d="M190.1,131.1c2.8,0,5.3-0.2,7.8-0.4c2.4-0.2,4.7-0.6,7-1c2.2-0.4,4.4-0.9,6.6-1.4c0.5-0.2,1.1-0.3,1.6-0.4
		c0.3-0.1,0.5-0.1,0.8-0.2l1.1-0.2l2.1-0.4l2.1-0.2c5.7-0.6,11.2,0.2,16.3,1.8c2.6,0.8,5.1,1.8,7.4,3.1c1.2,0.7,2.4,1.3,3.5,2.1
		c1.1,0.8,2.2,1.6,3.2,2.7c-5.5,1-10.5,1.3-15.4,1.6c-4.8,0.3-9.5,0.4-13.9,0.8l-1.6,0.1c-0.5,0.1-1.1,0.2-1.6,0.2l-0.8,0.1l-1,0.1
		c-0.7,0.1-1.4,0.2-2.1,0.2c-2.8,0.2-5.7,0.1-8.5-0.4c-2.8-0.5-5.5-1.4-8-2.8c-1.3-0.7-2.5-1.4-3.6-2.3
		C191.9,133.3,190.9,132.3,190.1,131.1z"/>
	<path class="st20" d="M368,75.6c-1,0.9-2,1.7-2.9,2.4c-0.9,0.7-1.9,1.3-2.8,1.9c-1.9,1.2-3.7,2.2-5.5,3.1c-3.7,1.7-7.3,2.9-11,3.8
		c-3.7,0.9-7.5,1.4-11.6,1.4c-1,0-2.1,0-3.1-0.1c-1,0-2.1-0.1-3.2-0.3c-2.2-0.3-4.5-0.6-7.1-1.4c0.6-1.2,1.2-2.3,2-3.3
		c0.7-1,1.5-1.9,2.3-2.8c1.6-1.7,3.3-3.2,5.2-4.4c3.7-2.5,7.7-4.2,11.9-5.1c4.2-1,8.6-1.2,12.9-0.6c2.2,0.3,4.4,0.9,6.6,1.7
		c1.1,0.4,2.2,0.9,3.3,1.5C365.9,74,367,74.7,368,75.6z"/>
	<path class="st13" d="M337.2,52.4c0.2,1.1,0.4,2,0.4,2.9c0.1,0.9,0.1,1.7,0.2,2.5c0,1.6-0.1,3.1-0.3,4.4c-0.4,2.7-1.3,5-2.5,7
		c-1.2,2.1-2.8,3.9-4.9,5.6c-1.1,0.8-2.3,1.6-3.7,2.4c-1.5,0.8-3,1.5-5.1,2.1c-0.6-0.9-1.1-1.8-1.4-2.7c-0.4-0.9-0.6-1.7-0.9-2.6
		c-0.4-1.7-0.6-3.3-0.5-4.8c0.1-3.1,1-5.9,2.5-8.4c1.5-2.5,3.5-4.6,6.1-6.2c1.3-0.8,2.8-1.5,4.4-1.9c0.8-0.2,1.7-0.4,2.6-0.5
		C335,52.3,336.1,52.3,337.2,52.4z"/>
	<path class="st20" d="M316.6,89.2c-1.7,0.7-3.1,1.2-4.5,1.6c-1.4,0.4-2.8,0.8-4.1,1.1c-2.6,0.6-5.1,1-7.4,1.1
		c-4.7,0.4-9,0-13.2-0.9c-1-0.3-2.1-0.5-3.1-0.8c-1-0.3-2-0.7-3.1-1.1c-2-0.7-4.1-1.7-6.1-2.9c-1-0.6-2-1.3-3.1-1.9
		c-1-0.7-2.1-1.4-3.1-2.3c-2.1-1.8-4.3-3.5-6.6-6.3c1.2-1.3,2.4-2.4,3.6-3.3c0.6-0.5,1.2-0.9,1.9-1.3c0.6-0.4,1.3-0.7,1.9-1.1
		c2.5-1.3,5.1-2.3,7.7-2.9c5.2-1.2,10.4-1.1,15.4,0c5,1.1,9.7,3.3,13.9,6.6c2.1,1.6,4,3.6,5.8,5.9c0.9,1.2,1.7,2.4,2.4,3.8
		C315.4,85.9,316.1,87.4,316.6,89.2z"/>
	<path class="st13" d="M175.7,108.7c-0.4,1.3-0.8,2.5-1.2,3.6c-0.4,1.1-0.9,2.1-1.4,3.1c-1,2-2,3.8-3.1,5.5
		c-2.2,3.4-4.7,6.3-7.4,9.1c-2.7,2.7-5.7,5.1-9.1,7.3c-0.8,0.6-1.8,1.1-2.7,1.6c-0.9,0.5-1.9,1-2.9,1.5c-2.1,0.9-4.1,1.9-6.8,2.5
		c-0.2-1.3-0.1-2.6-0.1-3.8c0.1-1.2,0.2-2.4,0.5-3.5c0.5-2.3,1.2-4.5,2.1-6.5c1.8-4.1,4.4-7.6,7.5-10.6c3.1-3,6.6-5.5,10.7-7.3
		c2-0.9,4.2-1.6,6.5-2c1.2-0.2,2.3-0.4,3.6-0.4C173.1,108.5,174.4,108.5,175.7,108.7z"/>
	<path class="st20" d="M383.7,141.3c-1.3,0.5-2.4,0.8-3.6,1.1c-1.1,0.3-2.3,0.5-3.3,0.7c-2.2,0.4-4.3,0.6-6.3,0.7
		c-4.1,0.2-7.9-0.1-11.7-0.6c-3.8-0.6-7.5-1.6-11.3-3.1c-0.9-0.4-1.9-0.8-2.8-1.2c-1-0.4-1.9-0.9-2.9-1.5c-1.9-1.1-3.9-2.2-6-4
		c1-0.9,2-1.6,3-2.3c1-0.7,2.1-1.2,3.1-1.7c2.1-0.9,4.3-1.7,6.5-2.1c4.3-0.9,8.7-0.9,13-0.2c4.2,0.7,8.4,2.1,12.2,4.3
		c1.9,1.1,3.7,2.5,5.5,4c0.9,0.8,1.7,1.6,2.5,2.6C382.3,139.1,383.1,140.1,383.7,141.3z"/>
	<path class="st20" d="M221.4,137.3c-0.8,1.1-1.6,2-2.4,2.9c-0.8,0.9-1.6,1.7-2.4,2.4c-1.6,1.5-3.3,2.8-4.9,4
		c-3.3,2.4-6.7,4.2-10.2,5.7c-3.5,1.5-7.2,2.7-11.2,3.4c-1,0.2-2,0.3-3.1,0.5c-1,0.2-2.1,0.2-3.2,0.3c-2.2,0.1-4.5,0.2-7.2-0.2
		c0.3-1.3,0.8-2.5,1.4-3.6c0.5-1.1,1.1-2.2,1.7-3.1c1.3-1.9,2.7-3.7,4.3-5.2c3.2-3.1,6.9-5.4,10.8-7.1c4-1.7,8.2-2.7,12.6-2.9
		c2.2-0.1,4.5,0.1,6.8,0.5c1.2,0.2,2.3,0.5,3.5,0.9C219.1,136.2,220.3,136.6,221.4,137.3z"/>
	<path class="st20" d="M176.6,108.8c0.7,0.8,1.3,1.6,1.8,2.4c0.5,0.7,1,1.5,1.4,2.2c0.8,1.4,1.4,2.7,1.9,4c0.9,2.6,1.3,5,1.3,7.4
		c0,2.4-0.5,4.8-1.6,7.3c-0.5,1.3-1.2,2.5-2.1,3.9c-0.9,1.4-1.9,2.8-3.4,4.4c-1-0.5-1.8-1.1-2.5-1.6c-0.8-0.6-1.4-1.2-2-1.8
		c-1.2-1.3-2.1-2.6-2.8-4c-1.4-2.7-2-5.6-1.9-8.5c0.1-2.9,0.8-5.7,2.3-8.4c0.8-1.3,1.7-2.6,3-3.8c0.6-0.6,1.3-1.2,2.1-1.7
		C174.7,109.8,175.6,109.2,176.6,108.8z"/>
	<path class="st13" d="M353.5,157.3c-1,0.4-2,0.6-2.9,0.8c-0.9,0.2-1.7,0.4-2.5,0.5c-1.6,0.2-3,0.4-4.4,0.3c-2.7,0-5.1-0.6-7.3-1.5
		c-2.2-0.9-4.3-2.2-6.2-4.1c-1-1-1.9-2-2.9-3.3c-0.9-1.4-1.9-2.7-2.8-4.8c0.8-0.7,1.6-1.3,2.4-1.8c0.8-0.5,1.6-0.9,2.4-1.2
		c1.6-0.6,3.2-1,4.7-1.2c3.1-0.3,6,0.2,8.6,1.3c2.7,1.1,5.1,2.8,7,5.2c1,1.2,1.8,2.6,2.5,4.1c0.3,0.8,0.6,1.6,0.9,2.5
		C353.3,155.2,353.5,156.2,353.5,157.3z"/>
	<path class="st21" d="M240.9,88.3c-0.7,0.8-1.4,1.5-2.1,2.1c-0.7,0.6-1.3,1.2-1.9,1.7c-1.3,1-2.5,1.8-3.7,2.4
		c-2.4,1.3-4.7,2-7.1,2.3c-2.4,0.3-4.8,0.1-7.4-0.5c-1.3-0.4-2.7-0.8-4.2-1.5c-1.5-0.7-3-1.5-4.8-2.8c0.4-1,0.8-1.9,1.3-2.7
		c0.5-0.8,1-1.6,1.5-2.2c1.1-1.3,2.3-2.5,3.5-3.3c2.5-1.8,5.3-2.8,8.2-3.1c2.9-0.3,5.8,0,8.6,1.1c1.4,0.6,2.8,1.4,4.2,2.4
		c0.7,0.5,1.4,1.1,2,1.8C239.7,86.5,240.3,87.3,240.9,88.3z"/>
	<path class="st20" d="M304.2,128.4c-0.1,1.1-0.3,2.1-0.5,2.9c-0.2,0.9-0.4,1.7-0.6,2.5c-0.5,1.5-1,2.9-1.6,4.1
		c-1.2,2.4-2.7,4.4-4.5,6c-1.8,1.6-3.8,2.9-6.4,3.9c-1.3,0.5-2.7,0.9-4.3,1.2c-1.6,0.3-3.3,0.6-5.5,0.5c-0.3-1.1-0.5-2-0.6-3
		c-0.1-0.9-0.1-1.8,0-2.7c0.1-1.7,0.4-3.3,1-4.7c1-2.9,2.7-5.3,4.9-7.3c2.1-1.9,4.7-3.4,7.7-4.1c1.5-0.4,3.1-0.5,4.8-0.5
		c0.9,0,1.7,0.1,2.7,0.3C302.3,127.7,303.2,128,304.2,128.4z"/>
	<path class="st13" d="M302.3,164.6c-2.3,0.9-4.1,1.2-5.9,1.4c-1.8,0.1-3.4,0-5.1-0.3c-1.6-0.3-3.2-0.8-4.8-1.5
		c-1.6-0.8-3.3-1.7-5-3.4c1.8-1.7,3.7-2.5,5.6-3c1.9-0.4,3.9-0.4,5.7-0.1c1.9,0.3,3.7,1,5.3,2.1C299.7,161,301.2,162.4,302.3,164.6z
		"/>
	<path class="st21" d="M335.5,118.8c-2.4-0.1-4.3-0.6-6-1.1c-1.7-0.6-3.2-1.4-4.5-2.3c-1.4-0.9-2.6-2-3.8-3.4
		c-1.1-1.4-2.3-2.9-3.2-5.2c2.3-0.8,4.4-0.8,6.3-0.4c1.9,0.4,3.7,1.2,5.3,2.3c1.6,1.1,2.9,2.4,4,4.1
		C334.7,114.4,335.5,116.3,335.5,118.8z"/>
	<path class="st20" d="M358.2,115.2c-2.4-0.1-4.3-0.6-6-1.1c-1.7-0.6-3.2-1.4-4.5-2.3c-1.4-0.9-2.6-2-3.8-3.4
		c-1.1-1.4-2.3-2.9-3.2-5.2c2.3-0.8,4.4-0.8,6.3-0.4c1.9,0.4,3.7,1.2,5.3,2.3c1.6,1.1,2.9,2.4,4,4.1
		C357.3,110.8,358.2,112.7,358.2,115.2z"/>
	<path class="st13" d="M194.8,96.2c-2.4-0.1-4.3-0.6-6-1.1c-1.7-0.6-3.2-1.4-4.5-2.3c-1.4-0.9-2.6-2-3.8-3.4
		c-1.1-1.4-2.3-2.9-3.2-5.2c2.3-0.8,4.4-0.8,6.3-0.4c1.9,0.4,3.7,1.2,5.3,2.3c1.6,1.1,2.9,2.4,4,4.1
		C193.9,91.9,194.8,93.8,194.8,96.2z"/>
	<path class="st21" d="M243.7,178.8c-2.4-0.1-4.3-0.6-6-1.1c-1.7-0.6-3.2-1.4-4.5-2.3c-1.4-0.9-2.6-2-3.8-3.4
		c-1.1-1.4-2.3-2.9-3.2-5.2c2.3-0.8,4.4-0.8,6.3-0.4c1.9,0.4,3.7,1.2,5.3,2.3c1.6,1.1,2.9,2.4,4,4.1
		C242.8,174.4,243.7,176.3,243.7,178.8z"/>
	<path class="st20" d="M193.4,172.3c-1.6,1.9-3.1,3-4.6,3.9c-1.5,0.9-3.1,1.6-4.6,2.1c-1.6,0.5-3.2,0.8-5,0.8c-1.8,0-3.7,0-6.1-0.8
		c0.8-2.3,2.1-3.9,3.6-5.2c1.5-1.3,3.2-2.1,5.1-2.7c1.8-0.5,3.7-0.8,5.7-0.5C189.4,170.2,191.5,170.8,193.4,172.3z"/>
	<path class="st21" d="M198.3,171.1c-2.4,0.2-4.3-0.1-6.1-0.5c-1.7-0.4-3.3-1-4.8-1.8c-1.5-0.8-2.8-1.7-4.1-2.9
		c-1.3-1.3-2.6-2.6-3.8-4.8c2.2-1.1,4.3-1.3,6.3-1.1c2,0.2,3.8,0.8,5.5,1.7c1.7,0.9,3.2,2.1,4.4,3.6
		C197,166.8,198,168.6,198.3,171.1z"/>
	<path class="st13" d="M263.5,57.7c-0.4,1-0.8,1.9-1.1,2.7c-0.4,0.8-0.8,1.6-1.2,2.3c-0.8,1.4-1.6,2.6-2.5,3.6
		c-1.8,2.1-3.7,3.6-5.8,4.7c-2.1,1.1-4.4,1.9-7.1,2.2c-1.4,0.2-2.8,0.2-4.4,0.1c-1.6-0.1-3.3-0.2-5.5-0.8c0-1.1,0-2.1,0.2-3
		c0.1-0.9,0.3-1.8,0.6-2.6c0.5-1.6,1.2-3.1,2.1-4.4c1.7-2.6,3.9-4.5,6.4-5.9c2.5-1.4,5.4-2.1,8.4-2.2c1.5,0,3.1,0.2,4.8,0.7
		c0.8,0.3,1.7,0.5,2.5,0.9C261.7,56.5,262.6,57.1,263.5,57.7z"/>
	<path class="st20" d="M232.4,74.1c-1.1,0.3-2,0.6-2.9,0.7c-0.9,0.2-1.7,0.3-2.5,0.4c-1.6,0.2-3.1,0.2-4.4,0.2
		c-2.7-0.1-5.1-0.8-7.3-1.8c-2.2-1-4.2-2.4-6.1-4.3c-0.9-1-1.9-2.1-2.8-3.4c-0.9-1.4-1.8-2.8-2.6-4.9c0.8-0.7,1.7-1.2,2.5-1.7
		c0.8-0.5,1.6-0.8,2.5-1.1c1.6-0.6,3.2-0.9,4.7-1c3.1-0.2,6,0.4,8.6,1.6c2.6,1.2,4.9,3,6.8,5.5c0.9,1.2,1.7,2.6,2.4,4.2
		c0.3,0.8,0.6,1.6,0.8,2.6C232.2,72,232.4,73,232.4,74.1z"/>
	<path class="st20" d="M174.7,110c-1.7,0.7-3.1,1.2-4.5,1.6c-1.4,0.4-2.8,0.8-4.1,1.1c-2.6,0.6-5.1,1-7.4,1.1c-4.7,0.4-9,0-13.2-0.9
		c-1-0.3-2.1-0.5-3.1-0.8c-1-0.3-2-0.7-3.1-1.1c-2-0.7-4.1-1.7-6.1-2.9c-1-0.6-2-1.3-3.1-1.9c-1-0.7-2.1-1.4-3.1-2.3
		c-2.1-1.8-4.3-3.5-6.6-6.3c1.2-1.3,2.4-2.4,3.6-3.3c0.6-0.5,1.2-0.9,1.9-1.3c0.6-0.4,1.3-0.7,1.9-1.1c2.5-1.3,5.1-2.3,7.7-2.9
		c5.2-1.2,10.4-1.1,15.4,0c5,1.1,9.7,3.3,13.9,6.6c2.1,1.6,4,3.6,5.8,5.9c0.9,1.2,1.7,2.4,2.4,3.8
		C173.6,106.8,174.2,108.2,174.7,110z"/>
	<path class="st20" d="M323.6,191.1c-1.6,0.8-3,1.4-4.4,1.9c-1.4,0.5-2.7,0.9-4,1.3c-2.6,0.8-5,1.2-7.4,1.5c-4.7,0.6-9,0.5-13.2-0.2
		c-1.1-0.2-2.1-0.4-3.1-0.6c-1-0.2-2.1-0.6-3.1-0.9c-2.1-0.6-4.2-1.5-6.3-2.5c-1.1-0.5-2.1-1.1-3.2-1.8c-1.1-0.6-2.2-1.3-3.3-2.1
		c-2.2-1.6-4.5-3.3-7-5.9c1.1-1.4,2.3-2.5,3.5-3.5c0.6-0.5,1.2-1,1.8-1.4c0.6-0.5,1.2-0.8,1.8-1.2c2.5-1.5,5-2.6,7.6-3.3
		c5.1-1.5,10.3-1.7,15.4-0.8c5,0.8,9.9,2.7,14.2,5.8c2.2,1.5,4.2,3.4,6.1,5.6c0.9,1.1,1.8,2.3,2.6,3.7
		C322.3,187.9,323.1,189.4,323.6,191.1z"/>
</g>
<circle class="st16" cx="246.6" cy="299.7" r="7.2"/>
<path class="st5" d="M263.5,343.1c0,0,1.7-15.4-1.4-25.7c-2.6-8.7-12.5-13-21-10c-4.9,1.8-8.5,5.6-10.1,10.2c0,0-8.5,36.4,3.6,36.4
	L263.5,343.1z"/>
<path class="st22" d="M349.3,256l-79.1-26.2c-2.4-0.8-5-0.8-7.4-0.1l-83.7,26.3c-5,1.6-8.4,6.2-8.4,11.5l0,76.8c0,6.6,5.4,12,12,12
	h119.3v-56.6c0-6,4.9-10.9,10.9-10.9l11.9,0c6,0,10.9,4.9,10.9,10.9l0,56.6h9.7c6.6,0,12-5.4,12-12l0-76.9
	C357.5,262.2,354.2,257.6,349.3,256z M280.4,326.3c0,5.2-4.2,9.5-9.5,9.5h-71.4c-5.2,0-9.5-4.2-9.5-9.5l0-28c0-5.2,4.2-9.5,9.5-9.5
	h71.4c5.2,0,9.5,4.2,9.5,9.5L280.4,326.3z"/>
</svg>
