<?xml version="1.0" encoding="utf-8"?>
<!-- Generator: Adobe Illustrator 24.1.0, SVG Export Plug-In . SVG Version: 6.00 Build 0)  -->
<svg version="1.1" id="Ebene_1" xmlns="http://www.w3.org/2000/svg" xmlns:xlink="http://www.w3.org/1999/xlink" x="0px" y="0px"
	 viewBox="0 0 512 512" style="enable-background:new 0 0 512 512;" xml:space="preserve">
<style type="text/css">
	.st0{fill:#80A86F;}
	.st1{fill:#DA545F;}
	.st2{fill:#F56E76;}
	.st3{fill:#FFF682;}
	.st4{fill:#31655D;}
	.st5{fill:#AFD2A3;}
	.st6{fill:#FFE16D;}
	.st7{fill:#7AAD97;}
	.st8{fill:#628C53;}
	.st9{fill:#BFE3B3;}
	.st10{fill:#8EC3AE;}
	.st11{fill:#DEFFE3;}
</style>
<g>
	<path class="st4" d="M295.1,388c-2.1,1.3-4.7,2.3-7.7,3s-6.3,1.1-9.7,1.1c-9.3,0-16.5-2.3-21.5-6.9c-5-4.6-7.5-11.4-7.5-20.5
		l0-24.1l-10.4,0l0-18.8h10.4l0-18.6l25.1,0l0,18.6l16.4,0l0,18.8l-16.4,0l0,23.8c0,2.6,0.7,4.6,2,6c1.4,1.5,3.2,2.2,5.5,2.2
		c2.9,0,5.5-0.7,7.7-2.2L295.1,388z"/>
</g>
<circle class="st3" cx="306.6" cy="236.7" r="49"/>
<circle class="st2" cx="250.1" cy="189.1" r="85.2"/>
<circle class="st9" cx="222.5" cy="257.8" r="51.4"/>
<path class="st4" d="M260.4,333.5h-11.8c0-29.3-7.8-50.9-23.3-64.2c-22.6-19.5-54.5-14.9-54.8-14.9l-1.8-11.6
	c1.5-0.2,37.4-5.4,64.2,17.5C251.1,276,260.4,300.6,260.4,333.5z"/>
<path class="st4" d="M273.4,333.5h-11.8c0-133.6,73.1-155,76.2-155.9L341,189C338.2,189.7,273.4,209.5,273.4,333.5z"/>
<circle class="st5" cx="316.2" cy="200.2" r="36.2"/>
<path class="st4" d="M266.9,333.5h-11.8c0-78.4-22.2-118.2-66-118.2v-11.8C240.8,203.5,266.9,247.3,266.9,333.5z"/>
<circle class="st6" cx="225.8" cy="192.1" r="51.4"/>
<path class="st4" d="M273.3,322.1h-11.8c0-31.3,17-64.7,64.7-64.7v11.8C277.1,269.2,273.3,309.6,273.3,322.1z"/>
<circle class="st5" cx="184.7" cy="242.3" r="26.3"/>
</svg>
