<?xml version="1.0" encoding="utf-8"?>
<!-- Generator: Adobe Illustrator 16.0.0, SVG Export Plug-In . SVG Version: 6.00 Build 0)  -->
<!DOCTYPE svg PUBLIC "-//W3C//DTD SVG 1.1//EN" "http://www.w3.org/Graphics/SVG/1.1/DTD/svg11.dtd">
<svg version="1.1" id="Ebene_1" xmlns="http://www.w3.org/2000/svg" xmlns:xlink="http://www.w3.org/1999/xlink" x="0px" y="0px"
	 width="1080px" height="1080px" viewBox="0 0 1080 1080" enable-background="new 0 0 1080 1080" xml:space="preserve">
<g>
	<g>
		<path fill="#F56E76" d="M240.469,714.867v-30.586h9.914c3.586,0,6.539,0.633,8.859,1.898s4.008,2.953,5.063,5.273
			s1.688,5.063,1.688,8.227s-0.633,5.906-1.688,8.016c-1.055,2.32-2.742,4.008-5.063,5.273s-5.273,1.898-8.859,1.898H240.469
			L240.469,714.867z M245.11,711.07h5.063c2.742,0,4.852-0.422,6.539-1.266s2.742-2.109,3.586-3.797
			c0.633-1.687,1.055-3.796,1.055-6.116c0-2.321-0.422-4.431-1.055-6.117c-0.633-1.688-1.898-2.953-3.586-4.008
			c-1.688-0.844-3.797-1.477-6.539-1.477h-5.063V711.07z"/>
		<path fill="#F56E76" d="M273.586,714.867v-30.586h4.641v30.586H273.586z"/>
		<path fill="#F56E76" d="M287.086,714.867v-30.586h19.406v3.797h-14.766v9.492h13.5v3.586h-13.5v9.914h14.766v3.797H287.086z"/>
		<path fill="#F56E76" d="M326.321,714.867l11.18-30.586h5.063l11.18,30.586h-4.852l-2.531-7.383h-12.445l-2.531,7.383H326.321z
			 M334.969,703.898h9.914l-4.852-13.922L334.969,703.898z"/>
		<path fill="#F56E76" d="M360.492,714.867v-30.586h10.758c2.32,0,4.43,0.422,5.906,1.266s2.742,1.898,3.586,3.164
			c0.844,1.477,1.055,2.953,1.055,4.641s-0.422,3.164-1.055,4.642c-0.844,1.477-1.898,2.531-3.375,3.375s-3.586,1.266-6.117,1.266
			h-6.117v12.234L360.492,714.867L360.492,714.867z M365.133,698.836h5.906c2.109,0,3.797-0.422,4.641-1.477
			c0.844-0.844,1.477-2.32,1.477-3.797c0-1.688-0.422-2.953-1.477-4.008c-0.844-0.844-2.531-1.477-4.641-1.477h-5.906V698.836z"/>
		<path fill="#F56E76" d="M388.969,714.867v-30.586h10.758c2.32,0,4.43,0.422,5.906,1.266s2.742,1.898,3.586,3.164
			c0.844,1.477,1.055,2.953,1.055,4.641s-0.422,3.164-1.055,4.642c-0.844,1.477-1.898,2.531-3.375,3.375s-3.586,1.266-6.117,1.266
			h-6.117v12.234L388.969,714.867L388.969,714.867z M393.61,698.836h5.906c2.109,0,3.797-0.422,4.641-1.477
			c0.844-0.844,1.477-2.32,1.477-3.797c0-1.688-0.422-2.953-1.477-4.008c-0.844-0.844-2.531-1.477-4.641-1.477h-5.906V698.836z"/>
		<path fill="#F56E76" d="M429.891,714.867v-3.586l14.555-22.992h-14.344v-4.008h19.828v3.586l-14.555,22.992h14.766v4.008H429.891z
			"/>
		<path fill="#F56E76" d="M469.125,715.5c-2.109,0-4.219-0.422-5.906-1.266s-3.164-2.109-4.219-4.008
			c-1.055-1.687-1.477-4.007-1.477-6.75v-18.984h4.641v18.984c0,2.742,0.633,4.641,1.898,5.906s2.953,1.898,5.273,1.898
			c2.109,0,3.797-0.633,5.063-1.898s1.897-3.164,1.897-5.906v-18.984h4.641v18.984c0,2.742-0.633,5.063-1.688,6.75
			s-2.531,3.164-4.219,4.008C473.133,715.078,471.235,715.5,469.125,715.5z"/>
		<path fill="#F56E76" d="M489.375,714.867v-30.586h5.484l10.336,20.25l10.336-20.25h5.484v30.586h-4.641v-22.57l-9.281,18.141
			h-3.586l-9.281-18.141v22.57H489.375z"/>
		<path fill="#F56E76" d="M546.328,715.078v-30.586h4.641v13.078h14.766v-13.078h4.641v30.586h-4.641v-13.711h-14.766v13.711
			H546.328z"/>
		<path fill="#F56E76" d="M579.024,715.078v-30.586h4.641v30.586H579.024z"/>
		<path fill="#F56E76" d="M592.524,715.078v-30.586h4.641l15.398,22.992v-22.992h4.641v30.586h-4.641l-15.398-22.992v22.992H592.524
			z"/>
		<path fill="#F56E76" d="M625.852,715.078v-30.586h10.758c2.32,0,4.43,0.422,5.906,1.266s2.742,1.898,3.586,3.164
			c0.844,1.478,1.055,2.953,1.055,4.642c0,1.687-0.422,3.164-1.055,4.641c-0.844,1.477-1.898,2.531-3.375,3.375
			s-3.586,1.266-6.117,1.266h-6.117v12.234L625.852,715.078L625.852,715.078z M630.492,699.047h5.905
			c2.109,0,3.797-0.422,4.642-1.477c0.844-0.844,1.477-2.32,1.477-3.797c0-1.688-0.422-2.953-1.477-4.008
			c-0.844-0.844-2.532-1.477-4.642-1.477h-5.905V699.047z"/>
		<path fill="#F56E76" d="M654.328,715.078v-30.586h19.195v3.797h-14.555v9.703h12.023v3.797h-12.023v13.5h-4.641V715.078z"/>
		<path fill="#F56E76" d="M680.696,715.078v-30.586h4.641v26.789h13.922v3.587h-18.563V715.078z"/>
		<path fill="#F56E76" d="M704.742,715.078l11.18-30.586h5.063l11.179,30.586h-4.851l-2.532-7.383h-12.445l-2.531,7.383H704.742z
			 M713.391,704.109h9.914l-4.852-13.922L713.391,704.109z"/>
		<path fill="#F56E76" d="M739.125,715.078v-30.586h4.641l15.398,22.992v-22.992h4.641v30.586h-4.641l-15.398-22.992v22.992H739.125
			z"/>
		<path fill="#F56E76" d="M771.188,715.078v-3.586l14.555-22.992h-14.344v-4.008h19.828v3.586l-14.555,22.992h14.766v4.008H771.188z
			"/>
		<path fill="#F56E76" d="M799.031,715.078v-30.586h19.406v3.797h-14.766v9.492h13.5v3.586h-13.5v9.914h14.766v3.797H799.031z"/>
		<path fill="#F56E76" d="M826.453,715.078v-30.586h4.641l15.398,22.992v-22.992h4.641v30.586h-4.641l-15.398-22.992v22.992H826.453
			z"/>
	</g>
</g>
<g>
	<path fill="#31655D" d="M134.156,617.414c-5.695-2.952-10.125-7.171-13.289-12.656c-3.164-5.484-4.852-11.602-4.852-18.352
		s1.688-12.867,4.852-18.352c3.164-5.273,7.594-9.492,13.289-12.656c5.695-2.953,12.234-4.641,19.406-4.641
		c6.75,0,12.867,1.477,17.93,4.219s9.07,6.75,11.602,12.023l-12.445,7.172c-1.898-3.164-4.43-5.695-7.383-7.172
		c-2.953-1.688-6.328-2.32-9.703-2.32c-6.117,0-11.18,1.898-14.977,5.906c-4.008,4.008-5.906,9.281-5.906,15.82
		s1.898,11.813,5.906,15.82s9.07,5.906,15.188,5.906c3.586,0,6.75-0.844,9.703-2.32c2.953-1.688,5.484-4.008,7.383-7.172
		l12.445,7.172c-2.742,5.273-6.539,9.281-11.813,12.023c-5.063,2.742-11.18,4.219-17.93,4.219
		C146.18,622.054,139.852,620.578,134.156,617.414z"/>
	<path fill="#31655D" d="M213.469,617.414c-5.695-2.952-9.914-7.171-13.078-12.656c-3.164-5.484-4.641-11.602-4.641-18.352
		s1.477-12.867,4.641-18.352c3.164-5.273,7.594-9.492,13.078-12.656c5.695-2.953,12.023-4.641,18.984-4.641
		c7.172,0,13.5,1.477,18.984,4.641c5.695,2.953,9.914,7.172,13.078,12.656c3.164,5.273,4.641,11.391,4.641,18.352
		c0,6.75-1.477,12.867-4.641,18.352c-3.164,5.485-7.594,9.704-13.078,12.656c-5.695,2.953-12.023,4.642-18.984,4.642
		C225.281,622.054,218.953,620.578,213.469,617.414z M247.219,602.226c3.797-4.008,5.906-9.281,5.906-15.609
		c0-6.539-1.898-11.813-5.906-15.609c-3.797-4.007-8.859-5.905-14.766-5.905s-10.969,1.898-14.766,5.905
		c-3.797,4.008-5.695,9.281-5.695,15.609c0,6.539,1.898,11.813,5.695,15.609c3.797,4.008,8.859,5.906,14.766,5.906
		S243.211,606.234,247.219,602.226z"/>
	<path fill="#31655D" d="M357.328,551.812v69.398h-15.609v-8.859c-2.531,3.164-5.906,5.484-9.703,7.172s-8.016,2.531-12.656,2.531
		c-9.281,0-16.453-2.531-21.938-7.805c-5.273-5.063-8.016-12.867-8.016-22.992v-39.656h16.242v37.336
		c0,6.328,1.477,10.97,4.219,13.923c2.742,3.164,6.75,4.641,12.023,4.641c5.695,0,10.336-1.898,13.922-5.484
		c3.375-3.587,5.063-8.86,5.063-15.609v-35.016h16.453V551.812z"/>
	<path fill="#31655D" d="M396.141,617.414c-5.695-2.952-10.125-7.171-13.289-12.656c-3.164-5.484-4.852-11.602-4.852-18.352
		s1.688-12.867,4.852-18.352c3.164-5.273,7.594-9.492,13.289-12.656c5.695-2.953,12.234-4.641,19.406-4.641
		c6.75,0,12.867,1.477,17.93,4.219s9.07,6.75,11.602,12.023l-12.445,7.172c-1.898-3.164-4.43-5.695-7.383-7.172
		c-2.953-1.688-6.328-2.32-9.703-2.32c-6.117,0-11.18,1.898-14.977,5.906c-4.008,4.008-5.906,9.281-5.906,15.82
		s1.898,11.813,5.906,15.82s9.07,5.906,15.188,5.906c3.586,0,6.75-0.844,9.703-2.32c2.953-1.688,5.484-4.008,7.383-7.172
		l12.445,7.172c-2.742,5.273-6.539,9.281-11.813,12.023c-5.063,2.742-11.18,4.219-17.93,4.219
		C408.375,622.054,401.836,620.578,396.141,617.414z"/>
	<path fill="#31655D" d="M523.969,558.773c5.273,5.063,8.016,12.656,8.016,22.781v39.656h-16.242v-37.547
		c0-6.117-1.477-10.547-4.219-13.711c-2.953-3.164-6.961-4.641-12.234-4.641c-5.906,0-10.758,1.898-14.133,5.484
		s-5.273,8.859-5.273,15.609v35.016h-16.242v-96.398h16.242v35.016c2.742-2.953,5.906-5.063,9.914-6.539s8.227-2.32,13.078-2.32
		C511.735,550.969,518.696,553.5,523.969,558.773z"/>
</g>
<g>
	<g>
		<path fill="#31655D" d="M707.274,525.445c5.695-2.32,12.023-3.375,19.195-3.375v30.797c-3.164-0.422-5.696-0.632-7.806-0.632
			c-7.383,0-13.078,1.897-17.297,5.905s-6.328,10.125-6.328,18.141v44.93h-34.383v-97.875h32.695v11.813
			C697.149,530.929,701.578,527.765,707.274,525.445z"/>
		<path fill="#31655D" d="M839.11,581.344h-71.087c1.478,5.063,4.219,8.86,8.438,11.602c4.219,2.742,9.282,4.008,15.61,4.008
			c4.641,0,8.648-0.633,12.234-1.898c3.375-1.266,6.96-3.586,10.335-6.539l18.142,18.773c-9.492,10.547-23.415,15.82-41.766,15.82
			c-11.392,0-21.517-2.109-30.165-6.539s-15.397-10.336-20.039-18.141c-4.851-7.594-7.171-16.453-7.171-26.156
			s2.32-18.352,6.96-25.945c4.642-7.594,10.97-13.711,19.195-17.93c8.227-4.43,17.298-6.539,27.634-6.539
			c9.703,0,18.563,2.109,26.578,6.117s14.133,9.914,18.773,17.508s6.961,16.664,6.961,27.211
			C839.531,573.117,839.321,575.859,839.11,581.344z M774.141,550.969c-3.586,2.953-5.906,7.172-6.75,12.234h40.078
			c-1.055-5.273-3.164-9.281-6.75-12.234c-3.586-2.952-8.016-4.43-13.289-4.43S777.727,548.015,774.141,550.969z"/>
		<path fill="#31655D" d="M954.914,581.344h-71.086c1.477,5.063,4.219,8.86,8.438,11.602c4.219,2.742,9.281,4.008,15.609,4.008
			c4.641,0,8.648-0.633,12.234-1.898c3.375-1.266,6.961-3.586,10.336-6.539l18.141,18.773c-9.492,10.547-23.414,15.82-41.766,15.82
			c-11.391,0-21.516-2.109-30.164-6.539s-15.398-10.336-20.039-18.141c-4.852-7.594-7.172-16.453-7.172-26.156
			s2.32-18.352,6.961-25.945s10.969-13.711,19.195-17.93c8.227-4.43,17.297-6.539,27.633-6.539c9.703,0,18.563,2.109,26.578,6.117
			s14.133,9.914,18.773,17.508s6.961,16.664,6.961,27.211C955.336,573.117,955.336,575.859,954.914,581.344z M889.946,550.969
			c-3.586,2.953-5.906,7.172-6.75,12.234h40.078c-1.055-5.273-3.164-9.281-6.75-12.234c-3.586-2.952-8.016-4.43-13.289-4.43
			S893.531,548.015,889.946,550.969z"/>
	</g>
	<g display="none">
		<path display="inline" fill="#31655D" d="M647.789,617.625c-2.953,1.898-6.328,3.164-10.547,4.219s-8.648,1.477-13.289,1.477
			c-12.656,0-22.57-3.164-29.32-9.281c-6.961-6.328-10.336-15.609-10.336-28.054v-32.907h-14.344v-25.523h14.344v-25.523h34.383
			v25.523h22.359v25.523H618.68v32.484c0,3.587,0.844,6.328,2.742,8.227s4.43,2.953,7.594,2.953c4.008,0,7.383-1.055,10.547-3.164
			L647.789,617.625z"/>
		<circle display="inline" fill="#FFF682" cx="663.399" cy="411.117" r="66.867"/>
		<circle display="inline" fill="#F56E76" cx="586.196" cy="345.937" r="116.227"/>
		<circle display="inline" fill="#BFE3B3" cx="548.649" cy="439.804" r="70.242"/>
		<path display="inline" fill="#31655D" d="M600.328,543.164h-16.031c0-39.867-10.758-69.398-31.852-87.75
			c-30.797-26.578-74.461-20.461-74.883-20.25l-2.32-15.82c2.109-0.422,51.046-7.383,87.539,23.836
			C587.672,464.484,600.328,498.234,600.328,543.164z"/>
		<path display="inline" fill="#31655D" d="M618.047,543.164h-16.031c0-182.25,99.772-211.57,103.991-212.836l4.219,15.398
			C706.641,346.781,618.047,373.781,618.047,543.164z"/>
		<circle display="inline" fill="#AFD2A3" cx="676.477" cy="361.125" r="49.359"/>
		<path display="inline" fill="#31655D" d="M609.188,543.164h-16.032c0-107.156-30.374-161.367-90.069-161.367v-16.031
			C573.539,365.765,609.188,425.461,609.188,543.164z"/>
		<circle display="inline" fill="#FFE16D" cx="553.078" cy="350.156" r="70.242"/>
		<path display="inline" fill="#31655D" d="M617.836,527.554h-16.031c0-42.608,23.203-88.172,88.171-88.172v16.032
			C623.11,455.203,617.836,510.469,617.836,527.554z"/>
		<circle display="inline" fill="#AFD2A3" cx="496.969" cy="418.711" r="35.859"/>
	</g>
</g>
<g>
	<circle fill="#8EC3AE" cx="662.92" cy="410.286" r="66.636"/>
	<circle fill="#DEFFE3" cx="586.278" cy="345.57" r="115.86"/>
	<circle fill="#BFE3B3" cx="548.709" cy="438.942" r="69.927"/>
	<path fill="#31655D" d="M600.125,541.775h-16.043c0-39.762-10.693-69.103-31.672-87.338c-30.712-26.463-74.04-20.292-74.452-20.292
		l-2.468-15.768c2.058-0.274,50.869-7.405,87.203,23.857C587.647,463.624,600.125,497.078,600.125,541.775z"/>
	<path fill="#31655D" d="M617.949,541.775h-16.042c0-181.535,99.267-210.74,103.519-211.835l4.25,15.356
		C705.973,346.392,617.949,373.267,617.949,541.775z"/>
	<circle fill="#AFD2A3" cx="676.084" cy="360.515" r="49.224"/>
	<path fill="#31655D" d="M609.037,541.775h-16.043c0-106.67-30.163-160.693-89.67-160.693V365.04
		C573.527,365.178,609.037,424.546,609.037,541.775z"/>
	<circle fill="#8EC3AE" cx="553.233" cy="349.546" r="69.927"/>
	<path fill="#31655D" d="M617.811,526.283H601.77c0-42.505,23.035-87.889,87.889-87.889v16.042
		C622.885,454.299,617.811,509.419,617.811,526.283z"/>
	<g>
		<path fill="#31655D" d="M647.289,617.05c-2.877,1.783-6.441,3.154-10.555,4.114c-4.115,0.959-8.502,1.371-13.164,1.371
			c-12.75,0-22.485-3.153-29.34-9.323c-6.857-6.171-10.285-15.494-10.285-27.832v-32.635h-14.26v-25.502h14.26v-25.365h34.139
			v25.365h22.215v25.502h-22.215v32.358c0,3.428,0.961,6.171,2.744,8.227c1.918,1.92,4.389,3.018,7.404,3.018
			c3.975,0,7.402-0.96,10.42-3.018L647.289,617.05z"/>
	</g>
	<circle fill="#AFD2A3" cx="497.292" cy="417.829" r="35.786"/>
</g>
</svg>
