<?xml version="1.0" encoding="utf-8"?>
<!-- Generator: Adobe Illustrator 24.1.0, SVG Export Plug-In . SVG Version: 6.00 Build 0)  -->
<svg version="1.1" id="Ebene_1" xmlns="http://www.w3.org/2000/svg" xmlns:xlink="http://www.w3.org/1999/xlink" x="0px" y="0px"
	 viewBox="0 0 512 512" style="enable-background:new 0 0 512 512;" xml:space="preserve">
<style type="text/css">
	.st0{fill:#80A86F;}
	.st1{fill:#DA545F;}
	.st2{fill:#F56E76;}
	.st3{fill:#FFF682;}
	.st4{fill:#31655D;}
	.st5{fill:#AFD2A3;}
	.st6{fill:#FFE16D;}
	.st7{fill:#7AAD97;}
	.st8{fill:#628C53;}
	.st9{fill:#BFE3B3;}
	.st10{fill:#8EC3AE;}
	.st11{fill:#DEFFE3;}
</style>
<circle class="st0" cx="205.5" cy="161.6" r="40.1"/>
<g>
	<path class="st1" d="M206.2,394.3l0-19.1h6.2c2.2,0,4.1,0.4,5.5,1.2c1.4,0.8,2.5,1.9,3.2,3.3c0.7,1.4,1,3.1,1,5.1
		c0,1.9-0.3,3.6-1,5.1c-0.7,1.4-1.8,2.5-3.2,3.3s-3.3,1.2-5.5,1.2H206.2z M209.1,391.9h3.2c1.7,0,3.1-0.3,4.1-0.8
		c1-0.6,1.7-1.4,2.2-2.4c0.4-1.1,0.7-2.3,0.7-3.8s-0.2-2.7-0.7-3.8c-0.4-1.1-1.2-1.9-2.2-2.5c-1-0.6-2.4-0.9-4.1-0.9h-3.2
		L209.1,391.9z"/>
	<path class="st1" d="M227,394.3l0-19.1h2.9l0,19.1H227z"/>
	<path class="st1" d="M235.3,394.3l0-19.1h12.1v2.3h-9.2v5.9h8.4v2.3h-8.4l0,6.2h9.2v2.3H235.3z"/>
	<path class="st1" d="M259.8,394.3l7-19.1h3.2l7,19.1h-3.1l-1.6-4.7h-7.8l-1.6,4.7H259.8z M265.3,387.4h6.2l-3.1-8.7L265.3,387.4z"
		/>
	<path class="st1" d="M281.3,394.3l0-19.1h6.7c1.5,0,2.7,0.3,3.7,0.8c1,0.5,1.7,1.2,2.2,2c0.5,0.9,0.7,1.8,0.7,2.9
		c0,1-0.2,2-0.7,2.8s-1.2,1.5-2.2,2.1c-1,0.5-2.2,0.8-3.8,0.8h-3.8l0,7.7H281.3z M284.2,384.3h3.7c1.4,0,2.3-0.3,2.9-0.9
		c0.6-0.6,0.9-1.4,0.9-2.4c0-1.1-0.3-1.9-0.9-2.5c-0.6-0.6-1.6-0.9-2.9-0.9h-3.7V384.3z"/>
	<path class="st1" d="M299.1,394.3l0-19.1h6.7c1.5,0,2.7,0.3,3.7,0.8c1,0.5,1.7,1.2,2.2,2c0.5,0.9,0.7,1.8,0.7,2.9
		c0,1-0.2,2-0.7,2.8s-1.2,1.5-2.2,2.1c-1,0.5-2.2,0.8-3.8,0.8H302l0,7.7H299.1z M302,384.3h3.7c1.4,0,2.3-0.3,2.9-0.9
		c0.6-0.6,0.9-1.4,0.9-2.4c0-1.1-0.3-1.9-0.9-2.5c-0.6-0.6-1.6-0.9-2.9-0.9H302V384.3z"/>
	<path class="st1" d="M324.7,394.3v-2.2l9.1-14.4h-9v-2.5h12.3v2.2l-9.1,14.4h9.2v2.5H324.7z"/>
	<path class="st1" d="M349.1,394.7c-1.4,0-2.6-0.3-3.7-0.8c-1.1-0.5-2-1.4-2.6-2.5c-0.6-1.1-1-2.5-1-4.2v-11.9h2.9v11.9
		c0,1.7,0.4,2.9,1.2,3.7c0.8,0.8,1.9,1.2,3.2,1.2c1.3,0,2.4-0.4,3.2-1.2c0.8-0.8,1.2-2,1.2-3.7v-11.9h2.9v11.9c0,1.7-0.3,3.1-1,4.2
		c-0.7,1.1-1.6,1.9-2.7,2.5C351.7,394.4,350.5,394.7,349.1,394.7z"/>
	<path class="st1" d="M361.8,394.3l0-19.1h3.4l6.5,12.7l6.4-12.7h3.4l0,19.1h-2.9l0-14.1l-5.8,11.4h-2.2l-5.9-11.3l0,14.1H361.8z"/>
	<path class="st1" d="M206.2,424.5l0-19.1h2.9v8.2h9.2v-8.2h2.9l0,19.1h-2.9V416h-9.2v8.5H206.2z"/>
	<path class="st1" d="M226.7,424.5l0-19.1h2.9l0,19.1H226.7z"/>
	<path class="st1" d="M235.1,424.5l0-19.1h2.9l9.6,14.4l0-14.4h2.9l0,19.1h-2.9l-9.6-14.4l0,14.4H235.1z"/>
	<path class="st1" d="M255.9,424.5l0-19.1h6.7c1.5,0,2.7,0.3,3.7,0.8c1,0.5,1.7,1.2,2.2,2s0.7,1.8,0.7,2.9c0,1-0.2,2-0.7,2.8
		c-0.5,0.9-1.2,1.5-2.2,2.1c-1,0.5-2.2,0.8-3.8,0.8h-3.8v7.7H255.9z M258.8,414.4h3.7c1.4,0,2.3-0.3,2.9-0.9
		c0.6-0.6,0.9-1.4,0.9-2.4c0-1.1-0.3-1.9-0.9-2.5c-0.6-0.6-1.6-0.9-2.9-0.9h-3.7V414.4z"/>
	<path class="st1" d="M273.7,424.5l0-19.1h12v2.3h-9.1v6h7.5l0,2.3h-7.5v8.4H273.7z"/>
	<path class="st1" d="M290.2,424.5l0-19.1h2.9l0,16.8h8.7v2.3H290.2z"/>
	<path class="st1" d="M305.2,424.5l7-19.1h3.2l7,19.1h-3.1l-1.6-4.7h-7.8l-1.6,4.7H305.2z M310.7,417.5h6.2l-3.1-8.7L310.7,417.5z"
		/>
	<path class="st1" d="M326.7,424.5l0-19.1h2.9l9.6,14.4l0-14.4h2.9l0,19.1h-2.9l-9.6-14.4l0,14.4H326.7z"/>
	<path class="st1" d="M346.8,424.5v-2.2l9.1-14.4h-9v-2.5h12.3v2.2l-9.1,14.4h9.2v2.5H346.8z"/>
	<path class="st1" d="M364.2,424.5l0-19.1h12.1v2.3h-9.2v5.9h8.4l0,2.3h-8.4v6.2h9.2v2.3H364.2z"/>
	<path class="st1" d="M381.4,424.5l0-19.1h2.9l9.6,14.4l0-14.4h2.9l0,19.1h-2.9l-9.6-14.4l0,14.4H381.4z"/>
</g>
<circle class="st1" cx="159.3" cy="122.6" r="69.7"/>
<circle class="st3" cx="136.7" cy="178.8" r="42"/>
<g>
	<g>
		<path class="st4" d="M434,406.5c1.9,0,1.9-3,0-3C432.1,403.5,432.1,406.5,434,406.5L434,406.5z"/>
	</g>
</g>
<g>
	<g>
		<path class="st4" d="M189.3,451.7c1.9,0,1.9-3,0-3C187.3,448.7,187.3,451.7,189.3,451.7L189.3,451.7z"/>
	</g>
</g>
<g>
	<path class="st4" d="M209.7,239c-2.3-1.2-4.2-3-5.5-5.2c-1.3-2.2-2-4.7-2-7.5c0-2.8,0.7-5.3,2-7.5c1.3-2.2,3.1-3.9,5.4-5.1
		c2.3-1.2,5-1.9,7.9-1.9c2.8,0,5.2,0.6,7.3,1.7c2.1,1.1,3.7,2.8,4.7,4.9l-5.1,3c-0.8-1.3-1.8-2.3-3.1-2.9c-1.2-0.7-2.6-1-4-1
		c-2.5,0-4.5,0.8-6.2,2.4c-1.6,1.6-2.4,3.8-2.4,6.4c0,2.7,0.8,4.8,2.4,6.4c1.6,1.6,3.7,2.4,6.2,2.4c1.5,0,2.8-0.3,4-1
		s2.2-1.6,3.1-2.9l5.1,3c-1.1,2.1-2.7,3.8-4.8,4.9c-2.1,1.1-4.5,1.7-7.3,1.7C214.7,240.9,212,240.3,209.7,239z"/>
	<path class="st4" d="M242.1,239c-2.3-1.2-4.1-3-5.4-5.2c-1.3-2.2-1.9-4.7-1.9-7.5c0-2.8,0.6-5.3,1.9-7.5c1.3-2.2,3.1-3.9,5.4-5.1
		c2.3-1.2,4.9-1.9,7.7-1.9c2.9,0,5.5,0.6,7.8,1.9c2.3,1.2,4.1,3,5.4,5.1c1.3,2.2,1.9,4.7,1.9,7.5c0,2.8-0.6,5.3-1.9,7.5
		c-1.3,2.2-3.1,3.9-5.4,5.2c-2.3,1.2-4.9,1.9-7.8,1.9C247,240.9,244.4,240.3,242.1,239z M255.9,232.8c1.6-1.6,2.4-3.8,2.4-6.4
		s-0.8-4.8-2.4-6.4c-1.6-1.6-3.6-2.4-6-2.4c-2.4,0-4.4,0.8-6,2.4c-1.6,1.6-2.4,3.8-2.4,6.4s0.8,4.8,2.4,6.4c1.6,1.6,3.6,2.4,6,2.4
		C252.3,235.2,254.3,234.4,255.9,232.8z"/>
	<path class="st4" d="M300.9,212.2v28.3h-6.3v-3.6c-1.1,1.3-2.4,2.3-4,2.9c-1.6,0.7-3.3,1-5.1,1c-3.8,0-6.8-1.1-8.9-3.2
		c-2.2-2.1-3.3-5.2-3.3-9.4v-16.2h6.6v15.3c0,2.5,0.6,4.4,1.7,5.7c1.1,1.3,2.8,1.9,4.9,1.9c2.4,0,4.3-0.7,5.7-2.2
		c1.4-1.5,2.1-3.6,2.1-6.3v-14.3H300.9z"/>
	<path class="st4" d="M316.8,239c-2.3-1.2-4.2-3-5.5-5.2c-1.3-2.2-2-4.7-2-7.5c0-2.8,0.7-5.3,2-7.5c1.3-2.2,3.1-3.9,5.4-5.1
		c2.3-1.2,5-1.9,7.9-1.9c2.8,0,5.2,0.6,7.3,1.7c2.1,1.1,3.7,2.8,4.7,4.9l-5.1,3c-0.8-1.3-1.8-2.3-3.1-2.9c-1.2-0.7-2.6-1-4-1
		c-2.5,0-4.5,0.8-6.2,2.4c-1.6,1.6-2.4,3.8-2.4,6.4c0,2.7,0.8,4.8,2.4,6.4c1.6,1.6,3.7,2.4,6.2,2.4c1.5,0,2.8-0.3,4-1
		s2.2-1.6,3.1-2.9l5.1,3c-1.1,2.1-2.7,3.8-4.8,4.9c-2.1,1.1-4.5,1.7-7.3,1.7C321.8,240.9,319.2,240.3,316.8,239z"/>
	<path class="st4" d="M369.1,215c2.2,2.1,3.2,5.2,3.2,9.3v16.2h-6.6v-15.4c0-2.5-0.6-4.3-1.8-5.6c-1.2-1.3-2.8-1.9-5-1.9
		c-2.4,0-4.4,0.7-5.8,2.2c-1.4,1.5-2.1,3.6-2.1,6.3v14.3h-6.6v-39.4h6.6v14.3c1.1-1.2,2.4-2.1,4.1-2.7c1.6-0.6,3.4-0.9,5.4-0.9
		C364.1,211.9,366.9,212.9,369.1,215z"/>
</g>
<path class="st4" d="M167.7,240.7h-9.6c0-23.9-6.4-41.6-19.1-52.5C120.6,172.3,94.5,176,94.2,176l-1.5-9.5
	c1.2-0.2,30.6-4.5,52.5,14.3C160.2,193.6,167.7,213.8,167.7,240.7z"/>
<path class="st4" d="M178.4,240.7h-9.6c0-109.3,59.8-126.8,62.3-127.5l2.5,9.3C231.4,123.1,178.4,139.3,178.4,240.7z"/>
<circle class="st5" cx="213.4" cy="131.6" r="29.6"/>
<path class="st4" d="M173.1,240.7h-9.6c0-64.2-18.2-96.7-54-96.7v-9.6C151.7,134.4,173.1,170.2,173.1,240.7z"/>
<circle class="st5" cx="91.7" cy="163.4" r="18.1"/>
<circle class="st6" cx="134.1" cy="112.8" r="42"/>
<path class="st4" d="M178.3,231.3h-9.6c0-25.6,13.9-52.9,52.9-52.9v9.6C181.4,188.1,178.3,221.2,178.3,231.3z"/>
<g>
	<path class="st4" d="M196.1,309.7c-1.7,1.1-3.8,1.9-6.3,2.5c-2.5,0.6-5.1,0.9-7.9,0.9c-7.6,0-13.5-1.9-17.6-5.6
		c-4.1-3.7-6.2-9.3-6.2-16.8V271h-8.5v-15.4h8.5v-15.2h20.5v15.2H192V271h-13.4v19.5c0,2.1,0.6,3.7,1.7,4.9c1.1,1.2,2.6,1.8,4.5,1.8
		c2.4,0,4.5-0.6,6.3-1.8L196.1,309.7z"/>
	<path class="st4" d="M231.7,254.5c3.4-1.3,7.2-2,11.5-2V271c-1.9-0.2-3.4-0.3-4.6-0.3c-4.4,0-7.8,1.2-10.3,3.6
		c-2.5,2.4-3.7,6-3.7,10.9v26.9H204v-58.6h19.6v7C225.7,257.9,228.4,255.9,231.7,254.5z"/>
	<path class="st4" d="M310.7,288h-42.6c0.9,3,2.5,5.4,5,7c2.5,1.6,5.6,2.4,9.4,2.4c2.8,0,5.2-0.4,7.3-1.2c2.1-0.8,4.1-2.1,6.2-3.9
		l10.8,11.2c-5.7,6.3-14,9.5-25,9.5c-6.8,0-12.9-1.3-18.1-3.9c-5.2-2.6-9.2-6.2-12.1-10.8c-2.8-4.6-4.3-9.8-4.3-15.7
		c0-5.8,1.4-10.9,4.2-15.5c2.8-4.6,6.6-8.2,11.5-10.8c4.9-2.6,10.4-3.9,16.5-3.9c5.8,0,11.1,1.2,15.9,3.6c4.8,2.4,8.5,5.9,11.3,10.5
		c2.8,4.6,4.2,10,4.2,16.3C311,283,310.9,284.7,310.7,288z M271.8,269.8c-2.1,1.8-3.5,4.3-4.1,7.4h24c-0.6-3.1-1.9-5.5-4.1-7.4
		c-2.1-1.8-4.8-2.7-7.9-2.7C276.6,267.1,274,268,271.8,269.8z"/>
	<path class="st4" d="M380.1,288h-42.6c0.9,3,2.5,5.4,5,7c2.5,1.6,5.6,2.4,9.4,2.4c2.8,0,5.2-0.4,7.3-1.2c2.1-0.8,4.1-2.1,6.2-3.9
		l10.8,11.2c-5.7,6.3-14,9.5-25,9.5c-6.8,0-12.9-1.3-18.1-3.9c-5.2-2.6-9.2-6.2-12.1-10.8c-2.8-4.6-4.3-9.8-4.3-15.7
		c0-5.8,1.4-10.9,4.2-15.5c2.8-4.6,6.6-8.2,11.5-10.8c4.9-2.6,10.4-3.9,16.5-3.9c5.8,0,11.1,1.2,15.9,3.6c4.8,2.4,8.5,5.9,11.3,10.5
		c2.8,4.6,4.2,10,4.2,16.3C380.4,283,380.3,284.7,380.1,288z M341.2,269.8c-2.1,1.8-3.5,4.3-4.1,7.4h24c-0.6-3.1-1.9-5.5-4.1-7.4
		c-2.1-1.8-4.8-2.7-7.9-2.7C346,267.1,343.4,268,341.2,269.8z"/>
</g>
<g>
	<g>
		<path class="st4" d="M114.3,346.7c1.9,0,1.9-3,0-3C112.4,343.7,112.4,346.7,114.3,346.7L114.3,346.7z"/>
	</g>
</g>
</svg>
