<?xml version="1.0" encoding="utf-8"?>
<!-- Generator: Adobe Illustrator 24.1.0, SVG Export Plug-In . SVG Version: 6.00 Build 0)  -->
<svg version="1.1" id="Ebene_1" xmlns="http://www.w3.org/2000/svg" xmlns:xlink="http://www.w3.org/1999/xlink" x="0px" y="0px"
	 viewBox="0 0 512 512" style="enable-background:new 0 0 512 512;" xml:space="preserve">
<style type="text/css">
	.st0{fill:#80A86F;}
	.st1{fill:#DA545F;}
	.st2{fill:#F56E76;}
	.st3{fill:#FFF682;}
	.st4{fill:#31655D;}
	.st5{fill:#AFD2A3;}
	.st6{fill:#FFE16D;}
	.st7{fill:#7AAD97;}
	.st8{fill:#628C53;}
	.st9{fill:#BFE3B3;}
	.st10{fill:#8EC3AE;}
	.st11{fill:#DEFFE3;}
</style>
<circle class="st10" cx="297" cy="237.1" r="48.6"/>
<circle class="st11" cx="241.1" cy="189.9" r="84.5"/>
<circle class="st9" cx="213.7" cy="258" r="51"/>
<path class="st4" d="M251.2,333h-11.7c0-29-7.8-50.4-23.1-63.7c-22.4-19.3-54-14.8-54.3-14.8l-1.8-11.5c1.5-0.2,37.1-5.4,63.6,17.4
	C242.1,276,251.2,300.4,251.2,333z"/>
<path class="st4" d="M264.2,333h-11.7c0-132.4,72.4-153.7,75.5-154.5l3.1,11.2C328.4,190.5,264.2,210.1,264.2,333z"/>
<circle class="st5" cx="306.6" cy="200.8" r="35.9"/>
<path class="st4" d="M257.7,333h-11.7c0-77.8-22-117.2-65.4-117.2v-11.7C231.8,204.2,257.7,247.5,257.7,333z"/>
<circle class="st10" cx="217" cy="192.8" r="51"/>
<path class="st4" d="M264.1,321.7h-11.7c0-31,16.8-64.1,64.1-64.1v11.7C267.8,269.2,264.1,309.4,264.1,321.7z"/>
<g>
	<path class="st4" d="M285.6,387.9c-2.1,1.3-4.7,2.3-7.7,3c-3,0.7-6.2,1-9.6,1c-9.3,0-16.4-2.3-21.4-6.8c-5-4.5-7.5-11.3-7.5-20.3
		V341h-10.4v-18.6h10.4v-18.5h24.9v18.5h16.2V341h-16.2v23.6c0,2.5,0.7,4.5,2,6c1.4,1.4,3.2,2.2,5.4,2.2c2.9,0,5.4-0.7,7.6-2.2
		L285.6,387.9z"/>
</g>
<circle class="st5" cx="176.2" cy="242.6" r="26.1"/>
</svg>
