<?xml version="1.0" encoding="utf-8"?>
<!-- Generator: Adobe Illustrator 16.0.0, SVG Export Plug-In . SVG Version: 6.00 Build 0)  -->
<!DOCTYPE svg PUBLIC "-//W3C//DTD SVG 1.1//EN" "http://www.w3.org/Graphics/SVG/1.1/DTD/svg11.dtd">
<svg version="1.1" xmlns="http://www.w3.org/2000/svg" xmlns:xlink="http://www.w3.org/1999/xlink" x="0px" y="0px" width="1080px"
	 height="1080px" viewBox="0 0 1080 1080" enable-background="new 0 0 1080 1080" xml:space="preserve">
<g id="Ebene_1">
	<g display="none">
		<path display="inline" fill="#7AAD97" d="M414.281,785.109V744.82h13.078c4.641,0,8.648,0.844,11.602,2.532
			c2.953,1.687,5.273,4.007,6.75,6.96s2.32,6.539,2.32,10.758c0,4.008-0.844,7.595-2.32,10.759c-1.477,2.952-3.797,5.273-6.75,6.96
			c-2.953,1.688-6.961,2.532-11.602,2.532h-13.078V785.109z M420.399,779.836h6.75c3.586,0,6.539-0.632,8.648-1.687
			c2.109-1.266,3.586-2.953,4.641-5.063c0.844-2.32,1.477-4.852,1.477-8.016s-0.422-5.695-1.477-8.016
			c-0.844-2.32-2.531-4.008-4.641-5.273s-5.063-1.898-8.648-1.898h-6.75V779.836z"/>
		<path display="inline" fill="#7AAD97" d="M458.156,785.109V744.82h6.117v40.289H458.156z"/>
		<path display="inline" fill="#7AAD97" d="M476.086,785.109V744.82h25.523v4.852h-19.617v12.445h17.719v4.852h-17.719v13.078
			h19.617v4.852h-25.523V785.109z"/>
	</g>
	<path fill="#7AAD97" d="M707.754,927.669l21.136-57.676h9.665l21.139,57.676h-9.36l-4.831-14.19h-23.556l-4.83,14.19H707.754z
		 M724.363,906.53h18.724l-9.363-26.269L724.363,906.53z"/>
	<path fill="#7AAD97" d="M768.294,927.669v-57.676h20.233c4.53,0,8.152,0.907,11.171,2.416c3.022,1.511,5.136,3.623,6.647,6.04
		c1.51,2.717,2.111,5.436,2.111,8.755c0,3.023-0.602,6.041-2.111,8.76c-1.512,2.717-3.625,4.83-6.647,6.342
		c-3.019,1.509-6.641,2.414-11.473,2.414H776.75v23.254h-8.456V927.669z M777.05,897.17h11.176c4.229,0,6.945-0.904,8.757-2.719
		c1.812-1.81,2.716-4.224,2.716-7.244c0-3.322-0.904-5.737-2.716-7.548c-1.812-1.815-4.832-2.719-8.757-2.719H777.05V897.17z"/>
	<path fill="#7AAD97" d="M819.127,927.669v-57.676h20.231c4.527,0,8.149,0.907,11.171,2.416c3.018,1.511,5.132,3.623,6.644,6.04
		c1.509,2.717,2.114,5.436,2.114,8.755c0,3.023-0.605,6.041-2.114,8.76c-1.512,2.717-3.626,4.83-6.644,6.342
		c-3.021,1.509-6.644,2.414-11.475,2.414h-11.476v23.254h-8.452V927.669z M827.881,897.17h11.174c4.229,0,6.943-0.904,8.759-2.719
		c1.809-1.81,2.716-4.224,2.716-7.244c0-3.322-0.907-5.737-2.716-7.548c-1.815-1.815-4.835-2.719-8.759-2.719h-11.174V897.17z"/>
	<g>
		<path fill="#7AAD97" d="M893.506,927.669v-6.643l27.479-43.48h-27.176v-7.553h37.442v6.646l-27.478,43.482h27.784v7.548H893.506z"
			/>
		<path fill="#7AAD97" d="M967.488,928.574c-4.226,0-7.852-0.905-11.171-2.414c-3.321-1.509-6.041-4.226-7.855-7.55
			c-1.811-3.319-3.017-7.549-3.017-12.682v-35.936h8.755v36.238c0,5.133,1.21,8.755,3.629,11.174
			c2.413,2.414,5.734,3.622,9.659,3.622c3.929,0,7.25-1.208,9.665-3.622c2.414-2.418,3.624-6.041,3.624-11.174v-36.238h8.757v35.936
			c0,5.133-0.907,9.362-3.021,12.682c-2.113,3.324-4.828,5.736-8.155,7.55C975.338,927.669,971.716,928.574,967.488,928.574z"/>
		<path fill="#7AAD97" d="M1006.14,927.669v-57.676h10.267l19.628,38.352l19.324-38.352h10.27v57.676h-8.758v-42.577l-17.513,34.425
			h-6.645l-17.815-34.425v42.577H1006.14z"/>
	</g>
	<g>
		<path fill="#7AAD97" d="M495.015,1018.561v-57.676h8.758v24.764h28.082v-24.764h8.756v57.676h-8.756v-25.666h-28.082v25.666
			H495.015z"/>
		<path fill="#7AAD97" d="M557.221,1018.561v-57.676h8.756v57.676H557.221z"/>
		<path fill="#7AAD97" d="M582.585,1018.561v-57.676h8.757l28.991,43.483v-43.483h8.756v57.676h-8.756l-28.991-43.482v43.482
			H582.585z"/>
		<path fill="#7AAD97" d="M645.698,1018.561v-57.676h20.232c4.527,0,8.15,0.906,11.174,2.416c3.018,1.51,5.132,3.623,6.642,6.039
			c1.509,2.717,2.114,5.436,2.114,8.758c0,3.02-0.605,6.037-2.114,8.755c-1.51,2.718-3.624,4.836-6.642,6.342
			c-3.023,1.511-6.646,2.418-11.477,2.418h-11.474v23.251h-8.456V1018.561z M654.455,988.065h11.172c4.228,0,6.944-0.907,8.758-2.72
			c1.812-1.813,2.716-4.228,2.716-7.247c0-3.322-0.904-5.735-2.716-7.548c-1.813-1.813-4.837-2.717-8.758-2.717h-11.172V988.065z"/>
		<path fill="#7AAD97" d="M697.987,1018.561v-57.676h36.235v6.948h-27.478v18.115h22.648v6.946h-22.648v25.364h-8.758V1018.561z"/>
		<path fill="#7AAD97" d="M746.046,1018.561v-57.676h8.759v50.731h26.271v6.944H746.046L746.046,1018.561z"/>
		<path fill="#7AAD97" d="M788.725,1018.561l21.139-57.676h9.66l21.138,57.676h-9.36l-4.829-14.192h-23.555l-4.833,14.192H788.725z
			 M805.333,997.425h18.723l-9.363-26.271L805.333,997.425z"/>
		<path fill="#7AAD97" d="M853.648,1018.561v-57.676h8.758l28.987,43.483v-43.483h8.758v57.676h-8.758l-28.987-43.482v43.482
			H853.648z"/>
		<path fill="#7AAD97" d="M914.643,1018.561v-6.643l27.481-43.487h-27.179v-7.546h37.445v6.642l-27.481,43.485h27.783v7.549H914.643
			z"/>
		<path fill="#7AAD97" d="M967.188,1018.561v-57.676h36.539v6.948h-28.086v17.815h25.366v6.945h-25.366v18.721h28.086v6.944h-36.539
			V1018.561z"/>
		<path fill="#7AAD97" d="M1019.126,1018.561v-57.676h8.755l28.989,43.483v-43.483h8.758v57.676h-8.758l-28.989-43.482v43.482
			H1019.126z"/>
	</g>
	<g>
		<path fill="#31655D" d="M325.106,553.729h-29.579c0-73.944-19.718-128.478-58.847-162.061
			C179.682,342.681,99.268,354.08,98.344,354.08l-4.621-29.27c3.697-0.616,94.278-13.865,162.06,44.058
			C301.69,408.305,325.106,470.542,325.106,553.729z"/>
		<path fill="#31655D" d="M358.072,553.729h-29.577c0-337.062,184.551-391.287,192.254-393.444l7.702,28.654
			C521.673,190.787,358.072,240.7,358.072,553.729z"/>
		<path fill="#31655D" d="M341.743,553.729h-29.578c0-198.108-56.074-298.241-166.374-298.241v-29.886
			C275.502,225.602,341.743,335.903,341.743,553.729z"/>
		<path fill="#31655D" d="M357.764,524.768h-29.577c0-78.874,42.825-163.293,163.293-163.293v29.577
			C367.315,391.052,357.764,493.342,357.764,524.768z"/>
		<path fill="#80A86F" d="M587.607,67.24c-0.924,4.313-1.849,7.703-2.772,11.4c-0.926,3.697-2.158,6.778-3.389,10.167
			c-2.465,6.469-5.239,12.324-8.012,18.178c-5.854,11.091-12.939,20.951-20.334,30.193c-7.703,9.244-16.33,17.562-26.189,25.264
			c-2.464,1.849-5.238,3.698-8.01,5.546c-2.773,1.848-5.547,3.697-8.629,5.238c-6.162,3.389-12.324,6.778-20.334,9.551
			c-0.925-4.005-1.233-8.011-1.233-11.708c0-3.698,0-7.703,0.616-11.092c0.924-7.085,2.465-14.172,4.622-20.643
			c4.622-13.249,11.708-24.956,20.337-35.124c8.625-10.167,19.1-19.102,31.117-25.572c6.162-3.389,12.633-6.162,19.719-8.011
			c3.695-0.924,7.086-1.849,11.091-2.465C579.287,67.548,583.293,67.24,587.607,67.24z"/>
		<path fill="#628C53" d="M478.231,89.73c2.465,2.465,4.623,4.314,6.47,6.471c1.849,2.157,3.697,4.005,5.238,6.162
			c3.082,4.006,5.546,7.703,7.395,11.708c4.005,7.394,6.162,14.789,7.086,22.183c0.925,7.395,0.308,15.098-1.849,23.107
			c-1.232,4.006-2.773,8.319-4.929,12.94c-2.157,4.621-4.621,9.244-8.935,15.097c-3.081-1.231-6.162-2.464-8.626-4.005
			c-2.465-1.541-4.93-3.082-6.778-4.93c-4.005-3.389-7.703-7.087-10.167-11.092c-5.546-8.011-8.628-16.637-9.551-25.572
			c-0.924-8.935,0-18.178,3.697-27.112c1.849-4.314,4.312-8.936,7.393-13.248c1.85-2.157,3.391-4.314,5.546-6.163
			C472.993,93.428,475.458,91.271,478.231,89.73z"/>
		<path fill="#628C53" d="M155.343,243.164c-4.005,0.924-8.01,1.541-11.708,2.157c-3.697,0.617-7.086,0.924-10.784,0.924
			c-6.778,0.308-13.556,0.308-19.717,0c-12.632-0.616-24.34-3.081-36.048-6.162c-11.4-3.389-22.8-7.703-33.891-13.557
			c-2.773-1.541-5.546-3.081-8.319-4.93c-2.773-1.54-5.546-3.697-8.318-5.545c-5.546-4.313-11.401-8.319-17.254-14.48
			c3.389-2.465,6.778-4.314,10.167-5.855c3.389-1.54,6.778-3.081,10.476-4.005c6.778-2.157,13.864-3.697,20.642-4.313
			c13.865-1.231,27.421,0.309,40.361,4.006c12.94,3.697,25.264,9.551,36.356,17.87c5.545,4.005,10.783,8.935,15.405,14.48
			c2.465,2.773,4.622,5.854,6.778,8.935C151.953,235.77,153.802,239.159,155.343,243.164z"/>
		<path fill="#80A86F" d="M686.506,251.483c-4.004,1.541-7.702,2.465-11.093,3.39c-3.697,0.924-7.084,1.541-10.474,2.156
			c-6.779,1.233-13.249,1.85-19.719,2.465c-12.633,0.616-24.648-0.308-36.355-2.156c-11.709-1.849-23.417-4.93-35.123-9.552
			c-3.081-1.232-5.854-2.465-8.936-4.005c-3.081-1.232-5.854-2.772-8.936-4.622c-6.16-3.389-12.323-7.086-18.793-12.632
			c3.081-2.773,6.161-5.237,9.551-7.086c3.082-2.157,6.471-3.697,9.859-5.237c6.778-3.081,13.247-5.238,20.025-6.471
			c13.557-2.773,27.113-2.773,40.361-0.616c13.249,2.157,26.19,6.47,38.205,13.557c5.854,3.388,11.708,7.702,16.945,12.631
			c2.772,2.465,5.238,5.238,7.703,8.011C682.194,244.397,684.658,247.786,686.506,251.483z"/>
		<path fill="#80A86F" d="M164.894,355.621c-2.465,3.389-5.238,6.162-7.703,8.935c-2.465,2.773-4.93,5.238-7.703,7.395
			c-5.238,4.621-10.168,8.935-15.405,12.324c-10.167,7.395-20.95,12.939-31.734,17.87c-11.091,4.622-22.491,8.319-34.815,10.783
			c-3.081,0.617-6.47,0.926-9.551,1.542c-3.081,0.617-6.47,0.617-10.167,0.924c-7.086,0.308-14.172,0.617-22.491-0.616
			c1.232-4.005,2.464-7.702,4.313-11.091c1.541-3.389,3.39-6.778,5.546-9.859c4.005-6.162,8.626-11.708,13.557-16.329
			c9.859-9.859,21.566-16.946,33.89-22.184c12.325-5.238,25.573-8.319,39.438-8.935c6.778-0.308,13.865,0.309,21.258,1.541
			c3.697,0.616,7.086,1.542,10.784,2.772C157.499,351.924,161.196,353.464,164.894,355.621z"/>
		<path fill="#80A86F" d="M156.575,245.938c-1.232,3.081-2.465,6.162-3.697,8.626c-1.232,2.464-2.465,4.93-3.697,7.087
			c-2.465,4.313-5.238,8.01-8.011,11.399c-5.546,6.47-11.4,11.091-18.178,14.788c-6.47,3.39-13.864,5.855-22.183,6.778
			c-4.313,0.617-8.626,0.617-13.864,0.308c-5.237-0.308-10.476-0.924-17.253-2.773c0-3.389,0-6.47,0.616-9.551
			c0.309-3.081,1.233-5.545,1.849-8.319c1.541-4.929,3.697-9.551,6.47-13.557c5.238-8.01,12.324-14.172,20.335-18.178
			c8.01-4.313,16.945-6.47,26.496-6.47c4.93,0,9.859,0.617,15.097,2.157c2.465,0.924,5.238,1.54,8.011,3.081
			C151.029,242.24,153.802,243.781,156.575,245.938z"/>
		<path fill="#628C53" d="M558.338,252.407c-3.39,1.233-6.163,1.849-8.936,2.465c-2.773,0.616-5.238,1.232-7.703,1.541
			c-4.929,0.616-9.551,1.232-13.865,0.925c-8.626,0-16.021-1.849-22.799-4.622c-6.777-2.773-13.248-7.086-19.41-12.941
			c-3.081-3.08-6.162-6.47-8.935-10.476c-3.081-4.313-5.853-8.625-8.935-15.096c2.464-2.157,5.238-4.006,7.702-5.546
			c2.465-1.54,4.93-2.772,7.396-3.697c4.929-1.848,9.858-3.08,14.788-3.697c9.551-0.924,18.794,0.617,27.113,4.006
			c8.318,3.389,15.712,8.935,21.875,16.329c3.082,3.698,5.546,8.011,7.702,12.94c0.925,2.465,2.157,4.93,2.773,8.011
			C557.721,245.63,558.338,249.018,558.338,252.407z"/>
		<path fill="#AFD2A3" d="M227.438,158.745c2.157,2.772,4.005,4.929,5.546,7.395c1.541,2.464,3.081,4.621,4.313,6.778
			c2.465,4.314,4.622,8.319,5.854,12.324c3.081,8.011,4.005,15.405,4.005,23.107c0,7.395-1.541,14.789-4.93,22.8
			c-1.541,4.005-3.697,8.01-6.47,12.325c-2.772,4.313-5.854,8.626-10.784,13.555c-3.081-1.54-5.546-3.388-8.01-5.237
			c-2.465-1.849-4.313-3.697-6.162-5.546c-3.697-4.005-6.47-8.01-8.627-12.324c-4.313-8.626-6.161-17.562-6.161-26.497
			c0.308-8.935,2.464-17.87,7.086-26.188c2.464-4.314,5.546-8.319,9.243-12.016c1.849-1.849,4.005-3.697,6.47-5.546
			C221.584,161.827,224.049,159.977,227.438,158.745z"/>
		<path fill="#80A86F" d="M276.734,421.862c-0.308,3.389-0.924,6.47-1.541,9.243c-0.616,2.773-1.232,5.238-1.848,7.703
			c-1.541,4.929-3.082,8.935-4.93,12.94c-3.698,7.702-8.319,13.557-13.865,18.794c-5.546,4.93-12.016,8.936-19.718,12.016
			c-4.005,1.541-8.319,2.773-13.249,3.698c-4.929,0.924-10.167,1.849-17.253,1.54c-0.924-3.389-1.541-6.469-1.849-9.242
			c-0.308-3.082-0.308-5.854-0.308-8.319c0.308-5.238,1.233-10.476,3.081-14.789c3.081-9.243,8.627-16.637,15.097-22.8
			c6.777-6.162,14.789-10.475,24.031-12.94c4.622-1.232,9.552-1.848,15.097-1.541c2.773,0,5.546,0.309,8.319,0.925
			C270.572,419.397,273.345,420.322,276.734,421.862z"/>
		<path fill="#628C53" d="M462.518,342.989c-7.086,2.772-12.94,4.005-18.486,4.313c-5.546,0.309-10.783,0-16.021-0.924
			c-5.237-0.924-10.167-2.464-15.096-4.929c-4.93-2.464-10.167-5.238-15.714-10.784c5.546-5.238,11.399-7.703,17.562-9.244
			c6.162-1.54,12.016-1.231,17.87-0.307s11.4,3.081,16.638,6.469C454.199,331.589,459.129,335.903,462.518,342.989z"/>
		<path fill="#80A86F" d="M539.543,395.057c-8.318,3.39-15.096,4.622-21.875,5.238c-6.47,0.616-12.632,0-18.794-0.924
			c-5.854-0.924-11.708-2.773-17.87-5.546c-5.854-2.773-12.016-6.162-18.486-12.323c6.47-6.162,13.557-8.935,20.643-10.784
			c7.086-1.541,14.173-1.541,20.95-0.308c6.779,1.231,13.557,3.697,19.411,7.702C529.991,381.809,535.845,386.739,539.543,395.057z"
			/>
		<path fill="#AFD2A3" d="M430.784,224.678c-4.93-5.854-8.011-10.784-10.167-16.021c-2.158-5.238-3.698-10.167-4.622-15.097
			c-0.924-5.237-0.924-10.167-0.616-15.713c0.616-5.546,1.54-11.4,4.929-18.486c6.779,3.389,11.091,8.319,14.481,13.557
			c3.389,5.238,5.237,10.784,6.162,16.637c0.924,5.855,0.616,12.017-0.617,17.87C438.795,213.279,436.33,219.441,430.784,224.678z"
			/>
		<path fill="#80A86F" d="M576.206,180.312c-5.545,5.238-10.783,8.011-15.712,10.476c-4.93,2.465-10.167,3.697-15.098,4.622
			c-5.237,0.924-10.167,1.232-15.712,0.616c-5.546-0.616-11.4-1.541-18.487-4.621c3.389-6.779,8.011-11.4,13.249-14.789
			s10.783-5.545,16.637-6.471c5.854-0.924,12.017-0.924,17.869,0.617C564.807,172.302,570.97,174.766,576.206,180.312z"/>
		<path fill="#AFD2A3" d="M564.498,294.617c-5.854,15.713-12.632,26.497-20.025,36.664c-7.395,9.859-15.405,17.562-24.032,24.647
			c-8.626,7.087-18.178,12.94-28.653,17.562c-11.092,4.622-22.492,8.627-38.205,9.859c0-16.945,4.929-30.193,11.708-42.209
			c6.47-11.708,15.404-21.567,25.264-29.578c9.859-8.011,21.259-13.864,33.583-17.253
			C536.154,291.228,549.711,289.688,564.498,294.617z"/>
		<path fill="#AFD2A3" d="M111.284,339.291c-7.703,0.617-13.249,0-18.794-0.616c-5.237-0.924-10.167-2.157-14.481-3.697
			c-4.313-1.849-8.626-3.697-12.324-6.47c-3.697-2.773-7.702-5.854-10.783-10.784c7.086-2.773,13.557-3.389,19.719-3.081
			c6.162,0.308,11.707,1.54,16.637,3.389c4.93,1.848,9.551,4.621,13.248,8.01C107.895,329.432,110.976,333.746,111.284,339.291z"/>
		<path fill="#80A86F" d="M246.54,382.117c-4.93,5.854-9.551,9.243-14.481,12.324c-4.621,3.081-9.551,4.929-14.48,6.47
			c-4.93,1.541-10.167,2.465-15.713,2.773c-5.546,0-11.4,0-18.794-2.464c2.465-7.395,6.778-12.325,11.399-16.33
			c4.621-4.005,10.167-6.778,15.713-8.319c5.546-1.848,11.708-2.464,17.87-1.848C234.216,375.647,240.378,377.188,246.54,382.117z"
			/>
		<path fill="#AFD2A3" d="M388.266,309.714c-6.47-4.313-10.476-8.318-13.864-12.94c-3.39-4.313-6.162-8.935-8.319-13.556
			c-2.157-4.622-3.697-9.86-4.621-15.098c-0.616-5.545-1.233-11.399,0-19.102c7.394,1.541,12.94,5.238,17.562,9.243
			c4.622,4.313,8.011,9.243,10.167,14.789c2.464,5.545,3.697,11.399,3.697,17.562C392.887,296.774,392.272,303.243,388.266,309.714z
			"/>
		<path fill="#80A86F" d="M221.892,356.237c-3.39-0.309-6.471-0.616-9.243-0.924c-2.773-0.308-5.237-0.924-7.702-1.541
			c-4.93-1.233-9.244-2.465-13.249-4.313c-7.703-3.39-14.172-7.703-19.41-12.941s-9.859-11.4-13.249-19.103
			c-1.848-4.005-3.081-8.318-4.621-12.94c-1.232-4.93-2.465-10.167-2.465-17.253c3.081-1.232,6.162-1.849,9.243-2.157
			c2.773-0.616,5.854-0.616,8.319-0.616c5.237,0,10.475,0.616,15.097,2.157c9.243,2.773,17.254,7.395,23.416,13.864
			c6.47,6.163,11.399,14.173,14.173,23.108c1.541,4.622,2.157,9.55,2.465,14.789c0,2.773,0,5.546-0.308,8.319
			C223.741,349.767,223.124,352.848,221.892,356.237z"/>
		<path fill="#80A86F" d="M150.413,242.548c-4.313-3.389-8.01-6.47-11.399-9.859c-3.39-3.081-6.47-6.469-9.244-9.551
			c-5.854-6.162-10.475-12.323-14.48-18.485c-8.319-12.324-13.557-24.648-17.562-37.28c-0.925-3.081-1.849-6.47-2.466-9.551
			c-0.923-3.39-1.232-6.47-1.848-9.859c-1.232-6.778-1.541-13.865-1.541-20.951c0-3.698,0.308-7.395,0.616-11.401
			c0.308-4.004,0.616-8.01,1.54-12.015c1.541-8.319,3.082-17.254,6.778-27.729c5.546,1.232,10.167,2.773,14.481,4.931
			c2.156,0.924,4.313,2.156,6.47,3.081c2.156,0.924,4.005,2.156,5.854,3.389c7.703,4.929,14.172,10.475,19.719,16.637
			c11.399,12.324,19.102,26.497,23.415,41.901c4.622,15.097,5.854,31.427,3.389,47.755c-1.232,8.319-3.697,16.637-7.394,24.648
			c-1.848,4.005-4.006,8.319-6.778,12.324C157.499,234.537,154.419,238.543,150.413,242.548z"/>
		<path fill="#80A86F" d="M273.345,317.108c-2.464-4.93-4.622-9.243-6.163-13.865c-1.848-4.313-3.081-8.318-4.313-12.323
			c-2.464-8.011-4.313-15.713-5.237-22.8c-2.157-14.48-2.157-28.037-0.309-41.285c0.616-3.389,0.924-6.47,1.849-9.859
			c0.616-3.389,1.541-6.47,2.464-9.859c1.848-6.47,4.313-12.94,7.395-19.719c1.541-3.389,3.389-6.778,5.238-10.167
			c1.849-3.39,4.005-6.778,6.47-10.476c4.93-7.087,9.859-14.173,17.87-22.183c4.313,3.389,8.01,6.778,11.092,10.475
			c1.54,1.848,3.081,3.697,4.621,5.546c1.541,1.848,2.465,3.697,4.005,5.546c4.93,7.702,8.626,15.405,11.091,23.415
			c5.237,16.022,5.854,32.042,3.697,47.756c-2.156,15.713-7.702,31.118-17.253,44.675c-4.622,6.778-10.167,13.556-16.945,19.41
			c-3.39,3.081-7.086,5.853-11.4,8.318C283.204,312.795,278.583,315.26,273.345,317.108z"/>
		<path fill="#31655D" d="M412.606,766.625c-5.237,3.39-11.708,5.854-19.41,7.703c-7.702,1.85-15.713,2.772-24.648,2.772
			c-23.724,0-41.594-5.853-54.226-17.253c-12.632-11.708-19.102-28.654-19.102-51.761v-60.695h-26.498v-47.448h26.498v-47.139
			h63.468v47.139h41.285v47.448h-41.285v60.079c0,6.471,1.848,11.4,5.237,15.097c3.389,3.698,8.011,5.545,13.864,5.545
			c7.395,0,13.865-1.847,19.411-5.545L412.606,766.625z"/>
		<g>
			<g>
				<path fill="#31655D" d="M454.507,548.492c-7.085-3.698-12.939-9.244-16.945-16.022c-4.005-6.777-6.162-14.479-6.162-23.107
					c0-8.627,2.157-16.331,6.162-23.108c4.006-6.777,9.551-12.014,16.638-16.02c7.086-3.699,15.405-5.855,24.34-5.855
					c8.626,0,16.329,1.849,22.799,5.239c6.471,3.389,11.4,8.626,14.789,15.095l-15.713,9.243c-2.467-4.005-5.547-7.087-9.553-9.243
					c-3.697-2.156-8.01-3.081-12.324-3.081c-7.703,0-13.865,2.466-19.103,7.395c-4.93,4.929-7.393,11.707-7.393,20.026
					c0,8.319,2.464,14.788,7.393,20.026c4.931,4.929,11.4,7.395,19.103,7.395c4.622,0,8.627-0.924,12.324-3.081
					c3.697-2.157,6.778-4.929,9.553-9.244l15.713,9.244c-3.389,6.47-8.318,11.708-14.789,15.097
					c-6.471,3.696-13.864,5.237-22.491,5.237C469.912,554.345,461.902,552.496,454.507,548.492z"/>
				<path fill="#31655D" d="M554.64,548.492c-7.086-3.698-12.632-9.244-16.638-16.022c-4.005-6.777-5.854-14.479-5.854-23.107
					c0-8.627,1.848-16.331,5.854-23.108c4.006-6.777,9.552-12.014,16.638-16.02c7.086-3.699,15.096-5.855,24.032-5.855
					c8.935,0,16.945,1.849,24.03,5.855c7.088,3.696,12.634,9.243,16.639,16.02c4.005,6.777,5.854,14.48,5.854,23.108
					c0,8.628-1.849,16.33-5.854,23.107c-4.005,6.778-9.551,12.016-16.639,16.022c-7.085,3.696-15.096,5.854-24.03,5.854
					C569.736,554.345,561.726,552.496,554.64,548.492z M597.156,529.08c4.932-4.929,7.396-11.707,7.396-19.717
					c0-8.01-2.464-14.789-7.396-19.717c-4.929-4.931-11.091-7.395-18.793-7.395c-7.394,0-13.865,2.464-18.486,7.395
					c-4.929,4.93-7.394,11.707-7.394,19.717c0,8.011,2.465,14.789,7.394,19.717c4.93,4.929,11.093,7.395,18.486,7.395
					C586.066,536.783,592.228,534.319,597.156,529.08z"/>
				<path fill="#31655D" d="M736.11,465.613v87.5H716.7v-11.092c-3.389,4.006-7.395,7.086-12.324,8.936
					c-4.929,2.156-10.168,3.081-16.021,3.081c-11.709,0-20.951-3.39-27.729-9.86c-6.78-6.469-10.168-16.02-10.168-28.961v-49.912
					h20.334v47.14c0,8.011,1.849,13.863,5.238,17.561c3.697,4.004,8.627,5.854,15.096,5.854c7.395,0,13.249-2.158,17.562-6.779
					c4.314-4.621,6.471-11.09,6.471-19.717v-44.367h20.95V465.613z"/>
				<path fill="#31655D" d="M785.098,548.492c-7.086-3.698-12.94-9.244-16.945-16.022c-4.005-6.777-6.161-14.479-6.161-23.107
					c0-8.627,2.156-16.331,6.161-23.108c4.005-6.777,9.552-12.014,16.636-16.02c7.087-3.699,15.405-5.855,24.34-5.855
					c8.627,0,16.329,1.849,22.8,5.239c6.471,3.389,11.399,8.626,14.789,15.095l-15.713,9.243c-2.465-4.005-5.547-7.087-9.552-9.243
					c-3.697-2.156-8.01-3.081-12.324-3.081c-7.702,0-13.863,2.466-19.101,7.395c-4.931,4.929-7.395,11.707-7.395,20.026
					c0,8.319,2.464,14.788,7.395,20.026c4.929,4.929,11.398,7.395,19.101,7.395c4.622,0,8.627-0.924,12.324-3.081
					c3.697-2.157,6.778-4.929,9.552-9.244l15.713,9.244c-3.39,6.47-8.318,11.708-14.789,15.097
					c-6.471,3.696-13.864,5.237-22.492,5.237C800.503,554.345,792.492,552.496,785.098,548.492z"/>
				<path fill="#31655D" d="M946.542,474.24c6.779,6.47,9.86,16.021,9.86,28.653v50.221h-20.336v-47.446
					c0-7.702-1.849-13.25-5.545-17.255c-3.697-4.006-8.627-5.853-15.405-5.853c-7.395,0-13.556,2.156-17.87,6.777
					c-4.314,4.622-6.47,11.094-6.47,19.719v44.366h-20.334V432.03h20.334v44.367c3.39-3.698,7.702-6.471,12.632-8.319
					c4.93-1.849,10.475-2.773,16.638-2.773C931.138,464.688,939.765,467.769,946.542,474.24z"/>
			</g>
			<path fill="#31655D" d="M522.597,596.246c10.475-4.005,22.184-6.161,35.432-6.161v56.999c-5.854-0.617-10.476-0.925-14.481-0.925
				c-13.557,0-24.031,3.696-31.734,11.092c-7.704,7.395-11.4,18.485-11.4,33.583v83.187h-63.469V593.164h60.388v21.569
				C503.804,606.721,512.122,600.253,522.597,596.246z"/>
			<path fill="#31655D" d="M766.304,699.46H634.745c2.773,9.244,7.702,16.638,15.405,21.567c7.702,4.93,17.254,7.394,28.962,7.394
				c8.624,0,16.326-1.231,22.489-3.696c6.472-2.466,12.633-6.47,19.104-12.017l33.273,34.816
				c-17.563,19.718-43.135,29.268-77.025,29.268c-21.257,0-39.743-4.004-55.766-12.015c-16.021-8.011-28.345-19.104-37.281-33.275
				c-8.934-14.173-13.246-30.5-13.246-48.371c0-17.869,4.313-33.89,12.938-47.755c8.628-14.172,20.335-25.265,35.433-33.275
				c15.097-8.01,32.041-12.016,51.144-12.016c17.87,0,34.508,3.697,48.988,11.091c14.788,7.395,26.188,18.179,34.815,32.352
				c8.626,14.172,12.941,30.81,12.941,50.22C767.229,684.363,766.92,689.6,766.304,699.46z M646.452,643.385
				c-6.47,5.547-10.783,13.249-12.633,22.8h73.943c-1.849-9.551-5.853-17.253-12.632-22.8c-6.47-5.545-14.787-8.318-24.647-8.318
				C661.242,635.067,652.923,637.84,646.452,643.385z"/>
			<path fill="#31655D" d="M980.434,699.46h-131.56c2.774,9.244,7.703,16.638,15.405,21.567s17.254,7.394,28.962,7.394
				c8.625,0,16.327-1.231,22.49-3.696c6.472-2.466,12.633-6.47,19.104-12.017l33.272,34.816
				c-17.563,19.718-43.134,29.268-77.024,29.268c-21.258,0-39.743-4.004-55.766-12.015s-28.346-19.104-37.28-33.275
				c-8.936-14.173-13.249-30.5-13.249-48.371c0-17.869,4.313-33.89,12.942-47.755c8.624-14.172,20.334-25.265,35.43-33.275
				c15.099-8.01,32.043-12.016,51.146-12.016c17.87,0,34.508,3.697,48.988,11.091c14.787,7.395,26.188,18.179,34.813,32.352
				c8.627,14.172,12.941,30.81,12.941,50.22C981.358,684.363,981.049,689.6,980.434,699.46z M860.583,643.385
				c-6.472,5.547-10.784,13.249-12.635,22.8h73.945c-1.85-9.551-5.854-17.253-12.633-22.8c-6.471-5.545-14.787-8.318-24.647-8.318
				C875.371,635.067,867.053,637.84,860.583,643.385z"/>
		</g>
	</g>
	<rect x="431.95" y="868.483" fill="none" width="255.532" height="60.999"/>
	<text transform="matrix(1 0 0 1 431.95 927.8503)"><tspan x="0" y="0" fill="#7AAD97" font-family="'DMSans-Medium'" font-size="82.4571" letter-spacing="2">D</tspan><tspan x="60.357" y="0" fill="#7AAD97" font-family="'DMSans-Medium'" font-size="82.4571" letter-spacing="5">EI</tspan><tspan x="139.433" y="0" fill="#7AAD97" font-family="'DMSans-Medium'" font-size="82.4571" letter-spacing="4">N</tspan><tspan x="202.346" y="0" fill="#7AAD97" font-family="'DMSans-Medium'" font-size="82.4571" letter-spacing="5">E</tspan></text>
</g>
<g id="Ebene_2">
</g>
</svg>
