<?xml version="1.0" encoding="utf-8"?>
<!-- Generator: Adobe Illustrator 16.0.0, SVG Export Plug-In . SVG Version: 6.00 Build 0)  -->
<!DOCTYPE svg PUBLIC "-//W3C//DTD SVG 1.1//EN" "http://www.w3.org/Graphics/SVG/1.1/DTD/svg11.dtd">
<svg version="1.1" xmlns="http://www.w3.org/2000/svg" xmlns:xlink="http://www.w3.org/1999/xlink" x="0px" y="0px" width="1080px"
	 height="1080px" viewBox="0 1227.5 1080 1080" enable-background="new 0 1227.5 1080 1080" xml:space="preserve">
<g id="Ebene_1">
</g>
<g id="Ebene_3">
	<circle display="none" fill="#2AFFFF" cx="540" cy="1768.502" r="532.002"/>
	<g>
		<path fill="#31655D" d="M346.824,1897.881H319.33c0-68.736-18.33-119.428-54.702-150.646
			c-52.984-45.537-127.734-34.941-128.593-34.941l-4.296-27.208c3.437-0.571,87.638-12.888,150.646,40.955
			C325.058,1762.7,346.824,1820.552,346.824,1897.881z"/>
		<path fill="#31655D" d="M377.469,1897.881h-27.495c0-313.32,171.552-363.727,178.712-365.731l7.161,26.636
			C529.547,1560.503,377.469,1606.9,377.469,1897.881z"/>
		<path fill="#31655D" d="M362.29,1897.881h-27.495c0-184.154-52.124-277.234-154.655-277.234v-27.78
			C300.715,1592.866,362.29,1695.396,362.29,1897.881z"/>
		<path fill="#31655D" d="M377.182,1870.959h-27.494c0-73.317,39.809-151.791,151.791-151.791v27.494
			C386.061,1746.662,377.182,1841.747,377.182,1870.959z"/>
		<path fill="#80A86F" d="M590.836,1445.658c-0.859,4.009-1.719,7.159-2.577,10.597c-0.86,3.437-2.007,6.301-3.15,9.45
			c-2.291,6.015-4.87,11.457-7.447,16.897c-5.441,10.311-12.028,19.476-18.901,28.067c-7.161,8.593-15.18,16.325-24.346,23.484
			c-2.29,1.719-4.868,3.438-7.445,5.155c-2.578,1.718-5.156,3.438-8.021,4.87c-5.729,3.149-11.457,6.3-18.902,8.878
			c-0.86-3.724-1.146-7.447-1.146-10.883c0-3.438,0-7.16,0.572-10.312c0.859-6.586,2.292-13.175,4.296-19.188
			c4.296-12.315,10.883-23.198,18.904-32.65c8.018-9.449,17.754-17.756,28.925-23.77c5.729-3.15,11.743-5.729,18.33-7.446
			c3.435-0.859,6.587-1.719,10.31-2.292C583.103,1445.944,586.826,1445.658,590.836,1445.658z"/>
		<path fill="#628C53" d="M489.164,1466.564c2.291,2.291,4.297,4.011,6.015,6.015c1.718,2.005,3.437,3.723,4.869,5.729
			c2.864,3.724,5.155,7.16,6.874,10.883c3.723,6.873,5.728,13.747,6.587,20.62c0.859,6.874,0.286,14.034-1.719,21.48
			c-1.146,3.724-2.578,7.732-4.582,12.028c-2.004,4.296-4.296,8.593-8.306,14.033c-2.864-1.145-5.727-2.291-8.018-3.723
			c-2.292-1.433-4.583-2.864-6.302-4.582c-3.723-3.151-7.16-6.588-9.45-10.311c-5.156-7.446-8.021-15.466-8.879-23.771
			c-0.86-8.305,0-16.897,3.436-25.202c1.719-4.011,4.009-8.307,6.873-12.315c1.719-2.005,3.152-4.011,5.155-5.729
			C484.296,1470.002,486.586,1467.997,489.164,1466.564z"/>
		<path fill="#628C53" d="M189.019,1609.19c-3.723,0.859-7.446,1.433-10.883,2.006c-3.437,0.572-6.587,0.859-10.024,0.859
			c-6.3,0.286-12.601,0.286-18.329,0c-11.743-0.573-22.626-2.865-33.509-5.729c-10.597-3.149-21.194-7.16-31.503-12.602
			c-2.578-1.433-5.156-2.864-7.733-4.582c-2.578-1.433-5.156-3.438-7.732-5.155c-5.155-4.01-10.598-7.733-16.039-13.46
			c3.15-2.292,6.301-4.011,9.451-5.443c3.15-1.432,6.301-2.862,9.738-3.723c6.3-2.005,12.887-3.437,19.188-4.01
			c12.888-1.145,25.49,0.287,37.519,3.724c12.029,3.438,23.485,8.879,33.795,16.611c5.154,3.724,10.023,8.306,14.32,13.46
			c2.291,2.578,4.296,5.442,6.301,8.307C185.868,1602.317,187.587,1605.468,189.019,1609.19z"/>
		<path fill="#80A86F" d="M682.77,1616.923c-3.723,1.433-7.16,2.292-10.312,3.152c-3.438,0.858-6.585,1.431-9.736,2.004
			c-6.302,1.146-12.315,1.72-18.33,2.291c-11.743,0.573-22.912-0.286-33.794-2.004c-10.885-1.72-21.768-4.583-32.649-8.879
			c-2.864-1.146-5.441-2.291-8.307-3.723c-2.863-1.146-5.441-2.578-8.306-4.297c-5.727-3.15-11.455-6.588-17.47-11.742
			c2.864-2.578,5.728-4.868,8.878-6.587c2.865-2.005,6.016-3.437,9.165-4.869c6.301-2.863,12.314-4.869,18.615-6.015
			c12.602-2.577,25.203-2.577,37.519-0.572s24.346,6.015,35.514,12.602c5.441,3.15,10.884,7.16,15.752,11.741
			c2.577,2.292,4.869,4.869,7.16,7.447C678.761,1610.336,681.052,1613.487,682.77,1616.923z"/>
		<path fill="#80A86F" d="M197.898,1713.726c-2.292,3.15-4.869,5.729-7.16,8.306c-2.292,2.577-4.583,4.869-7.16,6.874
			c-4.869,4.295-9.452,8.305-14.32,11.455c-9.451,6.874-19.475,12.028-29.499,16.611c-10.31,4.296-20.907,7.732-32.363,10.023
			c-2.864,0.573-6.015,0.86-8.878,1.433c-2.864,0.573-6.015,0.573-9.452,0.859c-6.586,0.286-13.174,0.572-20.906-0.574
			c1.146-3.723,2.291-7.158,4.009-10.31c1.432-3.15,3.151-6.301,5.155-9.165c3.723-5.727,8.019-10.883,12.602-15.179
			c9.165-9.165,20.047-15.752,31.503-20.621c11.457-4.868,23.771-7.732,36.66-8.305c6.301-0.286,12.888,0.286,19.761,1.432
			c3.436,0.573,6.587,1.433,10.024,2.578C191.023,1710.29,194.46,1711.721,197.898,1713.726z"/>
		<path fill="#80A86F" d="M190.165,1611.768c-1.146,2.864-2.292,5.729-3.437,8.02c-1.146,2.291-2.292,4.582-3.437,6.588
			c-2.291,4.01-4.869,7.445-7.446,10.597c-5.155,6.014-10.597,10.311-16.898,13.746c-6.014,3.15-12.887,5.442-20.621,6.301
			c-4.009,0.573-8.019,0.573-12.888,0.287c-4.869-0.287-9.738-0.86-16.038-2.578c0-3.15,0-6.015,0.572-8.878
			c0.287-2.864,1.146-5.154,1.718-7.732c1.432-4.583,3.437-8.88,6.015-12.603c4.869-7.446,11.456-13.174,18.903-16.896
			c7.445-4.01,15.751-6.016,24.629-6.016c4.583,0,9.165,0.574,14.034,2.006c2.292,0.858,4.869,1.432,7.446,2.863
			C185.01,1608.332,187.587,1609.764,190.165,1611.768z"/>
		<path fill="#628C53" d="M563.629,1617.783c-3.151,1.146-5.729,1.718-8.307,2.292c-2.578,0.571-4.869,1.146-7.16,1.431
			c-4.582,0.573-8.878,1.146-12.889,0.86c-8.018,0-14.891-1.72-21.193-4.297c-6.3-2.578-12.315-6.587-18.043-12.028
			c-2.863-2.863-5.728-6.016-8.306-9.739c-2.863-4.009-5.44-8.018-8.305-14.032c2.291-2.004,4.869-3.724,7.159-5.155
			c2.292-1.432,4.582-2.577,6.875-3.437c4.582-1.719,9.163-2.863,13.746-3.438c8.878-0.858,17.471,0.574,25.203,3.724
			c7.732,3.15,14.606,8.306,20.334,15.18c2.865,3.437,5.155,7.446,7.16,12.027c0.859,2.292,2.005,4.584,2.578,7.448
			C563.055,1611.482,563.629,1614.633,563.629,1617.783z"/>
		<path fill="#AFD2A3" d="M256.036,1530.719c2.005,2.576,3.724,4.581,5.156,6.874c1.432,2.29,2.863,4.295,4.009,6.3
			c2.292,4.011,4.295,7.732,5.441,11.456c2.865,7.445,3.724,14.319,3.724,21.479c0,6.874-1.433,13.747-4.583,21.193
			c-1.433,3.724-3.437,7.446-6.015,11.457c-2.576,4.009-5.441,8.019-10.023,12.601c-2.863-1.433-5.155-3.149-7.446-4.869
			c-2.292-1.719-4.01-3.437-5.728-5.154c-3.437-3.724-6.015-7.446-8.02-11.456c-4.009-8.02-5.727-16.326-5.727-24.631
			c0.286-8.306,2.291-16.611,6.586-24.344c2.291-4.01,5.156-7.732,8.592-11.17c1.718-1.718,3.723-3.437,6.014-5.155
			C250.595,1533.583,252.886,1531.863,256.036,1530.719z"/>
		<path fill="#80A86F" d="M301.86,1775.302c-0.286,3.151-0.859,6.015-1.432,8.593c-0.573,2.578-1.146,4.869-1.718,7.16
			c-1.433,4.581-2.864,8.305-4.583,12.028c-3.438,7.159-7.733,12.602-12.888,17.47c-5.156,4.582-11.169,8.307-18.33,11.169
			c-3.723,1.433-7.732,2.577-12.315,3.438c-4.583,0.858-9.452,1.717-16.039,1.431c-0.859-3.15-1.433-6.014-1.719-8.592
			c-0.286-2.864-0.286-5.44-0.286-7.732c0.286-4.869,1.146-9.737,2.864-13.747c2.865-8.592,8.019-15.465,14.034-21.194
			c6.3-5.727,13.747-9.737,22.338-12.028c4.295-1.145,8.879-1.718,14.034-1.432c2.578,0,5.154,0.287,7.732,0.859
			C296.133,1773.01,298.71,1773.87,301.86,1775.302z"/>
		<path fill="#628C53" d="M474.558,1701.983c-6.587,2.578-12.028,3.724-17.184,4.01c-5.154,0.288-10.024,0-14.893-0.858
			c-4.868-0.859-9.45-2.291-14.032-4.582c-4.583-2.291-9.451-4.869-14.606-10.024c5.155-4.868,10.596-7.159,16.324-8.592
			s11.169-1.146,16.611-0.286c5.442,0.859,10.597,2.864,15.466,6.014C466.825,1691.386,471.408,1695.396,474.558,1701.983z"/>
		<path fill="#80A86F" d="M546.158,1750.385c-7.732,3.151-14.034,4.297-20.335,4.869c-6.015,0.573-11.743,0-17.471-0.859
			c-5.441-0.858-10.883-2.578-16.61-5.155c-5.441-2.577-11.169-5.727-17.185-11.455c6.015-5.728,12.602-8.306,19.188-10.024
			c6.587-1.432,13.175-1.432,19.475-0.286c6.302,1.145,12.603,3.438,18.044,7.16
			C537.278,1738.069,542.721,1742.652,546.158,1750.385z"/>
		<path fill="#AFD2A3" d="M445.059,1592.007c-4.583-5.441-7.446-10.024-9.45-14.893c-2.006-4.868-3.438-9.451-4.297-14.033
			c-0.858-4.868-0.858-9.451-0.572-14.606c0.572-5.155,1.432-10.598,4.583-17.184c6.301,3.149,10.31,7.732,13.46,12.602
			c3.15,4.869,4.869,10.023,5.728,15.465c0.859,5.442,0.573,11.171-0.574,16.611
			C452.506,1581.411,450.215,1587.138,445.059,1592.007z"/>
		<path fill="#80A86F" d="M580.239,1550.765c-5.154,4.869-10.023,7.447-14.605,9.737c-4.582,2.291-9.45,3.437-14.034,4.297
			c-4.868,0.859-9.451,1.146-14.606,0.572c-5.154-0.572-10.597-1.433-17.184-4.296c3.15-6.302,7.447-10.597,12.316-13.747
			c4.868-3.149,10.023-5.154,15.464-6.015c5.442-0.859,11.171-0.859,16.611,0.573
			C569.642,1543.319,575.371,1545.61,580.239,1550.765z"/>
		<path fill="#AFD2A3" d="M569.356,1657.019c-5.441,14.606-11.742,24.631-18.615,34.082c-6.874,9.164-14.32,16.324-22.339,22.911
			c-8.019,6.588-16.897,12.028-26.635,16.324c-10.311,4.297-20.907,8.02-35.513,9.165c0-15.752,4.582-28.066,10.883-39.236
			c6.014-10.883,14.319-20.047,23.484-27.494c9.165-7.445,19.762-12.887,31.218-16.038
			C543.008,1653.869,555.61,1652.437,569.356,1657.019z"/>
		<path fill="#AFD2A3" d="M148.064,1698.547c-7.16,0.573-12.315,0-17.47-0.572c-4.869-0.858-9.451-2.004-13.461-3.437
			c-4.01-1.72-8.019-3.437-11.456-6.015c-3.437-2.578-7.16-5.441-10.024-10.024c6.587-2.578,12.602-3.149,18.33-2.862
			c5.728,0.284,10.882,1.43,15.465,3.149c4.583,1.718,8.878,4.296,12.315,7.445C144.914,1689.383,147.778,1693.392,148.064,1698.547
			z"/>
		<path fill="#80A86F" d="M273.793,1738.356c-4.583,5.442-8.879,8.593-13.461,11.456c-4.296,2.864-8.878,4.582-13.46,6.015
			c-4.583,1.432-9.451,2.292-14.606,2.577c-5.155,0-10.597,0-17.47-2.29c2.292-6.875,6.301-11.457,10.597-15.18
			c4.295-3.724,9.451-6.301,14.605-7.733c5.156-1.719,10.884-2.29,16.612-1.719C262.337,1732.342,268.065,1733.773,273.793,1738.356
			z"/>
		<path fill="#AFD2A3" d="M405.536,1671.053c-6.014-4.011-9.738-7.732-12.888-12.03c-3.151-4.008-5.728-8.305-7.733-12.6
			c-2.004-4.297-3.437-9.166-4.295-14.034c-0.572-5.155-1.146-10.598,0-17.757c6.874,1.433,12.029,4.868,16.325,8.592
			c4.296,4.01,7.446,8.592,9.451,13.748c2.29,5.154,3.436,10.595,3.436,16.324C409.832,1659.023,409.26,1665.039,405.536,1671.053z"
			/>
		<path fill="#80A86F" d="M250.882,1714.299c-3.152-0.286-6.015-0.572-8.593-0.859c-2.577-0.286-4.868-0.858-7.159-1.432
			c-4.583-1.146-8.593-2.291-12.315-4.009c-7.16-3.15-13.174-7.16-18.043-12.028c-4.869-4.869-9.165-10.598-12.315-17.758
			c-1.718-3.724-2.864-7.732-4.295-12.028c-1.146-4.583-2.292-9.451-2.292-16.039c2.864-1.146,5.728-1.717,8.592-2.004
			c2.578-0.574,5.442-0.574,7.733-0.574c4.868,0,9.737,0.574,14.033,2.006c8.592,2.578,16.039,6.873,21.766,12.888
			c6.014,5.728,10.597,13.176,13.175,21.48c1.432,4.297,2.005,8.877,2.291,13.746c0,2.578,0,5.156-0.286,7.733
			C252.599,1708.285,252.027,1711.148,250.882,1714.299z"/>
		<path fill="#80A86F" d="M184.436,1608.619c-4.009-3.151-7.446-6.016-10.596-9.165c-3.151-2.864-6.015-6.015-8.593-8.879
			c-5.441-5.728-9.737-11.456-13.46-17.184c-7.733-11.456-12.602-22.912-16.325-34.654c-0.86-2.864-1.718-6.015-2.292-8.878
			c-0.858-3.151-1.145-6.015-1.717-9.164c-1.146-6.302-1.432-12.889-1.432-19.476c0-3.438,0.286-6.874,0.573-10.598
			c0.287-3.722,0.572-7.445,1.432-11.169c1.433-7.733,2.864-16.039,6.301-25.776c5.155,1.146,9.451,2.578,13.461,4.583
			c2.004,0.859,4.01,2.005,6.015,2.863c2.004,0.858,3.723,2.004,5.441,3.151c7.16,4.581,13.174,9.737,18.33,15.466
			c10.596,11.455,17.756,24.629,21.766,38.948c4.296,14.034,5.442,29.215,3.15,44.393c-1.146,7.733-3.436,15.465-6.873,22.912
			c-1.718,3.723-3.724,7.732-6.301,11.456C191.023,1601.171,188.16,1604.894,184.436,1608.619z"/>
		<path fill="#80A86F" d="M298.71,1677.927c-2.291-4.583-4.296-8.593-5.729-12.888c-1.717-4.009-2.863-7.732-4.009-11.456
			c-2.291-7.447-4.01-14.606-4.868-21.193c-2.005-13.46-2.005-26.063-0.287-38.377c0.573-3.151,0.86-6.015,1.719-9.165
			c0.573-3.15,1.432-6.015,2.291-9.165c1.718-6.015,4.01-12.029,6.874-18.33c1.433-3.149,3.15-6.301,4.87-9.449
			c1.717-3.152,3.723-6.302,6.013-9.739c4.583-6.588,9.165-13.175,16.612-20.62c4.009,3.151,7.446,6.301,10.311,9.738
			c1.431,1.717,2.863,3.437,4.296,5.154c1.432,1.718,2.291,3.437,3.723,5.156c4.583,7.158,8.019,14.319,10.31,21.765
			c4.87,14.893,5.443,29.786,3.437,44.392c-2.004,14.606-7.16,28.927-16.038,41.529c-4.297,6.3-9.451,12.6-15.752,18.043
			c-3.151,2.863-6.588,5.44-10.596,7.732C307.875,1673.917,303.578,1676.208,298.71,1677.927z"/>
		<path fill="#31655D" d="M428.161,2095.781c-4.868,3.15-10.882,5.441-18.043,7.16c-7.16,1.72-14.606,2.577-22.912,2.577
			c-22.053,0-38.664-5.44-50.405-16.038c-11.743-10.883-17.756-26.636-17.756-48.114v-56.421h-24.631v-44.105h24.631v-43.818h58.998
			v43.818h38.377v44.105h-38.377v55.848c0,6.015,1.717,10.598,4.868,14.033c3.15,3.438,7.447,5.154,12.888,5.154
			c6.875,0,12.888-1.716,18.044-5.154L428.161,2095.781z"/>
		<g>
			<g>
				<path fill="#31655D" d="M467.111,1893.012c-6.586-3.438-12.027-8.593-15.751-14.894c-3.723-6.3-5.728-13.459-5.728-21.479
					c0-8.02,2.005-15.18,5.728-21.479c3.724-6.301,8.879-11.169,15.466-14.893c6.587-3.438,14.319-5.442,22.625-5.442
					c8.019,0,15.179,1.718,21.193,4.87c6.015,3.149,10.598,8.019,13.748,14.032l-14.606,8.592c-2.293-3.723-5.156-6.588-8.88-8.592
					c-3.437-2.005-7.446-2.864-11.457-2.864c-7.16,0-12.888,2.292-17.756,6.875c-4.583,4.581-6.872,10.882-6.872,18.614
					c0,7.733,2.29,13.747,6.872,18.615c4.583,4.582,10.596,6.874,17.756,6.874c4.296,0,8.02-0.859,11.457-2.863
					c3.437-2.005,6.301-4.582,8.88-8.593l14.606,8.593c-3.15,6.015-7.732,10.883-13.748,14.034
					c-6.015,3.436-12.888,4.868-20.906,4.868C481.432,1898.454,473.986,1896.734,467.111,1893.012z"/>
				<path fill="#31655D" d="M560.192,1893.012c-6.587-3.438-11.742-8.593-15.466-14.894c-3.724-6.3-5.441-13.459-5.441-21.479
					c0-8.02,1.718-15.18,5.441-21.479c3.724-6.301,8.879-11.169,15.466-14.893c6.587-3.438,14.032-5.442,22.339-5.442
					c8.306,0,15.752,1.718,22.338,5.442c6.589,3.437,11.744,8.592,15.467,14.893c3.723,6.3,5.441,13.46,5.441,21.479
					c0,8.021-1.719,15.18-5.441,21.479c-3.723,6.301-8.878,11.17-15.467,14.894c-6.586,3.436-14.032,5.441-22.338,5.441
					C574.224,1898.454,566.779,1896.734,560.192,1893.012z M599.713,1874.968c4.584-4.582,6.875-10.882,6.875-18.328
					c0-7.445-2.291-13.747-6.875-18.328c-4.581-4.584-10.31-6.874-17.469-6.874c-6.873,0-12.889,2.291-17.185,6.874
					c-4.582,4.583-6.873,10.883-6.873,18.328c0,7.446,2.291,13.747,6.873,18.328c4.582,4.582,10.312,6.874,17.185,6.874
					C589.404,1882.128,595.132,1879.838,599.713,1874.968z"/>
				<path fill="#31655D" d="M728.879,1815.971v81.337h-18.042v-10.311c-3.15,3.724-6.874,6.586-11.456,8.306
					c-4.582,2.005-9.452,2.864-14.893,2.864c-10.884,0-19.476-3.151-25.775-9.166c-6.303-6.013-9.451-14.892-9.451-26.921v-46.396
					h18.901v43.819c0,7.446,1.718,12.887,4.869,16.324c3.437,3.722,8.02,5.441,14.032,5.441c6.874,0,12.316-2.006,16.325-6.302
					c4.01-4.296,6.015-10.309,6.015-18.328v-41.242h19.475V1815.971z"/>
				<path fill="#31655D" d="M774.416,1893.012c-6.586-3.438-12.028-8.593-15.751-14.894c-3.724-6.3-5.728-13.459-5.728-21.479
					c0-8.02,2.004-15.18,5.728-21.479c3.723-6.301,8.879-11.169,15.464-14.893c6.588-3.438,14.32-5.442,22.625-5.442
					c8.02,0,15.179,1.718,21.194,4.87c6.015,3.149,10.597,8.019,13.747,14.032l-14.606,8.592c-2.291-3.723-5.156-6.588-8.879-8.592
					c-3.437-2.005-7.445-2.864-11.456-2.864c-7.159,0-12.887,2.292-17.755,6.875c-4.583,4.581-6.874,10.882-6.874,18.614
					c0,7.733,2.291,13.747,6.874,18.615c4.581,4.582,10.596,6.874,17.755,6.874c4.297,0,8.02-0.859,11.456-2.863
					c3.438-2.005,6.301-4.582,8.879-8.593l14.606,8.593c-3.15,6.015-7.732,10.883-13.747,14.034
					c-6.016,3.436-12.888,4.868-20.908,4.868C788.737,1898.454,781.29,1896.734,774.416,1893.012z"/>
				<path fill="#31655D" d="M924.49,1823.99c6.302,6.014,9.166,14.892,9.166,26.635v46.684h-18.903v-44.104
					c0-7.161-1.719-12.318-5.155-16.041c-3.437-3.724-8.019-5.441-14.319-5.441c-6.874,0-12.602,2.005-16.611,6.301
					c-4.011,4.296-6.015,10.312-6.015,18.329v41.241H853.75v-112.841h18.901v41.242c3.151-3.437,7.16-6.015,11.742-7.732
					c4.583-1.72,9.737-2.578,15.466-2.578C910.17,1815.111,918.19,1817.975,924.49,1823.99z"/>
			</g>
			<path fill="#31655D" d="M530.406,1937.402c9.737-3.723,20.622-5.727,32.936-5.727v52.984c-5.442-0.574-9.737-0.86-13.461-0.86
				c-12.604,0-22.339,3.437-29.499,10.311c-7.162,6.874-10.597,17.184-10.597,31.218v77.327h-58.999v-168.117h56.134v20.05
				C512.936,1947.14,520.668,1941.127,530.406,1937.402z"/>
			<path fill="#31655D" d="M756.947,2033.346H634.655c2.578,8.593,7.159,15.466,14.32,20.048c7.159,4.583,16.038,6.873,26.922,6.873
				c8.017,0,15.176-1.145,20.905-3.436c6.016-2.292,11.743-6.015,17.758-11.171l30.93,32.364
				c-16.325,18.329-40.097,27.206-71.6,27.206c-19.76,0-36.944-3.722-51.838-11.168c-14.893-7.446-26.349-17.758-34.655-30.932
				c-8.305-13.175-12.313-28.352-12.313-44.964c0-16.61,4.009-31.503,12.027-44.392c8.021-13.174,18.902-23.485,32.937-30.932
				c14.033-7.445,29.784-11.169,47.541-11.169c16.611,0,32.078,3.437,45.538,10.31c13.746,6.874,24.344,16.898,32.363,30.072
				c8.019,13.174,12.03,28.64,12.03,46.683C757.806,2019.313,757.52,2024.181,756.947,2033.346z M645.537,1981.221
				c-6.015,5.156-10.024,12.316-11.743,21.194h68.734c-1.718-8.878-5.44-16.038-11.742-21.194
				c-6.014-5.154-13.745-7.732-22.911-7.732C659.285,1973.489,651.552,1976.066,645.537,1981.221z"/>
			<path fill="#31655D" d="M955.993,2033.346H833.7c2.579,8.593,7.161,15.466,14.32,20.048c7.16,4.583,16.039,6.873,26.922,6.873
				c8.018,0,15.178-1.145,20.906-3.436c6.016-2.292,11.743-6.015,17.758-11.171l30.929,32.364
				c-16.325,18.329-40.095,27.206-71.599,27.206c-19.761,0-36.943-3.722-51.838-11.168c-14.894-7.446-26.349-17.758-34.654-30.932
				c-8.306-13.175-12.315-28.352-12.315-44.964c0-16.61,4.01-31.503,12.03-44.392c8.017-13.174,18.902-23.485,32.935-30.932
				c14.035-7.445,29.786-11.169,47.543-11.169c16.611,0,32.077,3.437,45.537,10.31c13.746,6.874,24.345,16.898,32.361,30.072
				c8.02,13.174,12.03,28.64,12.03,46.683C956.853,2019.313,956.566,2024.181,955.993,2033.346z M844.585,1981.221
				c-6.016,5.156-10.024,12.316-11.745,21.194h68.737c-1.72-8.878-5.441-16.038-11.743-21.194
				c-6.015-5.154-13.746-7.732-22.911-7.732C858.331,1973.489,850.599,1976.066,844.585,1981.221z"/>
		</g>
	</g>
</g>
<g id="Ebene_2">
</g>
</svg>
