<?xml version="1.0" encoding="utf-8"?>
<!-- Generator: Adobe Illustrator 16.0.0, SVG Export Plug-In . SVG Version: 6.00 Build 0)  -->
<!DOCTYPE svg PUBLIC "-//W3C//DTD SVG 1.1//EN" "http://www.w3.org/Graphics/SVG/1.1/DTD/svg11.dtd">
<svg version="1.1" xmlns="http://www.w3.org/2000/svg" xmlns:xlink="http://www.w3.org/1999/xlink" x="0px" y="0px" width="1080px"
	 height="1080px" viewBox="1197.94 0 1080 1080" enable-background="new 1197.94 0 1080 1080" xml:space="preserve">
<g id="Ebene_1">
</g>
<g id="Ebene_2">
	<g>
		<path fill="#31655D" d="M1715.312,731.078h-39.309c0-98.271-26.206-170.746-78.207-215.377
			c-75.751-65.104-182.621-49.955-183.849-49.955l-6.142-38.899c4.914-0.819,125.296-18.426,215.378,58.553
			C1684.193,537.81,1715.312,620.522,1715.312,731.078z"/>
		<path fill="#31655D" d="M1759.125,731.078h-39.31c0-447.953,245.268-520.018,255.504-522.884l10.237,38.081
			C1976.549,248.731,1759.125,315.064,1759.125,731.078z"/>
		<path fill="#31655D" d="M1737.424,731.078h-39.31c0-263.285-74.521-396.36-221.11-396.36v-39.719
			C1649.389,294.999,1737.424,441.588,1737.424,731.078z"/>
		<path fill="#31655D" d="M1758.715,692.588h-39.309c0-104.822,56.915-217.015,217.016-217.015v39.308
			C1771.407,514.881,1758.715,650.823,1758.715,692.588z"/>
		<path fill="#80A86F" d="M2064.174,84.536c-1.228,5.732-2.457,10.237-3.685,15.15c-1.23,4.914-2.868,9.008-4.504,13.513
			c-3.275,8.597-6.963,16.378-10.647,24.158c-7.779,14.74-17.196,27.844-27.023,40.127c-10.237,12.285-21.703,23.34-34.806,33.576
			c-3.274,2.457-6.96,4.914-10.645,7.37c-3.687,2.456-7.372,4.914-11.468,6.961c-8.189,4.504-16.379,9.008-27.023,12.694
			c-1.229-5.323-1.639-10.646-1.639-15.559c0-4.915,0-10.237,0.818-14.742c1.229-9.417,3.276-18.835,6.143-27.434
			c6.143-17.607,15.56-33.166,27.027-46.679c11.463-13.511,25.383-25.387,41.354-33.985c8.189-4.503,16.789-8.189,26.206-10.646
			c4.911-1.228,9.417-2.457,14.739-3.276C2053.117,84.946,2058.442,84.536,2064.174,84.536z"/>
		<path fill="#628C53" d="M1918.815,114.427c3.275,3.276,6.144,5.734,8.599,8.6c2.457,2.867,4.914,5.322,6.961,8.188
			c4.095,5.324,7.37,10.237,9.827,15.561c5.322,9.827,8.189,19.654,9.417,29.48c1.229,9.827,0.409,20.065-2.457,30.71
			c-1.638,5.323-3.686,11.056-6.552,17.197c-2.865,6.142-6.141,12.285-11.873,20.063c-4.096-1.637-8.188-3.275-11.465-5.322
			c-3.275-2.048-6.551-4.095-9.009-6.552c-5.323-4.504-10.236-9.418-13.511-14.741c-7.372-10.646-11.468-22.111-12.694-33.985
			c-1.229-11.875,0-24.158,4.912-36.032c2.458-5.733,5.731-11.875,9.826-17.606c2.458-2.867,4.506-5.733,7.37-8.191
			C1911.854,119.342,1915.128,116.474,1918.815,114.427z"/>
		<path fill="#628C53" d="M1489.698,318.339c-5.321,1.229-10.645,2.047-15.559,2.866c-4.914,0.82-9.417,1.229-14.332,1.229
			c-9.009,0.41-18.016,0.41-26.205,0c-16.787-0.818-32.348-4.095-47.906-8.189c-15.15-4.504-30.302-10.236-45.04-18.017
			c-3.686-2.047-7.372-4.095-11.058-6.552c-3.685-2.047-7.37-4.913-11.055-7.37c-7.369-5.732-15.151-11.056-22.931-19.244
			c4.505-3.276,9.01-5.734,13.513-7.781c4.504-2.047,9.008-4.094,13.923-5.322c9.008-2.867,18.425-4.914,27.433-5.733
			c18.427-1.637,36.443,0.41,53.64,5.324c17.197,4.913,33.576,12.693,48.317,23.749c7.369,5.323,14.331,11.874,20.474,19.245
			c3.275,3.685,6.142,7.78,9.007,11.874C1485.194,308.512,1487.651,313.016,1489.698,318.339z"/>
		<path fill="#80A86F" d="M2195.611,329.394c-5.321,2.047-10.236,3.276-14.742,4.505c-4.913,1.229-9.415,2.047-13.919,2.866
			c-9.01,1.638-17.608,2.458-26.207,3.276c-16.788,0.819-32.757-0.41-48.315-2.866c-15.562-2.458-31.121-6.552-46.679-12.694
			c-4.095-1.638-7.779-3.276-11.875-5.323c-4.095-1.638-7.78-3.685-11.875-6.142c-8.188-4.504-16.378-9.418-24.977-16.788
			c4.096-3.685,8.188-6.96,12.693-9.417c4.096-2.866,8.6-4.913,13.104-6.96c9.008-4.095,17.604-6.962,26.613-8.6
			c18.017-3.685,36.033-3.685,53.64-0.818c17.608,2.866,34.808,8.599,50.774,18.017c7.779,4.503,15.56,10.236,22.521,16.787
			c3.685,3.276,6.962,6.962,10.237,10.646C2189.879,319.977,2193.155,324.481,2195.611,329.394z"/>
		<path fill="#80A86F" d="M1502.393,467.793c-3.277,4.503-6.961,8.189-10.237,11.874c-3.275,3.686-6.552,6.961-10.237,9.828
			c-6.961,6.141-13.514,11.874-20.473,16.378c-13.513,9.827-27.844,17.196-42.174,23.749c-14.741,6.142-29.893,11.056-46.27,14.33
			c-4.095,0.82-8.599,1.23-12.694,2.05c-4.094,0.818-8.599,0.818-13.513,1.228c-9.417,0.408-18.835,0.818-29.891-0.82
			c1.639-5.322,3.276-10.235,5.733-14.74c2.046-4.504,4.505-9.008,7.37-13.103c5.324-8.189,11.465-15.559,18.017-21.701
			c13.104-13.103,28.661-22.521,45.04-29.482s33.986-11.056,52.412-11.875c9.008-0.409,18.426,0.41,28.252,2.047
			c4.914,0.819,9.417,2.049,14.331,3.685C1492.563,462.88,1497.477,464.926,1502.393,467.793z"/>
		<path fill="#80A86F" d="M1491.335,322.025c-1.638,4.094-3.275,8.188-4.912,11.464c-1.638,3.275-3.277,6.552-4.914,9.418
			c-3.275,5.732-6.96,10.645-10.646,15.15c-7.371,8.598-15.151,14.74-24.158,19.653c-8.6,4.505-18.426,7.781-29.482,9.008
			c-5.73,0.819-11.465,0.819-18.425,0.409c-6.961-0.409-13.923-1.228-22.93-3.685c0-4.503,0-8.598,0.817-12.693
			c0.41-4.095,1.639-7.37,2.457-11.056c2.047-6.55,4.913-12.693,8.599-18.017c6.962-10.646,16.379-18.835,27.026-24.158
			c10.645-5.732,22.52-8.599,35.213-8.599c6.552,0,13.104,0.819,20.063,2.867c3.277,1.228,6.96,2.046,10.646,4.094
			C1483.966,317.111,1487.651,319.158,1491.335,322.025z"/>
		<path fill="#628C53" d="M2025.277,330.623c-4.505,1.639-8.19,2.457-11.876,3.276s-6.961,1.638-10.237,2.047
			c-6.552,0.818-12.692,1.637-18.427,1.229c-11.463,0-21.289-2.458-30.299-6.143c-9.008-3.686-17.607-9.417-25.797-17.199
			c-4.093-4.093-8.189-8.598-11.875-13.922c-4.093-5.731-7.777-11.463-11.872-20.062c3.274-2.866,6.96-5.324,10.234-7.371
			c3.277-2.047,6.552-3.684,9.83-4.914c6.55-2.457,13.101-4.093,19.651-4.914c12.693-1.228,24.979,0.82,36.034,5.324
			c11.055,4.503,20.882,11.875,29.071,21.701c4.096,4.915,7.371,10.646,10.236,17.197c1.229,3.276,2.867,6.552,3.686,10.646
			C2024.456,321.615,2025.277,326.119,2025.277,330.623z"/>
		<path fill="#AFD2A3" d="M1585.512,206.147c2.867,3.685,5.324,6.551,7.372,9.827c2.047,3.275,4.093,6.142,5.731,9.008
			c3.275,5.733,6.141,11.056,7.779,16.378c4.096,10.646,5.323,20.474,5.323,30.709c0,9.828-2.048,19.654-6.552,30.301
			c-2.048,5.323-4.913,10.646-8.6,16.379c-3.683,5.731-7.779,11.464-14.33,18.015c-4.094-2.047-7.371-4.503-10.646-6.96
			c-3.276-2.458-5.733-4.914-8.188-7.371c-4.914-5.323-8.6-10.646-11.466-16.378c-5.732-11.465-8.189-23.34-8.189-35.214
			c0.41-11.874,3.276-23.75,9.417-34.804c3.276-5.733,7.372-11.056,12.284-15.97c2.457-2.457,5.323-4.913,8.599-7.37
			C1577.733,210.242,1581.008,207.784,1585.512,206.147z"/>
		<path fill="#80A86F" d="M1651.026,555.827c-0.408,4.505-1.229,8.599-2.047,12.284c-0.818,3.687-1.638,6.962-2.456,10.237
			c-2.048,6.551-4.095,11.873-6.552,17.196c-4.915,10.236-11.057,18.018-18.426,24.978c-7.371,6.552-15.969,11.875-26.206,15.969
			c-5.322,2.048-11.055,3.685-17.606,4.915c-6.551,1.228-13.513,2.455-22.93,2.045c-1.229-4.503-2.049-8.597-2.457-12.282
			c-0.409-4.095-0.409-7.779-0.409-11.056c0.409-6.961,1.638-13.922,4.094-19.654c4.096-12.284,11.465-22.11,20.064-30.301
			c9.007-8.188,19.654-13.922,31.938-17.197c6.142-1.637,12.694-2.456,20.064-2.047c3.687,0,7.369,0.41,11.056,1.229
			C1642.838,552.552,1646.523,553.781,1651.026,555.827z"/>
		<path fill="#628C53" d="M1897.932,451.005c-9.417,3.685-17.196,5.323-24.568,5.732c-7.369,0.411-14.331,0-21.292-1.228
			c-6.96-1.228-13.511-3.275-20.063-6.551c-6.552-3.275-13.512-6.961-20.882-14.332c7.37-6.961,15.148-10.237,23.338-12.285
			c8.189-2.047,15.969-1.637,23.749-0.408s15.149,4.094,22.111,8.598C1886.877,435.854,1893.428,441.588,1897.932,451.005z"/>
		<path fill="#80A86F" d="M2000.298,520.204c-11.056,4.505-20.063,6.143-29.071,6.961c-8.6,0.819-16.789,0-24.979-1.228
			c-7.779-1.228-15.559-3.686-23.748-7.371c-7.779-3.686-15.969-8.189-24.568-16.377c8.6-8.189,18.017-11.875,27.434-14.332
			c9.417-2.047,18.836-2.047,27.843-0.409c9.01,1.637,18.019,4.913,25.798,10.236
			C1987.603,502.597,1995.384,509.149,2000.298,520.204z"/>
		<path fill="#AFD2A3" d="M1855.757,293.772c-6.552-7.78-10.646-14.332-13.511-21.292c-2.868-6.961-4.915-13.512-6.144-20.063
			c-1.228-6.96-1.228-13.512-0.817-20.882c0.817-7.371,2.046-15.15,6.551-24.568c9.009,4.504,14.74,11.056,19.244,18.017
			s6.961,14.331,8.189,22.11c1.229,7.781,0.819,15.971-0.82,23.75C1866.405,278.621,1863.129,286.811,1855.757,293.772z"/>
		<path fill="#80A86F" d="M2049.023,234.809c-7.369,6.961-14.331,10.646-20.881,13.922c-6.552,3.276-13.512,4.914-20.064,6.143
			c-6.96,1.229-13.513,1.637-20.882,0.818c-7.37-0.818-15.151-2.047-24.568-6.142c4.503-9.009,10.646-15.15,17.607-19.654
			c6.961-4.504,14.33-7.37,22.11-8.6c7.78-1.228,15.97-1.228,23.748,0.82C2033.873,224.163,2042.064,227.439,2049.023,234.809z"/>
		<path fill="#AFD2A3" d="M2033.463,386.719c-7.779,20.882-16.787,35.214-26.613,48.726c-9.828,13.103-20.474,23.339-31.939,32.756
			c-11.463,9.418-24.158,17.198-38.08,23.34c-14.74,6.142-29.891,11.465-50.772,13.103c0-22.521,6.55-40.126,15.56-56.096
			c8.599-15.56,20.473-28.662,33.575-39.309c13.104-10.646,28.255-18.425,44.633-22.93
			C1995.794,382.216,2013.811,380.169,2033.463,386.719z"/>
		<path fill="#AFD2A3" d="M1431.145,446.091c-10.235,0.82-17.607,0-24.977-0.818c-6.96-1.228-13.512-2.867-19.244-4.914
			c-5.734-2.458-11.466-4.914-16.379-8.598c-4.914-3.686-10.237-7.781-14.331-14.332c9.417-3.685,18.017-4.503,26.206-4.094
			c8.188,0.409,15.559,2.047,22.11,4.504c6.552,2.456,12.692,6.141,17.606,10.646
			C1426.641,432.989,1430.737,438.722,1431.145,446.091z"/>
		<path fill="#80A86F" d="M1610.899,503.007c-6.551,7.78-12.693,12.284-19.245,16.378c-6.142,4.094-12.692,6.551-19.243,8.599
			c-6.553,2.047-13.512,3.276-20.884,3.685c-7.369,0-15.149,0-24.976-3.275c3.275-9.828,9.007-16.38,15.148-21.703
			s13.514-9.008,20.883-11.056c7.371-2.457,15.561-3.275,23.75-2.457C1594.521,494.408,1602.709,496.455,1610.899,503.007z"/>
		<path fill="#AFD2A3" d="M1799.251,406.783c-8.598-5.732-13.922-11.055-18.425-17.198c-4.505-5.732-8.189-11.875-11.057-18.016
			c-2.865-6.143-4.914-13.104-6.142-20.064c-0.817-7.37-1.638-15.15,0-25.387c9.827,2.048,17.198,6.961,23.341,12.284
			c6.141,5.733,10.645,12.284,13.512,19.655c3.274,7.37,4.912,15.149,4.912,23.339
			C1805.393,389.586,1804.575,398.184,1799.251,406.783z"/>
		<path fill="#80A86F" d="M1578.143,468.612c-4.506-0.41-8.6-0.819-12.285-1.229c-3.685-0.409-6.959-1.229-10.234-2.047
			c-6.554-1.638-12.286-3.276-17.608-5.731c-10.236-4.505-18.836-10.238-25.796-17.199c-6.961-6.961-13.104-15.15-17.607-25.387
			c-2.456-5.323-4.094-11.054-6.142-17.197c-1.638-6.552-3.276-13.512-3.276-22.93c4.095-1.638,8.189-2.457,12.283-2.867
			c3.686-0.819,7.781-0.819,11.058-0.819c6.959,0,13.921,0.819,20.062,2.866c12.286,3.686,22.931,9.828,31.12,18.426
			c8.599,8.19,15.149,18.836,18.836,30.711c2.046,6.142,2.866,12.692,3.275,19.654c0,3.685,0,7.371-0.409,11.056
			C1580.598,460.013,1579.78,464.108,1578.143,468.612z"/>
		<path fill="#80A86F" d="M1483.146,317.52c-5.731-4.504-10.645-8.599-15.148-13.103c-4.505-4.094-8.6-8.598-12.285-12.694
			c-7.779-8.188-13.921-16.377-19.244-24.566c-11.056-16.379-18.017-32.757-23.338-49.545c-1.23-4.095-2.458-8.598-3.278-12.693
			c-1.227-4.505-1.637-8.598-2.456-13.103c-1.638-9.008-2.047-18.426-2.047-27.843c0-4.915,0.409-9.828,0.819-15.152
			c0.41-5.321,0.817-10.645,2.047-15.968c2.048-11.057,4.095-22.931,9.008-36.853c7.371,1.638,13.514,3.686,19.245,6.553
			c2.865,1.228,5.733,2.866,8.599,4.094c2.866,1.228,5.324,2.866,7.779,4.504c10.238,6.551,18.835,13.921,26.207,22.11
			c15.148,16.378,25.385,35.214,31.118,55.687c6.143,20.064,7.78,41.766,4.505,63.466c-1.639,11.057-4.914,22.111-9.828,32.757
			c-2.455,5.323-5.323,11.056-9.008,16.379C1492.563,306.874,1488.47,312.198,1483.146,317.52z"/>
		<path fill="#80A86F" d="M1646.523,416.61c-3.274-6.552-6.143-12.284-8.19-18.426c-2.456-5.731-4.094-11.055-5.731-16.377
			c-3.276-10.647-5.733-20.883-6.961-30.301c-2.866-19.244-2.866-37.261-0.41-54.868c0.819-4.504,1.229-8.599,2.457-13.103
			c0.819-4.503,2.048-8.598,3.276-13.103c2.455-8.599,5.732-17.198,9.826-26.206c2.049-4.504,4.504-9.008,6.962-13.511
			c2.456-4.504,5.323-9.008,8.597-13.922c6.552-9.418,13.104-18.836,23.751-29.48c5.731,4.504,10.646,9.008,14.741,13.921
			c2.045,2.457,4.094,4.914,6.141,7.371s3.276,4.913,5.323,7.371c6.552,10.236,11.464,20.474,14.739,31.118
			c6.962,21.293,7.782,42.584,4.914,63.467c-2.866,20.882-10.236,41.356-22.93,59.373c-6.143,9.008-13.512,18.016-22.52,25.796
			c-4.505,4.094-9.419,7.779-15.15,11.055C1659.625,410.878,1653.483,414.153,1646.523,416.61z"/>
		<path fill="#31655D" d="M1831.599,1014.014c-6.96,4.505-15.559,7.78-25.796,10.237c-10.236,2.458-20.883,3.685-32.758,3.685
			c-31.528,0-55.277-7.778-72.064-22.929c-16.788-15.561-25.385-38.082-25.385-68.79v-80.663h-35.216v-63.059h35.216v-62.647h84.348
			v62.647h54.867v63.059h-54.867v79.844c0,8.6,2.455,15.151,6.961,20.063c4.503,4.915,10.646,7.369,18.425,7.369
			c9.829,0,18.426-2.454,25.798-7.369L1831.599,1014.014z"/>
	</g>
</g>
</svg>
