<?xml version="1.0" encoding="utf-8"?>
<!-- Generator: Adobe Illustrator 16.0.0, SVG Export Plug-In . SVG Version: 6.00 Build 0)  -->
<!DOCTYPE svg PUBLIC "-//W3C//DTD SVG 1.1//EN" "http://www.w3.org/Graphics/SVG/1.1/DTD/svg11.dtd">
<svg version="1.1" id="Ebene_1" xmlns="http://www.w3.org/2000/svg" xmlns:xlink="http://www.w3.org/1999/xlink" x="0px" y="0px"
	 width="1080px" height="1080px" viewBox="0 0 1080 1080" enable-background="new 0 0 1080 1080" xml:space="preserve">
<g>
	<path fill="#DA545F" d="M434.953,831.726v-40.289h13.078c4.641,0,8.648,0.844,11.602,2.531s5.273,4.008,6.75,6.961
		s2.109,6.539,2.109,10.758c0,4.008-0.633,7.594-2.109,10.758c-1.477,2.953-3.797,5.273-6.75,6.961s-6.961,2.531-11.602,2.531
		h-13.078V831.726z M441.071,826.664h6.75c3.586,0,6.539-0.633,8.648-1.688c2.109-1.266,3.586-2.953,4.641-5.063
		c0.844-2.32,1.477-4.851,1.477-8.015s-0.422-5.696-1.477-8.016c-0.844-2.32-2.531-4.008-4.641-5.273s-5.063-1.898-8.648-1.898
		h-6.75V826.664z"/>
	<path fill="#DA545F" d="M478.828,831.726v-40.289h6.117v40.289H478.828z"/>
	<path fill="#DA545F" d="M496.336,831.726v-40.289h25.523v4.852h-19.406v12.445h17.719v4.852h-17.719v13.078h19.406v4.852h-25.523
		V831.726z"/>
	<path fill="#DA545F" d="M548.016,831.726l14.766-40.289h6.75l14.766,40.289h-6.539l-3.375-9.914H557.93l-3.375,9.914H548.016z
		 M559.617,817.172h13.078l-6.539-18.352L559.617,817.172z"/>
	<path fill="#DA545F" d="M593.367,831.726v-40.289H607.5c3.164,0,5.695,0.633,7.805,1.688s3.586,2.531,4.641,4.219
		c1.055,1.898,1.477,3.797,1.477,6.117c0,2.109-0.422,4.219-1.477,5.906s-2.531,3.164-4.641,4.43
		c-2.109,1.055-4.641,1.688-8.016,1.688h-8.016v16.242H593.367L593.367,831.726z M599.485,810.633h7.805
		c2.953,0,4.852-0.633,6.117-1.898s1.898-2.953,1.898-5.063c0-2.32-0.633-4.008-1.898-5.273s-3.375-1.898-6.117-1.898h-7.805
		V810.633z"/>
	<path fill="#DA545F" d="M630.914,831.726v-40.289h14.133c3.164,0,5.695,0.633,7.805,1.688s3.586,2.531,4.641,4.219
		c1.055,1.898,1.477,3.797,1.477,6.117c0,2.109-0.422,4.219-1.477,5.906s-2.531,3.164-4.641,4.43
		c-2.109,1.055-4.641,1.688-8.016,1.688h-7.805v16.242H630.914L630.914,831.726z M637.031,810.633h7.805
		c2.953,0,4.852-0.633,6.117-1.898s1.898-2.953,1.898-5.063c0-2.32-0.633-4.008-1.898-5.273s-3.375-1.898-6.117-1.898h-7.805
		V810.633z"/>
	<path fill="#DA545F" d="M684.914,831.726v-4.641l19.195-30.375h-18.984v-5.273h25.945v4.641l-19.195,30.375h19.406v5.273H684.914z"
		/>
	<path fill="#DA545F" d="M736.383,832.57c-2.953,0-5.484-0.632-7.805-1.687s-4.219-2.953-5.484-5.273
		c-1.267-2.32-2.109-5.273-2.109-8.86v-25.101h6.116v25.101c0,3.587,0.844,6.117,2.532,7.806c1.687,1.687,4.008,2.531,6.75,2.531
		s5.063-0.844,6.75-2.531s2.531-4.219,2.531-7.806v-25.101h6.117v25.101c0,3.587-0.633,6.54-2.109,8.86s-3.375,4.008-5.695,5.273
		C741.867,831.937,739.336,832.57,736.383,832.57z"/>
	<path fill="#DA545F" d="M763.172,831.726v-40.289h7.171l13.712,26.789l13.5-26.789h7.172v40.289h-6.117v-29.742l-12.234,24.047
		h-4.641l-12.446-23.836v29.742h-6.116V831.726z"/>
	<path fill="#DA545F" d="M434.953,895.429V855.14h6.117v17.297h19.406V855.14h6.117v40.289h-6.117V877.5h-19.406v17.93H434.953z"/>
	<path fill="#DA545F" d="M478.196,895.429V855.14h6.117v40.289H478.196z"/>
	<path fill="#DA545F" d="M495.914,895.429V855.14h6.117l20.25,30.375V855.14h6.117v40.289h-6.117l-20.25-30.375v30.375H495.914z"/>
	<path fill="#DA545F" d="M539.789,895.429V855.14h14.133c3.164,0,5.695,0.633,7.805,1.688s3.586,2.531,4.641,4.219
		s1.477,3.797,1.477,6.117c0,2.109-0.422,4.219-1.477,5.906c-1.055,1.898-2.531,3.164-4.641,4.43
		c-2.109,1.055-4.641,1.688-8.016,1.688h-8.016v16.242H539.789L539.789,895.429z M545.906,874.125h7.805
		c2.953,0,4.852-0.633,6.117-1.898s1.898-2.953,1.898-5.063c0-2.32-0.633-4.008-1.898-5.273s-3.375-1.898-6.117-1.898h-7.805
		V874.125z"/>
	<path fill="#DA545F" d="M577.336,895.429V855.14h25.313v4.852h-19.195v12.656h15.82v4.852h-15.82v17.719h-6.117V895.429z"/>
	<path fill="#DA545F" d="M612.141,895.429V855.14h6.117v35.438h18.352v4.852H612.141L612.141,895.429z"/>
	<path fill="#DA545F" d="M643.781,895.429l14.766-40.289h6.75l14.766,40.289h-6.539l-3.375-9.914h-16.453l-3.375,9.914H643.781z
		 M655.383,880.664h13.078l-6.539-18.352L655.383,880.664z"/>
	<path fill="#DA545F" d="M689.133,895.429V855.14h6.117l20.25,30.375V855.14h6.117v40.289H715.5l-20.25-30.375v30.375H689.133z"/>
	<path fill="#DA545F" d="M731.531,895.429v-4.641l19.195-30.375h-18.984v-5.273h25.944v4.641l-19.195,30.375h19.407v5.273H731.531z"
		/>
	<path fill="#DA545F" d="M768.235,895.429V855.14h25.523v4.852h-19.406v12.445h17.719v4.852h-17.719v13.078h19.406v4.852h-25.523
		V895.429z"/>
	<path fill="#DA545F" d="M804.516,895.429V855.14h6.117l20.25,30.375V855.14H837v40.289h-6.117l-20.25-30.375v30.375H804.516z"/>
</g>
<g>
	<g>
		<path fill="#31655D" d="M915.469,857.461c4.008,0,4.008-6.328,0-6.328S911.461,857.461,915.469,857.461L915.469,857.461z"/>
	</g>
</g>
<g>
	<g>
		<path fill="#31655D" d="M399.305,952.804c4.008,0,4.008-6.328,0-6.328C395.086,946.476,395.086,952.804,399.305,952.804
			L399.305,952.804z"/>
	</g>
</g>
<g>
	<path fill="#31655D" d="M442.336,504.14c-4.852-2.531-8.859-6.328-11.602-10.969s-4.219-9.914-4.219-15.82s1.477-11.18,4.219-15.82
		s6.539-8.226,11.391-10.758c4.852-2.531,10.547-4.008,16.664-4.008c5.906,0,10.969,1.266,15.398,3.586s7.805,5.906,9.914,10.336
		l-10.758,6.328c-1.688-2.742-3.798-4.852-6.54-6.117c-2.531-1.477-5.484-2.109-8.438-2.109c-5.273,0-9.492,1.688-13.078,5.063
		c-3.375,3.375-5.062,8.016-5.062,13.5c0,5.695,1.688,10.125,5.062,13.5c3.376,3.375,7.805,5.063,13.078,5.063
		c3.164,0,5.906-0.633,8.438-2.109s4.641-3.375,6.54-6.117l10.758,6.328c-2.32,4.43-5.695,8.016-10.125,10.336
		c-4.431,2.32-9.492,3.586-15.398,3.586C452.883,508.148,447.188,506.883,442.336,504.14z"/>
	<path fill="#31655D" d="M510.68,504.14c-4.852-2.531-8.648-6.328-11.391-10.969s-4.008-9.914-4.008-15.82s1.266-11.18,4.008-15.82
		s6.539-8.226,11.391-10.758c4.852-2.531,10.336-4.008,16.242-4.008c6.117,0,11.602,1.266,16.453,4.008
		c4.852,2.531,8.648,6.328,11.391,10.758c2.742,4.641,4.008,9.914,4.008,15.82s-1.266,11.18-4.008,15.82s-6.539,8.227-11.391,10.969
		c-4.852,2.531-10.336,4.008-16.453,4.008C521.016,508.148,515.531,506.883,510.68,504.14z M539.789,491.062
		c3.375-3.375,5.063-8.016,5.063-13.499c0-5.484-1.688-10.126-5.063-13.5c-3.375-3.375-7.594-5.063-12.656-5.063
		s-9.281,1.688-12.656,5.063s-5.063,8.016-5.063,13.5c0,5.483,1.688,10.125,5.063,13.499c3.375,3.376,7.594,5.063,12.656,5.063
		S536.414,494.437,539.789,491.062z"/>
	<path fill="#31655D" d="M634.711,447.609v59.695h-13.289v-7.594c-2.32,2.742-5.063,4.852-8.438,6.117
		c-3.375,1.477-6.961,2.109-10.758,2.109c-8.016,0-14.344-2.32-18.773-6.75c-4.641-4.43-6.961-10.969-6.961-19.828v-34.172h13.922
		v32.273c0,5.273,1.266,9.281,3.586,12.023s5.906,4.008,10.336,4.008c5.063,0,9.07-1.477,12.023-4.641s4.43-7.594,4.43-13.289
		v-30.164h13.922V447.609z"/>
	<path fill="#31655D" d="M668.25,504.14c-4.852-2.531-8.86-6.328-11.602-10.969c-2.742-4.641-4.219-9.914-4.219-15.82
		s1.477-11.18,4.219-15.82c2.741-4.641,6.539-8.226,11.39-10.758c4.852-2.531,10.547-4.008,16.664-4.008
		c5.906,0,10.97,1.266,15.398,3.586c4.43,2.32,7.805,5.906,9.914,10.336l-10.758,6.328c-1.688-2.742-3.797-4.852-6.539-6.117
		c-2.531-1.477-5.484-2.109-8.438-2.109c-5.273,0-9.492,1.688-13.078,5.063c-3.375,3.375-5.063,8.016-5.063,13.5
		c0,5.695,1.688,10.125,5.063,13.5s7.805,5.063,13.078,5.063c3.164,0,5.906-0.633,8.438-2.109s4.641-3.375,6.539-6.117l10.758,6.328
		c-2.32,4.43-5.695,8.016-10.124,10.336c-4.431,2.32-9.492,3.586-15.398,3.586C678.797,508.148,673.313,506.883,668.25,504.14z"/>
	<path fill="#31655D" d="M778.571,453.515c4.641,4.43,6.75,10.969,6.75,19.617v34.172h-13.922V474.82
		c0-5.273-1.266-9.07-3.797-11.813S761.696,459,757.055,459c-5.063,0-9.281,1.477-12.234,4.641s-4.43,7.595-4.43,13.289v30.165
		h-13.922v-83.11h13.922v30.164c2.32-2.531,5.063-4.43,8.648-5.695c3.375-1.266,7.172-1.898,11.391-1.898
		C768.024,446.976,773.93,449.086,778.571,453.515z"/>
</g>
<g>
	<circle fill="#80A86F" cx="433.477" cy="340.875" r="84.586"/>
	<circle fill="#DA545F" cx="336.024" cy="258.609" r="147.023"/>
	<circle fill="#FFF682" cx="288.352" cy="377.156" r="88.594"/>
	<path fill="#31655D" d="M353.742,507.726h-20.25c0-50.414-13.5-87.75-40.289-110.742c-38.813-33.539-93.867-25.734-94.5-25.734
		l-3.164-20.039c2.531-0.422,64.547-9.492,110.742,30.164C337.922,408.375,353.742,450.984,353.742,507.726z"/>
	<path fill="#31655D" d="M376.313,507.726h-20.25c0-230.555,126.141-267.469,131.414-268.945l5.273,19.617
		C488.11,259.664,376.313,293.836,376.313,507.726z"/>
	<circle fill="#AFD2A3" cx="450.141" cy="277.594" r="62.438"/>
	<path fill="#31655D" d="M365.133,507.726h-20.25c0-135.422-38.391-203.977-113.906-203.977V283.5
		C319.992,283.5,365.133,359.015,365.133,507.726z"/>
	<circle fill="#AFD2A3" cx="193.43" cy="344.672" r="38.18"/>
	<circle fill="#FFE16D" cx="282.867" cy="237.937" r="88.594"/>
	<path fill="#31655D" d="M376.102,487.898h-20.25c0-54,29.32-111.586,111.586-111.586v20.25
		C382.641,396.773,376.102,466.594,376.102,487.898z"/>
</g>
<g>
	<path fill="#31655D" d="M413.649,653.273c-3.586,2.321-8.016,4.008-13.289,5.273c-5.273,1.267-10.758,1.898-16.664,1.898
		c-16.031,0-28.477-4.008-37.125-11.813s-13.078-19.617-13.078-35.438V571.64h-17.93v-32.484h17.93v-32.062h43.242v32.062H405
		v32.484h-28.266v41.133c0,4.43,1.266,7.805,3.586,10.336s5.484,3.797,9.492,3.797c5.063,0,9.492-1.266,13.289-3.797
		L413.649,653.273z"/>
	<path fill="#31655D" d="M488.742,536.836c7.172-2.742,15.188-4.219,24.258-4.219v39.023c-4.008-0.422-7.172-0.633-9.703-0.633
		c-9.281,0-16.453,2.532-21.727,7.595c-5.273,5.062-7.805,12.656-7.805,22.991v56.742h-43.453V534.726h41.344v14.766
		C476.086,544.008,481.781,539.789,488.742,536.836z"/>
	<path fill="#31655D" d="M655.383,607.5h-89.859c1.898,6.328,5.273,11.391,10.547,14.766s11.813,5.063,19.828,5.063
		c5.906,0,10.969-0.844,15.398-2.531s8.648-4.43,13.078-8.227l22.781,23.625c-12.024,13.289-29.531,20.039-52.734,20.039
		c-14.344,0-27.211-2.742-38.181-8.227c-10.969-5.484-19.406-13.078-25.523-22.78c-5.906-9.704-9.07-20.672-9.07-33.118
		c0-12.233,2.953-22.992,8.859-32.695s13.922-17.297,24.258-22.78c10.336-5.485,21.938-8.227,34.805-8.227
		c12.234,0,23.414,2.531,33.539,7.594s17.93,12.445,23.836,22.148s8.859,21.094,8.859,34.383
		C656.016,596.953,655.805,600.539,655.383,607.5z M573.328,569.109c-4.431,3.797-7.383,9.07-8.649,15.609h50.625
		c-1.266-6.539-4.007-11.602-8.648-15.609c-4.43-3.797-10.124-5.695-16.664-5.695C583.453,563.414,577.969,565.312,573.328,569.109z
		"/>
	<path fill="#31655D" d="M801.774,607.5h-89.859c1.898,6.328,5.273,11.391,10.547,14.766s11.813,5.063,19.828,5.063
		c5.905,0,10.969-0.844,15.397-2.531c4.431-1.688,8.649-4.43,13.079-8.227l22.781,23.625
		c-12.024,13.289-29.532,20.039-52.735,20.039c-14.343,0-27.21-2.742-38.18-8.227c-10.969-5.484-19.406-13.078-25.523-22.78
		c-5.906-9.704-9.07-20.672-9.07-33.118c0-12.233,2.953-22.992,8.86-32.695c5.905-9.703,13.922-17.297,24.258-22.78
		c10.336-5.485,21.938-8.227,34.805-8.227c12.233,0,23.414,2.531,33.539,7.594c10.124,5.063,17.93,12.445,23.836,22.148
		s8.859,21.094,8.859,34.383C802.406,596.953,802.196,600.539,801.774,607.5z M719.719,569.109c-4.43,3.797-7.383,9.07-8.648,15.609
		h50.625c-1.266-6.539-4.008-11.602-8.648-15.609c-4.43-3.797-10.125-5.695-16.664-5.695S724.36,565.312,719.719,569.109z"/>
</g>
<g>
	<g>
		<path fill="#31655D" d="M241.102,731.32c4.008,0,4.008-6.328,0-6.328S237.094,731.32,241.102,731.32L241.102,731.32z"/>
	</g>
</g>
<g>
	<circle fill="#8EC3AE" cx="437.431" cy="348.839" r="87.551"/>
	<circle fill="#DEFFE3" cx="336.733" cy="263.811" r="152.225"/>
	<circle fill="#BFE3B3" cx="287.373" cy="386.489" r="91.874"/>
	<path fill="#31655D" d="M354.927,521.597h-21.078c0-52.241-14.05-90.792-41.614-114.75c-40.352-34.769-97.279-26.661-97.82-26.661
		l-3.242-20.718c2.704-0.359,66.835-9.728,114.573,31.346C338.532,418.917,354.927,462.871,354.927,521.597z"/>
	<path fill="#31655D" d="M378.344,521.597h-21.077c0-238.513,130.424-276.884,136.011-278.322l5.583,20.175
		C493.996,264.891,378.344,300.2,378.344,521.597z"/>
	<circle fill="#AFD2A3" cx="454.727" cy="283.446" r="64.674"/>
	<path fill="#31655D" d="M366.635,521.597h-21.079c0-140.15-39.63-211.129-117.814-211.129v-21.077
		C319.98,289.573,366.635,367.575,366.635,521.597z"/>
	<circle fill="#8EC3AE" cx="293.316" cy="269.035" r="91.875"/>
	<path fill="#31655D" d="M378.163,501.243h-21.076c0-55.846,30.265-115.474,115.474-115.474v21.077
		C384.83,406.666,378.163,479.087,378.163,501.243z"/>
	<circle fill="#AFD2A3" cx="219.817" cy="358.749" r="47.018"/>
</g>
</svg>
