<?xml version="1.0" encoding="utf-8"?>
<!-- Generator: Adobe Illustrator 24.1.0, SVG Export Plug-In . SVG Version: 6.00 Build 0)  -->
<svg version="1.1" id="Ebene_1" xmlns="http://www.w3.org/2000/svg" xmlns:xlink="http://www.w3.org/1999/xlink" x="0px" y="0px"
	 viewBox="0 0 512 512" style="enable-background:new 0 0 512 512;" xml:space="preserve">
<style type="text/css">
	.st0{fill:#80A86F;}
	.st1{fill:#DA545F;}
	.st2{fill:#F56E76;}
	.st3{fill:#FFF682;}
	.st4{fill:#31655D;}
	.st5{fill:#AFD2A3;}
	.st6{fill:#FFE16D;}
	.st7{fill:#7AAD97;}
	.st8{fill:#628C53;}
	.st9{fill:#BFE3B3;}
	.st10{fill:#8EC3AE;}
	.st11{fill:#DEFFE3;}
</style>
<g>
	<path class="st7" d="M196.4,372.2l0-19.1h6.2c2.2,0,4.1,0.4,5.5,1.2c1.4,0.8,2.5,1.9,3.2,3.3c0.7,1.4,1.1,3.1,1.1,5.1
		c0,1.9-0.4,3.6-1.1,5.1c-0.7,1.4-1.8,2.5-3.2,3.3c-1.4,0.8-3.3,1.2-5.5,1.2H196.4z M199.3,369.7h3.2c1.7,0,3.1-0.3,4.1-0.8
		c1-0.6,1.7-1.4,2.2-2.4c0.4-1.1,0.7-2.3,0.7-3.8c0-1.5-0.2-2.7-0.7-3.8c-0.4-1.1-1.2-1.9-2.2-2.5c-1-0.6-2.4-0.9-4.1-0.9h-3.2
		L199.3,369.7z"/>
	<path class="st7" d="M217.2,372.2l0-19.1h2.9l0,19.1H217.2z"/>
	<path class="st7" d="M225.7,372.2l0-19.1h12.1v2.3h-9.3l0,5.9h8.4v2.3h-8.4l0,6.2h9.3v2.3H225.7z"/>
	<path class="st7" d="M250.2,372.2l7-19.1h3.2l7,19.1h-3.1l-1.6-4.7h-7.8l-1.6,4.7H250.2z M255.7,365.2h6.2l-3.1-8.7L255.7,365.2z"
		/>
	<path class="st7" d="M271.7,372.2l0-19.1h6.7c1.5,0,2.7,0.3,3.7,0.8c1,0.5,1.7,1.2,2.2,2c0.5,0.9,0.7,1.8,0.7,2.9
		c0,1-0.2,2-0.7,2.9c-0.5,0.9-1.2,1.6-2.2,2.1c-1,0.5-2.2,0.8-3.8,0.8h-3.8l0,7.7H271.7z M274.6,362.1h3.7c1.4,0,2.3-0.3,2.9-0.9
		c0.6-0.6,0.9-1.4,0.9-2.4c0-1.1-0.3-1.9-0.9-2.5c-0.6-0.6-1.6-0.9-2.9-0.9h-3.7L274.6,362.1z"/>
	<path class="st7" d="M289.5,372.2l0-19.1h6.7c1.5,0,2.7,0.3,3.7,0.8c1,0.5,1.7,1.2,2.2,2c0.5,0.9,0.7,1.8,0.7,2.9
		c0,1-0.2,2-0.7,2.9c-0.5,0.9-1.2,1.6-2.2,2.1c-1,0.5-2.2,0.8-3.8,0.8h-3.8l0,7.7H289.5z M292.4,362.1h3.7c1.4,0,2.3-0.3,2.9-0.9
		c0.6-0.6,0.9-1.4,0.9-2.4c0-1.1-0.3-1.9-0.9-2.5c-0.6-0.6-1.6-0.9-2.9-0.9h-3.7L292.4,362.1z"/>
	<path class="st7" d="M315.1,372.2v-2.2l9.1-14.4h-9v-2.5h12.4v2.2l-9.1,14.4h9.2v2.5H315.1z"/>
	<path class="st7" d="M339.6,372.5c-1.4,0-2.6-0.3-3.7-0.8c-1.1-0.5-2-1.4-2.6-2.5c-0.6-1.1-1-2.5-1-4.2l0-11.9h2.9l0,12
		c0,1.7,0.4,2.9,1.2,3.7s1.9,1.2,3.2,1.2c1.3,0,2.4-0.4,3.2-1.2c0.8-0.8,1.2-2,1.2-3.7l0-12h2.9l0,11.9c0,1.7-0.3,3.1-1,4.2
		c-0.7,1.1-1.6,1.9-2.7,2.5C342.2,372.2,341,372.5,339.6,372.5z"/>
	<path class="st7" d="M352.4,372.2l0-19.1h3.4l6.5,12.7l6.4-12.7h3.4l0,19.1h-2.9l0-14.1l-5.8,11.4h-2.2l-5.9-11.4l0,14.1H352.4z"/>
	<path class="st7" d="M196.4,402.4l0-19.1h2.9l0,8.2h9.3l0-8.2h2.9l0,19.1h-2.9l0-8.5h-9.3l0,8.5H196.4z"/>
	<path class="st7" d="M217,402.4l0-19.1h2.9l0,19.1H217z"/>
	<path class="st7" d="M225.4,402.4l0-19.1h2.9l9.6,14.4l0-14.4h2.9l0,19.1h-2.9l-9.6-14.4l0,14.4H225.4z"/>
	<path class="st7" d="M246.3,402.4l0-19.1h6.7c1.5,0,2.7,0.3,3.7,0.8c1,0.5,1.7,1.2,2.2,2c0.5,0.9,0.7,1.8,0.7,2.9
		c0,1-0.2,2-0.7,2.9c-0.5,0.9-1.2,1.6-2.2,2.1c-1,0.5-2.2,0.8-3.8,0.8h-3.8l0,7.7H246.3z M249.2,392.3h3.7c1.4,0,2.3-0.3,2.9-0.9
		c0.6-0.6,0.9-1.4,0.9-2.4c0-1.1-0.3-1.9-0.9-2.5c-0.6-0.6-1.6-0.9-2.9-0.9h-3.7L249.2,392.3z"/>
	<path class="st7" d="M264.1,402.4l0-19.1h12v2.3H267l0,6h7.5v2.3H267l0,8.4H264.1z"/>
	<path class="st7" d="M280.5,402.4l0-19.1h2.9l0,16.8h8.7v2.3H280.5z"/>
	<path class="st7" d="M295.6,402.4l7-19.1h3.2l7,19.1h-3.1l-1.6-4.7h-7.8l-1.6,4.7H295.6z M301.1,395.4h6.2l-3.1-8.7L301.1,395.4z"
		/>
	<path class="st7" d="M317.1,402.4l0-19.1h2.9l9.6,14.4l0-14.4h2.9l0,19.1h-2.9L320,388l0,14.4H317.1z"/>
	<path class="st7" d="M337.3,402.4v-2.2l9.1-14.4h-9v-2.5h12.4v2.2l-9.1,14.4h9.2v2.5H337.3z"/>
	<path class="st7" d="M354.7,402.4l0-19.1h12.1v2.3h-9.3l0,5.9h8.4v2.3h-8.4l0,6.2h9.3v2.3H354.7z"/>
	<path class="st7" d="M371.9,402.4l0-19.1h2.9l9.6,14.4l0-14.4h2.9l0,19.1h-2.9l-9.6-14.4l0,14.4H371.9z"/>
</g>
<g>
	<path class="st4" d="M201,238.8c-2.3-1.2-4.2-3-5.5-5.2c-1.3-2.2-2-4.7-2-7.5c0-2.8,0.7-5.3,2-7.5c1.3-2.2,3.1-3.9,5.4-5.2
		c2.3-1.2,5-1.9,7.9-1.9c2.8,0,5.3,0.6,7.4,1.7c2.1,1.1,3.7,2.8,4.8,4.9l-5.1,3c-0.8-1.3-1.8-2.3-3.1-3c-1.2-0.7-2.6-1-4-1
		c-2.5,0-4.5,0.8-6.2,2.4c-1.6,1.6-2.4,3.8-2.4,6.5c0,2.7,0.8,4.8,2.4,6.5c1.6,1.6,3.7,2.4,6.2,2.4c1.5,0,2.8-0.3,4-1
		c1.2-0.7,2.2-1.6,3.1-3l5.1,3c-1.1,2.1-2.7,3.8-4.8,4.9c-2.1,1.2-4.5,1.7-7.3,1.7C206,240.7,203.4,240.1,201,238.8z"/>
	<path class="st4" d="M233.5,238.8c-2.3-1.2-4.1-3-5.4-5.2c-1.3-2.2-1.9-4.7-1.9-7.5c0-2.8,0.6-5.3,1.9-7.5c1.3-2.2,3.1-3.9,5.4-5.2
		c2.3-1.2,4.9-1.9,7.8-1.9c2.9,0,5.5,0.6,7.8,1.9c2.3,1.2,4.1,3,5.4,5.2c1.3,2.2,1.9,4.7,1.9,7.5c0,2.8-0.6,5.3-1.9,7.5
		c-1.3,2.2-3.1,3.9-5.4,5.2c-2.3,1.2-4.9,1.9-7.8,1.9C238.4,240.7,235.8,240.1,233.5,238.8z M247.3,232.5c1.6-1.6,2.4-3.8,2.4-6.4
		s-0.8-4.8-2.4-6.4c-1.6-1.6-3.6-2.4-6.1-2.4c-2.4,0-4.5,0.8-6,2.4c-1.6,1.6-2.4,3.8-2.4,6.4s0.8,4.8,2.4,6.4c1.6,1.6,3.6,2.4,6,2.4
		C243.7,235,245.7,234.2,247.3,232.5z"/>
	<path class="st4" d="M292.4,211.9v28.4h-6.3v-3.6c-1.1,1.3-2.4,2.3-4,2.9c-1.6,0.7-3.3,1-5.2,1c-3.8,0-6.8-1.1-9-3.2
		c-2.2-2.1-3.3-5.2-3.3-9.4v-16.2h6.6v15.3c0,2.6,0.6,4.5,1.7,5.7c1.2,1.3,2.8,1.9,4.9,1.9c2.4,0,4.3-0.7,5.7-2.2
		c1.4-1.5,2.1-3.6,2.1-6.4v-14.4H292.4z"/>
	<path class="st4" d="M308.3,238.8c-2.3-1.2-4.2-3-5.5-5.2c-1.3-2.2-2-4.7-2-7.5c0-2.8,0.7-5.3,2-7.5c1.3-2.2,3.1-3.9,5.4-5.2
		c2.3-1.2,5-1.9,7.9-1.9c2.8,0,5.3,0.6,7.4,1.7c2.1,1.1,3.7,2.8,4.8,4.9l-5.1,3c-0.8-1.3-1.8-2.3-3.1-3c-1.2-0.7-2.6-1-4-1
		c-2.5,0-4.5,0.8-6.2,2.4c-1.6,1.6-2.4,3.8-2.4,6.5c0,2.7,0.8,4.8,2.4,6.5c1.6,1.6,3.7,2.4,6.2,2.4c1.5,0,2.8-0.3,4-1
		c1.2-0.7,2.2-1.6,3.1-3l5.1,3c-1.1,2.1-2.7,3.8-4.8,4.9c-2.1,1.2-4.5,1.7-7.3,1.7C313.3,240.7,310.7,240.1,308.3,238.8z"/>
	<path class="st4" d="M360.7,214.7c2.2,2.1,3.2,5.2,3.2,9.3v16.3h-6.6v-15.4c0-2.5-0.6-4.3-1.8-5.6c-1.2-1.3-2.8-1.9-5-1.9
		c-2.4,0-4.4,0.7-5.8,2.2c-1.4,1.5-2.1,3.6-2.1,6.4v14.4H336v-39.4h6.6v14.4c1.1-1.2,2.5-2.1,4.1-2.7c1.6-0.6,3.4-0.9,5.4-0.9
		C355.7,211.6,358.5,212.6,360.7,214.7z"/>
</g>
<path class="st4" d="M159,240.5h-9.6c0-24-6.4-41.7-19.1-52.6c-18.5-15.9-44.6-12.2-44.9-12.2l-1.5-9.5c1.2-0.2,30.6-4.5,52.6,14.3
	C151.4,193.3,159,213.5,159,240.5z"/>
<path class="st4" d="M169.7,240.5h-9.6c0-109.4,59.9-127,62.4-127.7l2.5,9.3C222.8,122.7,169.7,138.9,169.7,240.5z"/>
<path class="st4" d="M164.4,240.5h-9.6c0-64.3-18.2-96.8-54-96.8V134C142.9,134,164.4,169.8,164.4,240.5z"/>
<path class="st4" d="M169.6,231.1H160c0-25.6,13.9-53,53-53v9.6C172.7,187.7,169.6,220.9,169.6,231.1z"/>
<path class="st0" d="M244.2,82.6c-0.3,1.4-0.6,2.5-0.9,3.7c-0.3,1.2-0.7,2.2-1.1,3.3c-0.8,2.1-1.7,4-2.6,5.9
	c-1.9,3.6-4.2,6.8-6.6,9.8c-2.5,3-5.3,5.7-8.5,8.2c-0.8,0.6-1.7,1.2-2.6,1.8c-0.9,0.6-1.8,1.2-2.8,1.7c-2,1.1-4,2.2-6.6,3.1
	c-0.3-1.3-0.4-2.6-0.4-3.8c0-1.2,0-2.5,0.2-3.6c0.3-2.3,0.8-4.6,1.5-6.7c1.5-4.3,3.8-8.1,6.6-11.4c2.8-3.3,6.2-6.2,10.1-8.3
	c2-1.1,4.1-2,6.4-2.6c1.2-0.3,2.3-0.6,3.6-0.8C241.5,82.7,242.8,82.6,244.2,82.6z"/>
<path class="st8" d="M208.7,89.9c0.8,0.8,1.5,1.4,2.1,2.1c0.6,0.7,1.2,1.3,1.7,2c1,1.3,1.8,2.5,2.4,3.8c1.3,2.4,2,4.8,2.3,7.2
	c0.3,2.4,0.1,4.9-0.6,7.5c-0.4,1.3-0.9,2.7-1.6,4.2c-0.7,1.5-1.5,3-2.9,4.9c-1-0.4-2-0.8-2.8-1.3c-0.8-0.5-1.6-1-2.2-1.6
	c-1.3-1.1-2.5-2.3-3.3-3.6c-1.8-2.6-2.8-5.4-3.1-8.3c-0.3-2.9,0-5.9,1.2-8.8c0.6-1.4,1.4-2.9,2.4-4.3c0.6-0.7,1.1-1.4,1.8-2
	C207,91.1,207.8,90.4,208.7,89.9z"/>
<path class="st8" d="M103.9,139.7c-1.3,0.3-2.6,0.5-3.8,0.7c-1.2,0.2-2.3,0.3-3.5,0.3c-2.2,0.1-4.4,0.1-6.4,0c-4.1-0.2-7.9-1-11.7-2
	c-3.7-1.1-7.4-2.5-11-4.4c-0.9-0.5-1.8-1-2.7-1.6c-0.9-0.5-1.8-1.2-2.7-1.8c-1.8-1.4-3.7-2.7-5.6-4.7c1.1-0.8,2.2-1.4,3.3-1.9
	c1.1-0.5,2.2-1,3.4-1.3c2.2-0.7,4.5-1.2,6.7-1.4c4.5-0.4,8.9,0.1,13.1,1.3c4.2,1.2,8.2,3.1,11.8,5.8c1.8,1.3,3.5,2.9,5,4.7
	c0.8,0.9,1.5,1.9,2.2,2.9C102.8,137.3,103.4,138.4,103.9,139.7z"/>
<path class="st0" d="M276.3,142.4c-1.3,0.5-2.5,0.8-3.6,1.1c-1.2,0.3-2.3,0.5-3.4,0.7c-2.2,0.4-4.3,0.6-6.4,0.8
	c-4.1,0.2-8-0.1-11.8-0.7c-3.8-0.6-7.6-1.6-11.4-3.1c-1-0.4-1.9-0.8-2.9-1.3c-1-0.4-1.9-0.9-2.9-1.5c-2-1.1-4-2.3-6.1-4.1
	c1-0.9,2-1.7,3.1-2.3c1-0.7,2.1-1.2,3.2-1.7c2.2-1,4.3-1.7,6.5-2.1c4.4-0.9,8.8-0.9,13.1-0.2c4.3,0.7,8.5,2.1,12.4,4.4
	c1.9,1.1,3.8,2.5,5.5,4.1c0.9,0.8,1.7,1.7,2.5,2.6C274.9,140.1,275.7,141.2,276.3,142.4z"/>
<path class="st0" d="M107,176.2c-0.8,1.1-1.7,2-2.5,2.9c-0.8,0.9-1.6,1.7-2.5,2.4c-1.7,1.5-3.3,2.9-5,4c-3.3,2.4-6.8,4.2-10.3,5.8
	c-3.6,1.5-7.3,2.7-11.3,3.5c-1,0.2-2.1,0.3-3.1,0.5c-1,0.2-2.1,0.2-3.3,0.3c-2.3,0.1-4.6,0.2-7.3-0.2c0.4-1.3,0.8-2.5,1.4-3.6
	c0.5-1.1,1.1-2.2,1.8-3.2c1.3-2,2.8-3.8,4.4-5.3c3.2-3.2,7-5.5,11-7.2c4-1.7,8.3-2.7,12.8-2.9c2.2-0.1,4.5,0.1,6.9,0.5
	c1.2,0.2,2.3,0.5,3.5,0.9C104.6,175,105.8,175.5,107,176.2z"/>
<path class="st0" d="M104.3,140.6c-0.4,1-0.8,2-1.2,2.8c-0.4,0.8-0.8,1.6-1.2,2.3c-0.8,1.4-1.7,2.6-2.6,3.7
	c-1.8,2.1-3.7,3.6-5.9,4.8c-2.1,1.1-4.5,1.9-7.2,2.2c-1.4,0.2-2.8,0.2-4.5,0.1c-1.7-0.1-3.4-0.3-5.6-0.9c0-1.1,0-2.1,0.2-3.1
	c0.1-1,0.4-1.8,0.6-2.7c0.5-1.6,1.2-3.1,2.1-4.4c1.7-2.6,4-4.6,6.6-5.9c2.6-1.4,5.5-2.1,8.6-2.1c1.6,0,3.2,0.2,4.9,0.7
	c0.8,0.3,1.7,0.5,2.6,1C102.5,139.4,103.4,139.9,104.3,140.6z"/>
<path class="st8" d="M234.7,142.7c-1.1,0.4-2,0.6-2.9,0.8c-0.9,0.2-1.7,0.4-2.5,0.5c-1.6,0.2-3.1,0.4-4.5,0.3
	c-2.8,0-5.2-0.6-7.4-1.5c-2.2-0.9-4.3-2.3-6.3-4.2c-1-1-2-2.1-2.9-3.4c-1-1.4-1.9-2.8-2.9-4.9c0.8-0.7,1.7-1.3,2.5-1.8
	c0.8-0.5,1.6-0.9,2.4-1.2c1.6-0.6,3.2-1,4.8-1.2c3.1-0.3,6.1,0.2,8.8,1.3c2.7,1.1,5.1,2.9,7.1,5.3c1,1.2,1.8,2.6,2.5,4.2
	c0.3,0.8,0.7,1.6,0.9,2.6C234.5,140.5,234.7,141.6,234.7,142.7z"/>
<path class="st5" d="M127.3,112.3c0.7,0.9,1.3,1.6,1.8,2.4c0.5,0.8,1,1.5,1.4,2.2c0.8,1.4,1.5,2.7,1.9,4c1,2.6,1.3,5,1.3,7.5
	c0,2.4-0.5,4.8-1.6,7.4c-0.5,1.3-1.2,2.6-2.1,4c-0.9,1.4-1.9,2.8-3.5,4.4c-1-0.5-1.8-1.1-2.6-1.7c-0.8-0.6-1.4-1.2-2-1.8
	c-1.2-1.3-2.1-2.6-2.8-4c-1.4-2.8-2-5.7-2-8.6c0.1-2.9,0.8-5.8,2.3-8.5c0.8-1.4,1.8-2.7,3-3.9c0.6-0.6,1.3-1.2,2.1-1.8
	C125.4,113.3,126.2,112.7,127.3,112.3z"/>
<path class="st0" d="M143.3,197.7c-0.1,1.1-0.3,2.1-0.5,3c-0.2,0.9-0.4,1.7-0.6,2.5c-0.5,1.6-1,2.9-1.6,4.2
	c-1.2,2.5-2.7,4.4-4.5,6.1c-1.8,1.6-3.9,2.9-6.4,3.9c-1.3,0.5-2.7,0.9-4.3,1.2c-1.6,0.3-3.3,0.6-5.6,0.5c-0.3-1.1-0.5-2.1-0.6-3
	c-0.1-1-0.1-1.9-0.1-2.7c0.1-1.7,0.4-3.4,1-4.8c1-3,2.8-5.4,4.9-7.4c2.2-2,4.8-3.4,7.8-4.2c1.5-0.4,3.1-0.6,4.9-0.5
	c0.9,0,1.8,0.1,2.7,0.3C141.3,196.9,142.2,197.2,143.3,197.7z"/>
<path class="st8" d="M203.6,172.1c-2.3,0.9-4.2,1.3-6,1.4c-1.8,0.1-3.5,0-5.2-0.3c-1.7-0.3-3.3-0.8-4.9-1.6
	c-1.6-0.8-3.3-1.7-5.1-3.5c1.8-1.7,3.7-2.5,5.7-3c2-0.5,3.9-0.4,5.8-0.1c1.9,0.3,3.7,1,5.4,2.1C200.9,168.4,202.5,169.8,203.6,172.1
	z"/>
<path class="st0" d="M228.6,189c-2.7,1.1-4.9,1.5-7.1,1.7c-2.1,0.2-4.1,0-6.1-0.3c-1.9-0.3-3.8-0.9-5.8-1.8c-1.9-0.9-3.9-2-6-4
	c2.1-2,4.4-2.9,6.7-3.5c2.3-0.5,4.6-0.5,6.8-0.1c2.2,0.4,4.4,1.2,6.3,2.5C225.5,184.7,227.4,186.3,228.6,189z"/>
<path class="st5" d="M193.3,133.7c-1.6-1.9-2.6-3.5-3.3-5.2c-0.7-1.7-1.2-3.3-1.5-4.9c-0.3-1.7-0.3-3.3-0.2-5.1
	c0.2-1.8,0.5-3.7,1.6-6c2.2,1.1,3.6,2.7,4.7,4.4c1.1,1.7,1.7,3.5,2,5.4c0.3,1.9,0.2,3.9-0.2,5.8C195.9,130,195.1,132,193.3,133.7z"
	/>
<path class="st0" d="M240.5,119.3c-1.8,1.7-3.5,2.6-5.1,3.4c-1.6,0.8-3.3,1.2-4.9,1.5c-1.7,0.3-3.3,0.4-5.1,0.2
	c-1.8-0.2-3.7-0.5-6-1.5c1.1-2.2,2.6-3.7,4.3-4.8c1.7-1.1,3.5-1.8,5.4-2.1c1.9-0.3,3.9-0.3,5.8,0.2
	C236.8,116.7,238.8,117.5,240.5,119.3z"/>
<path class="st5" d="M236.7,156.4c-1.9,5.1-4.1,8.6-6.5,11.9c-2.4,3.2-5,5.7-7.8,8c-2.8,2.3-5.9,4.2-9.3,5.7
	c-3.6,1.5-7.3,2.8-12.4,3.2c0-5.5,1.6-9.8,3.8-13.7c2.1-3.8,5-7,8.2-9.6c3.2-2.6,6.9-4.5,10.9-5.6
	C227.5,155.3,231.9,154.8,236.7,156.4z"/>
<path class="st5" d="M89.6,170.9c-2.5,0.2-4.3,0-6.1-0.2c-1.7-0.3-3.3-0.7-4.7-1.2c-1.4-0.6-2.8-1.2-4-2.1c-1.2-0.9-2.5-1.9-3.5-3.5
	c2.3-0.9,4.4-1.1,6.4-1c2,0.1,3.8,0.5,5.4,1.1c1.6,0.6,3.1,1.5,4.3,2.6C88.5,167.7,89.5,169.1,89.6,170.9z"/>
<path class="st0" d="M133.5,184.8c-1.6,1.9-3.1,3-4.7,4c-1.5,1-3.1,1.6-4.7,2.1c-1.6,0.5-3.3,0.8-5.1,0.9c-1.8,0-3.7,0-6.1-0.8
	c0.8-2.4,2.2-4,3.7-5.3c1.5-1.3,3.3-2.2,5.1-2.7c1.8-0.6,3.8-0.8,5.8-0.6C129.5,182.7,131.5,183.2,133.5,184.8z"/>
<path class="st5" d="M179.5,161.3c-2.1-1.4-3.4-2.7-4.5-4.2c-1.1-1.4-2-2.9-2.7-4.4c-0.7-1.5-1.2-3.2-1.5-4.9
	c-0.2-1.8-0.4-3.7,0-6.2c2.4,0.5,4.2,1.7,5.7,3c1.5,1.4,2.6,3,3.3,4.8c0.8,1.8,1.2,3.7,1.2,5.7C181,157.1,180.8,159.2,179.5,161.3z"
	/>
<path class="st0" d="M125.5,176.4c-1.1-0.1-2.1-0.2-3-0.3c-0.9-0.1-1.7-0.3-2.5-0.5c-1.6-0.4-3-0.8-4.3-1.4
	c-2.5-1.1-4.6-2.5-6.3-4.2c-1.7-1.7-3.2-3.7-4.3-6.2c-0.6-1.3-1-2.7-1.5-4.2c-0.4-1.6-0.8-3.3-0.8-5.6c1-0.4,2-0.6,3-0.7
	c0.9-0.2,1.9-0.2,2.7-0.2c1.7,0,3.4,0.2,4.9,0.7c3,0.9,5.6,2.4,7.6,4.5c2.1,2,3.7,4.6,4.6,7.5c0.5,1.5,0.7,3.1,0.8,4.8
	c0,0.9,0,1.8-0.1,2.7C126.1,174.3,125.9,175.3,125.5,176.4z"/>
<path class="st0" d="M102.3,139.5c-1.4-1.1-2.6-2.1-3.7-3.2c-1.1-1-2.1-2.1-3-3.1c-1.9-2-3.4-4-4.7-6c-2.7-4-4.4-8-5.7-12.1
	c-0.3-1-0.6-2.1-0.8-3.1c-0.3-1.1-0.4-2.1-0.6-3.2c-0.4-2.2-0.5-4.5-0.5-6.8c0-1.2,0.1-2.4,0.2-3.7c0.1-1.3,0.2-2.6,0.5-3.9
	c0.5-2.7,1-5.6,2.2-9c1.8,0.4,3.3,0.9,4.7,1.6c0.7,0.3,1.4,0.7,2.1,1c0.7,0.3,1.3,0.7,1.9,1.1c2.5,1.6,4.6,3.4,6.4,5.4
	c3.7,4,6.2,8.6,7.6,13.6c1.5,4.9,1.9,10.2,1.1,15.5c-0.4,2.7-1.2,5.4-2.4,8c-0.6,1.3-1.3,2.7-2.2,4
	C104.6,136.9,103.6,138.2,102.3,139.5z"/>
<path class="st0" d="M142.2,163.7c-0.8-1.6-1.5-3-2-4.5c-0.6-1.4-1-2.7-1.4-4c-0.8-2.6-1.4-5.1-1.7-7.4c-0.7-4.7-0.7-9.1-0.1-13.4
	c0.2-1.1,0.3-2.1,0.6-3.2c0.2-1.1,0.5-2.1,0.8-3.2c0.6-2.1,1.4-4.2,2.4-6.4c0.5-1.1,1.1-2.2,1.7-3.3c0.6-1.1,1.3-2.2,2.1-3.4
	c1.6-2.3,3.2-4.6,5.8-7.2c1.4,1.1,2.6,2.2,3.6,3.4c0.5,0.6,1,1.2,1.5,1.8c0.5,0.6,0.8,1.2,1.3,1.8c1.6,2.5,2.8,5,3.6,7.6
	c1.7,5.2,1.9,10.4,1.2,15.5c-0.7,5.1-2.5,10.1-5.6,14.5c-1.5,2.2-3.3,4.4-5.5,6.3c-1.1,1-2.3,1.9-3.7,2.7
	C145.4,162.3,143.9,163.1,142.2,163.7z"/>
<g>
	<path class="st4" d="M187.4,309.6c-1.7,1.1-3.8,1.9-6.3,2.5s-5.1,0.9-8,0.9c-7.7,0-13.5-1.9-17.6-5.6c-4.1-3.8-6.2-9.3-6.2-16.8
		v-19.7h-8.6v-15.4h8.6v-15.3h20.6v15.3h13.4v15.4h-13.4v19.5c0,2.1,0.6,3.7,1.7,4.9c1.1,1.2,2.6,1.8,4.5,1.8c2.4,0,4.5-0.6,6.3-1.8
		L187.4,309.6z"/>
	<path class="st4" d="M223.1,254.3c3.4-1.3,7.2-2,11.5-2v18.5c-1.9-0.2-3.4-0.3-4.7-0.3c-4.4,0-7.8,1.2-10.3,3.6
		c-2.5,2.4-3.7,6-3.7,10.9v27h-20.6v-58.7h19.6v7C217,257.7,219.7,255.6,223.1,254.3z"/>
	<path class="st4" d="M302.2,287.8h-42.7c0.9,3,2.5,5.4,5,7c2.5,1.6,5.6,2.4,9.4,2.4c2.8,0,5.3-0.4,7.3-1.2c2.1-0.8,4.1-2.1,6.2-3.9
		l10.8,11.3c-5.7,6.4-14,9.5-25,9.5c-6.9,0-12.9-1.3-18.1-3.9c-5.2-2.6-9.2-6.2-12.1-10.8c-2.9-4.6-4.3-9.9-4.3-15.7
		c0-5.8,1.4-11,4.2-15.5c2.8-4.6,6.6-8.2,11.5-10.8c4.9-2.6,10.4-3.9,16.6-3.9c5.8,0,11.2,1.2,15.9,3.6c4.8,2.4,8.5,5.9,11.3,10.5
		c2.8,4.6,4.2,10,4.2,16.3C302.5,282.9,302.4,284.6,302.2,287.8z M263.3,269.6c-2.1,1.8-3.5,4.3-4.1,7.4h24
		c-0.6-3.1-1.9-5.6-4.1-7.4c-2.1-1.8-4.8-2.7-8-2.7C268.1,266.9,265.4,267.8,263.3,269.6z"/>
	<path class="st4" d="M371.7,287.8H329c0.9,3,2.5,5.4,5,7c2.5,1.6,5.6,2.4,9.4,2.4c2.8,0,5.3-0.4,7.3-1.2c2.1-0.8,4.1-2.1,6.2-3.9
		l10.8,11.3c-5.7,6.4-14,9.5-25,9.5c-6.9,0-12.9-1.3-18.1-3.9c-5.2-2.6-9.2-6.2-12.1-10.8c-2.9-4.6-4.3-9.9-4.3-15.7
		c0-5.8,1.4-11,4.2-15.5c2.8-4.6,6.6-8.2,11.5-10.8c4.9-2.6,10.4-3.9,16.6-3.9c5.8,0,11.2,1.2,15.9,3.6c4.8,2.4,8.5,5.9,11.3,10.5
		c2.8,4.6,4.2,10,4.2,16.3C372,282.9,371.9,284.6,371.7,287.8z M332.8,269.6c-2.1,1.8-3.5,4.3-4.1,7.4h24c-0.6-3.1-1.9-5.6-4.1-7.4
		c-2.1-1.8-4.8-2.7-8-2.7C337.6,266.9,334.9,267.8,332.8,269.6z"/>
</g>
</svg>
