<?xml version="1.0" encoding="utf-8"?>
<!-- Generator: Adobe Illustrator 16.0.0, SVG Export Plug-In . SVG Version: 6.00 Build 0)  -->
<!DOCTYPE svg PUBLIC "-//W3C//DTD SVG 1.1//EN" "http://www.w3.org/Graphics/SVG/1.1/DTD/svg11.dtd">
<svg version="1.1" id="Ebene_1" xmlns="http://www.w3.org/2000/svg" xmlns:xlink="http://www.w3.org/1999/xlink" x="0px" y="0px"
	 width="1080px" height="1080px" viewBox="0 0 1080 1080" enable-background="new 0 0 1080 1080" xml:space="preserve">
<g display="none">
	<path display="inline" fill="#7AAD97" d="M414.281,785.109V744.82h13.078c4.641,0,8.648,0.844,11.602,2.532
		c2.953,1.687,5.273,4.007,6.75,6.96s2.32,6.539,2.32,10.758c0,4.008-0.844,7.595-2.32,10.759c-1.477,2.952-3.797,5.273-6.75,6.96
		c-2.953,1.688-6.961,2.532-11.602,2.532h-13.078V785.109z M420.399,779.836h6.75c3.586,0,6.539-0.632,8.648-1.687
		c2.109-1.266,3.586-2.953,4.641-5.063c0.844-2.32,1.477-4.852,1.477-8.016s-0.422-5.695-1.477-8.016
		c-0.844-2.32-2.531-4.008-4.641-5.273s-5.063-1.898-8.648-1.898h-6.75V779.836z"/>
	<path display="inline" fill="#7AAD97" d="M458.156,785.109V744.82h6.117v40.289H458.156z"/>
	<path display="inline" fill="#7AAD97" d="M476.086,785.109V744.82h25.523v4.852h-19.617v12.445h17.719v4.852h-17.719v13.078h19.617
		v4.852h-25.523V785.109z"/>
</g>
<path fill="#7AAD97" d="M595.766,785.109l14.766-40.289h6.75l14.766,40.289h-6.539l-3.375-9.914H605.68l-3.375,9.914H595.766z
	 M607.367,770.344h13.078l-6.539-18.352L607.367,770.344z"/>
<path fill="#7AAD97" d="M641.117,785.109V744.82h14.133c3.164,0,5.695,0.633,7.805,1.688s3.586,2.531,4.641,4.219
	c1.055,1.898,1.477,3.797,1.477,6.117c0,2.109-0.422,4.219-1.477,6.117s-2.531,3.375-4.641,4.43s-4.641,1.688-8.016,1.688h-8.016
	v16.242h-5.906V785.109z M647.235,763.804h7.805c2.953,0,4.852-0.632,6.117-1.898c1.266-1.266,1.898-2.952,1.898-5.062
	c0-2.321-0.633-4.008-1.898-5.273c-1.266-1.267-3.375-1.898-6.117-1.898h-7.805V763.804z"/>
<path fill="#7AAD97" d="M678.664,785.109V744.82h14.133c3.164,0,5.695,0.633,7.805,1.688s3.586,2.531,4.641,4.219
	c1.055,1.898,1.477,3.797,1.477,6.117c0,2.109-0.422,4.219-1.477,6.117s-2.531,3.375-4.641,4.43s-4.641,1.688-8.016,1.688h-8.016
	v16.242h-5.906V785.109z M684.781,763.804h7.805c2.953,0,4.852-0.632,6.117-1.898c1.266-1.266,1.898-2.952,1.898-5.062
	c0-2.321-0.633-4.008-1.898-5.273c-1.266-1.267-3.375-1.898-6.117-1.898h-7.805V763.804z"/>
<g>
	<path fill="#7AAD97" d="M732.664,785.109v-4.641l19.195-30.375h-18.984v-5.273h26.156v4.642l-19.195,30.374h19.406v5.273H732.664z"
		/>
	<path fill="#7AAD97" d="M784.344,785.742c-2.953,0-5.484-0.633-7.805-1.688s-4.219-2.952-5.484-5.273
		c-1.267-2.32-2.109-5.273-2.109-8.859V744.82h6.116v25.313c0,3.587,0.844,6.117,2.532,7.806c1.688,1.688,4.008,2.531,6.75,2.531
		s5.063-0.844,6.75-2.531s2.531-4.219,2.531-7.806V744.82h6.117v25.102c0,3.586-0.633,6.539-2.109,8.859
		c-1.477,2.321-3.375,4.008-5.695,5.273C789.828,785.109,787.297,785.742,784.344,785.742z"/>
	<path fill="#7AAD97" d="M811.344,785.109V744.82h7.172l13.711,26.79l13.499-26.79h7.173v40.289h-6.118v-29.742l-12.233,24.047
		h-4.642l-12.444-24.047v29.742H811.344z"/>
</g>
<g>
	<path fill="#7AAD97" d="M450.219,848.601v-40.289h6.117v17.297h19.617v-17.297h6.117v40.289h-6.117v-17.93h-19.617v17.93H450.219z"
		/>
	<path fill="#7AAD97" d="M493.672,848.601v-40.289h6.117v40.289H493.672z"/>
	<path fill="#7AAD97" d="M511.391,848.601v-40.289h6.117l20.25,30.375v-30.375h6.117v40.289h-6.117l-20.25-30.375v30.375H511.391z"
		/>
	<path fill="#7AAD97" d="M555.477,848.601v-40.289h14.133c3.164,0,5.695,0.633,7.805,1.688s3.586,2.531,4.641,4.219
		c1.055,1.898,1.477,3.797,1.477,6.117c0,2.109-0.422,4.219-1.477,6.117s-2.531,3.375-4.641,4.43s-4.641,1.688-8.016,1.688h-8.016
		v16.242h-5.906V848.601z M561.594,827.297h7.805c2.953,0,4.852-0.633,6.117-1.898s1.897-2.953,1.897-5.063
		c0-2.32-0.632-4.008-1.897-5.273c-1.267-1.266-3.376-1.898-6.117-1.898h-7.805V827.297z"/>
	<path fill="#7AAD97" d="M593.024,848.601v-40.289h25.313v4.852h-19.195v12.656h15.82v4.852h-15.82v17.719h-6.117V848.601z"/>
	<path fill="#7AAD97" d="M627.617,848.601v-40.289h6.117v35.438h18.352v4.852H627.617L627.617,848.601z"/>
	<path fill="#7AAD97" d="M659.469,848.601l14.766-40.289h6.75l14.766,40.289h-6.539l-3.375-9.914h-16.453l-3.375,9.914H659.469z
		 M671.071,833.836h13.078l-6.539-18.352L671.071,833.836z"/>
	<path fill="#7AAD97" d="M704.821,848.601v-40.289h6.117l20.25,30.375v-30.375h6.117v40.289h-6.117l-20.25-30.375v30.375H704.821z"
		/>
	<path fill="#7AAD97" d="M747.43,848.601v-4.641l19.195-30.375h-18.984v-5.273h26.156v4.641l-19.196,30.375h19.407v5.273H747.43z"/>
	<path fill="#7AAD97" d="M784.133,848.601v-40.289h25.523v4.852h-19.617v12.445h17.719v4.852h-17.719v13.078h19.617v4.852h-25.523
		V848.601z"/>
	<path fill="#7AAD97" d="M820.414,848.601v-40.289h6.117l20.25,30.375v-30.375h6.117v40.289h-6.117l-20.25-30.375v30.375H820.414z"
		/>
</g>
<g>
	<g>
		<path fill="#31655D" d="M423.985,503.719c-4.852-2.531-8.859-6.328-11.602-10.969c-2.742-4.64-4.219-9.913-4.219-15.82
			c0-5.906,1.477-11.18,4.219-15.82c2.742-4.64,6.539-8.226,11.391-10.968c4.852-2.532,10.547-4.009,16.664-4.009
			c5.906,0,11.18,1.266,15.609,3.587c4.43,2.32,7.805,5.906,10.125,10.335l-10.758,6.328c-1.688-2.742-3.798-4.852-6.54-6.328
			c-2.531-1.476-5.484-2.109-8.438-2.109c-5.273,0-9.492,1.688-13.078,5.063c-3.375,3.375-5.062,8.016-5.062,13.711
			s1.688,10.125,5.062,13.711c3.376,3.375,7.805,5.063,13.078,5.063c3.164,0,5.906-0.633,8.438-2.109s4.641-3.375,6.54-6.328
			l10.758,6.328c-2.32,4.43-5.695,8.016-10.125,10.336c-4.431,2.531-9.492,3.586-15.398,3.586
			C434.531,507.726,429.047,506.461,423.985,503.719z"/>
		<path fill="#31655D" d="M492.539,503.719c-4.852-2.531-8.648-6.328-11.391-10.969c-2.742-4.64-4.008-9.913-4.008-15.82
			c0-5.906,1.266-11.18,4.008-15.82c2.742-4.64,6.539-8.226,11.391-10.968c4.852-2.532,10.336-4.009,16.453-4.009
			s11.602,1.266,16.453,4.009c4.852,2.53,8.648,6.328,11.391,10.968c2.742,4.641,4.008,9.914,4.008,15.82
			c0,5.907-1.266,11.181-4.008,15.82c-2.742,4.641-6.539,8.227-11.391,10.969c-4.852,2.531-10.336,4.008-16.453,4.008
			S497.391,506.461,492.539,503.719z M521.649,490.429c3.375-3.375,5.063-8.016,5.063-13.5c0-5.483-1.688-10.125-5.063-13.499
			c-3.375-3.376-7.594-5.063-12.867-5.063c-5.063,0-9.492,1.688-12.656,5.063c-3.375,3.375-5.063,8.016-5.063,13.499
			c0,5.484,1.688,10.126,5.063,13.5c3.375,3.375,7.594,5.063,12.656,5.063C514.055,495.703,518.274,494.015,521.649,490.429z"/>
		<path fill="#31655D" d="M616.781,446.976v59.906h-13.289v-7.594c-2.32,2.742-5.063,4.852-8.438,6.117
			c-3.375,1.477-6.961,2.109-10.969,2.109c-8.016,0-14.344-2.32-18.984-6.75c-4.642-4.43-6.961-10.969-6.961-19.828v-34.172h13.922
			v32.273c0,5.484,1.266,9.492,3.586,12.023c2.531,2.742,5.906,4.008,10.336,4.008c5.063,0,9.07-1.477,12.023-4.641
			s4.43-7.594,4.43-13.5v-30.375h14.344V446.976z"/>
		<path fill="#31655D" d="M650.321,503.719c-4.852-2.531-8.86-6.328-11.602-10.969c-2.742-4.64-4.219-9.913-4.219-15.82
			c0-5.906,1.477-11.18,4.219-15.82c2.741-4.64,6.539-8.226,11.39-10.968c4.852-2.532,10.547-4.009,16.664-4.009
			c5.906,0,11.18,1.266,15.609,3.587c4.43,2.32,7.805,5.906,10.125,10.335l-10.758,6.328c-1.688-2.742-3.797-4.852-6.539-6.328
			c-2.531-1.476-5.484-2.109-8.438-2.109c-5.273,0-9.492,1.688-13.078,5.063c-3.375,3.375-5.063,8.016-5.063,13.711
			s1.688,10.125,5.063,13.711c3.375,3.375,7.805,5.063,13.078,5.063c3.164,0,5.906-0.633,8.438-2.109s4.641-3.375,6.539-6.328
			l10.758,6.328c-2.32,4.43-5.695,8.016-10.125,10.336c-4.43,2.531-9.492,3.586-15.398,3.586
			C660.867,507.726,655.383,506.461,650.321,503.719z"/>
		<path fill="#31655D" d="M760.852,452.883c4.641,4.43,6.75,10.969,6.75,19.617v34.383H753.68v-32.483
			c0-5.273-1.266-9.071-3.797-11.813s-5.906-4.007-10.547-4.007c-5.063,0-9.281,1.476-12.234,4.64s-4.43,7.595-4.43,13.5v30.375
			H708.75v-83.109h13.922v30.375c2.32-2.531,5.273-4.43,8.648-5.695s7.172-1.898,11.391-1.898
			C750.305,446.344,756.211,448.453,760.852,452.883z"/>
	</g>
	<path fill="#31655D" d="M335.391,507.304h-20.25c0-50.625-13.5-87.961-40.289-110.953c-39.023-33.539-94.078-25.734-94.711-25.734
		l-3.164-20.039c2.531-0.422,64.547-9.492,110.953,30.164C319.36,407.742,335.391,450.351,335.391,507.304z"/>
	<path fill="#31655D" d="M357.961,507.304h-20.25c0-230.766,126.352-267.891,131.625-269.367l5.273,19.617
		C469.969,258.82,357.961,292.992,357.961,507.304z"/>
	<path fill="#31655D" d="M346.781,507.304h-20.25c0-135.633-38.391-204.188-113.906-204.188v-20.461
		C301.43,282.656,346.781,358.172,346.781,507.304z"/>
	<path fill="#31655D" d="M357.75,487.476H337.5c0-54,29.32-111.797,111.797-111.797v20.25
		C364.289,395.929,357.75,465.961,357.75,487.476z"/>
	<path fill="#80A86F" d="M515.11,174.234c-0.633,2.953-1.266,5.273-1.898,7.805s-1.477,4.641-2.32,6.961
		c-1.688,4.43-3.586,8.438-5.484,12.445c-4.008,7.594-8.859,14.344-13.922,20.672c-5.273,6.328-11.18,12.023-17.93,17.297
		c-1.688,1.266-3.586,2.531-5.484,3.797s-3.798,2.531-5.907,3.586c-4.219,2.32-8.438,4.641-13.922,6.539
		c-0.633-2.742-0.844-5.484-0.844-8.016s0-5.273,0.422-7.594c0.633-4.852,1.688-9.703,3.164-14.133
		c3.164-9.07,8.016-17.086,13.923-24.047c5.906-6.961,13.077-13.078,21.305-17.508c4.219-2.32,8.648-4.219,13.5-5.484
		c2.53-0.633,4.852-1.266,7.594-1.688C509.414,174.445,512.156,174.234,515.11,174.234z"/>
	<path fill="#628C53" d="M440.227,189.633c1.688,1.688,3.164,2.953,4.43,4.43s2.531,2.742,3.586,4.219
		c2.109,2.742,3.797,5.273,5.063,8.016c2.742,5.063,4.219,10.125,4.852,15.188s0.211,10.336-1.266,15.82
		c-0.844,2.742-1.898,5.695-3.375,8.859s-3.164,6.328-6.117,10.336c-2.109-0.844-4.219-1.688-5.906-2.742s-3.375-2.109-4.641-3.375
		c-2.742-2.32-5.273-4.852-6.961-7.594c-3.797-5.484-5.906-11.391-6.539-17.508s0-12.445,2.531-18.563
		c1.266-2.953,2.952-6.117,5.062-9.07c1.267-1.477,2.321-2.953,3.797-4.219C436.641,192.164,438.328,190.687,440.227,189.633z"/>
	<path fill="#628C53" d="M219.164,294.679c-2.742,0.633-5.484,1.055-8.016,1.477s-4.852,0.633-7.383,0.633
		c-4.641,0.211-9.281,0.211-13.5,0c-8.648-0.422-16.664-2.109-24.68-4.219c-7.805-2.32-15.609-5.273-23.203-9.281
		c-1.898-1.055-3.797-2.109-5.695-3.375c-1.898-1.055-3.797-2.531-5.695-3.797c-3.797-2.953-7.805-5.695-11.813-9.914
		c2.32-1.688,4.641-2.953,6.961-4.008s4.641-2.109,7.172-2.742c4.641-1.477,9.492-2.531,14.133-2.953
		c9.492-0.844,18.773,0.211,27.633,2.742s17.297,6.539,24.891,12.234c3.797,2.742,7.383,6.117,10.547,9.914
		c1.688,1.898,3.164,4.008,4.641,6.117C216.844,289.617,218.11,291.937,219.164,294.679z"/>
	<path fill="#80A86F" d="M582.821,300.375c-2.742,1.055-5.273,1.688-7.595,2.32c-2.531,0.633-4.851,1.055-7.171,1.477
		c-4.642,0.844-9.07,1.266-13.5,1.688c-8.648,0.422-16.875-0.211-24.891-1.477s-16.032-3.375-24.047-6.539
		c-2.109-0.844-4.008-1.688-6.117-2.742c-2.109-0.844-4.008-1.898-6.117-3.164c-4.219-2.32-8.438-4.852-12.867-8.648
		c2.109-1.898,4.219-3.586,6.539-4.852c2.109-1.477,4.43-2.531,6.75-3.586c4.641-2.109,9.07-3.586,13.711-4.43
		c9.281-1.898,18.563-1.898,27.633-0.422s17.93,4.43,26.156,9.281c4.008,2.32,8.016,5.273,11.602,8.648
		c1.898,1.688,3.586,3.586,5.273,5.484C579.867,295.523,581.555,297.844,582.821,300.375z"/>
	<path fill="#80A86F" d="M225.703,371.672c-1.688,2.32-3.586,4.219-5.273,6.117s-3.375,3.586-5.273,5.063
		c-3.586,3.164-6.961,6.117-10.547,8.438c-6.961,5.063-14.344,8.859-21.727,12.234c-7.594,3.164-15.398,5.695-23.836,7.383
		c-2.109,0.422-4.43,0.633-6.539,1.055s-4.43,0.422-6.961,0.633c-4.852,0.211-9.703,0.422-15.398-0.422
		c0.844-2.742,1.688-5.273,2.953-7.594c1.055-2.32,2.32-4.641,3.797-6.75c2.742-4.219,5.906-8.016,9.281-11.18
		c6.75-6.75,14.766-11.602,23.203-15.188s17.508-5.695,27-6.117c4.641-0.211,9.492,0.211,14.555,1.055
		c2.531,0.422,4.852,1.055,7.383,1.898C220.641,369.14,223.172,370.195,225.703,371.672z"/>
	<path fill="#80A86F" d="M220.008,296.578c-0.844,2.109-1.688,4.219-2.531,5.906s-1.688,3.375-2.531,4.852
		c-1.688,2.953-3.586,5.484-5.484,7.805c-3.797,4.43-7.805,7.594-12.445,10.125c-4.43,2.32-9.492,4.008-15.188,4.641
		c-2.953,0.422-5.906,0.422-9.492,0.211s-7.172-0.633-11.813-1.898c0-2.32,0-4.43,0.422-6.539c0.211-2.109,0.844-3.797,1.266-5.695
		c1.055-3.375,2.531-6.539,4.43-9.281c3.586-5.484,8.438-9.703,13.922-12.445c5.484-2.953,11.602-4.43,18.141-4.43
		c3.375,0,6.75,0.422,10.336,1.477c1.688,0.633,3.586,1.055,5.484,2.109C216.211,294.047,218.11,295.101,220.008,296.578z"/>
	<path fill="#628C53" d="M495.071,301.008c-2.32,0.844-4.219,1.266-6.117,1.688s-3.586,0.844-5.273,1.055
		c-3.375,0.422-6.539,0.844-9.492,0.633c-5.906,0-10.969-1.266-15.609-3.164s-9.07-4.852-13.289-8.859
		c-2.109-2.109-4.219-4.43-6.117-7.172c-2.109-2.953-4.008-5.906-6.117-10.336c1.688-1.477,3.586-2.742,5.273-3.797
		s3.375-1.898,5.063-2.531c3.375-1.266,6.75-2.109,10.125-2.531c6.539-0.633,12.867,0.422,18.563,2.742s10.758,6.117,14.977,11.18
		c2.109,2.531,3.797,5.484,5.273,8.859c0.633,1.688,1.477,3.375,1.898,5.484S495.071,298.687,495.071,301.008z"/>
	<path fill="#AFD2A3" d="M268.524,236.883c1.477,1.898,2.742,3.375,3.797,5.063s2.109,3.164,2.953,4.641
		c1.688,2.953,3.164,5.695,4.008,8.438c2.109,5.484,2.742,10.547,2.742,15.82c0,5.063-1.055,10.125-3.375,15.609
		c-1.055,2.742-2.531,5.484-4.43,8.438s-4.008,5.906-7.383,9.281c-2.109-1.055-3.797-2.32-5.484-3.586s-2.953-2.531-4.219-3.797
		c-2.531-2.742-4.43-5.484-5.906-8.438c-2.953-5.906-4.219-12.023-4.219-18.141c0.211-6.117,1.688-12.234,4.852-17.93
		c1.688-2.953,3.797-5.695,6.328-8.227c1.266-1.266,2.742-2.531,4.43-3.797C264.516,238.992,266.203,237.726,268.524,236.883z"/>
	<path fill="#80A86F" d="M302.274,417.023c-0.211,2.32-0.633,4.43-1.055,6.328s-0.844,3.586-1.266,5.273
		c-1.055,3.375-2.109,6.117-3.375,8.859c-2.531,5.273-5.695,9.281-9.492,12.867c-3.797,3.375-8.227,6.117-13.5,8.227
		c-2.742,1.055-5.695,1.898-9.07,2.531s-6.961,1.266-11.813,1.055c-0.633-2.32-1.055-4.43-1.266-6.328
		c-0.211-2.109-0.211-4.008-0.211-5.695c0.211-3.586,0.844-7.172,2.109-10.125c2.109-6.328,5.906-11.391,10.336-15.609
		c4.641-4.219,10.125-7.172,16.453-8.859c3.164-0.844,6.539-1.266,10.336-1.055c1.898,0,3.797,0.211,5.695,0.633
		C298.055,415.336,299.953,415.969,302.274,417.023z"/>
	<path fill="#628C53" d="M429.469,363.023c-4.852,1.898-8.859,2.742-12.656,2.953s-7.383,0-10.969-0.633s-6.961-1.688-10.336-3.375
		s-6.961-3.586-10.758-7.383c3.797-3.586,7.805-5.273,12.023-6.328s8.227-0.844,12.234-0.211s7.805,2.109,11.391,4.43
		C423.774,355.219,427.149,358.172,429.469,363.023z"/>
	<path fill="#80A86F" d="M482.203,398.672c-5.695,2.32-10.336,3.164-14.977,3.586c-4.43,0.422-8.648,0-12.867-0.633
		c-4.008-0.633-8.016-1.898-12.234-3.797c-4.008-1.898-8.227-4.219-12.656-8.438c4.43-4.219,9.281-6.117,14.133-7.383
		c4.852-1.055,9.703-1.055,14.344-0.211s9.281,2.531,13.289,5.273C475.664,389.601,479.672,392.976,482.203,398.672z"/>
	<path fill="#AFD2A3" d="M407.742,282.023c-3.375-4.008-5.484-7.383-6.961-10.969s-2.531-6.961-3.164-10.336
		c-0.633-3.586-0.633-6.961-0.422-10.758c0.422-3.797,1.055-7.805,3.375-12.656c4.641,2.32,7.594,5.695,9.914,9.281
		s3.586,7.383,4.219,11.391s0.422,8.227-0.422,12.234C413.227,274.219,411.539,278.437,407.742,282.023z"/>
	<path fill="#80A86F" d="M507.305,251.648c-3.797,3.586-7.383,5.484-10.758,7.172s-6.961,2.531-10.336,3.164
		c-3.586,0.633-6.961,0.844-10.758,0.422s-7.805-1.055-12.656-3.164c2.32-4.641,5.484-7.805,9.07-10.125s7.383-3.797,11.391-4.43
		s8.227-0.633,12.234,0.422S503.719,247.851,507.305,251.648z"/>
	<path fill="#AFD2A3" d="M499.289,329.906c-4.008,10.758-8.648,18.141-13.711,25.102c-5.063,6.75-10.547,12.023-16.453,16.875
		s-12.445,8.859-19.617,12.023c-7.594,3.164-15.398,5.906-26.156,6.75c0-11.602,3.375-20.672,8.016-28.898
		c4.43-8.016,10.547-14.766,17.297-20.25s14.555-9.492,22.992-11.813C479.883,327.586,489.164,326.531,499.289,329.906z"/>
	<path fill="#AFD2A3" d="M189,360.492c-5.273,0.422-9.07,0-12.867-0.422c-3.586-0.633-6.961-1.477-9.914-2.531
		c-2.953-1.266-5.906-2.531-8.438-4.43s-5.273-4.008-7.383-7.383c4.852-1.898,9.281-2.32,13.5-2.109s8.016,1.055,11.391,2.32
		s6.539,3.164,9.07,5.484C186.68,353.742,188.789,356.695,189,360.492z"/>
	<path fill="#80A86F" d="M281.602,389.812c-3.375,4.008-6.539,6.328-9.914,8.438c-3.164,2.109-6.539,3.375-9.914,4.43
		s-6.961,1.688-10.758,1.898c-3.797,0-7.805,0-12.867-1.688c1.688-5.063,4.641-8.438,7.805-11.18s6.961-4.641,10.758-5.695
		c3.797-1.266,8.016-1.688,12.234-1.266C273.164,385.383,277.383,386.437,281.602,389.812z"/>
	<path fill="#AFD2A3" d="M378.633,340.242c-4.43-2.953-7.172-5.695-9.492-8.859c-2.32-2.953-4.219-6.117-5.695-9.281
		s-2.531-6.75-3.164-10.336c-0.422-3.797-0.844-7.805,0-13.078c5.063,1.055,8.859,3.586,12.023,6.328
		c3.164,2.953,5.484,6.328,6.961,10.125c1.688,3.797,2.531,7.805,2.531,12.023S381.375,335.812,378.633,340.242z"/>
	<path fill="#80A86F" d="M264.727,372.094c-2.32-0.211-4.43-0.422-6.328-0.633s-3.586-0.633-5.273-1.055
		c-3.375-0.844-6.328-1.688-9.07-2.953c-5.273-2.32-9.703-5.273-13.289-8.859s-6.75-7.805-9.07-13.078
		c-1.266-2.742-2.109-5.695-3.164-8.859c-0.844-3.375-1.688-6.961-1.688-11.813c2.109-0.844,4.219-1.266,6.328-1.477
		c1.898-0.422,4.008-0.422,5.695-0.422c3.586,0,7.172,0.422,10.336,1.477c6.328,1.898,11.813,5.063,16.031,9.492
		c4.43,4.219,7.805,9.703,9.703,15.82c1.055,3.164,1.477,6.539,1.688,10.125c0,1.898,0,3.797-0.211,5.695
		C265.992,367.664,265.571,369.773,264.727,372.094z"/>
	<path fill="#80A86F" d="M215.789,294.258c-2.953-2.32-5.484-4.43-7.805-6.75c-2.32-2.109-4.43-4.43-6.328-6.539
		c-4.008-4.219-7.172-8.438-9.914-12.656c-5.695-8.438-9.281-16.875-12.023-25.523c-0.633-2.109-1.266-4.43-1.688-6.539
		c-0.633-2.32-0.844-4.43-1.266-6.75c-0.844-4.641-1.055-9.492-1.055-14.344c0-2.531,0.211-5.063,0.422-7.805
		s0.422-5.484,1.055-8.227c1.055-5.695,2.109-11.813,4.641-18.984c3.797,0.844,6.961,1.898,9.914,3.375
		c1.477,0.633,2.953,1.477,4.43,2.109s2.742,1.477,4.008,2.32c5.273,3.375,9.703,7.172,13.5,11.391
		c7.805,8.438,13.078,18.141,16.031,28.688c3.164,10.336,4.008,21.516,2.32,32.695c-0.844,5.695-2.531,11.391-5.063,16.875
		c-1.266,2.742-2.742,5.695-4.641,8.438C220.641,288.773,218.531,291.515,215.789,294.258z"/>
	<path fill="#80A86F" d="M299.953,345.304c-1.688-3.375-3.164-6.328-4.219-9.492c-1.266-2.953-2.109-5.695-2.953-8.438
		c-1.688-5.484-2.953-10.758-3.586-15.609c-1.477-9.914-1.477-19.195-0.211-28.266c0.422-2.32,0.633-4.43,1.266-6.75
		c0.422-2.32,1.055-4.43,1.688-6.75c1.266-4.43,2.953-8.859,5.063-13.5c1.055-2.32,2.32-4.641,3.586-6.961s2.742-4.641,4.43-7.172
		c3.375-4.852,6.75-9.703,12.234-15.188c2.953,2.32,5.484,4.641,7.594,7.172c1.055,1.266,2.109,2.531,3.164,3.797
		s1.688,2.531,2.742,3.797c3.375,5.273,5.906,10.547,7.594,16.031c3.586,10.969,4.008,21.938,2.531,32.695
		s-5.273,21.305-11.813,30.586c-3.164,4.641-6.961,9.281-11.602,13.289c-2.32,2.109-4.852,4.008-7.805,5.695
		C306.703,342.351,303.539,344.039,299.953,345.304z"/>
	<g>
		<path fill="#31655D" d="M395.297,653.062c-3.586,2.32-8.016,4.008-13.289,5.273s-10.758,1.898-16.875,1.898
			c-16.242,0-28.477-4.008-37.125-11.813c-8.648-8.016-13.078-19.617-13.078-35.438v-41.555h-18.141v-32.484h18.141v-32.273h43.453
			v32.273h28.266v32.484h-28.266v41.133c0,4.43,1.266,7.805,3.586,10.336s5.484,3.797,9.492,3.797c5.063,0,9.492-1.266,13.289-3.797
			L395.297,653.062z"/>
		<path fill="#31655D" d="M470.602,536.414c7.172-2.742,15.188-4.219,24.258-4.219v39.023c-4.008-0.422-7.172-0.633-9.914-0.633
			c-9.281,0-16.453,2.531-21.727,7.594s-7.805,12.656-7.805,22.992v56.953h-43.453v-123.82h41.344v14.766
			C457.735,543.586,463.43,539.156,470.602,536.414z"/>
		<path fill="#31655D" d="M637.453,607.078h-90.07c1.898,6.328,5.273,11.391,10.547,14.766s11.813,5.063,19.828,5.063
			c5.905,0,11.179-0.844,15.397-2.531c4.431-1.688,8.649-4.43,13.079-8.227l22.78,23.836c-12.023,13.5-29.531,20.039-52.734,20.039
			c-14.554,0-27.21-2.742-38.18-8.227c-10.969-5.484-19.406-13.078-25.523-22.781s-9.07-20.883-9.07-33.117
			s2.953-23.203,8.859-32.695c5.906-9.703,13.922-17.297,24.258-22.781s21.938-8.227,35.016-8.227
			c12.234,0,23.625,2.531,33.539,7.594c10.125,5.063,17.93,12.445,23.836,22.148s8.859,21.094,8.859,34.383
			C638.086,596.742,637.875,600.328,637.453,607.078z M555.399,568.687c-4.431,3.797-7.383,9.07-8.649,15.609h50.625
			c-1.266-6.539-4.007-11.813-8.648-15.609c-4.43-3.796-10.124-5.695-16.875-5.695C565.524,562.992,559.828,564.89,555.399,568.687z
			"/>
		<path fill="#31655D" d="M784.055,607.078h-90.07c1.898,6.328,5.273,11.391,10.547,14.766s11.813,5.063,19.828,5.063
			c5.905,0,11.179-0.844,15.397-2.531c4.431-1.688,8.649-4.43,13.079-8.227l22.78,23.836c-12.023,13.5-29.531,20.039-52.734,20.039
			c-14.554,0-27.21-2.742-38.18-8.227c-10.969-5.484-19.406-13.078-25.523-22.781s-9.07-20.883-9.07-33.117
			s2.953-23.203,8.86-32.695c5.905-9.703,13.922-17.297,24.258-22.781s21.938-8.227,35.016-8.227
			c12.234,0,23.625,2.531,33.539,7.594c10.124,5.063,17.93,12.445,23.835,22.148c5.906,9.703,8.86,21.094,8.86,34.383
			C784.688,596.742,784.477,600.328,784.055,607.078z M702,568.687c-4.431,3.797-7.383,9.07-8.649,15.609h50.625
			c-1.266-6.539-4.007-11.813-8.648-15.609c-4.43-3.796-10.124-5.695-16.875-5.695C712.125,562.992,706.43,564.89,702,568.687z"/>
	</g>
</g>
<rect x="410.248" y="743.765" fill="none" width="178.5" height="42.609"/>
<text transform="matrix(1 0 0 1 410.2478 785.2361)"><tspan x="0" y="0" fill="#7AAD97" font-family="'DMSans-Medium'" font-size="57.6" letter-spacing="1">D</tspan><tspan x="41.586" y="0" fill="#7AAD97" font-family="'DMSans-Medium'" font-size="57.6" letter-spacing="3">EI</tspan><tspan x="95.672" y="0" fill="#7AAD97" font-family="'DMSans-Medium'" font-size="57.6" letter-spacing="2">N</tspan><tspan x="138.7" y="0" fill="#7AAD97" font-family="'DMSans-Medium'" font-size="57.6" letter-spacing="3">E</tspan></text>
</svg>
